<svg width="120" height="120" viewBox="0 0 120 120" fill="none" xmlns="http://www.w3.org/2000/svg">
<g clip-path="url(#clip0_2011_76956)">
<path d="M105.172 40.0488C103.523 34.1878 101.692 28.2352 99.2192 22.7405C96.7466 17.3374 93.5414 12.3922 89.1456 8.45431C85.1162 4.88276 80.0794 2.50174 74.951 1.21965C64.7859 -1.34454 53.5217 0.212304 44.2724 5.15752C35.2061 9.91958 28.3378 17.8869 24.5831 27.5026C20.0042 39.3161 17.1653 52.0455 18.081 64.7748C18.1726 66.3317 18.3558 67.9801 18.6305 69.5369C18.9968 72.0095 22.7515 71.5516 22.4768 68.9874C21.1947 57.1739 23.301 45.0856 27.0557 33.913C28.7041 29.0594 30.6272 24.3889 33.6493 20.2679C36.3051 16.5132 39.5103 13.5827 43.3566 11.0185C51.1407 5.89014 61.1227 3.69227 70.3721 5.06594C75.1342 5.79856 79.8046 7.35539 83.7425 10.1027C88.0467 13.0332 91.2519 17.3374 93.633 21.9163C96.1971 26.8615 97.9371 32.173 99.5855 37.4846C100.501 40.5067 101.417 43.5287 102.058 46.6424C102.791 49.8476 103.066 53.0529 103.249 56.3497C103.34 57.9065 103.432 59.5549 103.707 61.1117C103.89 62.2106 104.897 63.1264 106.088 62.9433C107.37 62.7601 107.919 61.7528 107.919 60.5623C107.919 57.1739 107.828 53.7855 107.37 50.4887C107.003 46.734 106.179 43.4371 105.172 40.0488Z" fill="#B77437"/>
<mask id="mask0_2011_76956" style="mask-type:luminance" maskUnits="userSpaceOnUse" x="12" y="39" width="27" height="35">
<path d="M37.0689 57.1829C39.9581 64.3437 36.206 70.6612 30.3399 73.028C24.4736 75.3949 17.5933 72.9402 14.7041 65.7794C10.565 55.5209 11.287 42.7124 17.1533 40.3455C23.0195 37.9789 33.0031 47.1059 37.0689 57.1829Z" fill="white"/>
</mask>
<g mask="url(#mask0_2011_76956)">
<path d="M29.5153 30.8122L0.613892 42.4732L16.9155 82.8761L45.8169 71.2151L29.5153 30.8122Z" fill="#FFB41B"/>
</g>
<mask id="mask1_2011_76956" style="mask-type:luminance" maskUnits="userSpaceOnUse" x="12" y="39" width="27" height="35">
<path d="M37.0689 57.1829C39.9581 64.3437 36.206 70.6612 30.3399 73.028C24.4736 75.3949 17.5933 72.9402 14.7041 65.7794C10.565 55.5209 11.287 42.7124 17.1533 40.3455C23.0195 37.9789 33.0031 47.1059 37.0689 57.1829Z" fill="white"/>
</mask>
<g mask="url(#mask1_2011_76956)">
<path d="M32.6699 49.1188C31.5606 47.1723 30.5209 46.1051 29.8118 45.5395C30.1059 46.894 29.9889 48.4059 29.9821 48.4889L29.9195 49.2588L29.3036 48.7927C28.6671 48.3112 26.8766 47.176 25.9687 46.6061L25.2755 50.9593L20.741 48.5767L19.0168 53.2955L18.6579 53.2207C18.0472 53.0934 16.1845 51.663 15.1854 50.8688C14.9391 51.6409 14.5785 53.2134 14.3024 54.6349L14.2025 55.1498L13.72 54.944C13.0091 54.6411 12.1804 53.5291 11.6449 52.7125C11.3663 54.5984 11.6824 57.1727 11.6865 57.2032L10.8449 57.3089C10.8252 57.1529 10.3718 53.4618 11.0671 51.4732L11.3756 50.5906L11.8364 51.4041C12.2479 52.1307 12.9932 53.2534 13.5981 53.8313C13.8526 52.5861 14.3269 50.4386 14.6634 49.9471L14.923 49.5675L15.2802 49.8571C16.4447 50.8014 17.835 51.84 18.5025 52.2323L20.2776 47.3746L24.6241 49.6586L25.3324 45.2102L25.8744 45.5467C25.976 45.6099 27.9577 46.8409 29.1617 47.6558C29.1627 46.8356 29.0859 45.545 28.6487 44.7578L28.1081 43.7841L29.1593 44.1516C29.2436 44.1812 31.2516 44.9178 33.4065 48.6989L32.6699 49.1188Z" fill="#FF5D7C"/>
</g>
<mask id="mask2_2011_76956" style="mask-type:luminance" maskUnits="userSpaceOnUse" x="12" y="39" width="27" height="35">
<path d="M37.0689 57.1829C39.9581 64.3437 36.206 70.6612 30.3399 73.028C24.4736 75.3949 17.5933 72.9402 14.7041 65.7794C10.565 55.5209 11.287 42.7124 17.1533 40.3455C23.0195 37.9789 33.0031 47.1059 37.0689 57.1829Z" fill="white"/>
</mask>
<g mask="url(#mask2_2011_76956)">
<path d="M35.0895 54.119C34.0161 52.2356 32.9975 51.161 32.3321 50.591C32.1164 50.4061 31.9228 50.2612 31.7576 50.1487C32.193 51.585 32.0485 53.4537 32.0409 53.5464L32.0018 54.0275L31.617 53.7362C30.909 53.2003 28.8183 51.8824 27.9949 51.3669L27.2857 55.8198L22.7043 53.4125L20.9323 58.2622L20.7081 58.2154C20.0768 58.0838 17.9139 56.3913 17.0574 55.706C16.7688 56.4853 16.3218 58.5132 16.0744 59.7873L16.0119 60.1092L15.7102 59.9807C14.913 59.6409 13.9432 58.2189 13.4419 57.4124C13.0292 59.379 13.4037 62.4221 13.4079 62.4559L12.882 62.522C12.8622 62.3646 12.4049 58.6435 13.1001 56.6544L13.293 56.1028L13.581 56.6113C13.9254 57.2197 14.8831 58.7377 15.6278 59.3144C15.8345 58.2892 16.3901 55.6552 16.7433 55.1393L16.9056 54.902L17.1287 55.0829C18.1798 55.9349 19.9114 57.2585 20.6057 57.6116L22.4145 52.6611L26.8785 55.0068L27.597 50.4945L27.9357 50.7048C28.0466 50.7738 30.3656 52.2142 31.5343 53.0243C31.5538 52.227 31.5188 50.6215 30.9951 49.6784L30.6573 49.07L31.3144 49.2995C31.3979 49.3288 33.3862 50.0588 35.5502 53.8559L35.0895 54.119Z" fill="white"/>
</g>
<mask id="mask3_2011_76956" style="mask-type:luminance" maskUnits="userSpaceOnUse" x="12" y="39" width="27" height="35">
<path d="M37.0689 57.1829C39.9581 64.3437 36.206 70.6612 30.3399 73.028C24.4736 75.3949 17.5933 72.9402 14.7041 65.7794C10.565 55.5209 11.287 42.7124 17.1533 40.3455C23.0195 37.9789 33.0031 47.1059 37.0689 57.1829Z" fill="white"/>
</mask>
<g mask="url(#mask3_2011_76956)">
<path d="M27.8189 43.0426C26.9662 41.5464 26.1569 40.6928 25.6282 40.2399C25.4568 40.0933 25.3031 39.9779 25.1718 39.8885C25.5178 41.0296 25.4029 42.5142 25.3969 42.5878L25.3657 42.9701L25.06 42.7387C24.4976 42.313 22.8366 41.2659 22.1826 40.8565L21.6193 44.3943L17.9799 42.4819L16.5722 46.3344L16.3939 46.2973C15.8923 46.1928 14.1742 44.8481 13.4936 44.3037C13.2642 44.9225 12.9093 46.5338 12.7128 47.5461L12.663 47.8016L12.4235 47.6995C11.7902 47.4294 11.0199 46.2999 10.6216 45.659C10.2938 47.2217 10.5912 49.6391 10.5947 49.6658L10.1768 49.7183C10.1611 49.5932 9.79786 46.637 10.3502 45.0569L10.5033 44.6187L10.7322 45.0228C11.006 45.5061 11.7666 46.712 12.3582 47.1702C12.5224 46.3558 12.9638 44.2631 13.2444 43.8534L13.3732 43.6651L13.5505 43.8089C14.3856 44.4856 15.7613 45.5371 16.3127 45.8178L17.7497 41.885L21.296 43.7484L21.8668 40.1636L22.1359 40.3308C22.2241 40.3856 24.0664 41.5299 24.9949 42.1734C25.0102 41.5398 24.9826 40.2644 24.5664 39.5154L24.298 39.032L24.8199 39.2146C24.8864 39.2378 26.4657 39.8176 28.185 42.8342L27.8189 43.0426Z" fill="white"/>
</g>
<mask id="mask4_2011_76956" style="mask-type:luminance" maskUnits="userSpaceOnUse" x="12" y="39" width="27" height="35">
<path d="M37.0689 57.1829C39.9581 64.3437 36.206 70.6612 30.3399 73.028C24.4736 75.3949 17.5933 72.9402 14.7041 65.7794C10.565 55.5209 11.287 42.7124 17.1533 40.3455C23.0195 37.9789 33.0031 47.1059 37.0689 57.1829Z" fill="white"/>
</mask>
<g mask="url(#mask4_2011_76956)">
<path d="M41.995 67.1002C40.7638 64.9398 39.5956 63.7071 38.8323 63.0536C38.5847 62.8415 38.3629 62.6754 38.1733 62.5464C38.6726 64.1939 38.5068 66.3371 38.4983 66.4435L38.4534 66.9954L38.0119 66.6611C37.2 66.0465 34.8021 64.5349 33.8574 63.9437L33.0441 69.0514L27.7895 66.2901L25.7569 71.8526L25.4996 71.799C24.7755 71.6482 22.2948 69.7069 21.3121 68.9208C20.9809 69.8145 20.4684 72.1405 20.1846 73.6021L20.1129 73.9712L19.767 73.8238C18.8526 73.4341 17.7403 71.8033 17.1653 70.878C16.6924 73.1331 17.1213 76.6244 17.1262 76.663L16.523 76.739C16.5004 76.5583 15.9756 72.2901 16.7732 70.0087L16.9945 69.3761L17.3248 69.9594C17.7198 70.6572 18.8183 72.3981 19.6722 73.0597C19.9092 71.8838 20.5466 68.8626 20.9517 68.2708L21.1379 67.9988L21.3939 68.2063C22.5995 69.1835 24.5857 70.7016 25.3819 71.1068L27.4567 65.4287L32.5767 68.1189L33.4009 62.9436L33.7896 63.1848C33.917 63.2638 36.5768 64.9161 37.9171 65.8451C37.9393 64.9306 37.8993 63.0892 37.2986 62.0073L36.911 61.3094L37.6646 61.5729C37.7605 61.6064 40.0407 62.4438 42.523 66.7991L41.995 67.1002Z" fill="white"/>
</g>
<mask id="mask5_2011_76956" style="mask-type:luminance" maskUnits="userSpaceOnUse" x="12" y="39" width="27" height="35">
<path d="M37.0689 57.1829C39.9581 64.3437 36.206 70.6612 30.3399 73.028C24.4736 75.3949 17.5933 72.9402 14.7041 65.7794C10.565 55.5209 11.287 42.7124 17.1533 40.3455C23.0195 37.9789 33.0031 47.1059 37.0689 57.1829Z" fill="white"/>
</mask>
<g mask="url(#mask5_2011_76956)">
<path d="M39.2372 61.999C38.0845 59.9768 36.9934 58.8209 36.2809 58.2076C36.1663 58.1089 36.0575 58.0206 35.9553 57.942C36.3139 59.4653 36.1779 61.2252 36.1702 61.3194L36.1077 62.0893L35.4917 61.6233C34.7704 61.0772 32.7172 59.7775 31.7309 59.1588L30.9611 63.9921L25.9425 61.3551L24.0258 66.6006L23.6669 66.5258C22.988 66.3842 20.875 64.7552 19.7836 63.8857C19.5076 64.7257 19.0951 66.5162 18.7816 68.1307L18.6817 68.6455L18.1991 68.4398C17.3909 68.0953 16.4392 66.7891 15.8523 65.8815C15.5099 67.9914 15.8752 70.9592 15.8797 70.9939L15.0382 71.0999C15.0164 70.9272 14.5147 66.8442 15.2823 64.6488L15.5908 63.7663L16.0514 64.5797C16.5225 65.4112 17.3872 66.7089 18.0748 67.3382C18.3375 66.0507 18.889 63.5165 19.2651 62.9672L19.5248 62.5879L19.8819 62.8773C21.2034 63.9485 22.7821 65.1255 23.5095 65.5425L25.4785 60.1534L30.3095 62.692L31.0943 57.7636L31.6364 58.1001C31.7511 58.1714 34.0273 59.5854 35.3523 60.4865C35.3587 59.5786 35.2832 58.0732 34.778 57.163L34.2374 56.1893L35.2886 56.5568C35.3814 56.5894 37.5925 57.4007 39.9739 61.5793L39.2372 61.999Z" fill="#00DDDE"/>
</g>
<mask id="mask6_2011_76956" style="mask-type:luminance" maskUnits="userSpaceOnUse" x="12" y="40" width="28" height="34">
<path d="M38.0812 55.0786C42.0522 61.7013 39.3314 68.527 33.9061 71.7801C28.4807 75.0332 21.3013 73.6818 17.3303 67.0591C11.6413 57.5714 10.3565 44.8066 15.782 41.5534C21.2074 38.3005 32.493 45.7588 38.0812 55.0786Z" fill="white"/>
</mask>
<g mask="url(#mask6_2011_76956)">
<path opacity="0.37" d="M27.4713 55.2152C29.2538 54.1464 29.2223 50.8173 27.4007 47.7795C25.5792 44.7416 22.6576 43.1455 20.875 44.2143C19.0925 45.2831 19.1241 48.6122 20.9456 51.65C22.7671 54.6879 25.6888 56.2841 27.4713 55.2152Z" fill="white"/>
</g>
<mask id="mask7_2011_76956" style="mask-type:luminance" maskUnits="userSpaceOnUse" x="12" y="39" width="27" height="35">
<path d="M37.0689 57.1829C39.9581 64.3437 36.206 70.6612 30.3399 73.028C24.4736 75.3949 17.5933 72.9402 14.7041 65.7794C10.565 55.5209 11.287 42.7124 17.1533 40.3455C23.0195 37.9789 33.0031 47.1059 37.0689 57.1829Z" fill="white"/>
</mask>
<g mask="url(#mask7_2011_76956)">
<path opacity="0.03" d="M43.3958 53.4346C46.6568 58.6568 42.688 65.7078 36.4638 68.4669C36.0154 68.9941 35.4946 69.4431 34.8994 69.7999C29.9903 72.7432 21.9444 68.347 16.9284 59.9807C12.9185 53.2923 12.0592 46.092 14.384 41.9688C14.3847 37.5046 14.8179 34.314 14.8179 34.314L9.44907 41.1164L8.32561 51.0999L13.249 65.8556L17.0474 75.2698L25.1246 76.7759L39.1925 71.7437L45.8553 67.5101L49.0675 58.8733L43.3958 53.4346Z" fill="#242E36"/>
</g>
<mask id="mask8_2011_76956" style="mask-type:luminance" maskUnits="userSpaceOnUse" x="12" y="39" width="27" height="35">
<path d="M37.0689 57.1829C39.9581 64.3437 36.206 70.6612 30.3399 73.028C24.4736 75.3949 17.5933 72.9402 14.7041 65.7794C10.565 55.5209 11.287 42.7124 17.1533 40.3455C23.0195 37.9789 33.0031 47.1059 37.0689 57.1829Z" fill="white"/>
</mask>
<g mask="url(#mask8_2011_76956)">
<path opacity="0.27" d="M34.4297 49.205C29.4138 40.8387 21.3679 36.4425 16.4588 39.3858C15.4742 39.976 14.6911 40.8173 14.1079 41.8517C11.7833 45.9748 12.6424 53.1752 16.6523 59.8637C21.6685 68.2299 29.7144 72.6261 34.6233 69.6828C35.2183 69.3261 35.7393 68.877 36.1877 68.3499C39.4383 64.5279 38.8377 56.5572 34.4297 49.205Z" fill="white"/>
</g>
<mask id="mask9_2011_76956" style="mask-type:luminance" maskUnits="userSpaceOnUse" x="26" y="33" width="28" height="41">
<path d="M53.4797 60.9047C52.8265 69.7118 45.7849 74.2984 38.5702 73.7633C31.3552 73.2283 25.5355 67.2335 26.1887 58.4264C27.1244 45.8092 34.3363 33.0317 41.5513 33.5668C48.766 34.1021 54.3988 48.5109 53.4797 60.9047Z" fill="white"/>
</mask>
<g mask="url(#mask9_2011_76956)">
<path d="M59.0519 30.0303L23.5057 27.3941L19.8204 77.086L55.3666 79.7222L59.0519 30.0303Z" fill="#FFB41B"/>
</g>
<mask id="mask10_2011_76956" style="mask-type:luminance" maskUnits="userSpaceOnUse" x="26" y="33" width="28" height="41">
<path d="M53.4797 60.9047C52.8265 69.7118 45.7849 74.2984 38.5702 73.7633C31.3552 73.2283 25.5355 67.2335 26.1887 58.4264C27.1244 45.8092 34.3363 33.0317 41.5513 33.5668C48.766 34.1021 54.3988 48.5109 53.4797 60.9047Z" fill="white"/>
</mask>
<g mask="url(#mask10_2011_76956)">
<path d="M53.04 50.4079C52.8853 47.8503 52.3576 46.2299 51.9158 45.2914C51.5332 46.8298 50.6494 48.3219 50.6004 48.4036L50.1472 49.162L49.7507 48.3726C49.3409 47.5569 48.0772 45.4876 47.4336 44.4442L44.523 48.5607L41.074 43.825L36.9209 47.7958L36.5904 47.5377C36.0281 47.0986 34.8395 44.6899 34.2156 43.3701C33.5728 44.038 32.4084 45.4693 31.4069 46.7884L31.0443 47.2662L30.6532 46.8113C30.0768 46.1414 29.7883 44.5817 29.6514 43.4733C28.4128 45.2676 27.4365 48.0687 27.4253 48.102L26.5084 47.7854C26.567 47.6153 27.9665 43.599 29.6846 41.9097L30.447 41.16L30.5089 42.2275C30.564 43.181 30.7616 44.7094 31.0903 45.608C31.9805 44.459 33.552 42.495 34.1456 42.1607L34.6038 41.9024L34.824 42.38C35.5418 43.9372 36.4436 45.7053 36.9304 46.445L41.2059 42.3574L44.5118 46.8969L47.4859 42.6904L47.8721 43.3095C47.9444 43.4257 49.3558 45.6899 50.1795 47.1343C50.5949 46.2932 51.1681 44.9302 51.1173 43.9016L51.0545 42.6294L51.9474 43.5376C52.019 43.6106 53.7072 45.3808 54.008 50.3492L53.04 50.4079Z" fill="#FF5D7C"/>
</g>
<mask id="mask11_2011_76956" style="mask-type:luminance" maskUnits="userSpaceOnUse" x="26" y="33" width="28" height="41">
<path d="M53.4797 60.9047C52.8265 69.7118 45.7849 74.2984 38.5702 73.7633C31.3552 73.2283 25.5355 67.2335 26.1887 58.4264C27.1244 45.8092 34.3363 33.0317 41.5513 33.5668C48.766 34.1021 54.3988 48.5109 53.4797 60.9047Z" fill="white"/>
</mask>
<g mask="url(#mask11_2011_76956)">
<path d="M52.9966 56.7609C52.8468 54.2861 52.3445 52.6689 51.9497 51.7478C51.8217 51.4491 51.6963 51.2026 51.5837 51.0038C51.3048 52.6974 50.2124 54.5419 50.1579 54.6332L49.8746 55.107L49.627 54.6137C49.1713 53.7062 47.6919 51.2976 47.1074 50.3527L44.1301 54.5634L40.6454 49.7789L36.3772 53.8598L36.1708 53.6984C35.5894 53.2444 34.2253 50.4152 33.6927 49.2793C33.0028 49.9331 31.5197 51.788 30.6221 52.9704L30.3953 53.2691L30.1507 52.9848C29.5044 52.2334 29.2277 50.2844 29.1208 49.2035C27.7038 51.013 26.5506 54.3246 26.5378 54.3614L25.9649 54.1636C26.0241 53.992 27.4348 49.9429 29.153 48.2531L29.6296 47.7846L29.6683 48.4518C29.7142 49.2501 29.93 51.2916 30.4027 52.2595C31.1327 51.312 33.0336 48.8901 33.6566 48.5391L33.943 48.3776L34.0806 48.6759C34.7286 50.0812 35.8367 52.3142 36.3707 53.0272L40.7277 48.8614L44.123 53.5236L47.1399 49.2566L47.3812 49.6435C47.4602 49.7703 49.1119 52.4198 49.9018 53.8415C50.3246 53.0333 51.0998 51.3682 51.039 50.136L50.9997 49.341L51.5579 49.9086C51.6288 49.9807 53.3002 51.7342 53.6023 56.7236L52.9966 56.7609Z" fill="white"/>
</g>
<mask id="mask12_2011_76956" style="mask-type:luminance" maskUnits="userSpaceOnUse" x="26" y="33" width="28" height="41">
<path d="M53.4797 60.9047C52.8265 69.7118 45.7849 74.2984 38.5702 73.7633C31.3552 73.2283 25.5355 67.2335 26.1887 58.4264C27.1244 45.8092 34.3363 33.0317 41.5513 33.5668C48.766 34.1021 54.3988 48.5109 53.4797 60.9047Z" fill="white"/>
</mask>
<g mask="url(#mask12_2011_76956)">
<path d="M51.1324 41.7226C51.0133 39.7565 50.6142 38.4718 50.3005 37.74C50.1987 37.503 50.0993 37.3069 50.0097 37.1489C49.7882 38.4945 48.9203 39.9597 48.877 40.0322L48.6519 40.4088L48.4551 40.017C48.093 39.296 46.9178 37.3824 46.4535 36.6319L44.0882 39.9774L41.3201 36.1765L37.9293 39.4183L37.7652 39.2901C37.3033 38.9294 36.2198 36.6818 35.7965 35.7792C35.2484 36.2983 34.0703 37.7723 33.3572 38.7117L33.1771 38.9488L32.9829 38.723C32.4696 38.126 32.2497 36.5778 32.1648 35.719C31.039 37.1568 30.1229 39.7874 30.113 39.8167L29.6577 39.6594C29.7048 39.5231 30.8256 36.3063 32.1906 34.964L32.5691 34.5918L32.5998 35.122C32.6365 35.7563 32.8077 37.3779 33.1833 38.1468C33.7632 37.3942 35.2734 35.4699 35.7683 35.1913L35.9956 35.0632L36.1049 35.3003C36.6198 36.4166 37.5002 38.1905 37.9241 38.7571L41.3855 35.4477L44.0828 39.1513L46.4796 35.7614L46.6713 36.0689C46.7341 36.1697 48.0463 38.2746 48.6739 39.4039C49.0097 38.7616 49.6257 37.439 49.5771 36.4602L49.5458 35.8286L49.9892 36.2796C50.0456 36.337 51.3732 37.7299 51.6134 41.6936L51.1324 41.7226Z" fill="white"/>
</g>
<mask id="mask13_2011_76956" style="mask-type:luminance" maskUnits="userSpaceOnUse" x="26" y="33" width="28" height="41">
<path d="M53.4797 60.9047C52.8265 69.7118 45.7849 74.2984 38.5702 73.7633C31.3552 73.2283 25.5355 67.2335 26.1887 58.4264C27.1244 45.8092 34.3363 33.0317 41.5513 33.5668C48.766 34.1021 54.3988 48.5109 53.4797 60.9047Z" fill="white"/>
</mask>
<g mask="url(#mask13_2011_76956)">
<path d="M53.524 73.5692C53.352 70.7304 52.7761 68.8755 52.3232 67.8193C52.1762 67.4766 52.0326 67.1941 51.9032 66.9659C51.5832 68.9087 50.3303 71.0239 50.2678 71.1289L49.943 71.6725L49.6588 71.1064C49.1362 70.0656 47.4394 67.3031 46.7689 66.2192L43.3539 71.0492L39.3573 65.5613L34.4616 70.2419L34.2246 70.0569C33.5578 69.5363 31.9931 66.2912 31.382 64.9882C30.5907 65.7378 28.8896 67.8655 27.8601 69.2218L27.6 69.5643L27.3195 69.2383C26.5782 68.3766 26.2608 66.1412 26.1382 64.9013C24.5137 66.9763 23.1901 70.7753 23.1756 70.8174L22.5182 70.5906C22.5863 70.3938 24.2042 65.7492 26.1752 63.8112L26.7217 63.274L26.766 64.0393C26.8188 64.9549 27.0664 67.2962 27.6084 68.4064C28.4456 67.3196 30.6259 64.5416 31.3406 64.139L31.669 63.9541L31.8269 64.2963C32.5702 65.9081 33.8413 68.4692 34.4535 69.2872L39.4511 64.5092L43.3455 69.8563L46.8057 64.9624L47.0827 65.4063C47.1734 65.5518 49.0678 68.5909 49.9738 70.2212C50.4586 69.2941 51.3479 67.3844 51.278 65.9709L51.233 65.059L51.8731 65.7101C51.9545 65.7929 53.8711 67.8041 54.2178 73.5271L53.524 73.5692Z" fill="white"/>
</g>
<mask id="mask14_2011_76956" style="mask-type:luminance" maskUnits="userSpaceOnUse" x="26" y="33" width="28" height="41">
<path d="M53.4797 60.9047C52.8265 69.7118 45.7849 74.2984 38.5702 73.7633C31.3552 73.2283 25.5355 67.2335 26.1887 58.4264C27.1244 45.8092 34.3363 33.0317 41.5513 33.5668C48.766 34.1021 54.3988 48.5109 53.4797 60.9047Z" fill="white"/>
</mask>
<g mask="url(#mask14_2011_76956)">
<path d="M53.2713 66.9418C53.1103 64.2844 52.5747 62.5472 52.1535 61.558C52.0857 61.3987 52.0187 61.2532 51.9536 61.1209C51.5518 62.8652 50.5232 64.6022 50.4678 64.695L50.0146 65.4534L49.6181 64.664C49.1538 63.7393 47.7037 61.3683 47.0042 60.2353L43.7726 64.8057L39.9554 59.5644L35.3386 63.9784L35.0081 63.7203C34.383 63.232 33.038 60.4931 32.3574 59.0495C31.6498 59.772 30.322 61.4008 29.1847 62.899L28.8221 63.3767L28.4308 62.9219C27.7756 62.16 27.4589 60.339 27.3153 59.1113C25.898 61.1032 24.7734 64.3329 24.7606 64.3707L23.8437 64.0544C23.9085 63.8661 25.4564 59.4233 27.3532 57.5584L28.1156 56.8087L28.1773 57.8761C28.2406 58.9672 28.4722 60.7357 28.8598 61.7288C29.7798 60.5404 31.626 58.2187 32.2894 57.8452L32.7476 57.5871L32.9677 58.0645C33.7825 59.8312 34.8077 61.8366 35.3434 62.6319L40.0864 58.097L43.7608 63.1424L47.0559 58.4821L47.4421 59.1012C47.5238 59.2324 49.145 61.8331 50.0494 63.4272C50.5146 62.4988 51.1977 60.916 51.1391 59.7269L51.0763 58.4547L51.9692 59.3628C52.048 59.4431 53.9069 61.3927 54.2393 66.8833L53.2713 66.9418Z" fill="#00DDDE"/>
</g>
<mask id="mask15_2011_76956" style="mask-type:luminance" maskUnits="userSpaceOnUse" x="28" y="34" width="28" height="41">
<path d="M55.5815 59.2569C56.3102 68.0584 50.07 73.6876 42.8598 74.2845C35.6493 74.8815 28.9656 69.8678 28.2368 61.0662C27.1929 48.457 32.3234 34.7103 39.5339 34.1133C46.7441 33.5166 54.556 46.8709 55.5815 59.2569Z" fill="white"/>
</mask>
<g mask="url(#mask15_2011_76956)">
<path opacity="0.37" d="M44.6259 54.0369C46.9949 53.8407 48.6444 50.4089 48.3101 46.3716C47.9758 42.3343 45.7844 39.2205 43.4154 39.4166C41.0464 39.6128 39.3969 43.0446 39.7312 47.0819C40.0655 51.1191 42.2569 54.233 44.6259 54.0369Z" fill="white"/>
</g>
<mask id="mask16_2011_76956" style="mask-type:luminance" maskUnits="userSpaceOnUse" x="26" y="33" width="28" height="41">
<path d="M53.4797 60.9047C52.8265 69.7118 45.7849 74.2984 38.5702 73.7633C31.3552 73.2283 25.5355 67.2335 26.1887 58.4264C27.1244 45.8092 34.3363 33.0317 41.5513 33.5668C48.766 34.1021 54.3988 48.5109 53.4797 60.9047Z" fill="white"/>
</mask>
<g mask="url(#mask16_2011_76956)">
<path opacity="0.03" d="M61.8653 60.255C62.5729 67.2609 54.9384 72.4906 47.158 72.1772C46.4316 72.4916 45.6704 72.6891 44.8794 72.7545C38.3553 73.2945 32.3206 64.7188 31.4006 53.6003C30.6652 44.7116 33.4211 36.8894 37.8897 33.8333C40.1457 29.253 42.2021 26.1981 42.2021 26.1981L33.2567 30.4655L27.0602 40.1417L24.6572 57.7695L23.7985 69.3481L31.3254 74.9741L48.3024 76.9179L57.2778 75.94L64.9371 68.7009L61.8653 60.255Z" fill="#242E36"/>
</g>
<mask id="mask17_2011_76956" style="mask-type:luminance" maskUnits="userSpaceOnUse" x="26" y="33" width="28" height="41">
<path d="M53.4797 60.9047C52.8265 69.7118 45.7849 74.2984 38.5702 73.7633C31.3552 73.2283 25.5355 67.2335 26.1887 58.4264C27.1244 45.8092 34.3363 33.0317 41.5513 33.5668C48.766 34.1021 54.3988 48.5109 53.4797 60.9047Z" fill="white"/>
</mask>
<g mask="url(#mask17_2011_76956)">
<path opacity="0.27" d="M54.8023 51.3854C53.8823 40.2669 47.8476 31.6912 41.3234 32.2312C40.0151 32.3393 38.7865 32.8069 37.6655 33.5737C33.1973 36.6299 30.4411 44.452 31.1765 53.3407C32.0967 64.4592 38.1314 73.0349 44.6553 72.4949C45.446 72.4295 46.2075 72.232 46.9339 71.9176C52.2002 69.6382 55.6108 61.1563 54.8023 51.3854Z" fill="white"/>
</g>
<mask id="mask18_2011_76956" style="mask-type:luminance" maskUnits="userSpaceOnUse" x="56" y="35" width="31" height="45">
<path d="M86.8139 65.5519C86.0924 75.2793 78.3151 80.3452 70.3464 79.7542C62.3775 79.1632 55.9498 72.5421 56.6712 62.8147C57.7047 48.8791 65.6701 34.7664 73.639 35.3574C81.6076 35.9487 87.8291 51.863 86.8139 65.5519Z" fill="white"/>
</mask>
<g mask="url(#mask18_2011_76956)">
<path d="M92.9683 31.4514L53.7079 28.5397L49.6375 83.4241L88.8979 86.3358L92.9683 31.4514Z" fill="#FFB41B"/>
</g>
<mask id="mask19_2011_76956" style="mask-type:luminance" maskUnits="userSpaceOnUse" x="56" y="35" width="31" height="45">
<path d="M86.8139 65.5519C86.0924 75.2793 78.3151 80.3452 70.3464 79.7542C62.3775 79.1632 55.9498 72.5421 56.6712 62.8147C57.7047 48.8791 65.6701 34.7664 73.639 35.3574C81.6076 35.9487 87.8291 51.863 86.8139 65.5519Z" fill="white"/>
</mask>
<g mask="url(#mask19_2011_76956)">
<path d="M86.3283 53.9583C86.1574 51.1334 85.5746 49.3437 85.0866 48.3072C84.664 50.0063 83.6878 51.6544 83.6338 51.7446L83.1333 52.5822L82.6953 51.7104C82.2427 50.8094 80.8469 48.5239 80.1361 47.3715L76.9214 51.918L73.1119 46.6876L68.5249 51.0733L68.1598 50.7882C67.5388 50.3032 66.226 47.6428 65.5369 46.1851C64.8269 46.9228 63.5408 48.5037 62.4347 49.9606L62.0342 50.4883L61.6023 49.9859C60.9656 49.246 60.6469 47.5233 60.4957 46.299C59.1277 48.2808 58.0494 51.3747 58.037 51.4114L57.0243 51.0618C57.0891 50.8739 58.6348 46.4379 60.5324 44.5722L61.3745 43.7441L61.4429 44.9231C61.5038 45.9762 61.7219 47.6644 62.085 48.6569C63.0682 47.3877 64.804 45.2186 65.4596 44.8494L65.9656 44.5641L66.2088 45.0916C67.0017 46.8115 67.9977 48.7643 68.5353 49.5813L73.2576 45.0666L76.9089 50.0805L80.1939 45.4344L80.6204 46.1182C80.7002 46.2465 82.2592 48.7474 83.1689 50.3427C83.6277 49.4137 84.2608 47.9083 84.2046 46.7721L84.1353 45.367L85.1215 46.3701C85.2006 46.4507 87.0652 48.406 87.3975 53.8934L86.3283 53.9583Z" fill="#FF5D7C"/>
</g>
<mask id="mask20_2011_76956" style="mask-type:luminance" maskUnits="userSpaceOnUse" x="56" y="35" width="31" height="45">
<path d="M86.8139 65.5519C86.0924 75.2793 78.3151 80.3452 70.3464 79.7542C62.3775 79.1632 55.9498 72.5421 56.6712 62.8147C57.7047 48.8791 65.6701 34.7664 73.639 35.3574C81.6076 35.9487 87.8291 51.863 86.8139 65.5519Z" fill="white"/>
</mask>
<g mask="url(#mask20_2011_76956)">
<path d="M86.2804 60.9751C86.1149 58.2417 85.5601 56.4555 85.1241 55.4382C84.9827 55.1084 84.8442 54.8361 84.7198 54.6165C84.4118 56.4871 83.2053 58.5242 83.145 58.6251L82.8322 59.1485L82.5586 58.6036C82.0553 57.6013 80.4213 54.941 79.7758 53.8973L76.4874 58.5481L72.6386 53.2636L67.9243 57.7709L67.6964 57.5927C67.0543 57.0913 65.5475 53.9664 64.9593 52.7117C64.1974 53.4339 62.5592 55.4827 61.5679 56.7886L61.3174 57.1185L61.0473 56.8045C60.3333 55.9746 60.0278 53.8219 59.9097 52.6281C58.3446 54.6267 57.071 58.2843 57.0569 58.3249L56.424 58.1064C56.4895 57.9169 58.0476 53.4447 59.9453 51.5784L60.4717 51.0609L60.5144 51.7979C60.5652 52.6796 60.8035 54.9343 61.3256 56.0034C62.1319 54.9569 64.2314 52.2819 64.9195 51.8942L65.2358 51.7159L65.3878 52.0454C66.1035 53.5975 67.3274 56.0638 67.9172 56.8513L72.7294 52.2502L76.4795 57.3995L79.8116 52.6867L80.0782 53.114C80.1654 53.2541 81.9897 56.1805 82.8622 57.7507C83.3291 56.858 84.1853 55.019 84.1182 53.658L84.0748 52.78L84.6913 53.4068C84.7696 53.4865 86.6156 55.4233 86.9493 60.934L86.2804 60.9751Z" fill="white"/>
</g>
<mask id="mask21_2011_76956" style="mask-type:luminance" maskUnits="userSpaceOnUse" x="56" y="35" width="31" height="45">
<path d="M86.8139 65.5519C86.0924 75.2793 78.3151 80.3452 70.3464 79.7542C62.3775 79.1632 55.9498 72.5421 56.6712 62.8147C57.7047 48.8791 65.6701 34.7664 73.639 35.3574C81.6076 35.9487 87.8291 51.863 86.8139 65.5519Z" fill="white"/>
</mask>
<g mask="url(#mask21_2011_76956)">
<path d="M84.2213 44.3654C84.0898 42.1939 83.649 40.775 83.3025 39.9667C83.1901 39.7049 83.0803 39.4884 82.9813 39.3138C82.7367 40.8001 81.7781 42.4184 81.7302 42.4984L81.4816 42.9144L81.2642 42.4816C80.8643 41.6853 79.5663 39.5717 79.0535 38.7428L76.4411 42.4378L73.3837 38.2398L69.6386 41.8203L69.4573 41.6787C68.9472 41.2804 67.7504 38.7979 67.2829 37.8011C66.6776 38.3744 65.3763 40.0024 64.5887 41.0399L64.3898 41.3018L64.1754 41.0524C63.6083 40.393 63.3655 38.683 63.2718 37.7345C62.0283 39.3225 61.0165 42.2281 61.0056 42.2604L60.5027 42.0866C60.5547 41.9361 61.7926 38.3831 63.3002 36.9006L63.7183 36.4895L63.7522 37.0751C63.7927 37.7757 63.9819 39.5667 64.3967 40.4161C65.0371 39.5848 66.7052 37.4594 67.2517 37.1517L67.5028 37.0102L67.6235 37.272C68.1923 38.505 69.1647 40.4643 69.6329 41.0901L73.4559 37.4349L76.4351 41.5255L79.0823 37.7814L79.294 38.121C79.3634 38.2323 80.8127 40.5572 81.506 41.8045C81.8768 41.0951 82.5571 39.6343 82.5034 38.5531L82.469 37.8556L82.9586 38.3537C83.021 38.4171 84.4872 39.9555 84.7525 44.3335L84.2213 44.3654Z" fill="white"/>
</g>
<mask id="mask22_2011_76956" style="mask-type:luminance" maskUnits="userSpaceOnUse" x="56" y="35" width="31" height="45">
<path d="M86.8139 65.5519C86.0924 75.2793 78.3151 80.3452 70.3464 79.7542C62.3775 79.1632 55.9498 72.5421 56.6712 62.8147C57.7047 48.8791 65.6701 34.7664 73.639 35.3574C81.6076 35.9487 87.8291 51.863 86.8139 65.5519Z" fill="white"/>
</mask>
<g mask="url(#mask22_2011_76956)">
<path d="M86.8627 79.5398C86.6728 76.4044 86.0368 74.3556 85.5365 73.1891C85.3742 72.8106 85.2155 72.4986 85.0726 72.2465C84.7191 74.3923 83.3354 76.7286 83.2663 76.8444L82.9075 77.4449L82.5937 76.8197C82.0165 75.67 80.1424 72.6189 79.4018 71.4218L75.63 76.7565L71.2157 70.6951L65.8085 75.8648L65.5468 75.6605C64.8102 75.0855 63.0821 71.5013 62.4071 70.0621C61.5331 70.89 59.6543 73.2401 58.5172 74.7381L58.23 75.1164L57.9201 74.7563C57.1014 73.8045 56.7508 71.3357 56.6154 69.9662C54.8212 72.258 53.3592 76.454 53.3432 76.5004L52.6171 76.2499C52.6923 76.0326 54.4793 70.9026 56.6562 68.7622L57.2599 68.1688L57.3088 69.0141C57.3671 70.0254 57.6405 72.6113 58.2392 73.8376C59.1639 72.6372 61.572 69.5689 62.3613 69.1242L62.7241 68.92L62.8985 69.2979C63.7194 71.0782 65.1234 73.9069 65.7996 74.8104L71.3193 69.5331L75.6207 75.4389L79.4425 70.0337L79.7484 70.5239C79.8486 70.6846 81.941 74.0413 82.9417 75.842C83.4771 74.8179 84.4592 72.7088 84.3821 71.1475L84.3323 70.1403L85.0394 70.8595C85.1293 70.9509 87.2462 73.1723 87.6291 79.4933L86.8627 79.5398Z" fill="white"/>
</g>
<mask id="mask23_2011_76956" style="mask-type:luminance" maskUnits="userSpaceOnUse" x="56" y="35" width="31" height="45">
<path d="M86.8139 65.5519C86.0924 75.2793 78.3151 80.3452 70.3464 79.7542C62.3775 79.1632 55.9498 72.5421 56.6712 62.8147C57.7047 48.8791 65.6701 34.7664 73.639 35.3574C81.6076 35.9487 87.8291 51.863 86.8139 65.5519Z" fill="white"/>
</mask>
<g mask="url(#mask23_2011_76956)">
<path d="M86.5837 72.2198C86.4058 69.2848 85.8143 67.3661 85.349 66.2735C85.2742 66.0976 85.2002 65.9368 85.1283 65.7908C84.6846 67.7173 83.5485 69.6358 83.4872 69.7383L82.9867 70.5759L82.5487 69.7041C82.0359 68.6828 80.4343 66.064 79.6617 64.8126L76.0924 69.8606L71.8763 64.0716L66.7772 68.9468L66.4121 68.6617C65.7218 68.1225 64.2362 65.0973 63.4845 63.5029C62.7029 64.3009 61.2363 66.0999 59.9802 67.7546L59.5797 68.2823L59.1475 67.7799C58.4239 66.9385 58.0741 64.9272 57.9155 63.5711C56.3501 65.7712 55.108 69.3384 55.0938 69.3801L54.0811 69.0307C54.1527 68.8228 55.8624 63.9158 57.9574 61.856L58.7994 61.028L58.8675 62.2069C58.9374 63.412 59.1933 65.3652 59.6214 66.4622C60.6375 65.1496 62.6766 62.5853 63.4093 62.1727L63.9154 61.8877L64.1585 62.415C65.0585 64.3663 66.1908 66.5812 66.7824 67.4596L72.0211 62.4509L76.0794 68.0235L79.7189 62.8763L80.1454 63.5601C80.2357 63.7049 82.0263 66.5774 83.0251 68.338C83.5389 67.3126 84.2934 65.5645 84.2287 64.2511L84.1593 62.8459L85.1455 63.849C85.2326 63.9376 87.2857 66.0909 87.6528 72.1553L86.5837 72.2198Z" fill="#00DDDE"/>
</g>
<mask id="mask24_2011_76956" style="mask-type:luminance" maskUnits="userSpaceOnUse" x="58" y="35" width="32" height="46">
<path d="M89.1354 63.732C89.9402 73.4533 83.048 79.6706 75.0844 80.3299C67.1205 80.9893 59.7383 75.4517 58.9334 65.7304C57.7804 51.8036 63.447 36.6205 71.4109 35.9611C79.3745 35.3021 88.0027 50.0517 89.1354 63.732Z" fill="white"/>
</mask>
<g mask="url(#mask24_2011_76956)">
<path opacity="0.37" d="M77.0349 57.9665C79.6515 57.7499 81.4733 53.9594 81.1041 49.5003C80.7349 45.0412 78.3145 41.6019 75.698 41.8186C73.0815 42.0352 71.2596 45.8257 71.6288 50.2848C71.998 54.7439 74.4184 58.1831 77.0349 57.9665Z" fill="white"/>
</g>
<mask id="mask25_2011_76956" style="mask-type:luminance" maskUnits="userSpaceOnUse" x="56" y="35" width="31" height="45">
<path d="M86.8139 65.5519C86.0924 75.2793 78.3151 80.3452 70.3464 79.7542C62.3775 79.1632 55.9498 72.5421 56.6712 62.8147C57.7047 48.8791 65.6701 34.7664 73.639 35.3574C81.6076 35.9487 87.8291 51.863 86.8139 65.5519Z" fill="white"/>
</mask>
<g mask="url(#mask25_2011_76956)">
<path opacity="0.03" d="M96.0757 64.8344C96.8573 72.5723 88.425 78.3485 79.8317 78.0023C79.0293 78.3496 78.1886 78.5678 77.315 78.64C70.1091 79.2364 63.4438 69.7646 62.4277 57.4843C61.6154 47.6668 64.6594 39.0273 69.5948 35.6518C72.0866 30.5929 74.3579 27.2188 74.3579 27.2188L64.4777 31.9321L57.6337 42.6194L54.9797 62.0891L54.0312 74.8776L62.3446 81.0914L81.0956 83.2384L91.0089 82.1584L99.4685 74.1628L96.0757 64.8344Z" fill="#242E36"/>
</g>
<mask id="mask26_2011_76956" style="mask-type:luminance" maskUnits="userSpaceOnUse" x="56" y="35" width="31" height="45">
<path d="M86.8139 65.5519C86.0924 75.2793 78.3151 80.3452 70.3464 79.7542C62.3775 79.1632 55.9498 72.5421 56.6712 62.8147C57.7047 48.8791 65.6701 34.7664 73.639 35.3574C81.6076 35.9487 87.8291 51.863 86.8139 65.5519Z" fill="white"/>
</mask>
<g mask="url(#mask26_2011_76956)">
<path opacity="0.27" d="M88.2746 55.0379C87.2586 42.7576 80.5933 33.2859 73.3874 33.8823C71.9423 34.0017 70.5854 34.5182 69.3473 35.3651C64.4121 38.7406 61.3679 47.3801 62.1802 57.1976C63.1966 69.4779 69.8618 78.9497 77.0674 78.3532C77.9407 78.281 78.7818 78.0628 79.5841 77.7156C85.4007 75.1981 89.1677 65.8298 88.2746 55.0379Z" fill="white"/>
</g>
<mask id="mask27_2011_76956" style="mask-type:luminance" maskUnits="userSpaceOnUse" x="75" y="34" width="28" height="40">
<path d="M102.093 60.7742C101.465 69.2385 94.6979 73.6466 87.764 73.1324C80.8298 72.6181 75.2367 66.8567 75.8644 58.3924C76.7637 46.2663 83.6948 33.9861 90.629 34.5004C97.5629 35.0148 102.977 48.8628 102.093 60.7742Z" fill="white"/>
</mask>
<g mask="url(#mask27_2011_76956)">
<path d="M107.448 31.1015L73.2859 28.5679L69.744 76.3257L103.907 78.8593L107.448 31.1015Z" fill="#FFB41B"/>
</g>
<mask id="mask28_2011_76956" style="mask-type:luminance" maskUnits="userSpaceOnUse" x="75" y="34" width="28" height="40">
<path d="M102.093 60.7742C101.465 69.2385 94.6979 73.6466 87.764 73.1324C80.8298 72.6181 75.2367 66.8567 75.8644 58.3924C76.7637 46.2663 83.6948 33.9861 90.629 34.5004C97.5629 35.0148 102.977 48.8628 102.093 60.7742Z" fill="white"/>
</mask>
<g mask="url(#mask28_2011_76956)">
<path d="M101.671 50.686C101.522 48.2279 101.015 46.6706 100.59 45.7686C100.222 47.2471 99.3729 48.6812 99.3259 48.7597L98.8904 49.4886L98.5093 48.7299C98.1154 47.946 96.9009 45.9572 96.2824 44.9544L93.4851 48.9107L90.1703 44.3593L86.1788 48.1756L85.8612 47.9275C85.3208 47.5055 84.1784 45.1905 83.5788 43.9222C82.961 44.564 81.842 45.9396 80.8795 47.2074L80.531 47.6666L80.1551 47.2294C79.6011 46.5856 79.3238 45.0865 79.1922 44.0213C78.0019 45.7457 77.0636 48.4379 77.0528 48.4698L76.1716 48.1656C76.2279 48.0021 77.5729 44.1421 79.2242 42.5186L79.9569 41.7981L80.0164 42.824C80.0694 43.7404 80.2592 45.2093 80.5752 46.0729C81.4307 44.9686 82.9411 43.0811 83.5116 42.7598L83.9519 42.5116L84.1635 42.9706C84.8535 44.4672 85.7201 46.1664 86.1879 46.8774L90.297 42.9489L93.4743 47.3117L96.3326 43.2689L96.7038 43.8639C96.7732 43.9756 98.1298 46.1517 98.9214 47.5398C99.3206 46.7315 99.8715 45.4215 99.8226 44.4329L99.7623 43.2103L100.62 44.0831C100.689 44.1532 102.312 45.8546 102.601 50.6296L101.671 50.686Z" fill="#FF5D7C"/>
</g>
<mask id="mask29_2011_76956" style="mask-type:luminance" maskUnits="userSpaceOnUse" x="75" y="34" width="28" height="40">
<path d="M102.093 60.7742C101.465 69.2385 94.6979 73.6466 87.764 73.1324C80.8298 72.6181 75.2367 66.8567 75.8644 58.3924C76.7637 46.2663 83.6948 33.9861 90.629 34.5004C97.5629 35.0148 102.977 48.8628 102.093 60.7742Z" fill="white"/>
</mask>
<g mask="url(#mask29_2011_76956)">
<path d="M101.629 56.7917C101.485 54.4132 101.002 52.8589 100.623 51.9737C100.5 51.6867 100.379 51.4498 100.271 51.2587C100.003 52.8864 98.9531 54.659 98.9007 54.7468L98.6285 55.2022L98.3904 54.7281C97.9524 53.8559 96.5307 51.5411 95.9689 50.6329L93.1075 54.6798L89.7585 50.0814L85.6564 54.0035L85.458 53.8484C84.8993 53.4121 83.5882 50.693 83.0763 49.6013C82.4133 50.2296 80.9879 52.0124 80.1253 53.1487L79.9073 53.4358L79.6723 53.1625C79.051 52.4405 78.7851 50.5673 78.6824 49.5285C77.3206 51.2675 76.2123 54.4502 76.2 54.4856L75.6493 54.2955C75.7063 54.1306 77.0621 50.239 78.7134 48.6151L79.1714 48.1648L79.2086 48.806C79.2528 49.5733 79.4602 51.5352 79.9145 52.4655C80.616 51.5549 82.443 49.2272 83.0417 48.8899L83.3169 48.7347L83.4492 49.0214C84.072 50.372 85.1369 52.518 85.6501 53.2033L89.8375 49.1997L93.1007 53.6804L96.0001 49.5795L96.2321 49.9513C96.308 50.0732 97.8954 52.6196 98.6546 53.986C99.0609 53.2092 99.8059 51.6089 99.7475 50.4246L99.7098 49.6606L100.246 50.2061C100.314 50.2754 101.921 51.9607 102.211 56.7559L101.629 56.7917Z" fill="white"/>
</g>
<mask id="mask30_2011_76956" style="mask-type:luminance" maskUnits="userSpaceOnUse" x="75" y="34" width="28" height="40">
<path d="M102.093 60.7742C101.465 69.2385 94.6979 73.6466 87.764 73.1324C80.8298 72.6181 75.2367 66.8567 75.8644 58.3924C76.7637 46.2663 83.6948 33.9861 90.629 34.5004C97.5629 35.0148 102.977 48.8628 102.093 60.7742Z" fill="white"/>
</mask>
<g mask="url(#mask30_2011_76956)">
<path d="M99.8371 42.3387C99.7227 40.4492 99.3392 39.2145 99.0377 38.5111C98.9398 38.2833 98.8443 38.0949 98.7582 37.943C98.5453 39.2363 97.7112 40.6445 97.6695 40.7142L97.4532 41.0761L97.2641 40.6995C96.9161 40.0066 95.7866 38.1674 95.3404 37.4462L93.0672 40.6614L90.4068 37.0085L87.148 40.1241L86.9902 40.0009C86.5463 39.6543 85.505 37.4941 85.0982 36.6267C84.5714 37.1256 83.4392 38.5422 82.7538 39.445L82.5807 39.6729L82.3941 39.4559C81.9007 38.8821 81.6895 37.3942 81.6079 36.5688C80.5259 37.9506 79.6455 40.4789 79.6359 40.507L79.1984 40.3558C79.2436 40.2248 80.3208 37.1332 81.6326 35.8432L81.9964 35.4855L82.0259 35.995C82.0612 36.6046 82.2258 38.1631 82.5867 38.9022C83.144 38.1788 84.5955 36.3294 85.071 36.0617L85.2895 35.9386L85.3946 36.1664C85.8895 37.2392 86.7356 38.9441 87.143 39.4887L90.4696 36.3081L93.062 39.8675L95.3655 36.6096L95.5497 36.9051C95.61 37.002 96.8712 39.025 97.4744 40.1103C97.7971 39.493 98.3891 38.2219 98.3424 37.2811L98.3124 36.6741L98.7384 37.1076C98.7927 37.1628 100.069 38.5014 100.299 42.3109L99.8371 42.3387Z" fill="white"/>
</g>
<mask id="mask31_2011_76956" style="mask-type:luminance" maskUnits="userSpaceOnUse" x="75" y="34" width="28" height="40">
<path d="M102.093 60.7742C101.465 69.2385 94.6979 73.6466 87.764 73.1324C80.8298 72.6181 75.2367 66.8567 75.8644 58.3924C76.7637 46.2663 83.6948 33.9861 90.629 34.5004C97.5629 35.0148 102.977 48.8628 102.093 60.7742Z" fill="white"/>
</mask>
<g mask="url(#mask31_2011_76956)">
<path d="M102.136 72.9457C101.97 70.2175 101.417 68.4347 100.982 67.4197C100.84 67.0903 100.702 66.8188 100.578 66.5995C100.27 68.4667 99.0663 70.4996 99.0062 70.6004L98.694 71.1229L98.4209 70.5789C97.9187 69.5785 96.2879 66.9236 95.6435 65.8819L92.3614 70.5238L88.5204 65.2495L83.8152 69.748L83.5875 69.5702C82.9466 69.0699 81.4429 65.951 80.8555 64.6987C80.095 65.4192 78.4602 67.4641 77.4706 68.7676L77.2207 69.0967L76.9512 68.7834C76.2387 67.9552 75.9336 65.8069 75.8158 64.6153C74.2546 66.6095 72.9824 70.2606 72.9685 70.3011L72.3367 70.0831C72.4021 69.894 73.9571 65.4301 75.8513 63.5676L76.3766 63.0513L76.4192 63.7868C76.4699 64.6668 76.7079 66.9169 77.2287 67.9839C78.0334 66.9394 80.1288 64.2696 80.8157 63.8826L81.1314 63.7049L81.283 64.0338C81.9974 65.5829 83.2191 68.0443 83.8075 68.8305L88.6105 64.2385L92.3533 69.3773L95.6789 64.674L95.9451 65.1005C96.0323 65.2404 97.8529 68.1612 98.7237 69.7281C99.1896 68.837 100.044 67.0017 99.9771 65.6432L99.9338 64.7668L100.549 65.3926C100.627 65.4721 102.469 67.4051 102.802 72.9053L102.136 72.9457Z" fill="white"/>
</g>
<mask id="mask32_2011_76956" style="mask-type:luminance" maskUnits="userSpaceOnUse" x="75" y="34" width="28" height="40">
<path d="M102.093 60.7742C101.465 69.2385 94.6979 73.6466 87.764 73.1324C80.8298 72.6181 75.2367 66.8567 75.8644 58.3924C76.7637 46.2663 83.6948 33.9861 90.629 34.5004C97.5629 35.0148 102.977 48.8628 102.093 60.7742Z" fill="white"/>
</mask>
<g mask="url(#mask32_2011_76956)">
<path d="M101.893 66.5763C101.738 64.0224 101.223 62.3528 100.819 61.4021C100.753 61.249 100.689 61.1092 100.626 60.9821C100.24 62.6584 99.2518 64.3278 99.1985 64.417L98.7629 65.1459L98.3818 64.3872C97.9356 63.4985 96.542 61.2198 95.8697 60.1309L92.7639 64.5234L89.0952 59.4861L84.6582 63.7283L84.3406 63.4802C83.7398 63.011 82.4471 60.3787 81.793 58.9913C81.113 59.6857 79.8368 61.251 78.7438 62.6909L78.3953 63.1501L78.0192 62.7129C77.3895 61.9807 77.0852 60.2306 76.9472 59.0506C75.5851 60.965 74.5042 64.069 74.4919 64.1053L73.6106 63.8013C73.673 63.6204 75.1607 59.3505 76.9836 57.5582L77.7163 56.8377L77.7756 57.8636C77.8364 58.9122 78.0591 60.6118 78.4316 61.5663C79.3157 60.4241 81.0901 58.1928 81.7276 57.8338L82.168 57.5858L82.3796 58.0446C83.1626 59.7425 84.148 61.6698 84.6628 62.4342L89.2212 58.0759L92.7525 62.9249L95.9194 58.446L96.2906 59.041C96.3691 59.167 97.9272 61.6665 98.7963 63.1985C99.2435 62.3063 99.9 60.7851 99.8436 59.6423L99.7833 58.4196L100.641 59.2924C100.717 59.3695 102.504 61.2432 102.823 66.5201L101.893 66.5763Z" fill="#00DDDE"/>
</g>
<mask id="mask33_2011_76956" style="mask-type:luminance" maskUnits="userSpaceOnUse" x="77" y="35" width="28" height="39">
<path d="M104.113 59.1906C104.814 67.6495 98.8163 73.0596 91.8867 73.6333C84.9569 74.2071 78.5332 69.3885 77.8329 60.9295C76.8296 48.8111 81.7604 35.5994 88.6902 35.0257C95.6198 34.4522 103.128 47.2867 104.113 59.1906Z" fill="white"/>
</mask>
<g mask="url(#mask33_2011_76956)">
<path opacity="0.37" d="M93.584 54.1737C95.8608 53.9852 97.4461 50.6869 97.1248 46.8068C96.8036 42.9267 94.6974 39.934 92.4206 40.1226C90.1439 40.3111 88.5586 43.6093 88.8798 47.4895C89.2011 51.3696 91.3072 54.3622 93.584 54.1737Z" fill="white"/>
</g>
<mask id="mask34_2011_76956" style="mask-type:luminance" maskUnits="userSpaceOnUse" x="75" y="34" width="28" height="40">
<path d="M102.093 60.7742C101.465 69.2385 94.6979 73.6466 87.764 73.1324C80.8298 72.6181 75.2367 66.8567 75.8644 58.3924C76.7637 46.2663 83.6948 33.9861 90.629 34.5004C97.5629 35.0148 102.977 48.8628 102.093 60.7742Z" fill="white"/>
</mask>
<g mask="url(#mask34_2011_76956)">
<path opacity="0.03" d="M110.152 60.1498C110.832 66.883 103.495 71.9092 96.0175 71.608C95.3193 71.9101 94.5877 72.1 93.8276 72.1628C87.5574 72.6818 81.7576 64.4399 80.8734 53.7541C80.1666 45.2114 82.8153 37.6937 87.1098 34.7565C89.2781 30.3545 91.2545 27.4185 91.2545 27.4185L82.6572 31.5198L76.7019 40.8194L74.3924 57.761L73.5672 68.8889L80.8011 74.2959L97.1173 76.1641L105.743 75.2243L113.104 68.267L110.152 60.1498Z" fill="#242E36"/>
</g>
<mask id="mask35_2011_76956" style="mask-type:luminance" maskUnits="userSpaceOnUse" x="75" y="34" width="28" height="40">
<path d="M102.093 60.7742C101.465 69.2385 94.6979 73.6466 87.764 73.1324C80.8298 72.6181 75.2367 66.8567 75.8644 58.3924C76.7637 46.2663 83.6948 33.9861 90.629 34.5004C97.5629 35.0148 102.977 48.8628 102.093 60.7742Z" fill="white"/>
</mask>
<g mask="url(#mask35_2011_76956)">
<path opacity="0.27" d="M103.364 51.6254C102.48 40.9397 96.6803 32.6978 90.41 33.2168C89.1526 33.3207 87.9719 33.7701 86.8945 34.507C82.6002 37.4442 79.9512 44.962 80.658 53.5046C81.5425 64.1904 87.3423 72.4323 93.6122 71.9133C94.3721 71.8505 95.104 71.6606 95.8021 71.3585C100.863 69.1678 104.141 61.016 103.364 51.6254Z" fill="white"/>
</g>
<mask id="mask36_2011_76956" style="mask-type:luminance" maskUnits="userSpaceOnUse" x="86" y="37" width="27" height="36">
<path d="M110.515 64.2723C107.72 71.6878 100.495 73.8506 94.4207 71.5608C88.3458 69.2709 84.8562 62.6351 87.6514 55.2196C91.6559 44.596 101.103 35.4257 107.178 37.7156C113.253 40.0057 114.449 53.8368 110.515 64.2723Z" fill="white"/>
</mask>
<g mask="url(#mask36_2011_76956)">
<path d="M123.14 39.1086L93.21 27.8268L77.4386 69.6671L107.368 80.9488L123.14 39.1086Z" fill="#FFB41B"/>
</g>
<mask id="mask37_2011_76956" style="mask-type:luminance" maskUnits="userSpaceOnUse" x="86" y="37" width="27" height="36">
<path d="M110.515 64.2723C107.72 71.6878 100.495 73.8506 94.4207 71.5608C88.3458 69.2709 84.8562 62.6351 87.6514 55.2196C91.6559 44.596 101.103 35.4257 107.178 37.7156C113.253 40.0057 114.449 53.8368 110.515 64.2723Z" fill="white"/>
</mask>
<g mask="url(#mask37_2011_76956)">
<path d="M112.798 55.1253C113.313 52.8844 113.27 51.3558 113.127 50.436C112.408 51.6632 111.269 52.7236 111.206 52.7814L110.624 53.3194L110.483 52.5393C110.337 51.7333 109.773 49.6316 109.484 48.5703L105.935 51.3758L104.167 46.4249L99.5849 48.7899L99.3659 48.4839C98.9932 47.9633 98.5807 45.5886 98.3783 44.2944C97.6556 44.7063 96.2905 45.6431 95.0939 46.5247L94.6607 46.844L94.4393 46.3533C94.113 45.6305 94.2601 44.2148 94.4233 43.2259C92.9022 44.4564 91.3516 46.6201 91.3335 46.6459L90.6245 46.1409C90.7181 46.0094 92.9411 42.9069 94.8483 41.8885L95.6947 41.4364L95.4773 42.371C95.283 43.2057 95.0655 44.5715 95.1207 45.4283C96.1783 44.6649 98.029 43.3729 98.6247 43.2356L99.0846 43.1294L99.153 43.5964C99.3762 45.1188 99.7041 46.8693 99.9356 47.6295L104.652 45.195L106.347 49.9408L109.974 47.0739L110.149 47.7047C110.182 47.8231 110.823 50.13 111.166 51.5821C111.736 50.9634 112.575 49.9355 112.792 49.0372L113.061 47.9262L113.599 48.9343C113.642 49.0153 114.647 50.9672 113.646 55.3202L112.798 55.1253Z" fill="#FF5D7C"/>
</g>
<mask id="mask38_2011_76956" style="mask-type:luminance" maskUnits="userSpaceOnUse" x="86" y="37" width="27" height="36">
<path d="M110.515 64.2723C107.72 71.6878 100.495 73.8506 94.4207 71.5608C88.3458 69.2709 84.8562 62.6351 87.6514 55.2196C91.6559 44.596 101.103 35.4257 107.178 37.7156C113.253 40.0057 114.449 53.8368 110.515 64.2723Z" fill="white"/>
</mask>
<g mask="url(#mask38_2011_76956)">
<path d="M111.15 60.5829C111.648 58.4146 111.626 56.8951 111.52 56.0022C111.485 55.7127 111.44 55.4687 111.393 55.269C110.724 56.6562 109.316 57.9669 109.246 58.0316L108.882 58.3677L108.794 57.8802C108.631 56.9835 107.969 54.5352 107.705 53.5736L104.075 56.4433L102.288 51.4412L97.5795 53.8718L97.4427 53.6807C97.0574 53.1425 96.6004 50.3612 96.43 49.2483C95.6704 49.6362 93.9234 50.8569 92.851 51.6471L92.58 51.8467L92.4416 51.54C92.0757 50.7294 92.3317 48.9815 92.5137 48.024C90.8352 49.2223 89.003 51.7805 88.9826 51.8089L88.5396 51.4934C88.6341 51.3607 90.875 48.2329 92.7824 47.2141L93.3115 46.9316L93.1756 47.5157C93.0128 48.2145 92.6809 50.0265 92.8424 50.9796C93.711 50.3491 95.9614 48.7462 96.5866 48.6021L96.8741 48.5357L96.9169 48.8274C97.1184 50.2013 97.5061 52.4044 97.785 53.1535L102.592 50.6723L104.332 55.5464L108.011 52.6383L108.121 53.0325C108.157 53.1617 108.906 55.8612 109.226 57.2853C109.795 56.6967 110.884 55.46 111.144 54.3838L111.312 53.6896L111.649 54.3197C111.691 54.3998 112.686 56.3329 111.681 60.7044L111.15 60.5829Z" fill="white"/>
</g>
<mask id="mask39_2011_76956" style="mask-type:luminance" maskUnits="userSpaceOnUse" x="86" y="37" width="27" height="36">
<path d="M110.515 64.2723C107.72 71.6878 100.495 73.8506 94.4207 71.5608C88.3458 69.2709 84.8562 62.6351 87.6514 55.2196C91.6559 44.596 101.103 35.4257 107.178 37.7156C113.253 40.0057 114.449 53.8368 110.515 64.2723Z" fill="white"/>
</mask>
<g mask="url(#mask39_2011_76956)">
<path d="M113.358 47.1653C113.754 45.4427 113.736 44.2357 113.652 43.5262C113.624 43.2963 113.588 43.1024 113.551 42.9436C113.019 44.0458 111.901 45.087 111.845 45.1384L111.556 45.4055L111.486 45.0183C111.357 44.3059 110.831 42.3607 110.621 41.597L107.737 43.877L106.318 39.9034L102.577 41.8342L102.468 41.6822C102.162 41.2547 101.799 39.0452 101.664 38.161C101.06 38.4688 99.6726 39.4389 98.8206 40.0668L98.6054 40.2251L98.4955 39.9816C98.205 39.3375 98.4083 37.9491 98.553 37.1883C97.2193 38.1405 95.7638 40.1727 95.7478 40.1954L95.3958 39.9445C95.4709 39.8391 97.2513 37.3543 98.7666 36.545L99.1868 36.3205L99.0788 36.7847C98.9495 37.34 98.6858 38.7793 98.8141 39.5364C99.5041 39.0356 101.292 37.7621 101.789 37.6478L102.017 37.5951L102.051 37.8269C102.211 38.9183 102.519 40.6685 102.74 41.2638L106.559 39.2927L107.942 43.1646L110.864 40.8543L110.951 41.1676C110.98 41.2703 111.576 43.4149 111.83 44.5461C112.282 44.0783 113.147 43.096 113.353 42.2411L113.487 41.6895L113.754 42.1901C113.788 42.2539 114.578 43.7894 113.779 47.2623L113.358 47.1653Z" fill="white"/>
</g>
<mask id="mask40_2011_76956" style="mask-type:luminance" maskUnits="userSpaceOnUse" x="86" y="37" width="27" height="36">
<path d="M110.515 64.2723C107.72 71.6878 100.495 73.8506 94.4207 71.5608C88.3458 69.2709 84.8562 62.6351 87.6514 55.2196C91.6559 44.596 101.103 35.4257 107.178 37.7156C113.253 40.0057 114.449 53.8368 110.515 64.2723Z" fill="white"/>
</mask>
<g mask="url(#mask40_2011_76956)">
<path d="M107.342 75.1851C107.914 72.6979 107.888 70.9551 107.766 69.9312C107.727 69.5989 107.675 69.3193 107.621 69.0901C106.853 70.6813 105.238 72.1844 105.158 72.2589L104.741 72.6445L104.639 72.0852C104.454 71.0567 103.693 68.2486 103.391 67.1455L99.2267 70.4373L97.1779 64.7L91.7769 67.4878L91.6199 67.2685C91.1778 66.6513 90.6538 63.4612 90.4581 62.1846C89.5869 62.6292 87.5832 64.0295 86.353 64.9359L86.0423 65.1648L85.8835 64.8131C85.4639 63.8834 85.7574 61.8787 85.9663 60.7804C84.0418 62.1546 81.9392 65.0891 81.9161 65.1217L81.4077 64.7598C81.5162 64.6077 84.0865 61.0198 86.2745 59.8514L86.8812 59.5275L86.7253 60.1975C86.5385 60.999 86.1581 63.0771 86.3431 64.1703C87.3393 63.447 89.9205 61.6085 90.6377 61.4432L90.9674 61.3672L91.0164 61.7018C91.2476 63.2777 91.6925 65.8046 92.0121 66.664L97.5253 63.8182L99.5219 69.4083L103.741 66.0731L103.867 66.5253C103.908 66.6736 104.769 69.7699 105.135 71.403C105.787 70.7279 107.037 69.3095 107.335 68.0751L107.528 67.2787L107.914 68.0014C107.963 68.0934 109.103 70.3106 107.95 75.3248L107.342 75.1851Z" fill="white"/>
</g>
<mask id="mask41_2011_76956" style="mask-type:luminance" maskUnits="userSpaceOnUse" x="86" y="37" width="27" height="36">
<path d="M110.515 64.2723C107.72 71.6878 100.495 73.8506 94.4207 71.5608C88.3458 69.2709 84.8562 62.6351 87.6514 55.2196C91.6559 44.596 101.103 35.4257 107.178 37.7156C113.253 40.0057 114.449 53.8368 110.515 64.2723Z" fill="white"/>
</mask>
<g mask="url(#mask41_2011_76956)">
<path d="M108.805 69.4162C109.34 67.088 109.32 65.4568 109.208 64.4985C109.19 64.3442 109.169 64.2019 109.147 64.0716C108.359 65.4711 107.033 66.7055 106.961 66.7713L106.379 67.3093L106.238 66.5293C106.073 65.6156 105.426 63.207 105.111 62.0543L101.17 65.1691L99.2132 59.6897L94.12 62.3186L93.901 62.0126C93.4867 61.4339 93.0233 58.7352 92.8035 57.32C92.0112 57.7625 90.4552 58.8279 89.0964 59.8292L88.6632 60.1485L88.4416 59.6577C88.0708 58.8358 88.26 57.188 88.4477 56.0948C86.7226 57.4501 84.9357 59.945 84.915 59.9743L84.2059 59.4695C84.3095 59.324 86.7684 55.8921 88.874 54.7677L89.7203 54.3157L89.5028 55.2501C89.2806 56.2054 89.0316 57.7864 89.1135 58.7395C90.2067 57.9498 92.3845 56.4194 93.0503 56.2661L93.5101 56.1601L93.5786 56.6268C93.832 58.3542 94.2061 60.3404 94.4655 61.1608L99.6981 58.4598L101.582 63.7344L105.6 60.5583L105.775 61.1892C105.812 61.3228 106.548 63.9725 106.923 65.5739C107.559 64.8928 108.548 63.7035 108.799 62.665L109.067 61.5541L109.606 62.5622C109.653 62.6512 110.759 64.8008 109.653 69.6113L108.805 69.4162Z" fill="#00DDDE"/>
</g>
<mask id="mask42_2011_76956" style="mask-type:luminance" maskUnits="userSpaceOnUse" x="88" y="37" width="26" height="37">
<path d="M112.742 63.3868C111.138 71.1479 104.339 74.4113 97.9811 73.0971C91.6231 71.7828 87.1409 65.7724 88.7452 58.0113C91.0435 46.8926 98.9453 36.3603 105.303 37.6746C111.661 38.9891 115 52.465 112.742 63.3868Z" fill="white"/>
</mask>
<g mask="url(#mask42_2011_76956)">
<path opacity="0.37" d="M104.635 56.1157C106.724 56.5475 109.014 54.0116 109.75 50.4516C110.486 46.8916 109.389 43.6556 107.3 43.2238C105.211 42.792 102.921 45.3279 102.185 48.8879C101.449 52.4479 102.546 55.6839 104.635 56.1157Z" fill="white"/>
</g>
<mask id="mask43_2011_76956" style="mask-type:luminance" maskUnits="userSpaceOnUse" x="86" y="37" width="27" height="36">
<path d="M110.515 64.2723C107.72 71.6878 100.495 73.8506 94.4207 71.5608C88.3458 69.2709 84.8562 62.6351 87.6514 55.2196C91.6559 44.596 101.103 35.4257 107.178 37.7156C113.253 40.0057 114.449 53.8368 110.515 64.2723Z" fill="white"/>
</mask>
<g mask="url(#mask43_2011_76956)">
<path opacity="0.03" d="M117.898 65.8392C116.731 72.0492 108.833 74.6153 102.215 72.3728C101.51 72.4593 100.805 72.4363 100.107 72.2921C94.3546 71.1027 91.3343 62.1907 93.3614 52.3867C94.982 44.5489 99.3376 38.5144 103.959 37.0166C107.062 33.646 109.607 31.5377 109.607 31.5377L100.825 32.943L93.0375 39.7011L86.4996 54.2658L82.8248 64.0149L87.8775 70.7661L101.998 76.7438L109.972 78.1777L118.401 73.8882L117.898 65.8392Z" fill="#242E36"/>
</g>
<mask id="mask44_2011_76956" style="mask-type:luminance" maskUnits="userSpaceOnUse" x="86" y="37" width="27" height="36">
<path d="M110.515 64.2723C107.72 71.6878 100.495 73.8506 94.4207 71.5608C88.3458 69.2709 84.8562 62.6351 87.6514 55.2196C91.6559 44.596 101.103 35.4257 107.178 37.7156C113.253 40.0057 114.449 53.8368 110.515 64.2723Z" fill="white"/>
</mask>
<g mask="url(#mask44_2011_76956)">
<path opacity="0.27" d="M114.067 56.4135C116.094 46.6095 113.074 37.6975 107.321 36.5082C106.167 36.2695 104.991 36.3605 103.832 36.7364C99.2107 38.2342 94.8549 44.2687 93.2343 52.1064C91.2074 61.9105 94.2277 70.8225 99.9804 72.0118C100.678 72.156 101.383 72.179 102.088 72.0926C107.199 71.4657 112.286 65.0292 114.067 56.4135Z" fill="white"/>
</g>
<mask id="mask45_2011_76956" style="mask-type:luminance" maskUnits="userSpaceOnUse" x="47" y="41" width="26" height="38">
<path d="M72.78 66.6327C72.1693 74.8672 65.5856 79.1556 58.8399 78.6553C52.094 78.155 46.6528 72.55 47.2635 64.3155C48.1383 52.5187 54.8813 40.5719 61.6272 41.0722C68.3728 41.5727 73.6394 55.0447 72.78 66.6327Z" fill="white"/>
</mask>
<g mask="url(#mask45_2011_76956)">
<path d="M77.99 37.7657L44.755 35.3008L41.3093 81.7619L74.5443 84.2267L77.99 37.7657Z" fill="#FFB41B"/>
</g>
<mask id="mask46_2011_76956" style="mask-type:luminance" maskUnits="userSpaceOnUse" x="47" y="41" width="26" height="38">
<path d="M72.78 66.6327C72.1693 74.8672 65.5856 79.1556 58.8399 78.6553C52.094 78.155 46.6528 72.55 47.2635 64.3155C48.1383 52.5187 54.8813 40.5719 61.6272 41.0722C68.3728 41.5727 73.6394 55.0447 72.78 66.6327Z" fill="white"/>
</mask>
<g mask="url(#mask46_2011_76956)">
<path d="M72.369 56.8184C72.2242 54.427 71.7309 52.912 71.3178 52.0345C70.9601 53.4729 70.1337 54.8681 70.088 54.9444L69.6643 55.6535L69.2935 54.9154C68.9103 54.1528 67.7288 52.218 67.1271 51.2424L64.4057 55.0912L61.1809 50.6635L57.2979 54.3761L56.9889 54.1348C56.4631 53.7242 55.3518 51.4721 54.7685 50.2382C54.1674 50.8626 53.0788 52.2009 52.1424 53.4342L51.8034 53.8809L51.4377 53.4556C50.8987 52.8293 50.629 51.371 50.501 50.3346C49.3429 52.0123 48.4301 54.6313 48.4196 54.6624L47.5624 54.3664C47.6172 54.2074 48.9256 50.4521 50.5321 48.8728L51.2449 48.1718L51.3028 49.1698C51.3543 50.0613 51.539 51.4904 51.8463 52.3306C52.6786 51.2562 54.148 49.42 54.703 49.1074L55.1314 48.8659L55.3373 49.3125C56.0085 50.7684 56.8516 52.4215 57.3067 53.1132L61.3042 49.2913L64.3952 53.5357L67.176 49.6026L67.537 50.1815C67.6046 50.2901 68.9243 52.4072 69.6944 53.7576C70.0828 52.9712 70.6187 51.6969 70.5712 50.7351L70.5125 49.5456L71.3474 50.3947C71.4143 50.463 72.9927 52.1182 73.274 56.7635L72.369 56.8184Z" fill="#FF5D7C"/>
</g>
<mask id="mask47_2011_76956" style="mask-type:luminance" maskUnits="userSpaceOnUse" x="47" y="41" width="26" height="38">
<path d="M72.78 66.6327C72.1693 74.8672 65.5856 79.1556 58.8399 78.6553C52.094 78.155 46.6528 72.55 47.2635 64.3155C48.1383 52.5187 54.8813 40.5719 61.6272 41.0722C68.3728 41.5727 73.6394 55.0447 72.78 66.6327Z" fill="white"/>
</mask>
<g mask="url(#mask47_2011_76956)">
<path d="M72.3284 62.7583C72.1883 60.4444 71.7186 58.9323 71.3495 58.0711C71.2299 57.7919 71.1126 57.5614 71.0073 57.3755C70.7466 58.9591 69.7252 60.6836 69.6742 60.7689L69.4094 61.212L69.1778 60.7507C68.7517 59.9022 67.3685 57.6503 66.822 56.7668L64.0383 60.7037L60.7802 56.2302L56.7895 60.0458L56.5965 59.895C56.0529 59.4705 54.7775 56.8252 54.2795 55.7631C53.6345 56.3744 52.2478 58.1088 51.4086 59.2142L51.1965 59.4935L50.9679 59.2277C50.3635 58.5252 50.1048 56.7029 50.0048 55.6923C48.68 57.3841 47.6018 60.4804 47.5899 60.5148L47.0542 60.3299C47.1095 60.1694 48.4285 56.3836 50.035 54.8037L50.4806 54.3656L50.5168 54.9895C50.5597 55.7359 50.7615 57.6446 51.2035 58.5496C51.886 57.6637 53.6633 55.3992 54.2458 55.0711L54.5136 54.9201L54.6422 55.199C55.2481 56.5129 56.2842 58.6007 56.7834 59.2673L60.8571 55.3724L64.0317 59.7315L66.8524 55.7419L67.078 56.1037C67.1519 56.2222 68.6962 58.6995 69.4348 60.0288C69.83 59.2731 70.5548 57.7162 70.498 56.5641L70.4613 55.8209L70.9832 56.3515C71.0495 56.419 72.6122 58.0585 72.8946 62.7234L72.3284 62.7583Z" fill="white"/>
</g>
<mask id="mask48_2011_76956" style="mask-type:luminance" maskUnits="userSpaceOnUse" x="47" y="41" width="26" height="38">
<path d="M72.78 66.6327C72.1693 74.8672 65.5856 79.1556 58.8399 78.6553C52.094 78.155 46.6528 72.55 47.2635 64.3155C48.1383 52.5187 54.8813 40.5719 61.6272 41.0722C68.3728 41.5727 73.6394 55.0447 72.78 66.6327Z" fill="white"/>
</mask>
<g mask="url(#mask48_2011_76956)">
<path d="M70.5853 48.6977C70.474 46.8595 70.1009 45.6583 69.8076 44.9741C69.7124 44.7525 69.6194 44.5692 69.5356 44.4214C69.3285 45.6796 68.5171 47.0495 68.4765 47.1173L68.2661 47.4694L68.0821 47.103C67.7436 46.4289 66.6448 44.6397 66.2107 43.938L63.9992 47.066L61.411 43.5123L58.2407 46.5432L58.0872 46.4234C57.6554 46.0862 56.6423 43.9847 56.2465 43.1408C55.7341 43.6262 54.6326 45.0043 53.9658 45.8826L53.7974 46.1043L53.6159 45.8932C53.1359 45.335 52.9304 43.8874 52.851 43.0845C51.7984 44.4288 50.9419 46.8884 50.9326 46.9158L50.5069 46.7687C50.5509 46.6412 51.5988 43.6336 52.8751 42.3786L53.229 42.0306L53.2577 42.5263C53.292 43.1194 53.4521 44.6355 53.8032 45.3545C54.3454 44.6508 55.7575 42.8516 56.2201 42.5911L56.4327 42.4714L56.5349 42.693C57.0163 43.7367 57.8395 45.3953 58.2358 45.9251L61.4722 42.8309L63.9941 46.2937L66.235 43.1242L66.4143 43.4117C66.473 43.5059 67.6999 45.474 68.2867 46.5299C68.6007 45.9293 69.1766 44.6927 69.1311 43.7775L69.1019 43.187L69.5164 43.6087C69.5692 43.6623 70.8105 44.9646 71.035 48.6707L70.5853 48.6977Z" fill="white"/>
</g>
<mask id="mask49_2011_76956" style="mask-type:luminance" maskUnits="userSpaceOnUse" x="47" y="41" width="26" height="38">
<path d="M72.78 66.6327C72.1693 74.8672 65.5856 79.1556 58.8399 78.6553C52.094 78.155 46.6528 72.55 47.2635 64.3155C48.1383 52.5187 54.8813 40.5719 61.6272 41.0722C68.3728 41.5727 73.6394 55.0447 72.78 66.6327Z" fill="white"/>
</mask>
<g mask="url(#mask49_2011_76956)">
<path d="M72.8214 78.4738C72.6606 75.8196 72.1222 74.0852 71.6986 73.0977C71.5613 72.7773 71.4269 72.5132 71.306 72.2998C71.0068 74.1163 69.8354 76.094 69.7769 76.1921L69.4732 76.7004L69.2075 76.1711C68.7189 75.1979 67.1325 72.6151 66.5055 71.6017L63.3125 76.1176L59.5758 70.9865L54.9984 75.3628L54.7768 75.1898C54.1533 74.7031 52.6905 71.669 52.119 70.4506C51.3792 71.1515 49.7887 73.1409 48.8261 74.409L48.583 74.7293L48.3207 74.4245C47.6276 73.6187 47.3308 71.5288 47.2162 70.3695C45.6973 72.3096 44.4597 75.8615 44.4462 75.9009L43.8315 75.6888C43.8952 75.5049 45.4079 71.1622 47.2507 69.3503L47.7618 68.8479L47.8032 69.5635C47.8525 70.4196 48.084 72.6086 48.5908 73.6467C49.3736 72.6305 51.4121 70.0331 52.0803 69.6567L52.3874 69.4838L52.535 69.8038C53.23 71.3108 54.4184 73.7053 54.9909 74.4702L59.6635 70.0029L63.3047 75.0022L66.54 70.4266L66.7989 70.8416C66.8837 70.9776 68.655 73.8191 69.5021 75.3435C69.9554 74.4766 70.7868 72.6911 70.7214 71.3695L70.6793 70.5169L71.2778 71.1257C71.354 71.2031 73.146 73.0835 73.4701 78.4344L72.8214 78.4738Z" fill="white"/>
</g>
<mask id="mask50_2011_76956" style="mask-type:luminance" maskUnits="userSpaceOnUse" x="47" y="41" width="26" height="38">
<path d="M72.78 66.6327C72.1693 74.8672 65.5856 79.1556 58.8399 78.6553C52.094 78.155 46.6528 72.55 47.2635 64.3155C48.1383 52.5187 54.8813 40.5719 61.6272 41.0722C68.3728 41.5727 73.6394 55.0447 72.78 66.6327Z" fill="white"/>
</mask>
<g mask="url(#mask50_2011_76956)">
<path d="M72.5852 72.2772C72.4346 69.7927 71.9339 68.1684 71.54 67.2435C71.4767 67.0946 71.414 66.9585 71.3531 66.8349C70.9775 68.4657 70.0158 70.0898 69.9639 70.1765L69.5402 70.8856L69.1695 70.1476C68.7354 69.283 67.3796 67.0662 66.7256 66.0068L63.7041 70.2801L60.135 65.3796L55.8184 69.5065L55.5094 69.2652C54.925 68.8087 53.6674 66.2479 53.0311 64.8981C52.3695 65.5737 51.128 67.0965 50.0646 68.4973L49.7256 68.944L49.3597 68.5187C48.7472 67.8064 48.4511 66.1038 48.3168 64.9559C46.9917 66.8183 45.9402 69.838 45.9282 69.8733L45.0709 69.5776C45.1315 69.4016 46.5788 65.2476 48.3523 63.504L49.0651 62.803L49.1227 63.8011C49.1819 64.8212 49.3985 66.4746 49.7609 67.4032C50.6211 66.2921 52.3472 64.1214 52.9675 63.7721L53.3959 63.5308L53.6017 63.9771C54.3635 65.629 55.3221 67.504 55.8229 68.2476L60.2576 64.0076L63.693 68.725L66.7739 64.3676L67.135 64.9465C67.2114 65.0691 68.7272 67.5008 69.5727 68.9912C70.0077 68.1232 70.6464 66.6433 70.5916 65.5314L70.5329 64.342L71.3678 65.1911C71.4414 65.2661 73.1795 67.089 73.4902 72.2226L72.5852 72.2772Z" fill="#00DDDE"/>
</g>
<mask id="mask51_2011_76956" style="mask-type:luminance" maskUnits="userSpaceOnUse" x="49" y="41" width="26" height="39">
<path d="M74.7453 65.092C75.4266 73.3213 69.5922 78.5845 62.8508 79.1426C56.1091 79.7008 49.8599 75.0131 49.1786 66.7837C48.2025 54.9944 52.9994 42.1414 59.7411 41.5833C66.4825 41.0253 73.7865 53.5113 74.7453 65.092Z" fill="white"/>
</mask>
<g mask="url(#mask51_2011_76956)">
<path opacity="0.37" d="M64.5019 60.2114C66.7169 60.028 68.2591 56.8193 67.9466 53.0445C67.6341 49.2697 65.5851 46.3583 63.3702 46.5417C61.1552 46.7251 59.613 49.9338 59.9255 53.7086C60.238 57.4834 62.287 60.3948 64.5019 60.2114Z" fill="white"/>
</g>
<mask id="mask52_2011_76956" style="mask-type:luminance" maskUnits="userSpaceOnUse" x="47" y="41" width="26" height="38">
<path d="M72.78 66.6327C72.1693 74.8672 65.5856 79.1556 58.8399 78.6553C52.094 78.155 46.6528 72.55 47.2635 64.3155C48.1383 52.5187 54.8813 40.5719 61.6272 41.0722C68.3728 41.5727 73.6394 55.0447 72.78 66.6327Z" fill="white"/>
</mask>
<g mask="url(#mask52_2011_76956)">
<path opacity="0.03" d="M80.6205 66.0252C81.2821 72.5756 74.1439 77.4653 66.8695 77.1723C66.1902 77.4662 65.4785 77.6509 64.739 77.712C58.639 78.2169 52.9967 70.1988 52.1366 59.8032C51.4489 51.4924 54.0257 44.1788 58.2037 41.3214C60.3131 37.0389 62.2357 34.1826 62.2357 34.1826L53.8719 38.1726L48.0783 47.2196L45.8316 63.7013L45.0287 74.5271L52.0662 79.7873L67.9394 81.6047L76.3312 80.6904L83.4925 73.922L80.6205 66.0252Z" fill="#242E36"/>
</g>
<mask id="mask53_2011_76956" style="mask-type:luminance" maskUnits="userSpaceOnUse" x="47" y="41" width="26" height="38">
<path d="M72.78 66.6327C72.1693 74.8672 65.5856 79.1556 58.8399 78.6553C52.094 78.155 46.6528 72.55 47.2635 64.3155C48.1383 52.5187 54.8813 40.5719 61.6272 41.0722C68.3728 41.5727 73.6394 55.0447 72.78 66.6327Z" fill="white"/>
</mask>
<g mask="url(#mask53_2011_76956)">
<path opacity="0.27" d="M74.0166 57.7323C73.1564 47.3367 67.5141 39.3186 61.4141 39.8235C60.1908 39.9246 59.0422 40.3618 57.994 41.0787C53.8163 43.9362 51.2393 51.2497 51.9269 59.5605C52.7873 69.9561 58.4296 77.9742 64.5294 77.4693C65.2687 77.4082 65.9806 77.2235 66.6598 76.9296C71.5837 74.7984 74.7725 66.8679 74.0166 57.7323Z" fill="white"/>
</g>
<path d="M14.6998 62.1043C12.9598 71.5369 13.784 81.1526 16.7145 90.3104C24.865 116.044 53.5289 119.157 64.3351 118.883C82.9255 118.425 98.1275 109.45 104.63 98.3692C113.329 83.3504 112.322 62.5622 110.124 62.0127C109.025 61.738 107.926 62.1043 106.919 62.379C100.051 64.3022 84.0244 69.2474 63.053 68.6979C32.0081 67.9653 17.6303 61.4633 16.3482 61.6464C15.0661 61.9212 14.0588 63.2948 14.6998 62.1043Z" fill="#CE965D"/>
<path d="M102.981 85.6399C100.692 87.1967 98.4023 88.8451 96.1128 90.4935C95.3802 90.3104 94.6476 90.1272 94.0065 89.9441C92.3581 89.4862 90.6181 89.0283 88.9697 88.4788C86.4056 87.6546 83.9329 86.7388 81.4603 85.7315C81.8266 85.4567 82.193 85.182 82.5593 84.9988C84.2993 83.8083 86.0392 82.6178 87.7792 81.4273C89.5192 80.2368 91.4424 79.0463 93.0908 77.581C93.5487 77.1231 92.9992 76.2989 92.4497 76.5736C88.9697 77.7642 85.7645 80.2368 82.834 82.3431C81.6435 83.1673 80.5446 83.9915 79.4456 84.8157C79.354 84.8157 79.2625 84.7241 79.1709 84.7241C73.1267 81.9767 67.2657 78.4052 60.6721 76.94C59.6647 76.6652 59.2984 78.3136 60.3058 78.4968C66.4415 80.0536 71.6615 83.6252 77.3393 86.3725C76.1488 87.2883 74.8667 88.2041 73.6762 89.0283C71.0204 90.9514 68.2731 92.8745 65.5257 94.7977C65.3426 94.7061 65.0679 94.6145 64.8847 94.4314C60.5805 92.1419 56.3679 89.6693 52.3385 87.0135C52.7964 86.7388 53.3459 86.3725 53.8037 86.0978C56.3679 84.4494 59.0237 82.801 61.4963 80.8778C61.9542 80.5115 61.6795 79.5041 61.0384 79.7789C58.2911 80.8778 55.91 82.5262 53.529 84.2662C52.7048 84.8157 51.789 85.4567 50.9648 86.0062C49.5912 84.9988 48.1259 83.9915 46.8438 82.9841C44.4628 81.1526 42.1733 79.321 39.8839 77.3063C40.067 77.1231 40.2502 76.8484 40.3418 76.5736C40.4334 76.2989 40.067 76.0242 39.8839 76.1158C39.6092 76.2073 39.3344 76.3905 39.0597 76.5736C38.5102 76.0242 37.8692 75.5663 37.3197 75.0168C36.7702 74.4673 35.946 75.3831 36.4955 75.9326C37.045 76.3905 37.5029 76.94 38.0523 77.3978C37.5944 77.7642 37.045 78.1305 36.5871 78.4052C35.305 79.2294 34.0229 80.0536 32.6492 80.7862C31.0008 81.702 29.3524 82.4346 27.6124 83.2588C26.2388 81.4273 24.8651 79.5957 23.4914 77.7642C23.0335 77.1231 21.9346 77.7642 22.3925 78.4052C23.6746 80.2368 24.9567 82.0683 26.2388 83.8083C25.6893 84.083 25.1398 84.2662 24.5903 84.541C23.8577 84.9073 24.224 86.0978 24.9567 85.823C25.5977 85.5483 26.3303 85.2736 26.9714 84.9988C29.5356 88.662 32.0997 92.2335 35.0302 95.6219C33.2903 96.4461 31.4587 97.0871 29.6271 97.7282C28.8945 98.0029 29.2608 99.1019 29.9934 98.9187C32.0082 98.2776 34.0229 97.545 35.946 96.7208C36.4039 97.1787 36.7702 97.6366 37.2281 98.1861C40.1586 101.3 43.547 103.864 47.1185 106.245C46.2943 106.611 45.5617 106.886 44.7375 107.161C44.0965 107.344 44.3712 108.443 45.1038 108.26C46.2028 107.893 47.3017 107.527 48.4007 107.069C50.7817 108.534 53.2543 109.908 55.8185 111.19C57.7416 112.198 59.6648 113.113 61.4963 114.029C63.4195 114.945 65.3426 115.952 67.3573 116.685C67.8152 116.868 68.2731 116.135 67.8152 115.769C64.9763 113.571 61.4963 111.923 58.1995 110.274C55.6353 108.901 53.0711 107.527 50.5985 105.97C55.3606 103.772 59.7563 100.75 64.1521 97.8198C64.5184 97.545 64.8847 97.2703 65.3426 96.9956C67.7236 98.2776 70.1962 99.4682 72.6688 100.567C74.8667 101.574 77.0646 102.49 79.2625 103.314C75.5993 105.879 71.8446 108.351 68.0899 110.732C67.3573 111.19 68.0899 112.381 68.8226 111.923C73.0352 109.359 77.2477 106.703 81.3687 103.955C82.3761 104.23 83.3835 104.505 84.2993 104.688C85.0319 104.871 85.5814 103.772 84.8487 103.314C84.2993 103.04 83.8414 102.857 83.2919 102.582C84.574 101.758 85.8561 100.842 87.0466 100.018C90.3434 97.7282 93.4571 95.4387 96.5707 92.9661C97.3949 93.0577 98.2191 93.1493 99.0433 93.0577C99.776 92.9661 100.142 92.0503 99.4096 91.5924C99.2265 91.5009 98.9517 91.3177 98.7686 91.2261C100.6 89.7609 102.34 88.2041 103.989 86.5557C104.263 86.0978 103.531 85.182 102.981 85.6399ZM36.6787 94.7977C34.8471 92.8745 33.1987 90.8598 31.5503 88.7535C30.4513 87.2883 29.3524 85.9146 28.2535 84.4494C29.9019 83.7167 31.5503 82.8925 33.1987 82.0683C34.5724 81.3357 35.946 80.5115 37.2281 79.6873C37.7776 79.321 38.3271 78.8631 38.785 78.4052C42.1733 81.5189 45.6533 84.4494 49.3164 87.1051C48.1259 87.9293 46.9354 88.7535 45.6533 89.5777C42.8144 91.4093 39.7923 93.2409 36.6787 94.7977ZM55.6353 101.574C53.529 102.857 51.4227 104.047 49.2248 105.146C48.9501 104.963 48.6754 104.78 48.4007 104.597C45.287 102.582 42.2649 100.292 39.5176 97.6366C38.8765 96.9956 38.2355 96.3545 37.5944 95.7135C40.5249 94.2482 43.2723 92.6914 46.0196 90.9514C47.5764 89.9441 49.1333 89.0283 50.6901 88.0209C54.8111 90.9514 59.1153 93.6987 63.6026 96.0798C61.0384 98.0029 58.3827 99.8345 55.6353 101.574ZM85.6729 98.4608C84.2077 99.5597 82.6509 100.659 81.094 101.758C78.8962 100.842 76.7898 100.018 74.592 99.1019C72.0278 98.0029 69.4636 96.8124 66.991 95.5303C71.0204 92.783 75.1414 89.9441 79.1709 87.1967C82.193 88.5704 85.215 89.7609 88.3287 90.7683C89.9771 91.3177 91.6255 91.7756 93.3655 92.2335C93.4571 92.2335 93.4571 92.2335 93.5487 92.3251C90.8929 94.3398 88.3287 96.4461 85.6729 98.4608Z" fill="#916332"/>
<path d="M112.139 79.5042C112.139 81.7021 110.216 83.442 108.018 83.1673C94.2812 81.6105 78.9876 80.5115 62.1373 80.6031C45.2869 80.6031 29.8102 81.702 16.0735 83.3504C14.4251 83.5336 12.9598 82.2515 12.9598 80.6031V73.0937H112.047V79.5042H112.139Z" fill="#DFA950"/>
<path d="M12.5021 61.3717L111.406 61.0054C115.07 61.0054 118 64.0274 118 67.7821C118 71.5368 115.07 74.5589 111.498 74.5589L12.5936 74.9253C8.9305 74.9253 6 71.9032 6 68.1485C6 64.4853 8.83893 61.4633 12.5021 61.3717Z" fill="#B77437"/>
<path d="M62.1375 76.9646C62.1375 76.9646 69.189 67.1658 76.2405 67.6237C83.292 68.0816 84.3909 78.0636 81.3689 82.6425C79.0794 86.1225 71.9363 85.9393 63.1448 80.0783C63.1448 80.0783 59.5733 79.6204 62.1375 76.9646Z" fill="#FFCC79"/>
<g opacity="0.18">
<path d="M72.9436 70.7374C74.6836 70.3711 76.5151 70.829 77.8888 71.9279C79.2625 72.9353 80.0867 74.4921 80.3614 76.1405C80.453 76.5068 80.9109 76.7815 81.2772 76.69C81.7351 76.5984 81.8266 76.1405 81.8266 75.7742C81.4603 73.7595 80.3614 71.9279 78.6214 70.6458C76.8814 69.3637 74.592 68.9058 72.4857 69.3637C72.1194 69.4553 71.8446 69.9132 71.9362 70.2795C72.1194 70.5542 72.5773 70.7374 72.9436 70.7374Z" fill="white"/>
</g>
<path d="M61.7711 77.4226C61.7711 77.4226 54.7196 67.6237 47.6681 68.0816C40.6166 68.5395 39.5177 78.5215 42.5397 83.1004C44.8292 86.5804 51.9723 86.3973 60.7638 80.5363C60.7638 80.5363 64.3353 80.0783 61.7711 77.4226Z" fill="#FFCC79"/>
<g opacity="0.18">
<path d="M51.4228 69.7301C49.3165 69.3638 47.0271 69.7301 45.2871 71.0122C43.6387 72.2027 42.4482 74.0343 42.0819 76.1406C41.9903 76.5069 42.1734 76.9648 42.6313 77.0563C42.9976 77.1479 43.4555 76.9648 43.5471 76.5069C43.8218 74.8585 44.646 73.3017 46.0197 72.2943C47.3934 71.2869 49.3165 70.829 50.9649 71.1038C51.3313 71.1953 51.7891 71.0122 51.8807 70.5543C51.9723 70.2796 51.7891 69.8217 51.4228 69.7301Z" fill="white"/>
</g>
<path d="M63.1448 77.6973L71.4784 73.851" stroke="#CE6B19" stroke-miterlimit="10" stroke-linecap="round"/>
<path d="M63.2365 79.071L71.5701 78.7047" stroke="#CE6B19" stroke-miterlimit="10" stroke-linecap="round"/>
<path d="M61.313 77.7889C61.313 77.7889 52.9794 75.6826 52.5215 75.4079" stroke="#CE6B19" stroke-miterlimit="10" stroke-linecap="round"/>
<path d="M61.0384 79.3457C61.0384 79.3457 54.2616 79.6205 52.9795 79.712" stroke="#CE6B19" stroke-miterlimit="10" stroke-linecap="round"/>
<path d="M65.0679 78.5215C65.1595 80.1699 63.8774 81.5436 62.229 81.5436C60.5805 81.6352 59.2069 80.3531 59.2069 78.7047C59.1153 77.0563 60.3974 75.6826 62.0458 75.6826C63.6942 75.591 65.0679 76.8731 65.0679 78.5215Z" fill="#E9A427"/>
</g>
<defs>
<clipPath id="clip0_2011_76956">
<rect width="120" height="120" fill="white"/>
</clipPath>
</defs>
</svg>
