<svg width="120" height="120" viewBox="0 0 120 120" fill="none" xmlns="http://www.w3.org/2000/svg">
<g clip-path="url(#clip0_2011_76741)">
<path d="M105.172 40.0488C103.523 34.1878 101.692 28.2352 99.2192 22.7405C96.7466 17.3374 93.5414 12.3922 89.1456 8.45431C85.1162 4.88276 80.0794 2.50174 74.951 1.21965C64.7859 -1.34454 53.5217 0.212304 44.2724 5.15752C35.2061 9.91958 28.3378 17.8869 24.5831 27.5026C20.0042 39.3161 17.1653 52.0455 18.081 64.7748C18.1726 66.3317 18.3558 67.9801 18.6305 69.5369C18.9968 72.0095 22.7515 71.5516 22.4768 68.9874C21.1947 57.1739 23.301 45.0856 27.0557 33.913C28.7041 29.0594 30.6272 24.3889 33.6493 20.2679C36.3051 16.5132 39.5103 13.5827 43.3566 11.0185C51.1407 5.89014 61.1227 3.69227 70.3721 5.06594C75.1342 5.79856 79.8046 7.35539 83.7425 10.1027C88.0467 13.0332 91.2519 17.3374 93.633 21.9163C96.1971 26.8615 97.9371 32.173 99.5855 37.4846C100.501 40.5067 101.417 43.5287 102.058 46.6424C102.791 49.8476 103.066 53.0529 103.249 56.3497C103.34 57.9065 103.432 59.5549 103.707 61.1117C103.89 62.2106 104.897 63.1264 106.088 62.9433C107.37 62.7601 107.919 61.7528 107.919 60.5623C107.919 57.1739 107.828 53.7855 107.37 50.4887C107.003 46.734 106.179 43.4371 105.172 40.0488Z" fill="#B77437"/>
<mask id="mask0_2011_76741" style="mask-type:luminance" maskUnits="userSpaceOnUse" x="48" y="33" width="28" height="41">
<path d="M75.4796 60.9047C74.8264 69.7118 67.7848 74.2984 60.57 73.7633C53.355 73.2283 47.5354 67.2335 48.1886 58.4264C49.1243 45.8092 56.3361 33.0317 63.5511 33.5668C70.7659 34.1021 76.3987 48.5109 75.4796 60.9047Z" fill="white"/>
</mask>
<g mask="url(#mask0_2011_76741)">
<path d="M81.0518 30.0303L45.5056 27.3941L41.8203 77.086L77.3665 79.7222L81.0518 30.0303Z" fill="#FFB41B"/>
</g>
<mask id="mask1_2011_76741" style="mask-type:luminance" maskUnits="userSpaceOnUse" x="48" y="33" width="28" height="41">
<path d="M75.4796 60.9047C74.8264 69.7118 67.7848 74.2984 60.57 73.7633C53.355 73.2283 47.5354 67.2335 48.1886 58.4264C49.1243 45.8092 56.3361 33.0317 63.5511 33.5668C70.7659 34.1021 76.3987 48.5109 75.4796 60.9047Z" fill="white"/>
</mask>
<g mask="url(#mask1_2011_76741)">
<path d="M75.0399 50.4079C74.8851 47.8503 74.3575 46.2299 73.9157 45.2914C73.5331 46.8298 72.6492 48.3219 72.6003 48.4036L72.1471 49.162L71.7506 48.3726C71.3408 47.5569 70.0771 45.4876 69.4335 44.4442L66.5229 48.5607L63.0739 43.825L58.9208 47.7958L58.5903 47.5377C58.028 47.0986 56.8394 44.6899 56.2155 43.3701C55.5726 44.038 54.4083 45.4693 53.4068 46.7884L53.0442 47.2662L52.6531 46.8113C52.0766 46.1414 51.7882 44.5817 51.6512 43.4733C50.4127 45.2676 49.4364 48.0687 49.4252 48.102L48.5083 47.7854C48.5669 47.6153 49.9664 43.599 51.6845 41.9097L52.4469 41.16L52.5088 42.2275C52.5639 43.181 52.7614 44.7094 53.0902 45.608C53.9803 44.459 55.5519 42.495 56.1455 42.1607L56.6037 41.9024L56.8238 42.38C57.5417 43.9372 58.4435 45.7053 58.9303 46.445L63.2057 42.3574L66.5117 46.8969L69.4858 42.6904L69.872 43.3095C69.9442 43.4257 71.3557 45.6899 72.1794 47.1343C72.5948 46.2932 73.168 44.9302 73.1171 43.9016L73.0544 42.6294L73.9473 43.5376C74.0189 43.6106 75.7071 45.3808 76.0079 50.3492L75.0399 50.4079Z" fill="#FF5D7C"/>
</g>
<mask id="mask2_2011_76741" style="mask-type:luminance" maskUnits="userSpaceOnUse" x="48" y="33" width="28" height="41">
<path d="M75.4796 60.9047C74.8264 69.7118 67.7848 74.2984 60.57 73.7633C53.355 73.2283 47.5354 67.2335 48.1886 58.4264C49.1243 45.8092 56.3361 33.0317 63.5511 33.5668C70.7659 34.1021 76.3987 48.5109 75.4796 60.9047Z" fill="white"/>
</mask>
<g mask="url(#mask2_2011_76741)">
<path d="M74.9965 56.7609C74.8467 54.2861 74.3444 52.6689 73.9496 51.7478C73.8216 51.4491 73.6962 51.2026 73.5836 51.0038C73.3047 52.6974 72.2123 54.5419 72.1577 54.6332L71.8745 55.107L71.6269 54.6137C71.1711 53.7062 69.6918 51.2976 69.1073 50.3527L66.13 54.5634L62.6453 49.7789L58.3771 53.8598L58.1707 53.6984C57.5893 53.2444 56.2251 50.4152 55.6926 49.2793C55.0027 49.9331 53.5196 51.788 52.622 52.9704L52.3952 53.2691L52.1506 52.9848C51.5042 52.2334 51.2276 50.2844 51.1206 49.2035C49.7037 51.013 48.5505 54.3246 48.5377 54.3614L47.9648 54.1636C48.024 53.992 49.4347 49.9429 51.1529 48.2531L51.6295 47.7846L51.6681 48.4518C51.7141 49.2501 51.9299 51.2916 52.4026 52.2595C53.1326 51.312 55.0335 48.8901 55.6565 48.5391L55.9429 48.3776L56.0805 48.6759C56.7285 50.0812 57.8366 52.3142 58.3706 53.0272L62.7276 48.8614L66.1229 53.5236L69.1397 49.2566L69.3811 49.6435C69.4601 49.7703 71.1117 52.4198 71.9017 53.8415C72.3245 53.0333 73.0997 51.3682 73.0388 50.136L72.9996 49.341L73.5578 49.9086C73.6287 49.9807 75.3 51.7342 75.6022 56.7236L74.9965 56.7609Z" fill="white"/>
</g>
<mask id="mask3_2011_76741" style="mask-type:luminance" maskUnits="userSpaceOnUse" x="48" y="33" width="28" height="41">
<path d="M75.4796 60.9047C74.8264 69.7118 67.7848 74.2984 60.57 73.7633C53.355 73.2283 47.5354 67.2335 48.1886 58.4264C49.1243 45.8092 56.3361 33.0317 63.5511 33.5668C70.7659 34.1021 76.3987 48.5109 75.4796 60.9047Z" fill="white"/>
</mask>
<g mask="url(#mask3_2011_76741)">
<path d="M73.1322 41.7226C73.0132 39.7565 72.6141 38.4718 72.3004 37.74C72.1986 37.503 72.0992 37.3069 72.0096 37.1489C71.7881 38.4945 70.9202 39.9597 70.8768 40.0322L70.6517 40.4088L70.455 40.017C70.0929 39.296 68.9177 37.3824 68.4534 36.6319L66.0881 39.9774L63.32 36.1765L59.9292 39.4183L59.7651 39.2901C59.3032 38.9294 58.2196 36.6818 57.7964 35.7792C57.2483 36.2983 56.0702 37.7723 55.3571 38.7117L55.1769 38.9488L54.9828 38.723C54.4694 38.126 54.2496 36.5778 54.1647 35.719C53.0389 37.1568 52.1228 39.7874 52.1129 39.8167L51.6576 39.6594C51.7047 39.5231 52.8255 36.3063 54.1905 34.964L54.569 34.5918L54.5997 35.122C54.6364 35.7563 54.8076 37.3779 55.1832 38.1468C55.7631 37.3942 57.2733 35.4699 57.7681 35.1913L57.9955 35.0632L58.1048 35.3003C58.6197 36.4166 59.5001 38.1905 59.924 38.7571L63.3854 35.4477L66.0827 39.1513L68.4795 35.7614L68.6711 36.0689C68.734 36.1697 70.0462 38.2746 70.6738 39.4039C71.0096 38.7616 71.6255 37.439 71.5769 36.4602L71.5457 35.8286L71.9891 36.2796C72.0455 36.337 73.3731 37.7299 73.6132 41.6936L73.1322 41.7226Z" fill="white"/>
</g>
<mask id="mask4_2011_76741" style="mask-type:luminance" maskUnits="userSpaceOnUse" x="48" y="33" width="28" height="41">
<path d="M75.4796 60.9047C74.8264 69.7118 67.7848 74.2984 60.57 73.7633C53.355 73.2283 47.5354 67.2335 48.1886 58.4264C49.1243 45.8092 56.3361 33.0317 63.5511 33.5668C70.7659 34.1021 76.3987 48.5109 75.4796 60.9047Z" fill="white"/>
</mask>
<g mask="url(#mask4_2011_76741)">
<path d="M75.5238 73.5692C75.3519 70.7304 74.776 68.8755 74.323 67.8193C74.1761 67.4766 74.0324 67.1941 73.9031 66.9659C73.583 68.9087 72.3302 71.0239 72.2677 71.1289L71.9428 71.6725L71.6587 71.1064C71.1361 70.0656 69.4393 67.3031 68.7688 66.2192L65.3538 71.0492L61.3572 65.5613L56.4614 70.2419L56.2245 70.0569C55.5576 69.5363 53.993 66.2912 53.3819 64.9882C52.5906 65.7378 50.8895 67.8655 49.8599 69.2218L49.5999 69.5643L49.3194 69.2383C48.5781 68.3766 48.2606 66.1412 48.1381 64.9013C46.5136 66.9763 45.1899 70.7753 45.1754 70.8174L44.5181 70.5906C44.5861 70.3938 46.2041 65.7492 48.175 63.8112L48.7216 63.274L48.7659 64.0393C48.8187 64.9549 49.0663 67.2962 49.6082 68.4064C50.4455 67.3196 52.6258 64.5416 53.3404 64.139L53.6689 63.9541L53.8267 64.2963C54.57 65.9081 55.8412 68.4692 56.4534 69.2872L61.4509 64.5092L65.3453 69.8563L68.8056 64.9624L69.0825 65.4063C69.1733 65.5518 71.0677 68.5909 71.9737 70.2212C72.4585 69.2941 73.3477 67.3844 73.2779 65.9709L73.2328 65.059L73.873 65.7101C73.9544 65.7929 75.871 67.8041 76.2177 73.5271L75.5238 73.5692Z" fill="white"/>
</g>
<mask id="mask5_2011_76741" style="mask-type:luminance" maskUnits="userSpaceOnUse" x="48" y="33" width="28" height="41">
<path d="M75.4796 60.9047C74.8264 69.7118 67.7848 74.2984 60.57 73.7633C53.355 73.2283 47.5354 67.2335 48.1886 58.4264C49.1243 45.8092 56.3361 33.0317 63.5511 33.5668C70.7659 34.1021 76.3987 48.5109 75.4796 60.9047Z" fill="white"/>
</mask>
<g mask="url(#mask5_2011_76741)">
<path d="M75.2712 66.9418C75.1101 64.2844 74.5746 62.5472 74.1533 61.558C74.0856 61.3987 74.0186 61.2532 73.9534 61.1209C73.5517 62.8652 72.5231 64.6022 72.4676 64.695L72.0145 65.4534L71.618 64.664C71.1537 63.7393 69.7036 61.3683 69.0041 60.2353L65.7725 64.8057L61.9552 59.5644L57.3385 63.9784L57.008 63.7203C56.3829 63.232 55.0379 60.4931 54.3573 59.0495C53.6497 59.772 52.3218 61.4008 51.1846 62.899L50.822 63.3767L50.4306 62.9219C49.7755 62.16 49.4588 60.339 49.3152 59.1113C47.8979 61.1032 46.7733 64.3329 46.7604 64.3707L45.8435 64.0544C45.9084 63.8661 47.4563 59.4233 49.3531 57.5584L50.1155 56.8087L50.1772 57.8761C50.2404 58.9672 50.4721 60.7357 50.8597 61.7288C51.7797 60.5404 53.6259 58.2187 54.2893 57.8452L54.7474 57.5871L54.9676 58.0645C55.7824 59.8312 56.8076 61.8366 57.3433 62.6319L62.0863 58.097L65.7607 63.1424L69.0558 58.4821L69.442 59.1012C69.5237 59.2324 71.1449 61.8331 72.0492 63.4272C72.5145 62.4988 73.1975 60.916 73.139 59.7269L73.0762 58.4547L73.9691 59.3628C74.0479 59.4431 75.9068 61.3927 76.2392 66.8833L75.2712 66.9418Z" fill="#00DDDE"/>
</g>
<mask id="mask6_2011_76741" style="mask-type:luminance" maskUnits="userSpaceOnUse" x="50" y="34" width="28" height="41">
<path d="M77.5814 59.2569C78.3101 68.0584 72.0699 73.6876 64.8597 74.2845C57.6492 74.8815 50.9654 69.8678 50.2367 61.0662C49.1928 48.457 54.3233 34.7103 61.5338 34.1133C68.744 33.5166 76.5559 46.8709 77.5814 59.2569Z" fill="white"/>
</mask>
<g mask="url(#mask6_2011_76741)">
<path opacity="0.37" d="M66.6258 54.0369C68.9948 53.8407 70.6442 50.4089 70.31 46.3716C69.9757 42.3343 67.7843 39.2205 65.4153 39.4166C63.0463 39.6128 61.3968 43.0446 61.7311 47.0819C62.0653 51.1191 64.2568 54.233 66.6258 54.0369Z" fill="white"/>
</g>
<mask id="mask7_2011_76741" style="mask-type:luminance" maskUnits="userSpaceOnUse" x="48" y="33" width="28" height="41">
<path d="M75.4796 60.9047C74.8264 69.7118 67.7848 74.2984 60.57 73.7633C53.355 73.2283 47.5354 67.2335 48.1886 58.4264C49.1243 45.8092 56.3361 33.0317 63.5511 33.5668C70.7659 34.1021 76.3987 48.5109 75.4796 60.9047Z" fill="white"/>
</mask>
<g mask="url(#mask7_2011_76741)">
<path opacity="0.03" d="M83.8652 60.255C84.5728 67.2609 76.9383 72.4906 69.1579 72.1772C68.4315 72.4916 67.6703 72.6891 66.8793 72.7545C60.3552 73.2945 54.3205 64.7188 53.4005 53.6003C52.6651 44.7116 55.421 36.8894 59.8895 33.8333C62.1456 29.253 64.202 26.1981 64.202 26.1981L55.2566 30.4655L49.0601 40.1417L46.6571 57.7695L45.7984 69.3481L53.3253 74.9741L70.3023 76.9179L79.2777 75.94L86.9369 68.7009L83.8652 60.255Z" fill="#242E36"/>
</g>
<mask id="mask8_2011_76741" style="mask-type:luminance" maskUnits="userSpaceOnUse" x="48" y="33" width="28" height="41">
<path d="M75.4796 60.9047C74.8264 69.7118 67.7848 74.2984 60.57 73.7633C53.355 73.2283 47.5354 67.2335 48.1886 58.4264C49.1243 45.8092 56.3361 33.0317 63.5511 33.5668C70.7659 34.1021 76.3987 48.5109 75.4796 60.9047Z" fill="white"/>
</mask>
<g mask="url(#mask8_2011_76741)">
<path opacity="0.27" d="M76.8021 51.3854C75.8822 40.2669 69.8475 31.6912 63.3233 32.2312C62.015 32.3393 60.7864 32.8069 59.6654 33.5737C55.1971 36.6299 52.4409 44.452 53.1764 53.3407C54.0966 64.4592 60.1313 73.0349 66.6552 72.4949C67.4459 72.4295 68.2073 72.232 68.9338 71.9176C74.2001 69.6382 77.6107 61.1563 76.8021 51.3854Z" fill="white"/>
</g>
<path d="M14.6998 62.1043C12.9598 71.5369 13.784 81.1526 16.7145 90.3104C24.865 116.044 53.5289 119.157 64.3351 118.883C82.9255 118.425 98.1275 109.45 104.63 98.3692C113.329 83.3504 112.322 62.5622 110.124 62.0127C109.025 61.738 107.926 62.1043 106.919 62.379C100.051 64.3022 84.0244 69.2474 63.053 68.6979C32.0081 67.9653 17.6303 61.4633 16.3482 61.6464C15.0661 61.9212 14.0588 63.2948 14.6998 62.1043Z" fill="#CE965D"/>
<path d="M102.981 85.6399C100.692 87.1967 98.4023 88.8451 96.1128 90.4935C95.3802 90.3104 94.6476 90.1272 94.0065 89.9441C92.3581 89.4862 90.6181 89.0283 88.9697 88.4788C86.4056 87.6546 83.9329 86.7388 81.4603 85.7315C81.8266 85.4567 82.193 85.182 82.5593 84.9988C84.2993 83.8083 86.0392 82.6178 87.7792 81.4273C89.5192 80.2368 91.4424 79.0463 93.0908 77.581C93.5487 77.1231 92.9992 76.2989 92.4497 76.5736C88.9697 77.7642 85.7645 80.2368 82.834 82.3431C81.6435 83.1673 80.5446 83.9915 79.4456 84.8157C79.354 84.8157 79.2625 84.7241 79.1709 84.7241C73.1267 81.9767 67.2657 78.4052 60.6721 76.94C59.6647 76.6652 59.2984 78.3136 60.3058 78.4968C66.4415 80.0536 71.6615 83.6252 77.3393 86.3725C76.1488 87.2883 74.8667 88.2041 73.6762 89.0283C71.0204 90.9514 68.2731 92.8745 65.5257 94.7977C65.3426 94.7061 65.0679 94.6145 64.8847 94.4314C60.5805 92.1419 56.3679 89.6693 52.3385 87.0135C52.7964 86.7388 53.3459 86.3725 53.8037 86.0978C56.3679 84.4494 59.0237 82.801 61.4963 80.8778C61.9542 80.5115 61.6795 79.5041 61.0384 79.7789C58.2911 80.8778 55.91 82.5262 53.529 84.2662C52.7048 84.8157 51.789 85.4567 50.9648 86.0062C49.5912 84.9988 48.1259 83.9915 46.8438 82.9841C44.4628 81.1526 42.1733 79.321 39.8839 77.3063C40.067 77.1231 40.2502 76.8484 40.3418 76.5736C40.4334 76.2989 40.067 76.0242 39.8839 76.1158C39.6092 76.2073 39.3344 76.3905 39.0597 76.5736C38.5102 76.0242 37.8692 75.5663 37.3197 75.0168C36.7702 74.4673 35.946 75.3831 36.4955 75.9326C37.045 76.3905 37.5029 76.94 38.0523 77.3978C37.5944 77.7642 37.045 78.1305 36.5871 78.4052C35.305 79.2294 34.0229 80.0536 32.6492 80.7862C31.0008 81.702 29.3524 82.4346 27.6124 83.2588C26.2388 81.4273 24.8651 79.5957 23.4914 77.7642C23.0335 77.1231 21.9346 77.7642 22.3925 78.4052C23.6746 80.2368 24.9567 82.0683 26.2388 83.8083C25.6893 84.083 25.1398 84.2662 24.5903 84.541C23.8577 84.9073 24.224 86.0978 24.9567 85.823C25.5977 85.5483 26.3303 85.2736 26.9714 84.9988C29.5356 88.662 32.0997 92.2335 35.0302 95.6219C33.2903 96.4461 31.4587 97.0871 29.6271 97.7282C28.8945 98.0029 29.2608 99.1019 29.9934 98.9187C32.0082 98.2776 34.0229 97.545 35.946 96.7208C36.4039 97.1787 36.7702 97.6366 37.2281 98.1861C40.1586 101.3 43.547 103.864 47.1185 106.245C46.2943 106.611 45.5617 106.886 44.7375 107.161C44.0965 107.344 44.3712 108.443 45.1038 108.26C46.2028 107.893 47.3017 107.527 48.4007 107.069C50.7817 108.534 53.2543 109.908 55.8185 111.19C57.7416 112.198 59.6648 113.113 61.4963 114.029C63.4195 114.945 65.3426 115.952 67.3573 116.685C67.8152 116.868 68.2731 116.135 67.8152 115.769C64.9763 113.571 61.4963 111.923 58.1995 110.274C55.6353 108.901 53.0711 107.527 50.5985 105.97C55.3606 103.772 59.7563 100.75 64.1521 97.8198C64.5184 97.545 64.8847 97.2703 65.3426 96.9956C67.7236 98.2776 70.1962 99.4682 72.6688 100.567C74.8667 101.574 77.0646 102.49 79.2625 103.314C75.5993 105.879 71.8446 108.351 68.0899 110.732C67.3573 111.19 68.0899 112.381 68.8226 111.923C73.0352 109.359 77.2477 106.703 81.3687 103.955C82.3761 104.23 83.3835 104.505 84.2993 104.688C85.0319 104.871 85.5814 103.772 84.8487 103.314C84.2993 103.04 83.8414 102.857 83.2919 102.582C84.574 101.758 85.8561 100.842 87.0466 100.018C90.3434 97.7282 93.4571 95.4387 96.5707 92.9661C97.3949 93.0577 98.2191 93.1493 99.0433 93.0577C99.776 92.9661 100.142 92.0503 99.4096 91.5924C99.2265 91.5009 98.9517 91.3177 98.7686 91.2261C100.6 89.7609 102.34 88.2041 103.989 86.5557C104.263 86.0978 103.531 85.182 102.981 85.6399ZM36.6787 94.7977C34.8471 92.8745 33.1987 90.8598 31.5503 88.7535C30.4513 87.2883 29.3524 85.9146 28.2535 84.4494C29.9019 83.7167 31.5503 82.8925 33.1987 82.0683C34.5724 81.3357 35.946 80.5115 37.2281 79.6873C37.7776 79.321 38.3271 78.8631 38.785 78.4052C42.1733 81.5189 45.6533 84.4494 49.3164 87.1051C48.1259 87.9293 46.9354 88.7535 45.6533 89.5777C42.8144 91.4093 39.7923 93.2409 36.6787 94.7977ZM55.6353 101.574C53.529 102.857 51.4227 104.047 49.2248 105.146C48.9501 104.963 48.6754 104.78 48.4007 104.597C45.287 102.582 42.2649 100.292 39.5176 97.6366C38.8765 96.9956 38.2355 96.3545 37.5944 95.7135C40.5249 94.2482 43.2723 92.6914 46.0196 90.9514C47.5764 89.9441 49.1333 89.0283 50.6901 88.0209C54.8111 90.9514 59.1153 93.6987 63.6026 96.0798C61.0384 98.0029 58.3827 99.8345 55.6353 101.574ZM85.6729 98.4608C84.2077 99.5597 82.6509 100.659 81.094 101.758C78.8962 100.842 76.7898 100.018 74.592 99.1019C72.0278 98.0029 69.4636 96.8124 66.991 95.5303C71.0204 92.783 75.1414 89.9441 79.1709 87.1967C82.193 88.5704 85.215 89.7609 88.3287 90.7683C89.9771 91.3177 91.6255 91.7756 93.3655 92.2335C93.4571 92.2335 93.4571 92.2335 93.5487 92.3251C90.8929 94.3398 88.3287 96.4461 85.6729 98.4608Z" fill="#916332"/>
<path d="M112.139 79.5042C112.139 81.7021 110.216 83.442 108.018 83.1673C94.2812 81.6105 78.9876 80.5115 62.1373 80.6031C45.2869 80.6031 29.8102 81.702 16.0735 83.3504C14.4251 83.5336 12.9598 82.2515 12.9598 80.6031V73.0937H112.047V79.5042H112.139Z" fill="#DFA950"/>
<path d="M12.5021 61.3717L111.406 61.0054C115.07 61.0054 118 64.0274 118 67.7821C118 71.5368 115.07 74.5589 111.498 74.5589L12.5936 74.9253C8.9305 74.9253 6 71.9032 6 68.1485C6 64.4853 8.83893 61.4633 12.5021 61.3717Z" fill="#B77437"/>
<path d="M62.1375 76.9646C62.1375 76.9646 69.189 67.1658 76.2405 67.6237C83.292 68.0816 84.3909 78.0636 81.3689 82.6425C79.0794 86.1225 71.9363 85.9393 63.1448 80.0783C63.1448 80.0783 59.5733 79.6204 62.1375 76.9646Z" fill="#FFCC79"/>
<g opacity="0.18">
<path d="M72.9436 70.7374C74.6836 70.3711 76.5151 70.829 77.8888 71.9279C79.2625 72.9353 80.0867 74.4921 80.3614 76.1405C80.453 76.5068 80.9109 76.7815 81.2772 76.69C81.7351 76.5984 81.8266 76.1405 81.8266 75.7742C81.4603 73.7595 80.3614 71.9279 78.6214 70.6458C76.8814 69.3637 74.592 68.9058 72.4857 69.3637C72.1194 69.4553 71.8446 69.9132 71.9362 70.2795C72.1194 70.5542 72.5773 70.7374 72.9436 70.7374Z" fill="white"/>
</g>
<path d="M61.7711 77.4226C61.7711 77.4226 54.7196 67.6237 47.6681 68.0816C40.6166 68.5395 39.5177 78.5215 42.5397 83.1004C44.8292 86.5804 51.9723 86.3973 60.7638 80.5363C60.7638 80.5363 64.3353 80.0783 61.7711 77.4226Z" fill="#FFCC79"/>
<g opacity="0.18">
<path d="M51.4228 69.7301C49.3165 69.3638 47.0271 69.7301 45.2871 71.0122C43.6387 72.2027 42.4482 74.0343 42.0819 76.1406C41.9903 76.5069 42.1734 76.9648 42.6313 77.0563C42.9976 77.1479 43.4555 76.9648 43.5471 76.5069C43.8218 74.8585 44.646 73.3017 46.0197 72.2943C47.3934 71.2869 49.3165 70.829 50.9649 71.1038C51.3313 71.1953 51.7891 71.0122 51.8807 70.5543C51.9723 70.2796 51.7891 69.8217 51.4228 69.7301Z" fill="white"/>
</g>
<path d="M63.1448 77.6973L71.4784 73.851" stroke="#CE6B19" stroke-miterlimit="10" stroke-linecap="round"/>
<path d="M63.2365 79.071L71.5701 78.7047" stroke="#CE6B19" stroke-miterlimit="10" stroke-linecap="round"/>
<path d="M61.313 77.7889C61.313 77.7889 52.9794 75.6826 52.5215 75.4079" stroke="#CE6B19" stroke-miterlimit="10" stroke-linecap="round"/>
<path d="M61.0384 79.3457C61.0384 79.3457 54.2616 79.6205 52.9795 79.712" stroke="#CE6B19" stroke-miterlimit="10" stroke-linecap="round"/>
<path d="M65.0679 78.5215C65.1595 80.1699 63.8774 81.5436 62.229 81.5436C60.5805 81.6352 59.2069 80.3531 59.2069 78.7047C59.1153 77.0563 60.3974 75.6826 62.0458 75.6826C63.6942 75.591 65.0679 76.8731 65.0679 78.5215Z" fill="#E9A427"/>
</g>
<defs>
<clipPath id="clip0_2011_76741">
<rect width="120" height="120" fill="white"/>
</clipPath>
</defs>
</svg>
