<svg width="120" height="120" viewBox="0 0 120 120" fill="none" xmlns="http://www.w3.org/2000/svg">
<g clip-path="url(#clip0_2011_76867)">
<path d="M105.172 40.0488C103.523 34.1878 101.692 28.2352 99.2192 22.7405C96.7466 17.3374 93.5414 12.3922 89.1456 8.45431C85.1162 4.88276 80.0794 2.50174 74.951 1.21965C64.7859 -1.34454 53.5217 0.212304 44.2724 5.15752C35.2061 9.91958 28.3378 17.8869 24.5831 27.5026C20.0042 39.3161 17.1653 52.0455 18.081 64.7748C18.1726 66.3317 18.3558 67.9801 18.6305 69.5369C18.9968 72.0095 22.7515 71.5516 22.4768 68.9874C21.1947 57.1739 23.301 45.0856 27.0557 33.913C28.7041 29.0594 30.6272 24.3889 33.6493 20.2679C36.3051 16.5132 39.5103 13.5827 43.3566 11.0185C51.1407 5.89014 61.1227 3.69227 70.3721 5.06594C75.1342 5.79856 79.8046 7.35539 83.7425 10.1027C88.0467 13.0332 91.2519 17.3374 93.633 21.9163C96.1971 26.8615 97.9371 32.173 99.5855 37.4846C100.501 40.5067 101.417 43.5287 102.058 46.6424C102.791 49.8476 103.066 53.0529 103.249 56.3497C103.34 57.9065 103.432 59.5549 103.707 61.1117C103.89 62.2106 104.897 63.1264 106.088 62.9433C107.37 62.7601 107.919 61.7528 107.919 60.5623C107.919 57.1739 107.828 53.7855 107.37 50.4887C107.003 46.734 106.179 43.4371 105.172 40.0488Z" fill="#B77437"/>
<mask id="mask0_2011_76867" style="mask-type:luminance" maskUnits="userSpaceOnUse" x="25" y="39" width="27" height="35">
<path d="M50.8252 57.1829C53.7144 64.3437 49.9623 70.6612 44.0963 73.028C38.23 75.3949 31.3496 72.9402 28.4604 65.7794C24.3213 55.5209 25.0434 42.7124 30.9097 40.3455C36.7758 37.9789 46.7594 47.1059 50.8252 57.1829Z" fill="white"/>
</mask>
<g mask="url(#mask0_2011_76867)">
<path d="M43.2716 30.8122L14.3702 42.4732L30.6718 82.8761L59.5732 71.2151L43.2716 30.8122Z" fill="#FFB41B"/>
</g>
<mask id="mask1_2011_76867" style="mask-type:luminance" maskUnits="userSpaceOnUse" x="25" y="39" width="27" height="35">
<path d="M50.8252 57.1829C53.7144 64.3437 49.9623 70.6612 44.0963 73.028C38.23 75.3949 31.3496 72.9402 28.4604 65.7794C24.3213 55.5209 25.0434 42.7124 30.9097 40.3455C36.7758 37.9789 46.7594 47.1059 50.8252 57.1829Z" fill="white"/>
</mask>
<g mask="url(#mask1_2011_76867)">
<path d="M46.4262 49.1188C45.317 47.1723 44.2772 46.1051 43.5682 45.5395C43.8623 46.894 43.7453 48.4059 43.7384 48.4889L43.6759 49.2588L43.0599 48.7927C42.4234 48.3112 40.6329 47.176 39.7251 46.6061L39.0318 50.9593L34.4973 48.5767L32.7731 53.2955L32.4142 53.2207C31.8035 53.0934 29.9408 51.663 28.9417 50.8688C28.6954 51.6409 28.3349 53.2134 28.0587 54.6349L27.9589 55.1498L27.4764 54.944C26.7655 54.6411 25.9368 53.5291 25.4012 52.7125C25.1227 54.5984 25.4388 57.1727 25.4428 57.2032L24.6013 57.3089C24.5816 57.1529 24.1281 53.4618 24.8235 51.4732L25.1319 50.5906L25.5928 51.4041C26.0043 52.1307 26.7495 53.2534 27.3545 53.8313C27.609 52.5861 28.0832 50.4386 28.4197 49.9471L28.6794 49.5675L29.0365 49.8571C30.2011 50.8014 31.5913 51.84 32.2589 52.2323L34.0339 47.3746L38.3804 49.6586L39.0887 45.2102L39.6308 45.5467C39.7323 45.6099 41.714 46.8409 42.918 47.6558C42.919 46.8356 42.8422 45.545 42.405 44.7578L41.8644 43.7841L42.9156 44.1516C43 44.1812 45.008 44.9178 47.1628 48.6989L46.4262 49.1188Z" fill="#FF5D7C"/>
</g>
<mask id="mask2_2011_76867" style="mask-type:luminance" maskUnits="userSpaceOnUse" x="25" y="39" width="27" height="35">
<path d="M50.8252 57.1829C53.7144 64.3437 49.9623 70.6612 44.0963 73.028C38.23 75.3949 31.3496 72.9402 28.4604 65.7794C24.3213 55.5209 25.0434 42.7124 30.9097 40.3455C36.7758 37.9789 46.7594 47.1059 50.8252 57.1829Z" fill="white"/>
</mask>
<g mask="url(#mask2_2011_76867)">
<path d="M48.8459 54.119C47.7725 52.2356 46.7539 51.161 46.0884 50.591C45.8727 50.4061 45.6791 50.2612 45.514 50.1487C45.9494 51.585 45.8048 53.4537 45.7973 53.5464L45.7581 54.0275L45.3733 53.7362C44.6653 53.2003 42.5746 51.8824 41.7512 51.3669L41.042 55.8198L36.4607 53.4125L34.6887 58.2622L34.4645 58.2154C33.8331 58.0838 31.6703 56.3913 30.8138 55.706C30.5251 56.4853 30.0782 58.5132 29.8308 59.7873L29.7682 60.1092L29.4666 59.9807C28.6693 59.6409 27.6995 58.2189 27.1982 57.4124C26.7856 59.379 27.1601 62.4221 27.1642 62.4559L26.6384 62.522C26.6186 62.3646 26.1613 58.6435 26.8564 56.6544L27.0493 56.1028L27.3374 56.6113C27.6817 57.2197 28.6395 58.7377 29.3841 59.3144C29.5908 58.2892 30.1465 55.6552 30.4996 55.1393L30.6619 54.902L30.8851 55.0829C31.9361 55.9349 33.6678 57.2585 34.362 57.6116L36.1708 52.6611L40.6348 55.0068L41.3533 50.4945L41.6921 50.7048C41.803 50.7738 44.1219 52.2142 45.2907 53.0243C45.3101 52.227 45.2751 50.6215 44.7515 49.6784L44.4137 49.07L45.0707 49.2995C45.1542 49.3288 47.1425 50.0588 49.3065 53.8559L48.8459 54.119Z" fill="white"/>
</g>
<mask id="mask3_2011_76867" style="mask-type:luminance" maskUnits="userSpaceOnUse" x="25" y="39" width="27" height="35">
<path d="M50.8252 57.1829C53.7144 64.3437 49.9623 70.6612 44.0963 73.028C38.23 75.3949 31.3496 72.9402 28.4604 65.7794C24.3213 55.5209 25.0434 42.7124 30.9097 40.3455C36.7758 37.9789 46.7594 47.1059 50.8252 57.1829Z" fill="white"/>
</mask>
<g mask="url(#mask3_2011_76867)">
<path d="M41.5753 43.0426C40.7225 41.5464 39.9133 40.6928 39.3846 40.2399C39.2131 40.0933 39.0594 39.9779 38.9281 39.8885C39.2741 41.0296 39.1592 42.5142 39.1532 42.5878L39.1221 42.9701L38.8164 42.7387C38.2539 42.313 36.5929 41.2659 35.9389 40.8565L35.3756 44.3943L31.7362 42.4819L30.3285 46.3344L30.1502 46.2973C29.6486 46.1928 27.9306 44.8481 27.25 44.3037C27.0205 44.9225 26.6657 46.5338 26.4691 47.5461L26.4194 47.8016L26.1799 47.6995C25.5466 47.4294 24.7762 46.2999 24.3779 45.659C24.0501 47.2217 24.3476 49.6391 24.3511 49.6658L23.9332 49.7183C23.9175 49.5932 23.5542 46.637 24.1065 45.0569L24.2597 44.6187L24.4886 45.0228C24.7623 45.5061 25.5229 46.712 26.1145 47.1702C26.2787 46.3558 26.7202 44.2631 27.0007 43.8534L27.1296 43.6651L27.3069 43.8089C28.1419 44.4856 29.5177 45.5371 30.069 45.8178L31.5061 41.885L35.0523 43.7484L35.6231 40.1636L35.8923 40.3308C35.9805 40.3856 37.8228 41.5299 38.7513 42.1734C38.7666 41.5398 38.7389 40.2644 38.3227 39.5154L38.0543 39.032L38.5763 39.2146C38.6427 39.2378 40.2221 39.8176 41.9414 42.8342L41.5753 43.0426Z" fill="white"/>
</g>
<mask id="mask4_2011_76867" style="mask-type:luminance" maskUnits="userSpaceOnUse" x="25" y="39" width="27" height="35">
<path d="M50.8252 57.1829C53.7144 64.3437 49.9623 70.6612 44.0963 73.028C38.23 75.3949 31.3496 72.9402 28.4604 65.7794C24.3213 55.5209 25.0434 42.7124 30.9097 40.3455C36.7758 37.9789 46.7594 47.1059 50.8252 57.1829Z" fill="white"/>
</mask>
<g mask="url(#mask4_2011_76867)">
<path d="M55.7514 67.1002C54.5201 64.9398 53.3519 63.7071 52.5887 63.0536C52.341 62.8415 52.1192 62.6754 51.9296 62.5464C52.4289 64.1939 52.2632 66.3371 52.2546 66.4435L52.2098 66.9954L51.7683 66.6611C50.9563 66.0465 48.5584 64.5349 47.6138 63.9437L46.8004 69.0514L41.5458 66.2901L39.5133 71.8526L39.256 71.799C38.5318 71.6482 36.0511 69.7069 35.0685 68.9208C34.7373 69.8145 34.2247 72.1405 33.9409 73.6021L33.8692 73.9712L33.5233 73.8238C32.609 73.4341 31.4966 71.8033 30.9216 70.878C30.4487 73.1331 30.8777 76.6244 30.8826 76.663L30.2793 76.739C30.2567 76.5583 29.732 72.2901 30.5295 70.0087L30.7508 69.3761L31.0811 69.9594C31.4762 70.6572 32.5746 72.3981 33.4286 73.0597C33.6656 71.8838 34.3029 68.8626 34.708 68.2708L34.8942 67.9988L35.1502 68.2063C36.3558 69.1835 38.3421 70.7016 39.1383 71.1068L41.2131 65.4287L46.3331 68.1189L47.1573 62.9436L47.5459 63.1848C47.6733 63.2638 50.3331 64.9161 51.6735 65.8451C51.6957 64.9306 51.6557 63.0892 51.0549 62.0073L50.6674 61.3094L51.421 61.5729C51.5169 61.6064 53.7971 62.4438 56.2794 66.7991L55.7514 67.1002Z" fill="white"/>
</g>
<mask id="mask5_2011_76867" style="mask-type:luminance" maskUnits="userSpaceOnUse" x="25" y="39" width="27" height="35">
<path d="M50.8252 57.1829C53.7144 64.3437 49.9623 70.6612 44.0963 73.028C38.23 75.3949 31.3496 72.9402 28.4604 65.7794C24.3213 55.5209 25.0434 42.7124 30.9097 40.3455C36.7758 37.9789 46.7594 47.1059 50.8252 57.1829Z" fill="white"/>
</mask>
<g mask="url(#mask5_2011_76867)">
<path d="M52.9935 61.999C51.8408 59.9768 50.7498 58.8209 50.0373 58.2076C49.9226 58.1089 49.8138 58.0206 49.7117 57.942C50.0702 59.4653 49.9342 61.2252 49.9266 61.3194L49.864 62.0893L49.2481 61.6233C48.5268 61.0772 46.4735 59.7775 45.4872 59.1588L44.7175 63.9921L39.6988 61.3551L37.7821 66.6006L37.4232 66.5258C36.7443 66.3842 34.6314 64.7552 33.54 63.8857C33.2639 64.7257 32.8514 66.5162 32.538 68.1307L32.4381 68.6455L31.9554 68.4398C31.1472 68.0953 30.1955 66.7891 29.6087 65.8815C29.2663 67.9914 29.6315 70.9592 29.636 70.9939L28.7946 71.0999C28.7728 70.9272 28.271 66.8442 29.0387 64.6488L29.3471 63.7663L29.8078 64.5797C30.2788 65.4112 31.1436 66.7089 31.8312 67.3382C32.0938 66.0507 32.6453 63.5165 33.0214 62.9672L33.2812 62.5879L33.6383 62.8773C34.9597 63.9485 36.5385 65.1255 37.2658 65.5425L39.2349 60.1534L44.0658 62.692L44.8507 57.7636L45.3927 58.1001C45.5075 58.1714 47.7837 59.5854 49.1087 60.4865C49.1151 59.5786 49.0396 58.0732 48.5343 57.163L47.9938 56.1893L49.0449 56.5568C49.1377 56.5894 51.3489 57.4007 53.7302 61.5793L52.9935 61.999Z" fill="#00DDDE"/>
</g>
<mask id="mask6_2011_76867" style="mask-type:luminance" maskUnits="userSpaceOnUse" x="26" y="40" width="28" height="34">
<path d="M51.8376 55.0786C55.8086 61.7013 53.0878 68.527 47.6625 71.7801C42.237 75.0332 35.0577 73.6818 31.0866 67.0591C25.3977 57.5714 24.1128 44.8066 29.5383 41.5534C34.9637 38.3005 46.2493 45.7588 51.8376 55.0786Z" fill="white"/>
</mask>
<g mask="url(#mask6_2011_76867)">
<path opacity="0.37" d="M41.2276 55.2152C43.0102 54.1464 42.9786 50.8173 41.1571 47.7795C39.3356 44.7416 36.4139 43.1455 34.6314 44.2143C32.8488 45.2831 32.8804 48.6122 34.7019 51.65C36.5234 54.6879 39.4451 56.2841 41.2276 55.2152Z" fill="white"/>
</g>
<mask id="mask7_2011_76867" style="mask-type:luminance" maskUnits="userSpaceOnUse" x="25" y="39" width="27" height="35">
<path d="M50.8252 57.1829C53.7144 64.3437 49.9623 70.6612 44.0963 73.028C38.23 75.3949 31.3496 72.9402 28.4604 65.7794C24.3213 55.5209 25.0434 42.7124 30.9097 40.3455C36.7758 37.9789 46.7594 47.1059 50.8252 57.1829Z" fill="white"/>
</mask>
<g mask="url(#mask7_2011_76867)">
<path opacity="0.03" d="M57.1522 53.4346C60.4131 58.6568 56.4443 65.7078 50.2202 68.4669C49.7717 68.9941 49.2509 69.4431 48.6558 69.7999C43.7466 72.7432 35.7007 68.347 30.6848 59.9807C26.6748 53.2923 25.8155 46.092 28.1404 41.9688C28.1411 37.5046 28.5742 34.314 28.5742 34.314L23.2054 41.1164L22.082 51.0999L27.0053 65.8556L30.8037 75.2698L38.8809 76.7759L52.9488 71.7437L59.6117 67.5101L62.8238 58.8733L57.1522 53.4346Z" fill="#242E36"/>
</g>
<mask id="mask8_2011_76867" style="mask-type:luminance" maskUnits="userSpaceOnUse" x="25" y="39" width="27" height="35">
<path d="M50.8252 57.1829C53.7144 64.3437 49.9623 70.6612 44.0963 73.028C38.23 75.3949 31.3496 72.9402 28.4604 65.7794C24.3213 55.5209 25.0434 42.7124 30.9097 40.3455C36.7758 37.9789 46.7594 47.1059 50.8252 57.1829Z" fill="white"/>
</mask>
<g mask="url(#mask8_2011_76867)">
<path opacity="0.27" d="M48.1861 49.205C43.1702 40.8387 35.1242 36.4425 30.2151 39.3858C29.2306 39.976 28.4475 40.8173 27.8643 41.8517C25.5396 45.9748 26.3987 53.1752 30.4087 59.8637C35.4248 68.2299 43.4707 72.6261 48.3797 69.6828C48.9746 69.3261 49.4956 68.877 49.9441 68.3499C53.1947 64.5279 52.5941 56.5572 48.1861 49.205Z" fill="white"/>
</g>
<mask id="mask9_2011_76867" style="mask-type:luminance" maskUnits="userSpaceOnUse" x="39" y="33" width="29" height="41">
<path d="M67.236 60.9047C66.5829 69.7118 59.5413 74.2984 52.3265 73.7633C45.1115 73.2283 39.2919 67.2335 39.9451 58.4264C40.8808 45.8092 48.0926 33.0317 55.3076 33.5668C62.5224 34.1021 68.1552 48.5109 67.236 60.9047Z" fill="white"/>
</mask>
<g mask="url(#mask9_2011_76867)">
<path d="M72.8082 30.0303L37.2621 27.3941L33.5768 77.086L69.1229 79.7222L72.8082 30.0303Z" fill="#FFB41B"/>
</g>
<mask id="mask10_2011_76867" style="mask-type:luminance" maskUnits="userSpaceOnUse" x="39" y="33" width="29" height="41">
<path d="M67.236 60.9047C66.5829 69.7118 59.5413 74.2984 52.3265 73.7633C45.1115 73.2283 39.2919 67.2335 39.9451 58.4264C40.8808 45.8092 48.0926 33.0317 55.3076 33.5668C62.5224 34.1021 68.1552 48.5109 67.236 60.9047Z" fill="white"/>
</mask>
<g mask="url(#mask10_2011_76867)">
<path d="M66.7964 50.4079C66.6416 47.8503 66.1139 46.2299 65.6721 45.2914C65.2896 46.8298 64.4057 48.3219 64.3568 48.4036L63.9036 49.162L63.5071 48.3726C63.0973 47.5569 61.8336 45.4876 61.19 44.4442L58.2794 48.5607L54.8304 43.825L50.6772 47.7958L50.3468 47.5377C49.7845 47.0986 48.5958 44.6899 47.972 43.3701C47.3291 44.038 46.1648 45.4693 45.1633 46.7884L44.8007 47.2662L44.4096 46.8113C43.8331 46.1414 43.5446 44.5817 43.4077 43.4733C42.1691 45.2676 41.1929 48.0687 41.1816 48.102L40.2647 47.7854C40.3233 47.6153 41.7228 43.599 43.441 41.9097L44.2033 41.16L44.2653 42.2275C44.3204 43.181 44.5179 44.7094 44.8466 45.608C45.7368 44.459 47.3084 42.495 47.9019 42.1607L48.3601 41.9024L48.5803 42.38C49.2982 43.9372 50.2 45.7053 50.6867 46.445L54.9622 42.3574L58.2681 46.8969L61.2423 42.6904L61.6284 43.3095C61.7007 43.4257 63.1122 45.6899 63.9359 47.1343C64.3513 46.2932 64.9245 44.9302 64.8736 43.9016L64.8108 42.6294L65.7038 43.5376C65.7753 43.6106 67.4635 45.3808 67.7644 50.3492L66.7964 50.4079Z" fill="#FF5D7C"/>
</g>
<mask id="mask11_2011_76867" style="mask-type:luminance" maskUnits="userSpaceOnUse" x="39" y="33" width="29" height="41">
<path d="M67.236 60.9047C66.5829 69.7118 59.5413 74.2984 52.3265 73.7633C45.1115 73.2283 39.2919 67.2335 39.9451 58.4264C40.8808 45.8092 48.0926 33.0317 55.3076 33.5668C62.5224 34.1021 68.1552 48.5109 67.236 60.9047Z" fill="white"/>
</mask>
<g mask="url(#mask11_2011_76867)">
<path d="M66.753 56.7609C66.6032 54.2861 66.1008 52.6689 65.7061 51.7478C65.5781 51.4491 65.4527 51.2026 65.34 51.0038C65.0612 52.6974 63.9688 54.5419 63.9142 54.6332L63.631 55.107L63.3833 54.6137C62.9276 53.7062 61.4482 51.2976 60.8638 50.3527L57.8865 54.5634L54.4018 49.7789L50.1335 53.8598L49.9271 53.6984C49.3458 53.2444 47.9816 50.4152 47.449 49.2793C46.7592 49.9331 45.276 51.788 44.3785 52.9704L44.1517 53.2691L43.9071 52.9848C43.2607 52.2334 42.984 50.2844 42.8771 49.2035C41.4601 51.013 40.307 54.3246 40.2942 54.3614L39.7212 54.1636C39.7805 53.992 41.1912 49.9429 42.9093 48.2531L43.386 47.7846L43.4246 48.4518C43.4706 49.2501 43.6864 51.2916 44.1591 52.2595C44.8891 51.312 46.79 48.8901 47.413 48.5391L47.6994 48.3776L47.8369 48.6759C48.485 50.0812 49.5931 52.3142 50.1271 53.0272L54.484 48.8614L57.8793 53.5236L60.8962 49.2566L61.1376 49.6435C61.2165 49.7703 62.8682 52.4198 63.6582 53.8415C64.0809 53.0333 64.8561 51.3682 64.7953 50.136L64.7561 49.341L65.3143 49.9086C65.3852 49.9807 67.0565 51.7342 67.3586 56.7236L66.753 56.7609Z" fill="white"/>
</g>
<mask id="mask12_2011_76867" style="mask-type:luminance" maskUnits="userSpaceOnUse" x="39" y="33" width="29" height="41">
<path d="M67.236 60.9047C66.5829 69.7118 59.5413 74.2984 52.3265 73.7633C45.1115 73.2283 39.2919 67.2335 39.9451 58.4264C40.8808 45.8092 48.0926 33.0317 55.3076 33.5668C62.5224 34.1021 68.1552 48.5109 67.236 60.9047Z" fill="white"/>
</mask>
<g mask="url(#mask12_2011_76867)">
<path d="M64.8887 41.7226C64.7697 39.7565 64.3706 38.4718 64.0569 37.74C63.9551 37.503 63.8556 37.3069 63.7661 37.1489C63.5446 38.4945 62.6767 39.9597 62.6333 40.0322L62.4082 40.4088L62.2114 40.017C61.8494 39.296 60.6742 37.3824 60.2099 36.6319L57.8446 39.9774L55.0764 36.1765L51.6857 39.4183L51.5215 39.2901C51.0596 38.9294 49.9761 36.6818 49.5528 35.7792C49.0048 36.2983 47.8266 37.7723 47.1135 38.7117L46.9334 38.9488L46.7393 38.723C46.2259 38.126 46.0061 36.5778 45.9212 35.719C44.7954 37.1568 43.8793 39.7874 43.8694 39.8167L43.4141 39.6594C43.4611 39.5231 44.5819 36.3063 45.9469 34.964L46.3255 34.5918L46.3562 35.122C46.3929 35.7563 46.5641 37.3779 46.9396 38.1468C47.5195 37.3942 49.0298 35.4699 49.5246 35.1913L49.7519 35.0632L49.8612 35.3003C50.3762 36.4166 51.2566 38.1905 51.6805 38.7571L55.1418 35.4477L57.8392 39.1513L60.2359 35.7614L60.4276 36.0689C60.4904 36.1697 61.8026 38.2746 62.4303 39.4039C62.7661 38.7616 63.382 37.439 63.3334 36.4602L63.3022 35.8286L63.7455 36.2796C63.802 36.337 65.1295 37.7299 65.3697 41.6936L64.8887 41.7226Z" fill="white"/>
</g>
<mask id="mask13_2011_76867" style="mask-type:luminance" maskUnits="userSpaceOnUse" x="39" y="33" width="29" height="41">
<path d="M67.236 60.9047C66.5829 69.7118 59.5413 74.2984 52.3265 73.7633C45.1115 73.2283 39.2919 67.2335 39.9451 58.4264C40.8808 45.8092 48.0926 33.0317 55.3076 33.5668C62.5224 34.1021 68.1552 48.5109 67.236 60.9047Z" fill="white"/>
</mask>
<g mask="url(#mask13_2011_76867)">
<path d="M67.2803 73.5692C67.1084 70.7304 66.5325 68.8755 66.0795 67.8193C65.9326 67.4766 65.7889 67.1941 65.6596 66.9659C65.3395 68.9087 64.0867 71.0239 64.0241 71.1289L63.6993 71.6725L63.4152 71.1064C62.8926 70.0656 61.1958 67.3031 60.5252 66.2192L57.1102 71.0492L53.1136 65.5613L48.2179 70.2419L47.981 70.0569C47.3141 69.5363 45.7495 66.2912 45.1383 64.9882C44.347 65.7378 42.646 67.8655 41.6164 69.2218L41.3564 69.5643L41.0759 69.2383C40.3346 68.3766 40.0171 66.1412 39.8946 64.9013C38.2701 66.9763 36.9464 70.7753 36.9319 70.8174L36.2745 70.5906C36.3426 70.3938 37.9605 65.7492 39.9315 63.8112L40.4781 63.274L40.5224 64.0393C40.5752 64.9549 40.8227 67.2962 41.3647 68.4064C42.202 67.3196 44.3823 64.5416 45.0969 64.139L45.4254 63.9541L45.5832 64.2963C46.3265 65.9081 47.5976 68.4692 48.2099 69.2872L53.2074 64.5092L57.1018 69.8563L60.5621 64.9624L60.839 65.4063C60.9298 65.5518 62.8242 68.5909 63.7302 70.2212C64.215 69.2941 65.1042 67.3844 65.0343 65.9709L64.9893 65.059L65.6294 65.7101C65.7109 65.7929 67.6275 67.8041 67.9742 73.5271L67.2803 73.5692Z" fill="white"/>
</g>
<mask id="mask14_2011_76867" style="mask-type:luminance" maskUnits="userSpaceOnUse" x="39" y="33" width="29" height="41">
<path d="M67.236 60.9047C66.5829 69.7118 59.5413 74.2984 52.3265 73.7633C45.1115 73.2283 39.2919 67.2335 39.9451 58.4264C40.8808 45.8092 48.0926 33.0317 55.3076 33.5668C62.5224 34.1021 68.1552 48.5109 67.236 60.9047Z" fill="white"/>
</mask>
<g mask="url(#mask14_2011_76867)">
<path d="M67.0277 66.9418C66.8666 64.2844 66.3311 62.5472 65.9098 61.558C65.842 61.3987 65.7751 61.2532 65.7099 61.1209C65.3082 62.8652 64.2796 64.6022 64.2241 64.695L63.7709 65.4534L63.3744 64.664C62.9101 63.7393 61.4601 61.3683 60.7606 60.2353L57.5289 64.8057L53.7117 59.5644L49.095 63.9784L48.7645 63.7203C48.1394 63.232 46.7944 60.4931 46.1138 59.0495C45.4062 59.772 44.0783 61.4008 42.941 62.899L42.5785 63.3767L42.1871 62.9219C41.5319 62.16 41.2153 60.339 41.0717 59.1113C39.6544 61.1032 38.5298 64.3329 38.5169 64.3707L37.6 64.0544C37.6649 63.8661 39.2128 59.4233 41.1096 57.5584L41.872 56.8087L41.9336 57.8761C41.9969 58.9672 42.2286 60.7357 42.6162 61.7288C43.5361 60.5404 45.3823 58.2187 46.0457 57.8452L46.5039 57.5871L46.7241 58.0645C47.5388 59.8312 48.5641 61.8366 49.0997 62.6319L53.8428 58.097L57.5171 63.1424L60.8123 58.4821L61.1984 59.1012C61.2802 59.2324 62.9014 61.8331 63.8057 63.4272C64.271 62.4988 64.954 60.916 64.8954 59.7269L64.8327 58.4547L65.7256 59.3628C65.8044 59.4431 67.6633 61.3927 67.9956 66.8833L67.0277 66.9418Z" fill="#00DDDE"/>
</g>
<mask id="mask15_2011_76867" style="mask-type:luminance" maskUnits="userSpaceOnUse" x="41" y="34" width="29" height="41">
<path d="M69.3378 59.2569C70.0665 68.0584 63.8264 73.6876 56.6162 74.2845C49.4057 74.8815 42.7219 69.8678 41.9932 61.0662C40.9492 48.457 46.0798 34.7103 53.2902 34.1133C60.5005 33.5166 68.3123 46.8709 69.3378 59.2569Z" fill="white"/>
</mask>
<g mask="url(#mask15_2011_76867)">
<path opacity="0.37" d="M58.3822 54.0369C60.7512 53.8407 62.4007 50.4089 62.0665 46.3716C61.7322 42.3343 59.5408 39.2205 57.1718 39.4166C54.8028 39.6128 53.1533 43.0446 53.4876 47.0819C53.8218 51.1191 56.0132 54.233 58.3822 54.0369Z" fill="white"/>
</g>
<mask id="mask16_2011_76867" style="mask-type:luminance" maskUnits="userSpaceOnUse" x="39" y="33" width="29" height="41">
<path d="M67.236 60.9047C66.5829 69.7118 59.5413 74.2984 52.3265 73.7633C45.1115 73.2283 39.2919 67.2335 39.9451 58.4264C40.8808 45.8092 48.0926 33.0317 55.3076 33.5668C62.5224 34.1021 68.1552 48.5109 67.236 60.9047Z" fill="white"/>
</mask>
<g mask="url(#mask16_2011_76867)">
<path opacity="0.03" d="M75.6216 60.255C76.3293 67.2609 68.6947 72.4906 60.9144 72.1772C60.1879 72.4916 59.4267 72.6891 58.6358 72.7545C52.1116 73.2945 46.0769 64.7188 45.157 53.6003C44.4215 44.7116 47.1775 36.8894 51.646 33.8333C53.9021 29.253 55.9585 26.1981 55.9585 26.1981L47.013 30.4655L40.8165 40.1417L38.4135 57.7695L37.5548 69.3481L45.0817 74.9741L62.0588 76.9179L71.0342 75.94L78.6934 68.7009L75.6216 60.255Z" fill="#242E36"/>
</g>
<mask id="mask17_2011_76867" style="mask-type:luminance" maskUnits="userSpaceOnUse" x="39" y="33" width="29" height="41">
<path d="M67.236 60.9047C66.5829 69.7118 59.5413 74.2984 52.3265 73.7633C45.1115 73.2283 39.2919 67.2335 39.9451 58.4264C40.8808 45.8092 48.0926 33.0317 55.3076 33.5668C62.5224 34.1021 68.1552 48.5109 67.236 60.9047Z" fill="white"/>
</mask>
<g mask="url(#mask17_2011_76867)">
<path opacity="0.27" d="M68.5586 51.3854C67.6386 40.2669 61.6039 31.6912 55.0798 32.2312C53.7714 32.3393 52.5429 32.8069 51.4219 33.5737C46.9536 36.6299 44.1974 44.452 44.9328 53.3407C45.8531 64.4592 51.8878 73.0349 58.4117 72.4949C59.2023 72.4295 59.9638 72.232 60.6903 71.9176C65.9565 69.6382 69.3671 61.1563 68.5586 51.3854Z" fill="white"/>
</g>
<mask id="mask18_2011_76867" style="mask-type:luminance" maskUnits="userSpaceOnUse" x="70" y="35" width="31" height="45">
<path d="M100.57 65.5519C99.8488 75.2793 92.0714 80.3452 84.1028 79.7542C76.1338 79.1632 69.7061 72.5421 70.4275 62.8147C71.461 48.8791 79.4264 34.7664 87.3954 35.3574C95.364 35.9487 101.585 51.863 100.57 65.5519Z" fill="white"/>
</mask>
<g mask="url(#mask18_2011_76867)">
<path d="M106.725 31.4514L67.4642 28.5397L63.3938 83.4241L102.654 86.3358L106.725 31.4514Z" fill="#FFB41B"/>
</g>
<mask id="mask19_2011_76867" style="mask-type:luminance" maskUnits="userSpaceOnUse" x="70" y="35" width="31" height="45">
<path d="M100.57 65.5519C99.8488 75.2793 92.0714 80.3452 84.1028 79.7542C76.1338 79.1632 69.7061 72.5421 70.4275 62.8147C71.461 48.8791 79.4264 34.7664 87.3954 35.3574C95.364 35.9487 101.585 51.863 100.57 65.5519Z" fill="white"/>
</mask>
<g mask="url(#mask19_2011_76867)">
<path d="M100.085 53.9583C99.9137 51.1334 99.3309 49.3437 98.8429 48.3072C98.4204 50.0063 97.4442 51.6544 97.3901 51.7446L96.8896 52.5822L96.4517 51.7104C95.999 50.8094 94.6033 48.5239 93.8925 47.3715L90.6777 51.918L86.8683 46.6876L82.2812 51.0733L81.9162 50.7882C81.2951 50.3032 79.9823 47.6428 79.2932 46.1851C78.5832 46.9228 77.2972 48.5037 76.191 49.9606L75.7906 50.4883L75.3586 49.9859C74.7219 49.246 74.4033 47.5233 74.2521 46.299C72.8841 48.2808 71.8058 51.3747 71.7934 51.4114L70.7807 51.0618C70.8454 50.8739 72.3911 46.4379 74.2888 44.5722L75.1308 43.7441L75.1992 44.9231C75.2601 45.9762 75.4783 47.6644 75.8413 48.6569C76.8245 47.3877 78.5603 45.2186 79.2159 44.8494L79.722 44.5641L79.9651 45.0916C80.7581 46.8115 81.754 48.7643 82.2917 49.5813L87.0139 45.0666L90.6653 50.0805L93.9502 45.4344L94.3767 46.1182C94.4565 46.2465 96.0155 48.7474 96.9253 50.3427C97.384 49.4137 98.0171 47.9083 97.961 46.7721L97.8916 45.367L98.8779 46.3701C98.9569 46.4507 100.822 48.406 101.154 53.8934L100.085 53.9583Z" fill="#FF5D7C"/>
</g>
<mask id="mask20_2011_76867" style="mask-type:luminance" maskUnits="userSpaceOnUse" x="70" y="35" width="31" height="45">
<path d="M100.57 65.5519C99.8488 75.2793 92.0714 80.3452 84.1028 79.7542C76.1338 79.1632 69.7061 72.5421 70.4275 62.8147C71.461 48.8791 79.4264 34.7664 87.3954 35.3574C95.364 35.9487 101.585 51.863 100.57 65.5519Z" fill="white"/>
</mask>
<g mask="url(#mask20_2011_76867)">
<path d="M100.037 60.9751C99.8713 58.2417 99.3164 56.4555 98.8804 55.4382C98.7391 55.1084 98.6006 54.8361 98.4761 54.6165C98.1682 56.4871 96.9616 58.5242 96.9013 58.6251L96.5885 59.1485L96.315 58.6036C95.8116 57.6013 94.1777 54.941 93.5321 53.8973L90.2437 58.5481L86.3949 53.2636L81.6807 57.7709L81.4527 57.5927C80.8106 57.0913 79.3039 53.9664 78.7157 52.7117C77.9537 53.4339 76.3156 55.4827 75.3243 56.7886L75.0737 57.1185L74.8036 56.8045C74.0897 55.9746 73.7841 53.8219 73.666 52.6281C72.101 54.6267 70.8273 58.2843 70.8132 58.3249L70.1804 58.1064C70.2458 57.9169 71.8039 53.4447 73.7016 51.5784L74.2281 51.0609L74.2707 51.7979C74.3215 52.6796 74.5599 54.9343 75.0819 56.0034C75.8882 54.9569 77.9878 52.2819 78.6758 51.8942L78.9922 51.7159L79.1441 52.0454C79.8598 53.5975 81.0838 56.0638 81.6735 56.8513L86.4858 52.2502L90.2359 57.3995L93.568 52.6867L93.8345 53.114C93.9218 53.2541 95.746 56.1805 96.6185 57.7507C97.0855 56.858 97.9417 55.019 97.8745 53.658L97.8312 52.78L98.4477 53.4068C98.526 53.4865 100.372 55.4233 100.706 60.934L100.037 60.9751Z" fill="white"/>
</g>
<mask id="mask21_2011_76867" style="mask-type:luminance" maskUnits="userSpaceOnUse" x="70" y="35" width="31" height="45">
<path d="M100.57 65.5519C99.8488 75.2793 92.0714 80.3452 84.1028 79.7542C76.1338 79.1632 69.7061 72.5421 70.4275 62.8147C71.461 48.8791 79.4264 34.7664 87.3954 35.3574C95.364 35.9487 101.585 51.863 100.57 65.5519Z" fill="white"/>
</mask>
<g mask="url(#mask21_2011_76867)">
<path d="M97.9776 44.3654C97.8461 42.1939 97.4053 40.775 97.0589 39.9667C96.9464 39.7049 96.8366 39.4884 96.7377 39.3138C96.493 40.8001 95.5344 42.4184 95.4865 42.4984L95.2379 42.9144L95.0206 42.4816C94.6207 41.6853 93.3227 39.5717 92.8099 38.7428L90.1974 42.4378L87.14 38.2398L83.395 41.8203L83.2137 41.6787C82.7035 41.2804 81.5068 38.7979 81.0393 37.8011C80.4339 38.3744 79.1327 40.0024 78.3451 41.0399L78.1461 41.3018L77.9317 41.0524C77.3647 40.393 77.1219 38.683 77.0281 37.7345C75.7847 39.3225 74.7729 42.2281 74.7619 42.2604L74.2591 42.0866C74.311 41.9361 75.5489 38.3831 77.0566 36.9006L77.4747 36.4895L77.5086 37.0751C77.5491 37.7757 77.7382 39.5667 78.153 40.4161C78.7935 39.5848 80.4615 37.4594 81.0081 37.1517L81.2592 37.0102L81.3799 37.272C81.9486 38.505 82.921 40.4643 83.3892 41.0901L87.2123 37.4349L90.1915 41.5255L92.8387 37.7814L93.0504 38.121C93.1197 38.2323 94.5691 40.5572 95.2623 41.8045C95.6332 41.0951 96.3135 39.6343 96.2598 38.5531L96.2253 37.8556L96.715 38.3537C96.7773 38.4171 98.2436 39.9555 98.5089 44.3335L97.9776 44.3654Z" fill="white"/>
</g>
<mask id="mask22_2011_76867" style="mask-type:luminance" maskUnits="userSpaceOnUse" x="70" y="35" width="31" height="45">
<path d="M100.57 65.5519C99.8488 75.2793 92.0714 80.3452 84.1028 79.7542C76.1338 79.1632 69.7061 72.5421 70.4275 62.8147C71.461 48.8791 79.4264 34.7664 87.3954 35.3574C95.364 35.9487 101.585 51.863 100.57 65.5519Z" fill="white"/>
</mask>
<g mask="url(#mask22_2011_76867)">
<path d="M100.619 79.5398C100.429 76.4044 99.7931 74.3556 99.2928 73.1891C99.1305 72.8106 98.9718 72.4986 98.829 72.2465C98.4755 74.3923 97.0918 76.7286 97.0227 76.8444L96.6639 77.4449L96.3501 76.8197C95.7729 75.67 93.8988 72.6189 93.1581 71.4218L89.3863 76.7565L84.9721 70.6951L79.5648 75.8648L79.3031 75.6605C78.5666 75.0855 76.8385 71.5013 76.1634 70.0621C75.2895 70.89 73.4107 73.2401 72.2735 74.7381L71.9863 75.1164L71.6765 74.7563C70.8577 73.8045 70.5071 71.3357 70.3718 69.9662C68.5775 72.258 67.1155 76.454 67.0995 76.5004L66.3734 76.2499C66.4486 76.0326 68.2356 70.9026 70.4125 68.7622L71.0162 68.1688L71.0652 69.0141C71.1234 70.0254 71.3969 72.6113 71.9955 73.8376C72.9202 72.6372 75.3284 69.5689 76.1177 69.1242L76.4805 68.92L76.6548 69.2979C77.4758 71.0782 78.8797 73.9069 79.556 74.8104L85.0757 69.5331L89.377 75.4389L93.1989 70.0337L93.5047 70.5239C93.605 70.6846 95.6973 74.0413 96.698 75.842C97.2335 74.8179 98.2156 72.7088 98.1384 71.1475L98.0887 70.1403L98.7957 70.8595C98.8857 70.9509 101.003 73.1723 101.385 79.4933L100.619 79.5398Z" fill="white"/>
</g>
<mask id="mask23_2011_76867" style="mask-type:luminance" maskUnits="userSpaceOnUse" x="70" y="35" width="31" height="45">
<path d="M100.57 65.5519C99.8488 75.2793 92.0714 80.3452 84.1028 79.7542C76.1338 79.1632 69.7061 72.5421 70.4275 62.8147C71.461 48.8791 79.4264 34.7664 87.3954 35.3574C95.364 35.9487 101.585 51.863 100.57 65.5519Z" fill="white"/>
</mask>
<g mask="url(#mask23_2011_76867)">
<path d="M100.34 72.2198C100.162 69.2848 99.5707 67.3661 99.1054 66.2735C99.0305 66.0976 98.9565 65.9368 98.8846 65.7908C98.4409 67.7173 97.3048 69.6358 97.2435 69.7383L96.743 70.5759L96.3051 69.7041C95.7923 68.6828 94.1907 66.064 93.4181 64.8126L89.8488 69.8606L85.6327 64.0716L80.5335 68.9468L80.1685 68.6617C79.4781 68.1225 77.9925 65.0973 77.2408 63.5029C76.4593 64.3009 74.9927 66.0999 73.7366 67.7546L73.3361 68.2823L72.9038 67.7799C72.1802 66.9385 71.8305 64.9272 71.6719 63.5711C70.1065 65.7712 68.8644 69.3384 68.8501 69.3801L67.8374 69.0307C67.9091 68.8228 69.6187 63.9158 71.7137 61.856L72.5558 61.028L72.6239 62.2069C72.6938 63.412 72.9496 65.3652 73.3777 66.4622C74.3938 65.1496 76.4329 62.5853 77.1657 62.1727L77.6717 61.8877L77.9149 62.415C78.8148 64.3663 79.9472 66.5812 80.5388 67.4596L85.7774 62.4509L89.8357 68.0235L93.4752 62.8763L93.9017 63.5601C93.992 63.7049 95.7826 66.5774 96.7814 68.338C97.2953 67.3126 98.0497 65.5645 97.985 64.2511L97.9157 62.8459L98.9019 63.849C98.9889 63.9376 101.042 66.0909 101.409 72.1553L100.34 72.2198Z" fill="#00DDDE"/>
</g>
<mask id="mask24_2011_76867" style="mask-type:luminance" maskUnits="userSpaceOnUse" x="72" y="35" width="31" height="46">
<path d="M102.892 63.732C103.697 73.4533 96.8043 79.6706 88.8407 80.3299C80.8768 80.9893 73.4946 75.4517 72.6898 65.7304C71.5367 51.8036 77.2034 36.6205 85.1673 35.9611C93.1309 35.3021 101.759 50.0517 102.892 63.732Z" fill="white"/>
</mask>
<g mask="url(#mask24_2011_76867)">
<path opacity="0.37" d="M90.7913 57.9665C93.4078 57.7499 95.2297 53.9594 94.8605 49.5003C94.4913 45.0412 92.0709 41.6019 89.4543 41.8186C86.8378 42.0352 85.016 45.8257 85.3852 50.2848C85.7543 54.7439 88.1748 58.1831 90.7913 57.9665Z" fill="white"/>
</g>
<mask id="mask25_2011_76867" style="mask-type:luminance" maskUnits="userSpaceOnUse" x="70" y="35" width="31" height="45">
<path d="M100.57 65.5519C99.8488 75.2793 92.0714 80.3452 84.1028 79.7542C76.1338 79.1632 69.7061 72.5421 70.4275 62.8147C71.461 48.8791 79.4264 34.7664 87.3954 35.3574C95.364 35.9487 101.585 51.863 100.57 65.5519Z" fill="white"/>
</mask>
<g mask="url(#mask25_2011_76867)">
<path opacity="0.03" d="M109.832 64.8344C110.614 72.5723 102.181 78.3485 93.588 78.0023C92.7856 78.3496 91.9449 78.5678 91.0713 78.64C83.8654 79.2364 77.2002 69.7646 76.1841 57.4843C75.3718 47.6668 78.4157 39.0273 83.3511 35.6518C85.843 30.5929 88.1142 27.2188 88.1142 27.2188L78.2341 31.9321L71.3901 42.6194L68.736 62.0891L67.7876 74.8776L76.101 81.0914L94.852 83.2384L104.765 82.1584L113.225 74.1628L109.832 64.8344Z" fill="#242E36"/>
</g>
<mask id="mask26_2011_76867" style="mask-type:luminance" maskUnits="userSpaceOnUse" x="70" y="35" width="31" height="45">
<path d="M100.57 65.5519C99.8488 75.2793 92.0714 80.3452 84.1028 79.7542C76.1338 79.1632 69.7061 72.5421 70.4275 62.8147C71.461 48.8791 79.4264 34.7664 87.3954 35.3574C95.364 35.9487 101.585 51.863 100.57 65.5519Z" fill="white"/>
</mask>
<g mask="url(#mask26_2011_76867)">
<path opacity="0.27" d="M102.031 55.0379C101.015 42.7576 94.3496 33.2859 87.1438 33.8823C85.6987 34.0017 84.3418 34.5182 83.1036 35.3651C78.1685 38.7406 75.1242 47.3801 75.9365 57.1976C76.9529 69.4779 83.6182 78.9497 90.8238 78.3532C91.6971 78.281 92.5381 78.0628 93.3405 77.7156C99.157 75.1981 102.924 65.8298 102.031 55.0379Z" fill="white"/>
</g>
<mask id="mask27_2011_76867" style="mask-type:luminance" maskUnits="userSpaceOnUse" x="60" y="41" width="27" height="38">
<path d="M86.5364 66.6327C85.9257 74.8672 79.3419 79.1556 72.5963 78.6553C65.8503 78.155 60.4091 72.55 61.0198 64.3155C61.8947 52.5187 68.6376 40.5719 75.3835 41.0722C82.1292 41.5727 87.3958 55.0447 86.5364 66.6327Z" fill="white"/>
</mask>
<g mask="url(#mask27_2011_76867)">
<path d="M91.7464 37.7657L58.5114 35.3008L55.0657 81.7619L88.3007 84.2267L91.7464 37.7657Z" fill="#FFB41B"/>
</g>
<mask id="mask28_2011_76867" style="mask-type:luminance" maskUnits="userSpaceOnUse" x="60" y="41" width="27" height="38">
<path d="M86.5364 66.6327C85.9257 74.8672 79.3419 79.1556 72.5963 78.6553C65.8503 78.155 60.4091 72.55 61.0198 64.3155C61.8947 52.5187 68.6376 40.5719 75.3835 41.0722C82.1292 41.5727 87.3958 55.0447 86.5364 66.6327Z" fill="white"/>
</mask>
<g mask="url(#mask28_2011_76867)">
<path d="M86.1253 56.8184C85.9806 54.427 85.4872 52.912 85.0742 52.0345C84.7165 53.4729 83.8901 54.8681 83.8443 54.9444L83.4206 55.6535L83.0499 54.9154C82.6667 54.1528 81.4852 52.218 80.8834 51.2424L78.1621 55.0912L74.9373 50.6635L71.0542 54.3761L70.7452 54.1348C70.2195 53.7242 69.1081 51.4721 68.5248 50.2382C67.9238 50.8626 66.8351 52.2009 65.8987 53.4342L65.5597 53.8809L65.194 53.4556C64.6551 52.8293 64.3853 51.371 64.2573 50.3346C63.0993 52.0123 62.1865 54.6313 62.176 54.6624L61.3187 54.3664C61.3735 54.2074 62.682 50.4521 64.2884 48.8728L65.0012 48.1718L65.0591 49.1698C65.1107 50.0613 65.2953 51.4904 65.6027 52.3306C66.435 51.2562 67.9044 49.42 68.4594 49.1074L68.8878 48.8659L69.0936 49.3125C69.7648 50.7684 70.6079 52.4215 71.0631 53.1132L75.0606 49.2913L78.1516 53.5357L80.9323 49.6026L81.2934 50.1815C81.3609 50.2901 82.6807 52.4072 83.4508 53.7576C83.8392 52.9712 84.3751 51.6969 84.3275 50.7351L84.2689 49.5456L85.1037 50.3947C85.1707 50.463 86.7491 52.1182 87.0304 56.7635L86.1253 56.8184Z" fill="#FF5D7C"/>
</g>
<mask id="mask29_2011_76867" style="mask-type:luminance" maskUnits="userSpaceOnUse" x="60" y="41" width="27" height="38">
<path d="M86.5364 66.6327C85.9257 74.8672 79.3419 79.1556 72.5963 78.6553C65.8503 78.155 60.4091 72.55 61.0198 64.3155C61.8947 52.5187 68.6376 40.5719 75.3835 41.0722C82.1292 41.5727 87.3958 55.0447 86.5364 66.6327Z" fill="white"/>
</mask>
<g mask="url(#mask29_2011_76867)">
<path d="M86.0847 62.7583C85.9446 60.4444 85.475 58.9323 85.1059 58.0711C84.9862 57.7919 84.869 57.5614 84.7636 57.3755C84.5029 58.9591 83.4815 60.6836 83.4305 60.7689L83.1657 61.212L82.9341 60.7507C82.508 59.9022 81.1249 57.6503 80.5784 56.7668L77.7947 60.7037L74.5366 56.2302L70.5458 60.0458L70.3528 59.895C69.8093 59.4705 68.5338 56.8252 68.0359 55.7631C67.3908 56.3744 66.0041 58.1088 65.1649 59.2142L64.9529 59.4935L64.7242 59.2277C64.1199 58.5252 63.8612 56.7029 63.7612 55.6923C62.4364 57.3841 61.3582 60.4804 61.3462 60.5148L60.8105 60.3299C60.8659 60.1694 62.1849 56.3836 63.7913 54.8037L64.237 54.3656L64.2731 54.9895C64.3161 55.7359 64.5179 57.6446 64.9598 58.5496C65.6424 57.6637 67.4197 55.3992 68.0021 55.0711L68.2699 54.9201L68.3986 55.199C69.0044 56.5129 70.0405 58.6007 70.5398 59.2673L74.6135 55.3724L77.788 59.7315L80.6087 55.7419L80.8344 56.1037C80.9082 56.2222 82.4525 58.6995 83.1911 60.0288C83.5864 59.2731 84.3112 57.7162 84.2543 56.5641L84.2176 55.8209L84.7396 56.3515C84.8058 56.419 86.3685 58.0585 86.651 62.7234L86.0847 62.7583Z" fill="white"/>
</g>
<mask id="mask30_2011_76867" style="mask-type:luminance" maskUnits="userSpaceOnUse" x="60" y="41" width="27" height="38">
<path d="M86.5364 66.6327C85.9257 74.8672 79.3419 79.1556 72.5963 78.6553C65.8503 78.155 60.4091 72.55 61.0198 64.3155C61.8947 52.5187 68.6376 40.5719 75.3835 41.0722C82.1292 41.5727 87.3958 55.0447 86.5364 66.6327Z" fill="white"/>
</mask>
<g mask="url(#mask30_2011_76867)">
<path d="M84.3417 48.6977C84.2303 46.8595 83.8572 45.6583 83.5639 44.9741C83.4687 44.7525 83.3757 44.5692 83.292 44.4214C83.0849 45.6796 82.2734 47.0495 82.2329 47.1173L82.0224 47.4694L81.8384 47.103C81.4999 46.4289 80.4011 44.6397 79.967 43.938L77.7555 47.066L75.1673 43.5123L71.9971 46.5432L71.8436 46.4234C71.4117 46.0862 70.3986 43.9847 70.0029 43.1408C69.4904 43.6262 68.3889 45.0043 67.7222 45.8826L67.5538 46.1043L67.3723 45.8932C66.8923 45.335 66.6867 43.8874 66.6073 43.0845C65.5547 44.4288 64.6982 46.8884 64.6889 46.9158L64.2633 46.7687C64.3073 46.6412 65.3552 43.6336 66.6314 42.3786L66.9853 42.0306L67.0141 42.5263C67.0484 43.1194 67.2085 44.6355 67.5596 45.3545C68.1018 44.6508 69.5138 42.8516 69.9765 42.5911L70.189 42.4714L70.2912 42.693C70.7727 43.7367 71.5958 45.3953 71.9922 45.9251L75.2285 42.8309L77.7505 46.2937L79.9914 43.1242L80.1706 43.4117C80.2293 43.5059 81.4562 45.474 82.0431 46.5299C82.357 45.9293 82.9329 44.6927 82.8875 43.7775L82.8583 43.187L83.2728 43.6087C83.3256 43.6623 84.5668 44.9646 84.7914 48.6707L84.3417 48.6977Z" fill="white"/>
</g>
<mask id="mask31_2011_76867" style="mask-type:luminance" maskUnits="userSpaceOnUse" x="60" y="41" width="27" height="38">
<path d="M86.5364 66.6327C85.9257 74.8672 79.3419 79.1556 72.5963 78.6553C65.8503 78.155 60.4091 72.55 61.0198 64.3155C61.8947 52.5187 68.6376 40.5719 75.3835 41.0722C82.1292 41.5727 87.3958 55.0447 86.5364 66.6327Z" fill="white"/>
</mask>
<g mask="url(#mask31_2011_76867)">
<path d="M86.5777 78.4738C86.417 75.8196 85.8785 74.0852 85.455 73.0977C85.3176 72.7773 85.1833 72.5132 85.0624 72.2998C84.7631 74.1163 83.5918 76.094 83.5333 76.1921L83.2295 76.7004L82.9639 76.1711C82.4753 75.1979 80.8888 72.6151 80.2618 71.6017L77.0689 76.1176L73.3321 70.9865L68.7547 75.3628L68.5332 75.1898C67.9097 74.7031 66.4468 71.669 65.8754 70.4506C65.1355 71.1515 63.5451 73.1409 62.5824 74.409L62.3393 74.7293L62.0771 74.4245C61.3839 73.6187 61.0871 71.5288 60.9726 70.3695C59.4537 72.3096 58.2161 75.8615 58.2025 75.9009L57.5879 75.6888C57.6515 75.5049 59.1643 71.1622 61.0071 69.3503L61.5181 68.8479L61.5595 69.5635C61.6089 70.4196 61.8404 72.6086 62.3471 73.6467C63.1299 72.6305 65.1685 70.0331 65.8366 69.6567L66.1438 69.4838L66.2913 69.8038C66.9863 71.3108 68.1748 73.7053 68.7472 74.4702L73.4198 70.0029L77.061 75.0022L80.2963 70.4266L80.5552 70.8416C80.6401 70.9776 82.4113 73.8191 83.2584 75.3435C83.7117 74.4766 84.5431 72.6911 84.4778 71.3695L84.4357 70.5169L85.0342 71.1257C85.1104 71.2031 86.9023 73.0835 87.2265 78.4344L86.5777 78.4738Z" fill="white"/>
</g>
<mask id="mask32_2011_76867" style="mask-type:luminance" maskUnits="userSpaceOnUse" x="60" y="41" width="27" height="38">
<path d="M86.5364 66.6327C85.9257 74.8672 79.3419 79.1556 72.5963 78.6553C65.8503 78.155 60.4091 72.55 61.0198 64.3155C61.8947 52.5187 68.6376 40.5719 75.3835 41.0722C82.1292 41.5727 87.3958 55.0447 86.5364 66.6327Z" fill="white"/>
</mask>
<g mask="url(#mask32_2011_76867)">
<path d="M86.3416 72.2772C86.191 69.7927 85.6902 68.1684 85.2964 67.2435C85.233 67.0946 85.1704 66.9585 85.1095 66.8349C84.7339 68.4657 83.7721 70.0898 83.7203 70.1765L83.2966 70.8856L82.9258 70.1476C82.4917 69.283 81.1359 67.0662 80.4819 66.0068L77.4604 70.2801L73.8914 65.3796L69.5748 69.5065L69.2658 69.2652C68.6814 68.8087 67.4238 66.2479 66.7874 64.8981C66.1258 65.5737 64.8843 67.0965 63.821 68.4973L63.482 68.944L63.1161 68.5187C62.5035 67.8064 62.2074 66.1038 62.0732 64.9559C60.748 66.8183 59.6966 69.838 59.6845 69.8733L58.8272 69.5776C58.8879 69.4016 60.3351 65.2476 62.1086 63.504L62.8214 62.803L62.8791 63.8011C62.9382 64.8212 63.1548 66.4746 63.5172 67.4032C64.3774 66.2921 66.1035 64.1214 66.7238 63.7721L67.1522 63.5308L67.3581 63.9771C68.1199 65.629 69.0784 67.504 69.5792 68.2476L74.0139 64.0076L77.4494 68.725L80.5303 64.3676L80.8913 64.9465C80.9678 65.0691 82.4835 67.5008 83.3291 68.9912C83.7641 68.1232 84.4027 66.6433 84.3479 65.5314L84.2893 64.342L85.1241 65.1911C85.1978 65.2661 86.9358 67.089 87.2466 72.2226L86.3416 72.2772Z" fill="#00DDDE"/>
</g>
<mask id="mask33_2011_76867" style="mask-type:luminance" maskUnits="userSpaceOnUse" x="62" y="41" width="27" height="39">
<path d="M88.5016 65.092C89.183 73.3213 83.3485 78.5845 76.6071 79.1426C69.8655 79.7008 63.6162 75.0131 62.9349 66.7837C61.9588 54.9944 66.7558 42.1414 73.4974 41.5833C80.2389 41.0253 87.5428 53.5113 88.5016 65.092Z" fill="white"/>
</mask>
<g mask="url(#mask33_2011_76867)">
<path opacity="0.37" d="M78.2583 60.2114C80.4733 60.028 82.0155 56.8193 81.703 53.0445C81.3904 49.2697 79.3415 46.3583 77.1265 46.5417C74.9116 46.7251 73.3693 49.9338 73.6818 53.7086C73.9944 57.4834 76.0433 60.3948 78.2583 60.2114Z" fill="white"/>
</g>
<mask id="mask34_2011_76867" style="mask-type:luminance" maskUnits="userSpaceOnUse" x="60" y="41" width="27" height="38">
<path d="M86.5364 66.6327C85.9257 74.8672 79.3419 79.1556 72.5963 78.6553C65.8503 78.155 60.4091 72.55 61.0198 64.3155C61.8947 52.5187 68.6376 40.5719 75.3835 41.0722C82.1292 41.5727 87.3958 55.0447 86.5364 66.6327Z" fill="white"/>
</mask>
<g mask="url(#mask34_2011_76867)">
<path opacity="0.03" d="M94.3768 66.0252C95.0384 72.5756 87.9003 77.4653 80.6258 77.1723C79.9466 77.4662 79.2349 77.6509 78.4953 77.712C72.3954 78.2169 66.7531 70.1988 65.8929 59.8032C65.2053 51.4924 67.782 44.1788 71.96 41.3214C74.0694 37.0389 75.9921 34.1826 75.9921 34.1826L67.6283 38.1726L61.8347 47.2196L59.5879 63.7013L58.785 74.5271L65.8226 79.7873L81.6958 81.6047L90.0876 80.6904L97.2489 73.922L94.3768 66.0252Z" fill="#242E36"/>
</g>
<mask id="mask35_2011_76867" style="mask-type:luminance" maskUnits="userSpaceOnUse" x="60" y="41" width="27" height="38">
<path d="M86.5364 66.6327C85.9257 74.8672 79.3419 79.1556 72.5963 78.6553C65.8503 78.155 60.4091 72.55 61.0198 64.3155C61.8947 52.5187 68.6376 40.5719 75.3835 41.0722C82.1292 41.5727 87.3958 55.0447 86.5364 66.6327Z" fill="white"/>
</mask>
<g mask="url(#mask35_2011_76867)">
<path opacity="0.27" d="M87.7729 57.7323C86.9128 47.3367 81.2705 39.3186 75.1705 39.8235C73.9472 39.9246 72.7985 40.3618 71.7504 41.0787C67.5727 43.9362 64.9956 51.2497 65.6833 59.5605C66.5437 69.9561 72.186 77.9742 78.2857 77.4693C79.025 77.4082 79.737 77.2235 80.4162 76.9296C85.34 74.7984 88.5289 66.8679 87.7729 57.7323Z" fill="white"/>
</g>
<path d="M14.6998 62.1043C12.9598 71.5369 13.784 81.1526 16.7145 90.3104C24.865 116.044 53.5289 119.157 64.3351 118.883C82.9255 118.425 98.1275 109.45 104.63 98.3692C113.329 83.3504 112.322 62.5622 110.124 62.0127C109.025 61.738 107.926 62.1043 106.919 62.379C100.051 64.3022 84.0244 69.2474 63.053 68.6979C32.0081 67.9653 17.6303 61.4633 16.3482 61.6464C15.0661 61.9212 14.0588 63.2948 14.6998 62.1043Z" fill="#CE965D"/>
<path d="M102.981 85.6399C100.692 87.1967 98.4023 88.8451 96.1128 90.4935C95.3802 90.3104 94.6476 90.1272 94.0065 89.9441C92.3581 89.4862 90.6181 89.0283 88.9697 88.4788C86.4056 87.6546 83.9329 86.7388 81.4603 85.7315C81.8266 85.4567 82.193 85.182 82.5593 84.9988C84.2993 83.8083 86.0392 82.6178 87.7792 81.4273C89.5192 80.2368 91.4424 79.0463 93.0908 77.581C93.5487 77.1231 92.9992 76.2989 92.4497 76.5736C88.9697 77.7642 85.7645 80.2368 82.834 82.3431C81.6435 83.1673 80.5446 83.9915 79.4456 84.8157C79.354 84.8157 79.2625 84.7241 79.1709 84.7241C73.1267 81.9767 67.2657 78.4052 60.6721 76.94C59.6647 76.6652 59.2984 78.3136 60.3058 78.4968C66.4415 80.0536 71.6615 83.6252 77.3393 86.3725C76.1488 87.2883 74.8667 88.2041 73.6762 89.0283C71.0204 90.9514 68.2731 92.8745 65.5257 94.7977C65.3426 94.7061 65.0679 94.6145 64.8847 94.4314C60.5805 92.1419 56.3679 89.6693 52.3385 87.0135C52.7964 86.7388 53.3459 86.3725 53.8037 86.0978C56.3679 84.4494 59.0237 82.801 61.4963 80.8778C61.9542 80.5115 61.6795 79.5041 61.0384 79.7789C58.2911 80.8778 55.91 82.5262 53.529 84.2662C52.7048 84.8157 51.789 85.4567 50.9648 86.0062C49.5912 84.9988 48.1259 83.9915 46.8438 82.9841C44.4628 81.1526 42.1733 79.321 39.8839 77.3063C40.067 77.1231 40.2502 76.8484 40.3418 76.5736C40.4334 76.2989 40.067 76.0242 39.8839 76.1158C39.6092 76.2073 39.3344 76.3905 39.0597 76.5736C38.5102 76.0242 37.8692 75.5663 37.3197 75.0168C36.7702 74.4673 35.946 75.3831 36.4955 75.9326C37.045 76.3905 37.5029 76.94 38.0523 77.3978C37.5944 77.7642 37.045 78.1305 36.5871 78.4052C35.305 79.2294 34.0229 80.0536 32.6492 80.7862C31.0008 81.702 29.3524 82.4346 27.6124 83.2588C26.2388 81.4273 24.8651 79.5957 23.4914 77.7642C23.0335 77.1231 21.9346 77.7642 22.3925 78.4052C23.6746 80.2368 24.9567 82.0683 26.2388 83.8083C25.6893 84.083 25.1398 84.2662 24.5903 84.541C23.8577 84.9073 24.224 86.0978 24.9567 85.823C25.5977 85.5483 26.3303 85.2736 26.9714 84.9988C29.5356 88.662 32.0997 92.2335 35.0302 95.6219C33.2903 96.4461 31.4587 97.0871 29.6271 97.7282C28.8945 98.0029 29.2608 99.1019 29.9934 98.9187C32.0082 98.2776 34.0229 97.545 35.946 96.7208C36.4039 97.1787 36.7702 97.6366 37.2281 98.1861C40.1586 101.3 43.547 103.864 47.1185 106.245C46.2943 106.611 45.5617 106.886 44.7375 107.161C44.0965 107.344 44.3712 108.443 45.1038 108.26C46.2028 107.893 47.3017 107.527 48.4007 107.069C50.7817 108.534 53.2543 109.908 55.8185 111.19C57.7416 112.198 59.6648 113.113 61.4963 114.029C63.4195 114.945 65.3426 115.952 67.3573 116.685C67.8152 116.868 68.2731 116.135 67.8152 115.769C64.9763 113.571 61.4963 111.923 58.1995 110.274C55.6353 108.901 53.0711 107.527 50.5985 105.97C55.3606 103.772 59.7563 100.75 64.1521 97.8198C64.5184 97.545 64.8847 97.2703 65.3426 96.9956C67.7236 98.2776 70.1962 99.4682 72.6688 100.567C74.8667 101.574 77.0646 102.49 79.2625 103.314C75.5993 105.879 71.8446 108.351 68.0899 110.732C67.3573 111.19 68.0899 112.381 68.8226 111.923C73.0352 109.359 77.2477 106.703 81.3687 103.955C82.3761 104.23 83.3835 104.505 84.2993 104.688C85.0319 104.871 85.5814 103.772 84.8487 103.314C84.2993 103.04 83.8414 102.857 83.2919 102.582C84.574 101.758 85.8561 100.842 87.0466 100.018C90.3434 97.7282 93.4571 95.4387 96.5707 92.9661C97.3949 93.0577 98.2191 93.1493 99.0433 93.0577C99.776 92.9661 100.142 92.0503 99.4096 91.5924C99.2265 91.5009 98.9517 91.3177 98.7686 91.2261C100.6 89.7609 102.34 88.2041 103.989 86.5557C104.263 86.0978 103.531 85.182 102.981 85.6399ZM36.6787 94.7977C34.8471 92.8745 33.1987 90.8598 31.5503 88.7535C30.4513 87.2883 29.3524 85.9146 28.2535 84.4494C29.9019 83.7167 31.5503 82.8925 33.1987 82.0683C34.5724 81.3357 35.946 80.5115 37.2281 79.6873C37.7776 79.321 38.3271 78.8631 38.785 78.4052C42.1733 81.5189 45.6533 84.4494 49.3164 87.1051C48.1259 87.9293 46.9354 88.7535 45.6533 89.5777C42.8144 91.4093 39.7923 93.2409 36.6787 94.7977ZM55.6353 101.574C53.529 102.857 51.4227 104.047 49.2248 105.146C48.9501 104.963 48.6754 104.78 48.4007 104.597C45.287 102.582 42.2649 100.292 39.5176 97.6366C38.8765 96.9956 38.2355 96.3545 37.5944 95.7135C40.5249 94.2482 43.2723 92.6914 46.0196 90.9514C47.5764 89.9441 49.1333 89.0283 50.6901 88.0209C54.8111 90.9514 59.1153 93.6987 63.6026 96.0798C61.0384 98.0029 58.3827 99.8345 55.6353 101.574ZM85.6729 98.4608C84.2077 99.5597 82.6509 100.659 81.094 101.758C78.8962 100.842 76.7898 100.018 74.592 99.1019C72.0278 98.0029 69.4636 96.8124 66.991 95.5303C71.0204 92.783 75.1414 89.9441 79.1709 87.1967C82.193 88.5704 85.215 89.7609 88.3287 90.7683C89.9771 91.3177 91.6255 91.7756 93.3655 92.2335C93.4571 92.2335 93.4571 92.2335 93.5487 92.3251C90.8929 94.3398 88.3287 96.4461 85.6729 98.4608Z" fill="#916332"/>
<path d="M112.139 79.5042C112.139 81.7021 110.216 83.442 108.018 83.1673C94.2812 81.6105 78.9876 80.5115 62.1373 80.6031C45.2869 80.6031 29.8102 81.702 16.0735 83.3504C14.4251 83.5336 12.9598 82.2515 12.9598 80.6031V73.0937H112.047V79.5042H112.139Z" fill="#DFA950"/>
<path d="M12.5021 61.3717L111.406 61.0054C115.07 61.0054 118 64.0274 118 67.7821C118 71.5368 115.07 74.5589 111.498 74.5589L12.5936 74.9253C8.9305 74.9253 6 71.9032 6 68.1485C6 64.4853 8.83893 61.4633 12.5021 61.3717Z" fill="#B77437"/>
<path d="M62.1375 76.9646C62.1375 76.9646 69.189 67.1658 76.2405 67.6237C83.292 68.0816 84.3909 78.0636 81.3689 82.6425C79.0794 86.1225 71.9363 85.9393 63.1448 80.0783C63.1448 80.0783 59.5733 79.6204 62.1375 76.9646Z" fill="#FFCC79"/>
<g opacity="0.18">
<path d="M72.9436 70.7374C74.6836 70.3711 76.5151 70.829 77.8888 71.9279C79.2625 72.9353 80.0867 74.4921 80.3614 76.1405C80.453 76.5068 80.9109 76.7815 81.2772 76.69C81.7351 76.5984 81.8266 76.1405 81.8266 75.7742C81.4603 73.7595 80.3614 71.9279 78.6214 70.6458C76.8814 69.3637 74.592 68.9058 72.4857 69.3637C72.1194 69.4553 71.8446 69.9132 71.9362 70.2795C72.1194 70.5542 72.5773 70.7374 72.9436 70.7374Z" fill="white"/>
</g>
<path d="M61.7711 77.4226C61.7711 77.4226 54.7196 67.6237 47.6681 68.0816C40.6166 68.5395 39.5177 78.5215 42.5397 83.1004C44.8292 86.5804 51.9723 86.3973 60.7638 80.5363C60.7638 80.5363 64.3353 80.0783 61.7711 77.4226Z" fill="#FFCC79"/>
<g opacity="0.18">
<path d="M51.4228 69.7301C49.3165 69.3638 47.0271 69.7301 45.2871 71.0122C43.6387 72.2027 42.4482 74.0343 42.0819 76.1406C41.9903 76.5069 42.1734 76.9648 42.6313 77.0563C42.9976 77.1479 43.4555 76.9648 43.5471 76.5069C43.8218 74.8585 44.646 73.3017 46.0197 72.2943C47.3934 71.2869 49.3165 70.829 50.9649 71.1038C51.3313 71.1953 51.7891 71.0122 51.8807 70.5543C51.9723 70.2796 51.7891 69.8217 51.4228 69.7301Z" fill="white"/>
</g>
<path d="M63.1448 77.6973L71.4784 73.851" stroke="#CE6B19" stroke-miterlimit="10" stroke-linecap="round"/>
<path d="M63.2365 79.071L71.5701 78.7047" stroke="#CE6B19" stroke-miterlimit="10" stroke-linecap="round"/>
<path d="M61.313 77.7889C61.313 77.7889 52.9794 75.6826 52.5215 75.4079" stroke="#CE6B19" stroke-miterlimit="10" stroke-linecap="round"/>
<path d="M61.0384 79.3457C61.0384 79.3457 54.2616 79.6205 52.9795 79.712" stroke="#CE6B19" stroke-miterlimit="10" stroke-linecap="round"/>
<path d="M65.0679 78.5215C65.1595 80.1699 63.8774 81.5436 62.229 81.5436C60.5805 81.6352 59.2069 80.3531 59.2069 78.7047C59.1153 77.0563 60.3974 75.6826 62.0458 75.6826C63.6942 75.591 65.0679 76.8731 65.0679 78.5215Z" fill="#E9A427"/>
</g>
<defs>
<clipPath id="clip0_2011_76867">
<rect width="120" height="120" fill="white"/>
</clipPath>
</defs>
</svg>
