<svg width="190" height="204" viewBox="0 0 190 204" fill="none" xmlns="http://www.w3.org/2000/svg">
<path d="M124.172 106.049C122.523 100.188 120.692 94.2352 118.219 88.7405C115.747 83.3374 112.541 78.3922 108.146 74.4543C104.116 70.8828 99.0794 68.5017 93.951 67.2196C83.7859 64.6555 72.5217 66.2123 63.2724 71.1575C54.2061 75.9196 47.3378 83.8869 43.5831 93.5026C39.0042 105.316 36.1653 118.045 37.081 130.775C37.1726 132.332 37.3558 133.98 37.6305 135.537C37.9968 138.01 41.7515 137.552 41.4768 134.987C40.1947 123.174 42.301 111.086 46.0557 99.913C47.7041 95.0594 49.6272 90.3889 52.6493 86.2679C55.3051 82.5132 58.5103 79.5827 62.3566 77.0185C70.1407 71.8901 80.1227 69.6923 89.3721 71.0659C94.1342 71.7986 98.8046 73.3554 102.743 76.1027C107.047 79.0332 110.252 83.3374 112.633 87.9163C115.197 92.8615 116.937 98.173 118.586 103.485C119.501 106.507 120.417 109.529 121.058 112.642C121.791 115.848 122.066 119.053 122.249 122.35C122.34 123.906 122.432 125.555 122.707 127.112C122.89 128.211 123.897 129.126 125.088 128.943C126.37 128.76 126.919 127.753 126.919 126.562C126.919 123.174 126.828 119.785 126.37 116.489C126.003 112.734 125.179 109.437 124.172 106.049Z" fill="#B77437"/>
<path d="M34.6998 126.104C32.9598 135.537 33.784 145.153 36.7145 154.31C44.865 180.044 73.5289 183.157 84.3351 182.883C102.925 182.425 118.127 173.45 124.63 162.369C133.329 147.35 132.322 126.562 130.124 126.013C129.025 125.738 127.926 126.104 126.919 126.379C120.051 128.302 104.024 133.247 83.053 132.698C52.0081 131.965 37.6303 125.463 36.3482 125.646C35.0661 125.921 34.0588 127.295 34.6998 126.104Z" fill="#CE965D"/>
<path d="M122.981 149.64C120.692 151.197 118.402 152.845 116.113 154.494C115.38 154.31 114.648 154.127 114.007 153.944C112.358 153.486 110.618 153.028 108.97 152.479C106.406 151.655 103.933 150.739 101.46 149.731C101.827 149.457 102.193 149.182 102.559 148.999C104.299 147.808 106.039 146.618 107.779 145.427C109.519 144.237 111.442 143.046 113.091 141.581C113.549 141.123 112.999 140.299 112.45 140.574C108.97 141.764 105.764 144.237 102.834 146.343C101.643 147.167 100.545 147.991 99.4456 148.816C99.354 148.816 99.2625 148.724 99.1709 148.724C93.1267 145.977 87.2657 142.405 80.6721 140.94C79.6647 140.665 79.2984 142.314 80.3058 142.497C86.4415 144.054 91.6615 147.625 97.3393 150.373C96.1488 151.288 94.8667 152.204 93.6762 153.028C91.0204 154.951 88.2731 156.875 85.5257 158.798C85.3426 158.706 85.0679 158.615 84.8847 158.431C80.5805 156.142 76.3679 153.669 72.3385 151.014C72.7964 150.739 73.3459 150.373 73.8037 150.098C76.3679 148.449 79.0237 146.801 81.4963 144.878C81.9542 144.512 81.6795 143.504 81.0384 143.779C78.2911 144.878 75.91 146.526 73.529 148.266C72.7048 148.816 71.789 149.457 70.9648 150.006C69.5912 148.999 68.1259 147.991 66.8438 146.984C64.4628 145.153 62.1733 143.321 59.8839 141.306C60.067 141.123 60.2502 140.848 60.3418 140.574C60.4334 140.299 60.067 140.024 59.8839 140.116C59.6092 140.207 59.3344 140.391 59.0597 140.574C58.5102 140.024 57.8692 139.566 57.3197 139.017C56.7702 138.467 55.946 139.383 56.4955 139.933C57.045 140.39 57.5029 140.94 58.0523 141.398C57.5944 141.764 57.045 142.13 56.5871 142.405C55.305 143.229 54.0229 144.054 52.6492 144.786C51.0008 145.702 49.3524 146.435 47.6124 147.259C46.2388 145.427 44.8651 143.596 43.4914 141.764C43.0335 141.123 41.9346 141.764 42.3925 142.405C43.6746 144.237 44.9567 146.068 46.2388 147.808C45.6893 148.083 45.1398 148.266 44.5903 148.541C43.8577 148.907 44.224 150.098 44.9567 149.823C45.5977 149.548 46.3303 149.274 46.9714 148.999C49.5356 152.662 52.0997 156.234 55.0302 159.622C53.2903 160.446 51.4587 161.087 49.6271 161.728C48.8945 162.003 49.2608 163.102 49.9934 162.919C52.0082 162.278 54.0229 161.545 55.946 160.721C56.4039 161.179 56.7702 161.637 57.2281 162.186C60.1586 165.3 63.547 167.864 67.1185 170.245C66.2943 170.611 65.5617 170.886 64.7375 171.161C64.0965 171.344 64.3712 172.443 65.1038 172.26C66.2028 171.893 67.3017 171.527 68.4007 171.069C70.7817 172.534 73.2543 173.908 75.8185 175.19C77.7416 176.198 79.6648 177.113 81.4963 178.029C83.4195 178.945 85.3426 179.952 87.3573 180.685C87.8152 180.868 88.2731 180.135 87.8152 179.769C84.9763 177.571 81.4963 175.923 78.1995 174.274C75.6353 172.901 73.0711 171.527 70.5985 169.97C75.3606 167.772 79.7563 164.75 84.1521 161.82C84.5184 161.545 84.8847 161.27 85.3426 160.996C87.7236 162.278 90.1962 163.468 92.6688 164.567C94.8667 165.574 97.0646 166.49 99.2625 167.314C95.5993 169.879 91.8446 172.351 88.0899 174.732C87.3573 175.19 88.0899 176.381 88.8226 175.923C93.0352 173.359 97.2477 170.703 101.369 167.956C102.376 168.23 103.383 168.505 104.299 168.688C105.032 168.871 105.581 167.772 104.849 167.314C104.299 167.04 103.841 166.857 103.292 166.582C104.574 165.758 105.856 164.842 107.047 164.018C110.343 161.728 113.457 159.439 116.571 156.966C117.395 157.058 118.219 157.149 119.043 157.058C119.776 156.966 120.142 156.05 119.41 155.592C119.226 155.501 118.952 155.318 118.769 155.226C120.6 153.761 122.34 152.204 123.989 150.556C124.263 150.098 123.531 149.182 122.981 149.64ZM56.6787 158.798C54.8471 156.875 53.1987 154.86 51.5503 152.754C50.4513 151.288 49.3524 149.915 48.2535 148.449C49.9019 147.717 51.5503 146.893 53.1987 146.068C54.5724 145.336 55.946 144.512 57.2281 143.687C57.7776 143.321 58.3271 142.863 58.785 142.405C62.1733 145.519 65.6533 148.449 69.3164 151.105C68.1259 151.929 66.9354 152.754 65.6533 153.578C62.8144 155.409 59.7923 157.241 56.6787 158.798ZM75.6353 165.574C73.529 166.857 71.4227 168.047 69.2248 169.146C68.9501 168.963 68.6754 168.78 68.4007 168.597C65.287 166.582 62.2649 164.292 59.5176 161.637C58.8765 160.996 58.2355 160.355 57.5944 159.713C60.5249 158.248 63.2723 156.691 66.0196 154.951C67.5764 153.944 69.1333 153.028 70.6901 152.021C74.8111 154.951 79.1153 157.699 83.6026 160.08C81.0384 162.003 78.3827 163.834 75.6353 165.574ZM105.673 162.461C104.208 163.56 102.651 164.659 101.094 165.758C98.8962 164.842 96.7898 164.018 94.592 163.102C92.0278 162.003 89.4636 160.812 86.991 159.53C91.0204 156.783 95.1414 153.944 99.1709 151.197C102.193 152.57 105.215 153.761 108.329 154.768C109.977 155.318 111.625 155.776 113.365 156.234C113.457 156.234 113.457 156.234 113.549 156.325C110.893 158.34 108.329 160.446 105.673 162.461Z" fill="#916332"/>
<path d="M132.139 143.504C132.139 145.702 130.216 147.442 128.018 147.167C114.281 145.61 98.9876 144.512 82.1373 144.603C65.2869 144.603 49.8102 145.702 36.0735 147.35C34.4251 147.534 32.9598 146.252 32.9598 144.603V137.094H132.047V143.504H132.139Z" fill="#DFA950"/>
<path d="M32.5021 125.372L131.406 125.005C135.07 125.005 138 128.027 138 131.782C138 135.537 135.07 138.559 131.498 138.559L32.5936 138.925C28.9305 138.925 26 135.903 26 132.148C26 128.485 28.8389 125.463 32.5021 125.372Z" fill="#B77437"/>
<path d="M82.1375 140.965C82.1375 140.965 89.189 131.166 96.2405 131.624C103.292 132.082 104.391 142.064 101.369 146.642C99.0794 150.122 91.9363 149.939 83.1448 144.078C83.1448 144.078 79.5733 143.62 82.1375 140.965Z" fill="#FFCC79"/>
<g opacity="0.18">
<path d="M92.9436 134.737C94.6836 134.371 96.5151 134.829 97.8888 135.928C99.2625 136.935 100.087 138.492 100.361 140.14C100.453 140.507 100.911 140.782 101.277 140.69C101.735 140.598 101.827 140.14 101.827 139.774C101.46 137.759 100.361 135.928 98.6214 134.646C96.8814 133.364 94.592 132.906 92.4857 133.364C92.1194 133.455 91.8446 133.913 91.9362 134.28C92.1194 134.554 92.5773 134.737 92.9436 134.737Z" fill="white"/>
</g>
<path d="M81.7711 141.423C81.7711 141.423 74.7196 131.624 67.6681 132.082C60.6166 132.54 59.5177 142.522 62.5397 147.1C64.8292 150.58 71.9723 150.397 80.7638 144.536C80.7638 144.536 84.3353 144.078 81.7711 141.423Z" fill="#FFCC79"/>
<g opacity="0.18">
<path d="M71.4228 133.73C69.3165 133.364 67.0271 133.73 65.2871 135.012C63.6387 136.203 62.4482 138.034 62.0819 140.141C61.9903 140.507 62.1734 140.965 62.6313 141.056C62.9976 141.148 63.4555 140.965 63.5471 140.507C63.8218 138.858 64.646 137.302 66.0197 136.294C67.3934 135.287 69.3165 134.829 70.9649 135.104C71.3313 135.195 71.7891 135.012 71.8807 134.554C71.9723 134.28 71.7891 133.822 71.4228 133.73Z" fill="white"/>
</g>
<path d="M83.1448 141.697L91.4784 137.851" stroke="#CE6B19" stroke-miterlimit="10" stroke-linecap="round"/>
<path d="M83.2365 143.071L91.5701 142.705" stroke="#CE6B19" stroke-miterlimit="10" stroke-linecap="round"/>
<path d="M81.313 141.789C81.313 141.789 72.9794 139.683 72.5215 139.408" stroke="#CE6B19" stroke-miterlimit="10" stroke-linecap="round"/>
<path d="M81.0384 143.346C81.0384 143.346 74.2616 143.62 72.9795 143.712" stroke="#CE6B19" stroke-miterlimit="10" stroke-linecap="round"/>
<path d="M85.0679 142.522C85.1595 144.17 83.8774 145.544 82.229 145.544C80.5805 145.635 79.2069 144.353 79.2069 142.705C79.1153 141.056 80.3974 139.683 82.0458 139.683C83.6942 139.591 85.0679 140.873 85.0679 142.522Z" fill="#E9A427"/>
<g filter="url(#filter0_f_2011_77002)">
<ellipse cx="80.5" cy="124" rx="55.5" ry="70" fill="#FBDD36" fill-opacity="0.3"/>
</g>
<defs>
<filter id="filter0_f_2011_77002" x="-29" y="0" width="219" height="248" filterUnits="userSpaceOnUse" color-interpolation-filters="sRGB">
<feFlood flood-opacity="0" result="BackgroundImageFix"/>
<feBlend mode="normal" in="SourceGraphic" in2="BackgroundImageFix" result="shape"/>
<feGaussianBlur stdDeviation="27" result="effect1_foregroundBlur_2011_77002"/>
</filter>
</defs>
</svg>
