<svg width="219" height="204" viewBox="0 0 219 204" fill="none" xmlns="http://www.w3.org/2000/svg">
<path d="M154.172 104.049C152.523 98.1878 150.692 92.2352 148.219 86.7405C145.747 81.3374 142.541 76.3922 138.146 72.4543C134.116 68.8828 129.079 66.5017 123.951 65.2196C113.786 62.6555 102.522 64.2123 93.2724 69.1575C84.2061 73.9196 77.3378 81.8869 73.5831 91.5026C69.0042 103.316 66.1653 116.045 67.081 128.775C67.1726 130.332 67.3558 131.98 67.6305 133.537C67.9968 136.01 71.7515 135.552 71.4768 132.987C70.1947 121.174 72.301 109.086 76.0557 97.913C77.7041 93.0594 79.6272 88.3889 82.6493 84.2679C85.3051 80.5132 88.5103 77.5827 92.3566 75.0185C100.141 69.8901 110.123 67.6923 119.372 69.0659C124.134 69.7986 128.805 71.3554 132.743 74.1027C137.047 77.0332 140.252 81.3374 142.633 85.9163C145.197 90.8615 146.937 96.173 148.586 101.485C149.501 104.507 150.417 107.529 151.058 110.642C151.791 113.848 152.066 117.053 152.249 120.35C152.34 121.906 152.432 123.555 152.707 125.112C152.89 126.211 153.897 127.126 155.088 126.943C156.37 126.76 156.919 125.753 156.919 124.562C156.919 121.174 156.828 117.785 156.37 114.489C156.003 110.734 155.179 107.437 154.172 104.049Z" fill="#B77437"/>
<mask id="mask0_2011_77173" style="mask-type:luminance" maskUnits="userSpaceOnUse" x="74" y="103" width="27" height="35">
<path d="M99.8252 121.183C102.714 128.344 98.9623 134.661 93.0963 137.028C87.23 139.395 80.3496 136.94 77.4604 129.779C73.3213 119.521 74.0434 106.712 79.9097 104.346C85.7758 101.979 95.7594 111.106 99.8252 121.183Z" fill="white"/>
</mask>
<g mask="url(#mask0_2011_77173)">
<path d="M92.2716 94.8122L63.3702 106.473L79.6718 146.876L108.573 135.215L92.2716 94.8122Z" fill="#FFB41B"/>
</g>
<mask id="mask1_2011_77173" style="mask-type:luminance" maskUnits="userSpaceOnUse" x="74" y="103" width="27" height="35">
<path d="M99.8252 121.183C102.714 128.344 98.9623 134.661 93.0963 137.028C87.23 139.395 80.3496 136.94 77.4604 129.779C73.3213 119.521 74.0434 106.712 79.9097 104.346C85.7758 101.979 95.7594 111.106 99.8252 121.183Z" fill="white"/>
</mask>
<g mask="url(#mask1_2011_77173)">
<path d="M95.4262 113.119C94.317 111.172 93.2772 110.105 92.5682 109.54C92.8623 110.894 92.7453 112.406 92.7384 112.489L92.6759 113.259L92.0599 112.793C91.4234 112.311 89.6329 111.176 88.7251 110.606L88.0318 114.959L83.4973 112.577L81.7731 117.295L81.4142 117.221C80.8035 117.093 78.9408 115.663 77.9417 114.869C77.6954 115.641 77.3349 117.213 77.0587 118.635L76.9589 119.15L76.4764 118.944C75.7655 118.641 74.9368 117.529 74.4012 116.712C74.1227 118.598 74.4388 121.173 74.4428 121.203L73.6013 121.309C73.5816 121.153 73.1281 117.462 73.8235 115.473L74.1319 114.591L74.5928 115.404C75.0043 116.131 75.7495 117.253 76.3545 117.831C76.609 116.586 77.0832 114.439 77.4197 113.947L77.6794 113.568L78.0365 113.857C79.2011 114.801 80.5913 115.84 81.2589 116.232L83.0339 111.375L87.3804 113.659L88.0887 109.21L88.6308 109.547C88.7323 109.61 90.714 110.841 91.918 111.656C91.919 110.836 91.8422 109.545 91.405 108.758L90.8644 107.784L91.9156 108.152C92 108.181 94.008 108.918 96.1628 112.699L95.4262 113.119Z" fill="#FF5D7C"/>
</g>
<mask id="mask2_2011_77173" style="mask-type:luminance" maskUnits="userSpaceOnUse" x="74" y="103" width="27" height="35">
<path d="M99.8252 121.183C102.714 128.344 98.9623 134.661 93.0963 137.028C87.23 139.395 80.3496 136.94 77.4604 129.779C73.3213 119.521 74.0434 106.712 79.9097 104.346C85.7758 101.979 95.7594 111.106 99.8252 121.183Z" fill="white"/>
</mask>
<g mask="url(#mask2_2011_77173)">
<path d="M97.8459 118.119C96.7725 116.236 95.7539 115.161 95.0884 114.591C94.8727 114.406 94.6791 114.261 94.514 114.149C94.9494 115.585 94.8048 117.454 94.7973 117.546L94.7581 118.027L94.3733 117.736C93.6653 117.2 91.5746 115.882 90.7512 115.367L90.042 119.82L85.4607 117.413L83.6887 122.262L83.4645 122.215C82.8331 122.084 80.6703 120.391 79.8138 119.706C79.5251 120.485 79.0782 122.513 78.8308 123.787L78.7682 124.109L78.4666 123.981C77.6693 123.641 76.6995 122.219 76.1982 121.412C75.7856 123.379 76.1601 126.422 76.1642 126.456L75.6384 126.522C75.6186 126.365 75.1613 122.643 75.8564 120.654L76.0493 120.103L76.3374 120.611C76.6817 121.22 77.6395 122.738 78.3841 123.314C78.5908 122.289 79.1465 119.655 79.4996 119.139L79.6619 118.902L79.8851 119.083C80.9361 119.935 82.6678 121.259 83.362 121.612L85.1708 116.661L89.6348 119.007L90.3533 114.494L90.6921 114.705C90.803 114.774 93.1219 116.214 94.2907 117.024C94.3101 116.227 94.2751 114.621 93.7515 113.678L93.4137 113.07L94.0707 113.3C94.1542 113.329 96.1425 114.059 98.3065 117.856L97.8459 118.119Z" fill="white"/>
</g>
<mask id="mask3_2011_77173" style="mask-type:luminance" maskUnits="userSpaceOnUse" x="74" y="103" width="27" height="35">
<path d="M99.8252 121.183C102.714 128.344 98.9623 134.661 93.0963 137.028C87.23 139.395 80.3496 136.94 77.4604 129.779C73.3213 119.521 74.0434 106.712 79.9097 104.346C85.7758 101.979 95.7594 111.106 99.8252 121.183Z" fill="white"/>
</mask>
<g mask="url(#mask3_2011_77173)">
<path d="M90.5753 107.043C89.7225 105.546 88.9133 104.693 88.3846 104.24C88.2131 104.093 88.0594 103.978 87.9281 103.889C88.2741 105.03 88.1592 106.514 88.1532 106.588L88.1221 106.97L87.8164 106.739C87.2539 106.313 85.5929 105.266 84.9389 104.856L84.3756 108.394L80.7362 106.482L79.3285 110.334L79.1502 110.297C78.6486 110.193 76.9306 108.848 76.25 108.304C76.0205 108.923 75.6657 110.534 75.4691 111.546L75.4194 111.802L75.1799 111.699C74.5466 111.429 73.7762 110.3 73.3779 109.659C73.0501 111.222 73.3476 113.639 73.3511 113.666L72.9332 113.718C72.9175 113.593 72.5542 110.637 73.1065 109.057L73.2597 108.619L73.4886 109.023C73.7623 109.506 74.5229 110.712 75.1145 111.17C75.2787 110.356 75.7202 108.263 76.0007 107.853L76.1296 107.665L76.3069 107.809C77.1419 108.486 78.5177 109.537 79.069 109.818L80.5061 105.885L84.0523 107.748L84.6231 104.164L84.8923 104.331C84.9805 104.386 86.8228 105.53 87.7513 106.173C87.7666 105.54 87.7389 104.264 87.3227 103.515L87.0543 103.032L87.5763 103.215C87.6427 103.238 89.2221 103.818 90.9414 106.834L90.5753 107.043Z" fill="white"/>
</g>
<mask id="mask4_2011_77173" style="mask-type:luminance" maskUnits="userSpaceOnUse" x="74" y="103" width="27" height="35">
<path d="M99.8252 121.183C102.714 128.344 98.9623 134.661 93.0963 137.028C87.23 139.395 80.3496 136.94 77.4604 129.779C73.3213 119.521 74.0434 106.712 79.9097 104.346C85.7758 101.979 95.7594 111.106 99.8252 121.183Z" fill="white"/>
</mask>
<g mask="url(#mask4_2011_77173)">
<path d="M104.751 131.1C103.52 128.94 102.352 127.707 101.589 127.054C101.341 126.842 101.119 126.675 100.93 126.546C101.429 128.194 101.263 130.337 101.255 130.444L101.21 130.995L100.768 130.661C99.9563 130.046 97.5584 128.535 96.6138 127.944L95.8004 133.051L90.5458 130.29L88.5133 135.853L88.256 135.799C87.5318 135.648 85.0511 133.707 84.0685 132.921C83.7373 133.814 83.2247 136.141 82.9409 137.602L82.8692 137.971L82.5233 137.824C81.609 137.434 80.4966 135.803 79.9216 134.878C79.4487 137.133 79.8777 140.624 79.8826 140.663L79.2793 140.739C79.2567 140.558 78.732 136.29 79.5295 134.009L79.7508 133.376L80.0811 133.959C80.4762 134.657 81.5746 136.398 82.4286 137.06C82.6656 135.884 83.3029 132.863 83.708 132.271L83.8942 131.999L84.1502 132.206C85.3558 133.184 87.3421 134.702 88.1383 135.107L90.2131 129.429L95.3331 132.119L96.1573 126.944L96.5459 127.185C96.6733 127.264 99.3331 128.916 100.673 129.845C100.696 128.931 100.656 127.089 100.055 126.007L99.6674 125.309L100.421 125.573C100.517 125.606 102.797 126.444 105.279 130.799L104.751 131.1Z" fill="white"/>
</g>
<mask id="mask5_2011_77173" style="mask-type:luminance" maskUnits="userSpaceOnUse" x="74" y="103" width="27" height="35">
<path d="M99.8252 121.183C102.714 128.344 98.9623 134.661 93.0963 137.028C87.23 139.395 80.3496 136.94 77.4604 129.779C73.3213 119.521 74.0434 106.712 79.9097 104.346C85.7758 101.979 95.7594 111.106 99.8252 121.183Z" fill="white"/>
</mask>
<g mask="url(#mask5_2011_77173)">
<path d="M101.994 125.999C100.841 123.977 99.7498 122.821 99.0373 122.208C98.9226 122.109 98.8138 122.021 98.7117 121.942C99.0702 123.465 98.9342 125.225 98.9266 125.319L98.864 126.089L98.2481 125.623C97.5268 125.077 95.4735 123.777 94.4872 123.159L93.7175 127.992L88.6988 125.355L86.7821 130.601L86.4232 130.526C85.7443 130.384 83.6314 128.755 82.54 127.886C82.2639 128.726 81.8514 130.516 81.538 132.131L81.4381 132.646L80.9554 132.44C80.1472 132.095 79.1955 130.789 78.6087 129.882C78.2663 131.991 78.6315 134.959 78.636 134.994L77.7946 135.1C77.7728 134.927 77.271 130.844 78.0387 128.649L78.3471 127.766L78.8078 128.58C79.2788 129.411 80.1436 130.709 80.8312 131.338C81.0938 130.051 81.6453 127.517 82.0214 126.967L82.2812 126.588L82.6383 126.877C83.9597 127.948 85.5385 129.126 86.2658 129.543L88.2349 124.153L93.0658 126.692L93.8507 121.764L94.3927 122.1C94.5075 122.171 96.7837 123.585 98.1087 124.486C98.1151 123.579 98.0396 122.073 97.5343 121.163L96.9938 120.189L98.0449 120.557C98.1377 120.589 100.349 121.401 102.73 125.579L101.994 125.999Z" fill="#00DDDE"/>
</g>
<mask id="mask6_2011_77173" style="mask-type:luminance" maskUnits="userSpaceOnUse" x="75" y="104" width="28" height="34">
<path d="M100.838 119.079C104.809 125.701 102.088 132.527 96.6625 135.78C91.237 139.033 84.0577 137.682 80.0866 131.059C74.3977 121.571 73.1128 108.807 78.5383 105.553C83.9637 102.301 95.2493 109.759 100.838 119.079Z" fill="white"/>
</mask>
<g mask="url(#mask6_2011_77173)">
<path opacity="0.37" d="M90.2276 119.215C92.0102 118.146 91.9786 114.817 90.1571 111.779C88.3356 108.742 85.4139 107.145 83.6314 108.214C81.8488 109.283 81.8804 112.612 83.7019 115.65C85.5234 118.688 88.4451 120.284 90.2276 119.215Z" fill="white"/>
</g>
<mask id="mask7_2011_77173" style="mask-type:luminance" maskUnits="userSpaceOnUse" x="74" y="103" width="27" height="35">
<path d="M99.8252 121.183C102.714 128.344 98.9623 134.661 93.0963 137.028C87.23 139.395 80.3496 136.94 77.4604 129.779C73.3213 119.521 74.0434 106.712 79.9097 104.346C85.7758 101.979 95.7594 111.106 99.8252 121.183Z" fill="white"/>
</mask>
<g mask="url(#mask7_2011_77173)">
<path opacity="0.03" d="M106.152 117.435C109.413 122.657 105.444 129.708 99.2202 132.467C98.7717 132.994 98.2509 133.443 97.6558 133.8C92.7466 136.743 84.7007 132.347 79.6848 123.981C75.6748 117.292 74.8155 110.092 77.1404 105.969C77.1411 101.505 77.5742 98.314 77.5742 98.314L72.2054 105.116L71.082 115.1L76.0053 129.856L79.8037 139.27L87.8809 140.776L101.949 135.744L108.612 131.51L111.824 122.873L106.152 117.435Z" fill="#242E36"/>
</g>
<mask id="mask8_2011_77173" style="mask-type:luminance" maskUnits="userSpaceOnUse" x="74" y="103" width="27" height="35">
<path d="M99.8252 121.183C102.714 128.344 98.9623 134.661 93.0963 137.028C87.23 139.395 80.3496 136.94 77.4604 129.779C73.3213 119.521 74.0434 106.712 79.9097 104.346C85.7758 101.979 95.7594 111.106 99.8252 121.183Z" fill="white"/>
</mask>
<g mask="url(#mask8_2011_77173)">
<path opacity="0.27" d="M97.1861 113.205C92.1702 104.839 84.1242 100.442 79.2151 103.386C78.2306 103.976 77.4475 104.817 76.8643 105.852C74.5396 109.975 75.3987 117.175 79.4087 123.864C84.4248 132.23 92.4707 136.626 97.3797 133.683C97.9746 133.326 98.4956 132.877 98.9441 132.35C102.195 128.528 101.594 120.557 97.1861 113.205Z" fill="white"/>
</g>
<mask id="mask9_2011_77173" style="mask-type:luminance" maskUnits="userSpaceOnUse" x="88" y="97" width="29" height="41">
<path d="M116.236 124.905C115.583 133.712 108.541 138.298 101.327 137.763C94.1115 137.228 88.2919 131.234 88.9451 122.426C89.8808 109.809 97.0926 97.0317 104.308 97.5667C111.522 98.1021 117.155 112.511 116.236 124.905Z" fill="white"/>
</mask>
<g mask="url(#mask9_2011_77173)">
<path d="M121.808 94.0303L86.2621 91.394L82.5768 141.086L118.123 143.722L121.808 94.0303Z" fill="#FFB41B"/>
</g>
<mask id="mask10_2011_77173" style="mask-type:luminance" maskUnits="userSpaceOnUse" x="88" y="97" width="29" height="41">
<path d="M116.236 124.905C115.583 133.712 108.541 138.298 101.327 137.763C94.1115 137.228 88.2919 131.234 88.9451 122.426C89.8808 109.809 97.0926 97.0317 104.308 97.5667C111.522 98.1021 117.155 112.511 116.236 124.905Z" fill="white"/>
</mask>
<g mask="url(#mask10_2011_77173)">
<path d="M115.796 114.408C115.642 111.85 115.114 110.23 114.672 109.291C114.29 110.83 113.406 112.322 113.357 112.404L112.904 113.162L112.507 112.373C112.097 111.557 110.834 109.488 110.19 108.444L107.279 112.561L103.83 107.825L99.6772 111.796L99.3468 111.538C98.7845 111.099 97.5958 108.69 96.972 107.37C96.3291 108.038 95.1648 109.469 94.1633 110.788L93.8007 111.266L93.4096 110.811C92.8331 110.141 92.5446 108.582 92.4077 107.473C91.1691 109.268 90.1929 112.069 90.1816 112.102L89.2647 111.785C89.3233 111.615 90.7228 107.599 92.441 105.91L93.2033 105.16L93.2653 106.227C93.3204 107.181 93.5179 108.709 93.8466 109.608C94.7368 108.459 96.3084 106.495 96.9019 106.161L97.3601 105.902L97.5803 106.38C98.2982 107.937 99.2 109.705 99.6867 110.445L103.962 106.357L107.268 110.897L110.242 106.69L110.628 107.309C110.701 107.426 112.112 109.69 112.936 111.134C113.351 110.293 113.924 108.93 113.874 107.902L113.811 106.629L114.704 107.538C114.775 107.611 116.464 109.381 116.764 114.349L115.796 114.408Z" fill="#FF5D7C"/>
</g>
<mask id="mask11_2011_77173" style="mask-type:luminance" maskUnits="userSpaceOnUse" x="88" y="97" width="29" height="41">
<path d="M116.236 124.905C115.583 133.712 108.541 138.298 101.327 137.763C94.1115 137.228 88.2919 131.234 88.9451 122.426C89.8808 109.809 97.0926 97.0317 104.308 97.5667C111.522 98.1021 117.155 112.511 116.236 124.905Z" fill="white"/>
</mask>
<g mask="url(#mask11_2011_77173)">
<path d="M115.753 120.761C115.603 118.286 115.101 116.669 114.706 115.748C114.578 115.449 114.453 115.203 114.34 115.004C114.061 116.697 112.969 118.542 112.914 118.633L112.631 119.107L112.383 118.614C111.928 117.706 110.448 115.298 109.864 114.353L106.886 118.563L103.402 113.779L99.1335 117.86L98.9271 117.698C98.3458 117.244 96.9816 114.415 96.449 113.279C95.7592 113.933 94.276 115.788 93.3785 116.97L93.1517 117.269L92.9071 116.985C92.2607 116.233 91.984 114.284 91.8771 113.203C90.4601 115.013 89.307 118.325 89.2942 118.361L88.7212 118.164C88.7805 117.992 90.1912 113.943 91.9093 112.253L92.386 111.785L92.4246 112.452C92.4706 113.25 92.6864 115.292 93.1591 116.259C93.8891 115.312 95.79 112.89 96.413 112.539L96.6994 112.378L96.8369 112.676C97.485 114.081 98.5931 116.314 99.1271 117.027L103.484 112.861L106.879 117.524L109.896 113.257L110.138 113.643C110.217 113.77 111.868 116.42 112.658 117.841C113.081 117.033 113.856 115.368 113.795 114.136L113.756 113.341L114.314 113.909C114.385 113.981 116.057 115.734 116.359 120.724L115.753 120.761Z" fill="white"/>
</g>
<mask id="mask12_2011_77173" style="mask-type:luminance" maskUnits="userSpaceOnUse" x="88" y="97" width="29" height="41">
<path d="M116.236 124.905C115.583 133.712 108.541 138.298 101.327 137.763C94.1115 137.228 88.2919 131.234 88.9451 122.426C89.8808 109.809 97.0926 97.0317 104.308 97.5667C111.522 98.1021 117.155 112.511 116.236 124.905Z" fill="white"/>
</mask>
<g mask="url(#mask12_2011_77173)">
<path d="M113.889 105.723C113.77 103.756 113.371 102.472 113.057 101.74C112.955 101.503 112.856 101.307 112.766 101.149C112.545 102.495 111.677 103.96 111.633 104.032L111.408 104.409L111.211 104.017C110.849 103.296 109.674 101.382 109.21 100.632L106.845 103.977L104.076 100.176L100.686 103.418L100.522 103.29C100.06 102.929 98.9761 100.682 98.5528 99.7792C98.0048 100.298 96.8266 101.772 96.1135 102.712L95.9334 102.949L95.7393 102.723C95.2259 102.126 95.0061 100.578 94.9212 99.7189C93.7954 101.157 92.8793 103.787 92.8694 103.817L92.4141 103.659C92.4611 103.523 93.5819 100.306 94.9469 98.964L95.3255 98.5917L95.3562 99.122C95.3929 99.7562 95.5641 101.378 95.9396 102.147C96.5195 101.394 98.0298 99.4699 98.5246 99.1913L98.7519 99.0632L98.8612 99.3002C99.3762 100.417 100.257 102.19 100.68 102.757L104.142 99.4477L106.839 103.151L109.236 99.7614L109.428 100.069C109.49 100.17 110.803 102.275 111.43 103.404C111.766 102.762 112.382 101.439 112.333 100.46L112.302 99.8286L112.746 100.28C112.802 100.337 114.13 101.73 114.37 105.694L113.889 105.723Z" fill="white"/>
</g>
<mask id="mask13_2011_77173" style="mask-type:luminance" maskUnits="userSpaceOnUse" x="88" y="97" width="29" height="41">
<path d="M116.236 124.905C115.583 133.712 108.541 138.298 101.327 137.763C94.1115 137.228 88.2919 131.234 88.9451 122.426C89.8808 109.809 97.0926 97.0317 104.308 97.5667C111.522 98.1021 117.155 112.511 116.236 124.905Z" fill="white"/>
</mask>
<g mask="url(#mask13_2011_77173)">
<path d="M116.28 137.569C116.108 134.73 115.532 132.875 115.08 131.819C114.933 131.477 114.789 131.194 114.66 130.966C114.339 132.909 113.087 135.024 113.024 135.129L112.699 135.672L112.415 135.106C111.893 134.066 110.196 131.303 109.525 130.219L106.11 135.049L102.114 129.561L97.2179 134.242L96.981 134.057C96.3141 133.536 94.7495 130.291 94.1383 128.988C93.347 129.738 91.646 131.865 90.6164 133.222L90.3564 133.564L90.0759 133.238C89.3346 132.377 89.0171 130.141 88.8946 128.901C87.2701 130.976 85.9464 134.775 85.9319 134.817L85.2745 134.591C85.3426 134.394 86.9605 129.749 88.9315 127.811L89.4781 127.274L89.5224 128.039C89.5752 128.955 89.8227 131.296 90.3647 132.406C91.202 131.32 93.3823 128.542 94.0969 128.139L94.4254 127.954L94.5832 128.296C95.3265 129.908 96.5976 132.469 97.2099 133.287L102.207 128.509L106.102 133.856L109.562 128.962L109.839 129.406C109.93 129.552 111.824 132.591 112.73 134.221C113.215 133.294 114.104 131.384 114.034 129.971L113.989 129.059L114.629 129.71C114.711 129.793 116.627 131.804 116.974 137.527L116.28 137.569Z" fill="white"/>
</g>
<mask id="mask14_2011_77173" style="mask-type:luminance" maskUnits="userSpaceOnUse" x="88" y="97" width="29" height="41">
<path d="M116.236 124.905C115.583 133.712 108.541 138.298 101.327 137.763C94.1115 137.228 88.2919 131.234 88.9451 122.426C89.8808 109.809 97.0926 97.0317 104.308 97.5667C111.522 98.1021 117.155 112.511 116.236 124.905Z" fill="white"/>
</mask>
<g mask="url(#mask14_2011_77173)">
<path d="M116.028 130.942C115.867 128.284 115.331 126.547 114.91 125.558C114.842 125.399 114.775 125.253 114.71 125.121C114.308 126.865 113.28 128.602 113.224 128.695L112.771 129.453L112.374 128.664C111.91 127.739 110.46 125.368 109.761 124.235L106.529 128.806L102.712 123.564L98.095 127.978L97.7645 127.72C97.1394 127.232 95.7944 124.493 95.1138 123.05C94.4062 123.772 93.0783 125.401 91.941 126.899L91.5785 127.377L91.1871 126.922C90.5319 126.16 90.2153 124.339 90.0717 123.111C88.6544 125.103 87.5298 128.333 87.5169 128.371L86.6 128.054C86.6649 127.866 88.2128 123.423 90.1096 121.558L90.872 120.809L90.9336 121.876C90.9969 122.967 91.2286 124.736 91.6162 125.729C92.5361 124.54 94.3823 122.219 95.0457 121.845L95.5039 121.587L95.7241 122.064C96.5388 123.831 97.5641 125.837 98.0997 126.632L102.843 122.097L106.517 127.142L109.812 122.482L110.198 123.101C110.28 123.232 111.901 125.833 112.806 127.427C113.271 126.499 113.954 124.916 113.895 123.727L113.833 122.455L114.726 123.363C114.804 123.443 116.663 125.393 116.996 130.883L116.028 130.942Z" fill="#00DDDE"/>
</g>
<mask id="mask15_2011_77173" style="mask-type:luminance" maskUnits="userSpaceOnUse" x="90" y="98" width="29" height="41">
<path d="M118.338 123.257C119.067 132.058 112.826 137.688 105.616 138.285C98.4057 138.882 91.7219 133.868 90.9932 125.066C89.9492 112.457 95.0798 98.7103 102.29 98.1133C109.5 97.5166 117.312 110.871 118.338 123.257Z" fill="white"/>
</mask>
<g mask="url(#mask15_2011_77173)">
<path opacity="0.37" d="M107.382 118.037C109.751 117.841 111.401 114.409 111.066 110.372C110.732 106.334 108.541 103.22 106.172 103.417C103.803 103.613 102.153 107.045 102.488 111.082C102.822 115.119 105.013 118.233 107.382 118.037Z" fill="white"/>
</g>
<mask id="mask16_2011_77173" style="mask-type:luminance" maskUnits="userSpaceOnUse" x="88" y="97" width="29" height="41">
<path d="M116.236 124.905C115.583 133.712 108.541 138.298 101.327 137.763C94.1115 137.228 88.2919 131.234 88.9451 122.426C89.8808 109.809 97.0926 97.0317 104.308 97.5667C111.522 98.1021 117.155 112.511 116.236 124.905Z" fill="white"/>
</mask>
<g mask="url(#mask16_2011_77173)">
<path opacity="0.03" d="M124.622 124.255C125.329 131.261 117.695 136.491 109.914 136.177C109.188 136.492 108.427 136.689 107.636 136.754C101.112 137.294 95.0769 128.719 94.157 117.6C93.4215 108.712 96.1775 100.889 100.646 97.8333C102.902 93.253 104.958 90.1981 104.958 90.1981L96.013 94.4655L89.8165 104.142L87.4135 121.769L86.5548 133.348L94.0817 138.974L111.059 140.918L120.034 139.94L127.693 132.701L124.622 124.255Z" fill="#242E36"/>
</g>
<mask id="mask17_2011_77173" style="mask-type:luminance" maskUnits="userSpaceOnUse" x="88" y="97" width="29" height="41">
<path d="M116.236 124.905C115.583 133.712 108.541 138.298 101.327 137.763C94.1115 137.228 88.2919 131.234 88.9451 122.426C89.8808 109.809 97.0926 97.0317 104.308 97.5667C111.522 98.1021 117.155 112.511 116.236 124.905Z" fill="white"/>
</mask>
<g mask="url(#mask17_2011_77173)">
<path opacity="0.27" d="M117.559 115.385C116.639 104.267 110.604 95.6912 104.08 96.2312C102.771 96.3393 101.543 96.8069 100.422 97.5737C95.9536 100.63 93.1974 108.452 93.9328 117.341C94.8531 128.459 100.888 137.035 107.412 136.495C108.202 136.43 108.964 136.232 109.69 135.918C114.957 133.638 118.367 125.156 117.559 115.385Z" fill="white"/>
</g>
<mask id="mask18_2011_77173" style="mask-type:luminance" maskUnits="userSpaceOnUse" x="119" y="99" width="31" height="45">
<path d="M149.57 129.552C148.849 139.279 141.071 144.345 133.103 143.754C125.134 143.163 118.706 136.542 119.428 126.815C120.461 112.879 128.426 98.7664 136.395 99.3574C144.364 99.9487 150.585 115.863 149.57 129.552Z" fill="white"/>
</mask>
<g mask="url(#mask18_2011_77173)">
<path d="M155.725 95.4514L116.464 92.5397L112.394 147.424L151.654 150.336L155.725 95.4514Z" fill="#FFB41B"/>
</g>
<mask id="mask19_2011_77173" style="mask-type:luminance" maskUnits="userSpaceOnUse" x="119" y="99" width="31" height="45">
<path d="M149.57 129.552C148.849 139.279 141.071 144.345 133.103 143.754C125.134 143.163 118.706 136.542 119.428 126.815C120.461 112.879 128.426 98.7664 136.395 99.3574C144.364 99.9487 150.585 115.863 149.57 129.552Z" fill="white"/>
</mask>
<g mask="url(#mask19_2011_77173)">
<path d="M149.085 117.958C148.914 115.133 148.331 113.344 147.843 112.307C147.42 114.006 146.444 115.654 146.39 115.745L145.89 116.582L145.452 115.71C144.999 114.809 143.603 112.524 142.892 111.371L139.678 115.918L135.868 110.688L131.281 115.073L130.916 114.788C130.295 114.303 128.982 111.643 128.293 110.185C127.583 110.923 126.297 112.504 125.191 113.961L124.791 114.488L124.359 113.986C123.722 113.246 123.403 111.523 123.252 110.299C121.884 112.281 120.806 115.375 120.793 115.411L119.781 115.062C119.845 114.874 121.391 110.438 123.289 108.572L124.131 107.744L124.199 108.923C124.26 109.976 124.478 111.664 124.841 112.657C125.825 111.388 127.56 109.219 128.216 108.849L128.722 108.564L128.965 109.092C129.758 110.812 130.754 112.764 131.292 113.581L136.014 109.067L139.665 114.08L142.95 109.434L143.377 110.118C143.457 110.247 145.016 112.747 145.925 114.343C146.384 113.414 147.017 111.908 146.961 110.772L146.892 109.367L147.878 110.37C147.957 110.451 149.822 112.406 150.154 117.893L149.085 117.958Z" fill="#FF5D7C"/>
</g>
<mask id="mask20_2011_77173" style="mask-type:luminance" maskUnits="userSpaceOnUse" x="119" y="99" width="31" height="45">
<path d="M149.57 129.552C148.849 139.279 141.071 144.345 133.103 143.754C125.134 143.163 118.706 136.542 119.428 126.815C120.461 112.879 128.426 98.7664 136.395 99.3574C144.364 99.9487 150.585 115.863 149.57 129.552Z" fill="white"/>
</mask>
<g mask="url(#mask20_2011_77173)">
<path d="M149.037 124.975C148.871 122.242 148.316 120.455 147.88 119.438C147.739 119.108 147.601 118.836 147.476 118.616C147.168 120.487 145.962 122.524 145.901 122.625L145.589 123.148L145.315 122.604C144.812 121.601 143.178 118.941 142.532 117.897L139.244 122.548L135.395 117.264L130.681 121.771L130.453 121.593C129.811 121.091 128.304 117.966 127.716 116.712C126.954 117.434 125.316 119.483 124.324 120.789L124.074 121.118L123.804 120.804C123.09 119.975 122.784 117.822 122.666 116.628C121.101 118.627 119.827 122.284 119.813 122.325L119.18 122.106C119.246 121.917 120.804 117.445 122.702 115.578L123.228 115.061L123.271 115.798C123.322 116.68 123.56 118.934 124.082 120.003C124.888 118.957 126.988 116.282 127.676 115.894L127.992 115.716L128.144 116.045C128.86 117.597 130.084 120.064 130.674 120.851L135.486 116.25L139.236 121.4L142.568 116.687L142.835 117.114C142.922 117.254 144.746 120.18 145.619 121.751C146.085 120.858 146.942 119.019 146.875 117.658L146.831 116.78L147.448 117.407C147.526 117.486 149.372 119.423 149.706 124.934L149.037 124.975Z" fill="white"/>
</g>
<mask id="mask21_2011_77173" style="mask-type:luminance" maskUnits="userSpaceOnUse" x="119" y="99" width="31" height="45">
<path d="M149.57 129.552C148.849 139.279 141.071 144.345 133.103 143.754C125.134 143.163 118.706 136.542 119.428 126.815C120.461 112.879 128.426 98.7664 136.395 99.3574C144.364 99.9487 150.585 115.863 149.57 129.552Z" fill="white"/>
</mask>
<g mask="url(#mask21_2011_77173)">
<path d="M146.978 108.365C146.846 106.194 146.405 104.775 146.059 103.967C145.946 103.705 145.837 103.488 145.738 103.314C145.493 104.8 144.534 106.418 144.487 106.498L144.238 106.914L144.021 106.482C143.621 105.685 142.323 103.572 141.81 102.743L139.197 106.438L136.14 102.24L132.395 105.82L132.214 105.679C131.703 105.28 130.507 102.798 130.039 101.801C129.434 102.374 128.133 104.002 127.345 105.04L127.146 105.302L126.932 105.052C126.365 104.393 126.122 102.683 126.028 101.734C124.785 103.323 123.773 106.228 123.762 106.26L123.259 106.087C123.311 105.936 124.549 102.383 126.057 100.901L126.475 100.49L126.509 101.075C126.549 101.776 126.738 103.567 127.153 104.416C127.793 103.585 129.462 101.459 130.008 101.152L130.259 101.01L130.38 101.272C130.949 102.505 131.921 104.464 132.389 105.09L136.212 101.435L139.191 105.525L141.839 101.781L142.05 102.121C142.12 102.232 143.569 104.557 144.262 105.805C144.633 105.095 145.313 103.634 145.26 102.553L145.225 101.856L145.715 102.354C145.777 102.417 147.244 103.955 147.509 108.333L146.978 108.365Z" fill="white"/>
</g>
<mask id="mask22_2011_77173" style="mask-type:luminance" maskUnits="userSpaceOnUse" x="119" y="99" width="31" height="45">
<path d="M149.57 129.552C148.849 139.279 141.071 144.345 133.103 143.754C125.134 143.163 118.706 136.542 119.428 126.815C120.461 112.879 128.426 98.7664 136.395 99.3574C144.364 99.9487 150.585 115.863 149.57 129.552Z" fill="white"/>
</mask>
<g mask="url(#mask22_2011_77173)">
<path d="M149.619 143.54C149.429 140.404 148.793 138.356 148.293 137.189C148.131 136.811 147.972 136.499 147.829 136.246C147.475 138.392 146.092 140.729 146.023 140.844L145.664 141.445L145.35 140.82C144.773 139.67 142.899 136.619 142.158 135.422L138.386 140.756L133.972 134.695L128.565 139.865L128.303 139.66C127.567 139.086 125.838 135.501 125.163 134.062C124.289 134.89 122.411 137.24 121.274 138.738L120.986 139.116L120.676 138.756C119.858 137.805 119.507 135.336 119.372 133.966C117.578 136.258 116.116 140.454 116.1 140.5L115.373 140.25C115.449 140.033 117.236 134.903 119.413 132.762L120.016 132.169L120.065 133.014C120.123 134.025 120.397 136.611 120.996 137.838C121.92 136.637 124.328 133.569 125.118 133.124L125.48 132.92L125.655 133.298C126.476 135.078 127.88 137.907 128.556 138.81L134.076 133.533L138.377 139.439L142.199 134.034L142.505 134.524C142.605 134.685 144.697 138.041 145.698 139.842C146.233 138.818 147.216 136.709 147.138 135.148L147.089 134.14L147.796 134.859C147.886 134.951 150.003 137.172 150.385 143.493L149.619 143.54Z" fill="white"/>
</g>
<mask id="mask23_2011_77173" style="mask-type:luminance" maskUnits="userSpaceOnUse" x="119" y="99" width="31" height="45">
<path d="M149.57 129.552C148.849 139.279 141.071 144.345 133.103 143.754C125.134 143.163 118.706 136.542 119.428 126.815C120.461 112.879 128.426 98.7664 136.395 99.3574C144.364 99.9487 150.585 115.863 149.57 129.552Z" fill="white"/>
</mask>
<g mask="url(#mask23_2011_77173)">
<path d="M149.34 136.22C149.162 133.285 148.571 131.366 148.105 130.274C148.031 130.098 147.957 129.937 147.885 129.791C147.441 131.717 146.305 133.636 146.244 133.738L145.743 134.576L145.305 133.704C144.792 132.683 143.191 130.064 142.418 128.813L138.849 133.861L134.633 128.072L129.534 132.947L129.168 132.662C128.478 132.122 126.993 129.097 126.241 127.503C125.459 128.301 123.993 130.1 122.737 131.755L122.336 132.282L121.904 131.78C121.18 130.938 120.83 128.927 120.672 127.571C119.106 129.771 117.864 133.338 117.85 133.38L116.837 133.031C116.909 132.823 118.619 127.916 120.714 125.856L121.556 125.028L121.624 126.207C121.694 127.412 121.95 129.365 122.378 130.462C123.394 129.15 125.433 126.585 126.166 126.173L126.672 125.888L126.915 126.415C127.815 128.366 128.947 130.581 129.539 131.46L134.777 126.451L138.836 132.024L142.475 126.876L142.902 127.56C142.992 127.705 144.783 130.577 145.781 132.338C146.295 131.313 147.05 129.564 146.985 128.251L146.916 126.846L147.902 127.849C147.989 127.938 150.042 130.091 150.409 136.155L149.34 136.22Z" fill="#00DDDE"/>
</g>
<mask id="mask24_2011_77173" style="mask-type:luminance" maskUnits="userSpaceOnUse" x="121" y="99" width="31" height="46">
<path d="M151.892 127.732C152.697 137.453 145.804 143.671 137.841 144.33C129.877 144.989 122.495 139.452 121.69 129.73C120.537 115.804 126.203 100.62 134.167 99.9611C142.131 99.302 150.759 114.052 151.892 127.732Z" fill="white"/>
</mask>
<g mask="url(#mask24_2011_77173)">
<path opacity="0.37" d="M139.791 121.966C142.408 121.75 144.23 117.959 143.86 113.5C143.491 109.041 141.071 105.602 138.454 105.819C135.838 106.035 134.016 109.826 134.385 114.285C134.754 118.744 137.175 122.183 139.791 121.966Z" fill="white"/>
</g>
<mask id="mask25_2011_77173" style="mask-type:luminance" maskUnits="userSpaceOnUse" x="119" y="99" width="31" height="45">
<path d="M149.57 129.552C148.849 139.279 141.071 144.345 133.103 143.754C125.134 143.163 118.706 136.542 119.428 126.815C120.461 112.879 128.426 98.7664 136.395 99.3574C144.364 99.9487 150.585 115.863 149.57 129.552Z" fill="white"/>
</mask>
<g mask="url(#mask25_2011_77173)">
<path opacity="0.03" d="M158.832 128.834C159.614 136.572 151.181 142.349 142.588 142.002C141.786 142.35 140.945 142.568 140.071 142.64C132.865 143.236 126.2 133.765 125.184 121.484C124.372 111.667 127.416 103.027 132.351 99.6518C134.843 94.5929 137.114 91.2188 137.114 91.2188L127.234 95.9321L120.39 106.619L117.736 126.089L116.788 138.878L125.101 145.091L143.852 147.238L153.765 146.158L162.225 138.163L158.832 128.834Z" fill="#242E36"/>
</g>
<mask id="mask26_2011_77173" style="mask-type:luminance" maskUnits="userSpaceOnUse" x="119" y="99" width="31" height="45">
<path d="M149.57 129.552C148.849 139.279 141.071 144.345 133.103 143.754C125.134 143.163 118.706 136.542 119.428 126.815C120.461 112.879 128.426 98.7664 136.395 99.3574C144.364 99.9487 150.585 115.863 149.57 129.552Z" fill="white"/>
</mask>
<g mask="url(#mask26_2011_77173)">
<path opacity="0.27" d="M151.031 119.038C150.015 106.758 143.35 97.2859 136.144 97.8823C134.699 98.0017 133.342 98.5182 132.104 99.3651C127.168 102.741 124.124 111.38 124.937 121.198C125.953 133.478 132.618 142.95 139.824 142.353C140.697 142.281 141.538 142.063 142.34 141.716C148.157 139.198 151.924 129.83 151.031 119.038Z" fill="white"/>
</g>
<mask id="mask27_2011_77173" style="mask-type:luminance" maskUnits="userSpaceOnUse" x="109" y="105" width="27" height="38">
<path d="M135.536 130.633C134.926 138.867 128.342 143.156 121.596 142.655C114.85 142.155 109.409 136.55 110.02 128.316C110.895 116.519 117.638 104.572 124.384 105.072C131.129 105.573 136.396 119.045 135.536 130.633Z" fill="white"/>
</mask>
<g mask="url(#mask27_2011_77173)">
<path d="M140.746 101.766L107.511 99.3009L104.066 145.762L137.301 148.227L140.746 101.766Z" fill="#FFB41B"/>
</g>
<mask id="mask28_2011_77173" style="mask-type:luminance" maskUnits="userSpaceOnUse" x="109" y="105" width="27" height="38">
<path d="M135.536 130.633C134.926 138.867 128.342 143.156 121.596 142.655C114.85 142.155 109.409 136.55 110.02 128.316C110.895 116.519 117.638 104.572 124.384 105.072C131.129 105.573 136.396 119.045 135.536 130.633Z" fill="white"/>
</mask>
<g mask="url(#mask28_2011_77173)">
<path d="M135.125 120.818C134.981 118.427 134.487 116.912 134.074 116.035C133.716 117.473 132.89 118.868 132.844 118.944L132.421 119.654L132.05 118.915C131.667 118.153 130.485 116.218 129.883 115.242L127.162 119.091L123.937 114.664L120.054 118.376L119.745 118.135C119.219 117.724 118.108 115.472 117.525 114.238C116.924 114.863 115.835 116.201 114.899 117.434L114.56 117.881L114.194 117.456C113.655 116.829 113.385 115.371 113.257 114.335C112.099 116.012 111.186 118.631 111.176 118.662L110.319 118.366C110.374 118.207 111.682 114.452 113.288 112.873L114.001 112.172L114.059 113.17C114.111 114.061 114.295 115.49 114.603 116.331C115.435 115.256 116.904 113.42 117.459 113.107L117.888 112.866L118.094 113.312C118.765 114.768 119.608 116.421 120.063 117.113L124.061 113.291L127.152 117.536L129.932 113.603L130.293 114.181C130.361 114.29 131.681 116.407 132.451 117.758C132.839 116.971 133.375 115.697 133.328 114.735L133.269 113.546L134.104 114.395C134.171 114.463 135.749 116.118 136.03 120.763L135.125 120.818Z" fill="#FF5D7C"/>
</g>
<mask id="mask29_2011_77173" style="mask-type:luminance" maskUnits="userSpaceOnUse" x="109" y="105" width="27" height="38">
<path d="M135.536 130.633C134.926 138.867 128.342 143.156 121.596 142.655C114.85 142.155 109.409 136.55 110.02 128.316C110.895 116.519 117.638 104.572 124.384 105.072C131.129 105.573 136.396 119.045 135.536 130.633Z" fill="white"/>
</mask>
<g mask="url(#mask29_2011_77173)">
<path d="M135.085 126.758C134.945 124.444 134.475 122.932 134.106 122.071C133.986 121.792 133.869 121.561 133.764 121.376C133.503 122.959 132.482 124.684 132.431 124.769L132.166 125.212L131.934 124.751C131.508 123.902 130.125 121.65 129.578 120.767L126.795 124.704L123.537 120.23L119.546 124.046L119.353 123.895C118.809 123.47 117.534 120.825 117.036 119.763C116.391 120.374 115.004 122.109 114.165 123.214L113.953 123.494L113.724 123.228C113.12 122.525 112.861 120.703 112.761 119.692C111.436 121.384 110.358 124.48 110.346 124.515L109.811 124.33C109.866 124.169 111.185 120.384 112.791 118.804L113.237 118.366L113.273 118.989C113.316 119.736 113.518 121.645 113.96 122.55C114.642 121.664 116.42 119.399 117.002 119.071L117.27 118.92L117.399 119.199C118.004 120.513 119.041 122.601 119.54 123.267L123.613 119.372L126.788 123.731L129.609 119.742L129.834 120.104C129.908 120.222 131.453 122.699 132.191 124.029C132.586 123.273 133.311 121.716 133.254 120.564L133.218 119.821L133.74 120.351C133.806 120.419 135.369 122.058 135.651 126.723L135.085 126.758Z" fill="white"/>
</g>
<mask id="mask30_2011_77173" style="mask-type:luminance" maskUnits="userSpaceOnUse" x="109" y="105" width="27" height="38">
<path d="M135.536 130.633C134.926 138.867 128.342 143.156 121.596 142.655C114.85 142.155 109.409 136.55 110.02 128.316C110.895 116.519 117.638 104.572 124.384 105.072C131.129 105.573 136.396 119.045 135.536 130.633Z" fill="white"/>
</mask>
<g mask="url(#mask30_2011_77173)">
<path d="M133.342 112.698C133.23 110.86 132.857 109.658 132.564 108.974C132.469 108.752 132.376 108.569 132.292 108.421C132.085 109.68 131.273 111.05 131.233 111.117L131.022 111.469L130.838 111.103C130.5 110.429 129.401 108.64 128.967 107.938L126.756 111.066L124.167 107.512L120.997 110.543L120.844 110.423C120.412 110.086 119.399 107.985 119.003 107.141C118.49 107.626 117.389 109.004 116.722 109.883L116.554 110.104L116.372 109.893C115.892 109.335 115.687 107.887 115.607 107.084C114.555 108.429 113.698 110.888 113.689 110.916L113.263 110.769C113.307 110.641 114.355 107.634 115.631 106.379L115.985 106.031L116.014 106.526C116.048 107.119 116.208 108.636 116.56 109.354C117.102 108.651 118.514 106.852 118.976 106.591L119.189 106.471L119.291 106.693C119.773 107.737 120.596 109.395 120.992 109.925L124.228 106.831L126.75 110.294L128.991 107.124L129.171 107.412C129.229 107.506 130.456 109.474 131.043 110.53C131.357 109.929 131.933 108.693 131.887 107.777L131.858 107.187L132.273 107.609C132.326 107.662 133.567 108.965 133.791 112.671L133.342 112.698Z" fill="white"/>
</g>
<mask id="mask31_2011_77173" style="mask-type:luminance" maskUnits="userSpaceOnUse" x="109" y="105" width="27" height="38">
<path d="M135.536 130.633C134.926 138.867 128.342 143.156 121.596 142.655C114.85 142.155 109.409 136.55 110.02 128.316C110.895 116.519 117.638 104.572 124.384 105.072C131.129 105.573 136.396 119.045 135.536 130.633Z" fill="white"/>
</mask>
<g mask="url(#mask31_2011_77173)">
<path d="M135.578 142.474C135.417 139.82 134.879 138.085 134.455 137.098C134.318 136.777 134.183 136.513 134.062 136.3C133.763 138.116 132.592 140.094 132.533 140.192L132.23 140.7L131.964 140.171C131.475 139.198 129.889 136.615 129.262 135.602L126.069 140.118L122.332 134.986L117.755 139.363L117.533 139.19C116.91 138.703 115.447 135.669 114.875 134.451C114.136 135.152 112.545 137.141 111.582 138.409L111.339 138.729L111.077 138.424C110.384 137.619 110.087 135.529 109.973 134.369C108.454 136.31 107.216 139.862 107.203 139.901L106.588 139.689C106.652 139.505 108.164 135.162 110.007 133.35L110.518 132.848L110.56 133.563C110.609 134.42 110.84 136.609 111.347 137.647C112.13 136.631 114.168 134.033 114.837 133.657L115.144 133.484L115.291 133.804C115.986 135.311 117.175 137.705 117.747 138.47L122.42 134.003L126.061 139.002L129.296 134.427L129.555 134.842C129.64 134.978 131.411 137.819 132.258 139.343C132.712 138.477 133.543 136.691 133.478 135.369L133.436 134.517L134.034 135.126C134.11 135.203 135.902 137.084 136.226 142.434L135.578 142.474Z" fill="white"/>
</g>
<mask id="mask32_2011_77173" style="mask-type:luminance" maskUnits="userSpaceOnUse" x="109" y="105" width="27" height="38">
<path d="M135.536 130.633C134.926 138.867 128.342 143.156 121.596 142.655C114.85 142.155 109.409 136.55 110.02 128.316C110.895 116.519 117.638 104.572 124.384 105.072C131.129 105.573 136.396 119.045 135.536 130.633Z" fill="white"/>
</mask>
<g mask="url(#mask32_2011_77173)">
<path d="M135.342 136.277C135.191 133.793 134.69 132.168 134.296 131.244C134.233 131.095 134.17 130.959 134.109 130.835C133.734 132.466 132.772 134.09 132.72 134.177L132.297 134.886L131.926 134.148C131.492 133.283 130.136 131.066 129.482 130.007L126.46 134.28L122.891 129.38L118.575 133.507L118.266 133.265C117.681 132.809 116.424 130.248 115.787 128.898C115.126 129.574 113.884 131.097 112.821 132.497L112.482 132.944L112.116 132.519C111.504 131.806 111.207 130.104 111.073 128.956C109.748 130.818 108.697 133.838 108.685 133.873L107.827 133.578C107.888 133.402 109.335 129.248 111.109 127.504L111.821 126.803L111.879 127.801C111.938 128.821 112.155 130.475 112.517 131.403C113.377 130.292 115.104 128.121 115.724 127.772L116.152 127.531L116.358 127.977C117.12 129.629 118.078 131.504 118.579 132.248L123.014 128.008L126.449 132.725L129.53 128.368L129.891 128.947C129.968 129.069 131.484 131.501 132.329 132.991C132.764 132.123 133.403 130.643 133.348 129.531L133.289 128.342L134.124 129.191C134.198 129.266 135.936 131.089 136.247 136.223L135.342 136.277Z" fill="#00DDDE"/>
</g>
<mask id="mask33_2011_77173" style="mask-type:luminance" maskUnits="userSpaceOnUse" x="111" y="105" width="27" height="39">
<path d="M137.502 129.092C138.183 137.321 132.349 142.584 125.607 143.143C118.865 143.701 112.616 139.013 111.935 130.784C110.959 118.994 115.756 106.141 122.497 105.583C129.239 105.025 136.543 117.511 137.502 129.092Z" fill="white"/>
</mask>
<g mask="url(#mask33_2011_77173)">
<path opacity="0.37" d="M127.258 124.211C129.473 124.028 131.015 120.819 130.703 117.045C130.39 113.27 128.341 110.358 126.127 110.542C123.912 110.725 122.369 113.934 122.682 117.709C122.994 121.483 125.043 124.395 127.258 124.211Z" fill="white"/>
</g>
<mask id="mask34_2011_77173" style="mask-type:luminance" maskUnits="userSpaceOnUse" x="109" y="105" width="27" height="38">
<path d="M135.536 130.633C134.926 138.867 128.342 143.156 121.596 142.655C114.85 142.155 109.409 136.55 110.02 128.316C110.895 116.519 117.638 104.572 124.384 105.072C131.129 105.573 136.396 119.045 135.536 130.633Z" fill="white"/>
</mask>
<g mask="url(#mask34_2011_77173)">
<path opacity="0.03" d="M143.377 130.025C144.038 136.576 136.9 141.465 129.626 141.172C128.947 141.466 128.235 141.651 127.495 141.712C121.395 142.217 115.753 134.199 114.893 123.803C114.205 115.492 116.782 108.179 120.96 105.321C123.069 101.039 124.992 98.1827 124.992 98.1827L116.628 102.173L110.835 111.22L108.588 127.701L107.785 138.527L114.823 143.787L130.696 145.605L139.088 144.69L146.249 137.922L143.377 130.025Z" fill="#242E36"/>
</g>
<mask id="mask35_2011_77173" style="mask-type:luminance" maskUnits="userSpaceOnUse" x="109" y="105" width="27" height="38">
<path d="M135.536 130.633C134.926 138.867 128.342 143.156 121.596 142.655C114.85 142.155 109.409 136.55 110.02 128.316C110.895 116.519 117.638 104.572 124.384 105.072C131.129 105.573 136.396 119.045 135.536 130.633Z" fill="white"/>
</mask>
<g mask="url(#mask35_2011_77173)">
<path opacity="0.27" d="M136.773 121.732C135.913 111.337 130.27 103.319 124.17 103.823C122.947 103.925 121.799 104.362 120.75 105.079C116.573 107.936 113.996 115.25 114.683 123.56C115.544 133.956 121.186 141.974 127.286 141.469C128.025 141.408 128.737 141.223 129.416 140.93C134.34 138.798 137.529 130.868 136.773 121.732Z" fill="white"/>
</g>
<path d="M63.6998 126.104C61.9598 135.537 62.784 145.153 65.7145 154.31C73.865 180.044 102.529 183.157 113.335 182.883C131.925 182.425 147.127 173.45 153.63 162.369C162.329 147.35 161.322 126.562 159.124 126.013C158.025 125.738 156.926 126.104 155.919 126.379C149.051 128.302 133.024 133.247 112.053 132.698C81.0081 131.965 66.6303 125.463 65.3482 125.646C64.0661 125.921 63.0588 127.295 63.6998 126.104Z" fill="#CE965D"/>
<path d="M151.981 149.64C149.692 151.197 147.402 152.845 145.113 154.494C144.38 154.31 143.648 154.127 143.007 153.944C141.358 153.486 139.618 153.028 137.97 152.479C135.406 151.655 132.933 150.739 130.46 149.731C130.827 149.457 131.193 149.182 131.559 148.999C133.299 147.808 135.039 146.618 136.779 145.427C138.519 144.237 140.442 143.046 142.091 141.581C142.549 141.123 141.999 140.299 141.45 140.574C137.97 141.764 134.764 144.237 131.834 146.343C130.643 147.167 129.545 147.991 128.446 148.816C128.354 148.816 128.262 148.724 128.171 148.724C122.127 145.977 116.266 142.405 109.672 140.94C108.665 140.665 108.298 142.314 109.306 142.497C115.442 144.054 120.661 147.625 126.339 150.373C125.149 151.288 123.867 152.204 122.676 153.028C120.02 154.951 117.273 156.875 114.526 158.798C114.343 158.706 114.068 158.615 113.885 158.431C109.581 156.142 105.368 153.669 101.339 151.014C101.796 150.739 102.346 150.373 102.804 150.098C105.368 148.449 108.024 146.801 110.496 144.878C110.954 144.512 110.679 143.504 110.038 143.779C107.291 144.878 104.91 146.526 102.529 148.266C101.705 148.816 100.789 149.457 99.9648 150.006C98.5912 148.999 97.1259 147.991 95.8438 146.984C93.4628 145.153 91.1733 143.321 88.8839 141.306C89.067 141.123 89.2502 140.848 89.3418 140.574C89.4334 140.299 89.067 140.024 88.8839 140.116C88.6092 140.207 88.3344 140.391 88.0597 140.574C87.5102 140.024 86.8692 139.566 86.3197 139.017C85.7702 138.467 84.946 139.383 85.4955 139.933C86.045 140.39 86.5029 140.94 87.0523 141.398C86.5944 141.764 86.045 142.13 85.5871 142.405C84.305 143.229 83.0229 144.054 81.6492 144.786C80.0008 145.702 78.3524 146.435 76.6124 147.259C75.2388 145.427 73.8651 143.596 72.4914 141.764C72.0335 141.123 70.9346 141.764 71.3925 142.405C72.6746 144.237 73.9567 146.068 75.2388 147.808C74.6893 148.083 74.1398 148.266 73.5903 148.541C72.8577 148.907 73.224 150.098 73.9567 149.823C74.5977 149.548 75.3303 149.274 75.9714 148.999C78.5356 152.662 81.0997 156.234 84.0302 159.622C82.2903 160.446 80.4587 161.087 78.6271 161.728C77.8945 162.003 78.2608 163.102 78.9934 162.919C81.0082 162.278 83.0229 161.545 84.946 160.721C85.4039 161.179 85.7702 161.637 86.2281 162.186C89.1586 165.3 92.547 167.864 96.1185 170.245C95.2943 170.611 94.5617 170.886 93.7375 171.161C93.0965 171.344 93.3712 172.443 94.1038 172.26C95.2028 171.893 96.3017 171.527 97.4007 171.069C99.7817 172.534 102.254 173.908 104.818 175.19C106.742 176.198 108.665 177.113 110.496 178.029C112.419 178.945 114.343 179.952 116.357 180.685C116.815 180.868 117.273 180.135 116.815 179.769C113.976 177.571 110.496 175.923 107.2 174.274C104.635 172.901 102.071 171.527 99.5985 169.97C104.361 167.772 108.756 164.75 113.152 161.82C113.518 161.545 113.885 161.27 114.343 160.996C116.724 162.278 119.196 163.468 121.669 164.567C123.867 165.574 126.065 166.49 128.262 167.314C124.599 169.879 120.845 172.351 117.09 174.732C116.357 175.19 117.09 176.381 117.823 175.923C122.035 173.359 126.248 170.703 130.369 167.956C131.376 168.23 132.383 168.505 133.299 168.688C134.032 168.871 134.581 167.772 133.849 167.314C133.299 167.04 132.841 166.857 132.292 166.582C133.574 165.758 134.856 164.842 136.047 164.018C139.343 161.728 142.457 159.439 145.571 156.966C146.395 157.058 147.219 157.149 148.043 157.058C148.776 156.966 149.142 156.05 148.41 155.592C148.226 155.501 147.952 155.318 147.769 155.226C149.6 153.761 151.34 152.204 152.989 150.556C153.263 150.098 152.531 149.182 151.981 149.64ZM85.6787 158.798C83.8471 156.875 82.1987 154.86 80.5503 152.754C79.4513 151.288 78.3524 149.915 77.2535 148.449C78.9019 147.717 80.5503 146.893 82.1987 146.068C83.5724 145.336 84.946 144.512 86.2281 143.687C86.7776 143.321 87.3271 142.863 87.785 142.405C91.1733 145.519 94.6533 148.449 98.3164 151.105C97.1259 151.929 95.9354 152.754 94.6533 153.578C91.8144 155.409 88.7923 157.241 85.6787 158.798ZM104.635 165.574C102.529 166.857 100.423 168.047 98.2248 169.146C97.9501 168.963 97.6754 168.78 97.4007 168.597C94.287 166.582 91.2649 164.292 88.5176 161.637C87.8765 160.996 87.2355 160.355 86.5944 159.713C89.5249 158.248 92.2723 156.691 95.0196 154.951C96.5764 153.944 98.1333 153.028 99.6901 152.021C103.811 154.951 108.115 157.699 112.603 160.08C110.038 162.003 107.383 163.834 104.635 165.574ZM134.673 162.461C133.208 163.56 131.651 164.659 130.094 165.758C127.896 164.842 125.79 164.018 123.592 163.102C121.028 162.003 118.464 160.812 115.991 159.53C120.02 156.783 124.141 153.944 128.171 151.197C131.193 152.57 134.215 153.761 137.329 154.768C138.977 155.318 140.625 155.776 142.365 156.234C142.457 156.234 142.457 156.234 142.549 156.325C139.893 158.34 137.329 160.446 134.673 162.461Z" fill="#916332"/>
<path d="M161.139 143.504C161.139 145.702 159.216 147.442 157.018 147.167C143.281 145.61 127.988 144.512 111.137 144.603C94.2869 144.603 78.8102 145.702 65.0735 147.35C63.4251 147.534 61.9598 146.252 61.9598 144.603V137.094H161.047V143.504H161.139Z" fill="#DFA950"/>
<path d="M61.5021 125.372L160.406 125.005C164.07 125.005 167 128.027 167 131.782C167 135.537 164.07 138.559 160.498 138.559L61.5936 138.925C57.9305 138.925 55 135.903 55 132.148C55 128.485 57.8389 125.463 61.5021 125.372Z" fill="#B77437"/>
<path d="M111.137 140.965C111.137 140.965 118.189 131.166 125.241 131.624C132.292 132.082 133.391 142.064 130.369 146.642C128.079 150.122 120.936 149.939 112.145 144.078C112.145 144.078 108.573 143.62 111.137 140.965Z" fill="#FFCC79"/>
<g opacity="0.18">
<path d="M121.944 134.737C123.684 134.371 125.515 134.829 126.889 135.928C128.262 136.935 129.087 138.492 129.361 140.14C129.453 140.507 129.911 140.782 130.277 140.69C130.735 140.598 130.827 140.14 130.827 139.774C130.46 137.759 129.361 135.928 127.621 134.646C125.881 133.364 123.592 132.906 121.486 133.364C121.119 133.455 120.845 133.913 120.936 134.28C121.119 134.554 121.577 134.737 121.944 134.737Z" fill="white"/>
</g>
<path d="M110.771 141.423C110.771 141.423 103.72 131.624 96.6681 132.082C89.6166 132.54 88.5177 142.522 91.5397 147.1C93.8292 150.58 100.972 150.397 109.764 144.536C109.764 144.536 113.335 144.078 110.771 141.423Z" fill="#FFCC79"/>
<g opacity="0.18">
<path d="M100.423 133.73C98.3165 133.364 96.0271 133.73 94.2871 135.012C92.6387 136.203 91.4482 138.034 91.0819 140.141C90.9903 140.507 91.1734 140.965 91.6313 141.056C91.9976 141.148 92.4555 140.965 92.5471 140.507C92.8218 138.858 93.646 137.302 95.0197 136.294C96.3934 135.287 98.3165 134.829 99.9649 135.104C100.331 135.195 100.789 135.012 100.881 134.554C100.972 134.28 100.789 133.822 100.423 133.73Z" fill="white"/>
</g>
<path d="M112.145 141.697L120.478 137.851" stroke="#CE6B19" stroke-miterlimit="10" stroke-linecap="round"/>
<path d="M112.236 143.071L120.57 142.705" stroke="#CE6B19" stroke-miterlimit="10" stroke-linecap="round"/>
<path d="M110.313 141.789C110.313 141.789 101.979 139.683 101.521 139.408" stroke="#CE6B19" stroke-miterlimit="10" stroke-linecap="round"/>
<path d="M110.038 143.346C110.038 143.346 103.262 143.62 101.979 143.712" stroke="#CE6B19" stroke-miterlimit="10" stroke-linecap="round"/>
<path d="M114.068 142.522C114.159 144.17 112.877 145.544 111.229 145.544C109.581 145.635 108.207 144.353 108.207 142.705C108.115 141.056 109.397 139.683 111.046 139.683C112.694 139.591 114.068 140.873 114.068 142.522Z" fill="#E9A427"/>
<g filter="url(#filter0_f_2011_77173)">
<ellipse cx="109.5" cy="124" rx="55.5" ry="70" fill="#FBDD36" fill-opacity="0.3"/>
</g>
<defs>
<filter id="filter0_f_2011_77173" x="0" y="0" width="219" height="248" filterUnits="userSpaceOnUse" color-interpolation-filters="sRGB">
<feFlood flood-opacity="0" result="BackgroundImageFix"/>
<feBlend mode="normal" in="SourceGraphic" in2="BackgroundImageFix" result="shape"/>
<feGaussianBlur stdDeviation="27" result="effect1_foregroundBlur_2011_77173"/>
</filter>
</defs>
</svg>
