<svg width="219" height="204" viewBox="0 0 219 204" fill="none" xmlns="http://www.w3.org/2000/svg">
<path d="M154.172 104.049C152.523 98.1878 150.692 92.2352 148.219 86.7405C145.747 81.3374 142.541 76.3922 138.146 72.4543C134.116 68.8828 129.079 66.5017 123.951 65.2196C113.786 62.6555 102.522 64.2123 93.2724 69.1575C84.2061 73.9196 77.3378 81.8869 73.5831 91.5026C69.0042 103.316 66.1653 116.045 67.081 128.775C67.1726 130.332 67.3558 131.98 67.6305 133.537C67.9968 136.01 71.7515 135.552 71.4768 132.987C70.1947 121.174 72.301 109.086 76.0557 97.913C77.7041 93.0594 79.6272 88.3889 82.6493 84.2679C85.3051 80.5132 88.5103 77.5827 92.3566 75.0185C100.141 69.8901 110.123 67.6923 119.372 69.0659C124.134 69.7986 128.805 71.3554 132.743 74.1027C137.047 77.0332 140.252 81.3374 142.633 85.9163C145.197 90.8615 146.937 96.173 148.586 101.485C149.501 104.507 150.417 107.529 151.058 110.642C151.791 113.848 152.066 117.053 152.249 120.35C152.34 121.906 152.432 123.555 152.707 125.112C152.89 126.211 153.897 127.126 155.088 126.943C156.37 126.76 156.919 125.753 156.919 124.562C156.919 121.174 156.828 117.785 156.37 114.489C156.003 110.734 155.179 107.437 154.172 104.049Z" fill="#B77437"/>
<mask id="mask0_2011_77218" style="mask-type:luminance" maskUnits="userSpaceOnUse" x="65" y="103" width="27" height="35">
<path d="M90.8252 121.183C93.7144 128.344 89.9623 134.661 84.0963 137.028C78.23 139.395 71.3496 136.94 68.4604 129.779C64.3213 119.521 65.0434 106.712 70.9097 104.346C76.7758 101.979 86.7594 111.106 90.8252 121.183Z" fill="white"/>
</mask>
<g mask="url(#mask0_2011_77218)">
<path d="M83.2716 94.8122L54.3702 106.473L70.6718 146.876L99.5732 135.215L83.2716 94.8122Z" fill="#FFB41B"/>
</g>
<mask id="mask1_2011_77218" style="mask-type:luminance" maskUnits="userSpaceOnUse" x="65" y="103" width="27" height="35">
<path d="M90.8252 121.183C93.7144 128.344 89.9623 134.661 84.0963 137.028C78.23 139.395 71.3496 136.94 68.4604 129.779C64.3213 119.521 65.0434 106.712 70.9097 104.346C76.7758 101.979 86.7594 111.106 90.8252 121.183Z" fill="white"/>
</mask>
<g mask="url(#mask1_2011_77218)">
<path d="M86.4262 113.119C85.317 111.172 84.2772 110.105 83.5682 109.54C83.8623 110.894 83.7453 112.406 83.7384 112.489L83.6759 113.259L83.0599 112.793C82.4234 112.311 80.6329 111.176 79.7251 110.606L79.0318 114.959L74.4973 112.577L72.7731 117.295L72.4142 117.221C71.8035 117.093 69.9408 115.663 68.9417 114.869C68.6954 115.641 68.3349 117.213 68.0587 118.635L67.9589 119.15L67.4764 118.944C66.7655 118.641 65.9368 117.529 65.4012 116.712C65.1227 118.598 65.4388 121.173 65.4428 121.203L64.6013 121.309C64.5816 121.153 64.1281 117.462 64.8235 115.473L65.1319 114.591L65.5928 115.404C66.0043 116.131 66.7495 117.253 67.3545 117.831C67.609 116.586 68.0832 114.439 68.4197 113.947L68.6794 113.568L69.0365 113.857C70.2011 114.801 71.5913 115.84 72.2589 116.232L74.0339 111.375L78.3804 113.659L79.0887 109.21L79.6308 109.547C79.7323 109.61 81.714 110.841 82.918 111.656C82.919 110.836 82.8422 109.545 82.405 108.758L81.8644 107.784L82.9156 108.152C83 108.181 85.008 108.918 87.1628 112.699L86.4262 113.119Z" fill="#FF5D7C"/>
</g>
<mask id="mask2_2011_77218" style="mask-type:luminance" maskUnits="userSpaceOnUse" x="65" y="103" width="27" height="35">
<path d="M90.8252 121.183C93.7144 128.344 89.9623 134.661 84.0963 137.028C78.23 139.395 71.3496 136.94 68.4604 129.779C64.3213 119.521 65.0434 106.712 70.9097 104.346C76.7758 101.979 86.7594 111.106 90.8252 121.183Z" fill="white"/>
</mask>
<g mask="url(#mask2_2011_77218)">
<path d="M88.8459 118.119C87.7725 116.236 86.7539 115.161 86.0884 114.591C85.8727 114.406 85.6791 114.261 85.514 114.149C85.9494 115.585 85.8048 117.454 85.7973 117.546L85.7581 118.027L85.3733 117.736C84.6653 117.2 82.5746 115.882 81.7512 115.367L81.042 119.82L76.4607 117.413L74.6887 122.262L74.4645 122.215C73.8331 122.084 71.6703 120.391 70.8138 119.706C70.5251 120.485 70.0782 122.513 69.8308 123.787L69.7682 124.109L69.4666 123.981C68.6693 123.641 67.6995 122.219 67.1982 121.412C66.7856 123.379 67.1601 126.422 67.1642 126.456L66.6384 126.522C66.6186 126.365 66.1613 122.643 66.8564 120.654L67.0493 120.103L67.3374 120.611C67.6817 121.22 68.6395 122.738 69.3841 123.314C69.5908 122.289 70.1465 119.655 70.4996 119.139L70.6619 118.902L70.8851 119.083C71.9361 119.935 73.6678 121.259 74.362 121.612L76.1708 116.661L80.6348 119.007L81.3533 114.494L81.6921 114.705C81.803 114.774 84.1219 116.214 85.2907 117.024C85.3101 116.227 85.2751 114.621 84.7515 113.678L84.4137 113.07L85.0707 113.3C85.1542 113.329 87.1425 114.059 89.3065 117.856L88.8459 118.119Z" fill="white"/>
</g>
<mask id="mask3_2011_77218" style="mask-type:luminance" maskUnits="userSpaceOnUse" x="65" y="103" width="27" height="35">
<path d="M90.8252 121.183C93.7144 128.344 89.9623 134.661 84.0963 137.028C78.23 139.395 71.3496 136.94 68.4604 129.779C64.3213 119.521 65.0434 106.712 70.9097 104.346C76.7758 101.979 86.7594 111.106 90.8252 121.183Z" fill="white"/>
</mask>
<g mask="url(#mask3_2011_77218)">
<path d="M81.5753 107.043C80.7225 105.546 79.9133 104.693 79.3846 104.24C79.2131 104.093 79.0594 103.978 78.9281 103.889C79.2741 105.03 79.1592 106.514 79.1532 106.588L79.1221 106.97L78.8164 106.739C78.2539 106.313 76.5929 105.266 75.9389 104.856L75.3756 108.394L71.7362 106.482L70.3285 110.334L70.1502 110.297C69.6486 110.193 67.9306 108.848 67.25 108.304C67.0205 108.923 66.6657 110.534 66.4691 111.546L66.4194 111.802L66.1799 111.699C65.5466 111.429 64.7762 110.3 64.3779 109.659C64.0501 111.222 64.3476 113.639 64.3511 113.666L63.9332 113.718C63.9175 113.593 63.5542 110.637 64.1065 109.057L64.2597 108.619L64.4886 109.023C64.7623 109.506 65.5229 110.712 66.1145 111.17C66.2787 110.356 66.7202 108.263 67.0007 107.853L67.1296 107.665L67.3069 107.809C68.1419 108.486 69.5177 109.537 70.069 109.818L71.5061 105.885L75.0523 107.748L75.6231 104.164L75.8923 104.331C75.9805 104.386 77.8228 105.53 78.7513 106.173C78.7666 105.54 78.7389 104.264 78.3227 103.515L78.0543 103.032L78.5763 103.215C78.6427 103.238 80.2221 103.818 81.9414 106.834L81.5753 107.043Z" fill="white"/>
</g>
<mask id="mask4_2011_77218" style="mask-type:luminance" maskUnits="userSpaceOnUse" x="65" y="103" width="27" height="35">
<path d="M90.8252 121.183C93.7144 128.344 89.9623 134.661 84.0963 137.028C78.23 139.395 71.3496 136.94 68.4604 129.779C64.3213 119.521 65.0434 106.712 70.9097 104.346C76.7758 101.979 86.7594 111.106 90.8252 121.183Z" fill="white"/>
</mask>
<g mask="url(#mask4_2011_77218)">
<path d="M95.7514 131.1C94.5201 128.94 93.3519 127.707 92.5887 127.054C92.341 126.842 92.1192 126.675 91.9296 126.546C92.4289 128.194 92.2632 130.337 92.2546 130.444L92.2098 130.995L91.7683 130.661C90.9563 130.046 88.5584 128.535 87.6138 127.944L86.8004 133.051L81.5458 130.29L79.5133 135.853L79.256 135.799C78.5318 135.648 76.0511 133.707 75.0685 132.921C74.7373 133.814 74.2247 136.141 73.9409 137.602L73.8692 137.971L73.5233 137.824C72.609 137.434 71.4966 135.803 70.9216 134.878C70.4487 137.133 70.8777 140.624 70.8826 140.663L70.2793 140.739C70.2567 140.558 69.732 136.29 70.5295 134.009L70.7508 133.376L71.0811 133.959C71.4762 134.657 72.5746 136.398 73.4286 137.06C73.6656 135.884 74.3029 132.863 74.708 132.271L74.8942 131.999L75.1502 132.206C76.3558 133.184 78.3421 134.702 79.1383 135.107L81.2131 129.429L86.3331 132.119L87.1573 126.944L87.5459 127.185C87.6733 127.264 90.3331 128.916 91.6735 129.845C91.6957 128.931 91.6557 127.089 91.0549 126.007L90.6674 125.309L91.421 125.573C91.5169 125.606 93.7971 126.444 96.2794 130.799L95.7514 131.1Z" fill="white"/>
</g>
<mask id="mask5_2011_77218" style="mask-type:luminance" maskUnits="userSpaceOnUse" x="65" y="103" width="27" height="35">
<path d="M90.8252 121.183C93.7144 128.344 89.9623 134.661 84.0963 137.028C78.23 139.395 71.3496 136.94 68.4604 129.779C64.3213 119.521 65.0434 106.712 70.9097 104.346C76.7758 101.979 86.7594 111.106 90.8252 121.183Z" fill="white"/>
</mask>
<g mask="url(#mask5_2011_77218)">
<path d="M92.9935 125.999C91.8408 123.977 90.7498 122.821 90.0373 122.208C89.9226 122.109 89.8138 122.021 89.7117 121.942C90.0702 123.465 89.9342 125.225 89.9266 125.319L89.864 126.089L89.2481 125.623C88.5268 125.077 86.4735 123.777 85.4872 123.159L84.7175 127.992L79.6988 125.355L77.7821 130.601L77.4232 130.526C76.7443 130.384 74.6314 128.755 73.54 127.886C73.2639 128.726 72.8514 130.516 72.538 132.131L72.4381 132.646L71.9554 132.44C71.1472 132.095 70.1955 130.789 69.6087 129.882C69.2663 131.991 69.6315 134.959 69.636 134.994L68.7946 135.1C68.7728 134.927 68.271 130.844 69.0387 128.649L69.3471 127.766L69.8078 128.58C70.2788 129.411 71.1436 130.709 71.8312 131.338C72.0938 130.051 72.6453 127.517 73.0214 126.967L73.2812 126.588L73.6383 126.877C74.9597 127.948 76.5385 129.126 77.2658 129.543L79.2349 124.153L84.0658 126.692L84.8507 121.764L85.3927 122.1C85.5075 122.171 87.7837 123.585 89.1087 124.486C89.1151 123.579 89.0396 122.073 88.5343 121.163L87.9938 120.189L89.0449 120.557C89.1377 120.589 91.3489 121.401 93.7302 125.579L92.9935 125.999Z" fill="#00DDDE"/>
</g>
<mask id="mask6_2011_77218" style="mask-type:luminance" maskUnits="userSpaceOnUse" x="66" y="104" width="28" height="34">
<path d="M91.8376 119.079C95.8086 125.701 93.0878 132.527 87.6625 135.78C82.237 139.033 75.0577 137.682 71.0866 131.059C65.3977 121.571 64.1128 108.807 69.5383 105.553C74.9637 102.301 86.2493 109.759 91.8376 119.079Z" fill="white"/>
</mask>
<g mask="url(#mask6_2011_77218)">
<path opacity="0.37" d="M81.2276 119.215C83.0102 118.146 82.9786 114.817 81.1571 111.779C79.3356 108.742 76.4139 107.145 74.6314 108.214C72.8488 109.283 72.8804 112.612 74.7019 115.65C76.5234 118.688 79.4451 120.284 81.2276 119.215Z" fill="white"/>
</g>
<mask id="mask7_2011_77218" style="mask-type:luminance" maskUnits="userSpaceOnUse" x="65" y="103" width="27" height="35">
<path d="M90.8252 121.183C93.7144 128.344 89.9623 134.661 84.0963 137.028C78.23 139.395 71.3496 136.94 68.4604 129.779C64.3213 119.521 65.0434 106.712 70.9097 104.346C76.7758 101.979 86.7594 111.106 90.8252 121.183Z" fill="white"/>
</mask>
<g mask="url(#mask7_2011_77218)">
<path opacity="0.03" d="M97.1522 117.435C100.413 122.657 96.4443 129.708 90.2202 132.467C89.7717 132.994 89.2509 133.443 88.6558 133.8C83.7466 136.743 75.7007 132.347 70.6848 123.981C66.6748 117.292 65.8155 110.092 68.1404 105.969C68.1411 101.505 68.5742 98.314 68.5742 98.314L63.2054 105.116L62.082 115.1L67.0053 129.856L70.8037 139.27L78.8809 140.776L92.9488 135.744L99.6117 131.51L102.824 122.873L97.1522 117.435Z" fill="#242E36"/>
</g>
<mask id="mask8_2011_77218" style="mask-type:luminance" maskUnits="userSpaceOnUse" x="65" y="103" width="27" height="35">
<path d="M90.8252 121.183C93.7144 128.344 89.9623 134.661 84.0963 137.028C78.23 139.395 71.3496 136.94 68.4604 129.779C64.3213 119.521 65.0434 106.712 70.9097 104.346C76.7758 101.979 86.7594 111.106 90.8252 121.183Z" fill="white"/>
</mask>
<g mask="url(#mask8_2011_77218)">
<path opacity="0.27" d="M88.1861 113.205C83.1702 104.839 75.1242 100.442 70.2151 103.386C69.2306 103.976 68.4475 104.817 67.8643 105.852C65.5396 109.975 66.3987 117.175 70.4087 123.864C75.4248 132.23 83.4707 136.626 88.3797 133.683C88.9746 133.326 89.4956 132.877 89.9441 132.35C93.1947 128.528 92.5941 120.557 88.1861 113.205Z" fill="white"/>
</g>
<mask id="mask9_2011_77218" style="mask-type:luminance" maskUnits="userSpaceOnUse" x="79" y="97" width="29" height="41">
<path d="M107.236 124.905C106.583 133.712 99.5413 138.298 92.3265 137.763C85.1115 137.228 79.2919 131.234 79.9451 122.426C80.8808 109.809 88.0926 97.0317 95.3076 97.5667C102.522 98.1021 108.155 112.511 107.236 124.905Z" fill="white"/>
</mask>
<g mask="url(#mask9_2011_77218)">
<path d="M112.808 94.0303L77.2621 91.394L73.5768 141.086L109.123 143.722L112.808 94.0303Z" fill="#FFB41B"/>
</g>
<mask id="mask10_2011_77218" style="mask-type:luminance" maskUnits="userSpaceOnUse" x="79" y="97" width="29" height="41">
<path d="M107.236 124.905C106.583 133.712 99.5413 138.298 92.3265 137.763C85.1115 137.228 79.2919 131.234 79.9451 122.426C80.8808 109.809 88.0926 97.0317 95.3076 97.5667C102.522 98.1021 108.155 112.511 107.236 124.905Z" fill="white"/>
</mask>
<g mask="url(#mask10_2011_77218)">
<path d="M106.796 114.408C106.642 111.85 106.114 110.23 105.672 109.291C105.29 110.83 104.406 112.322 104.357 112.404L103.904 113.162L103.507 112.373C103.097 111.557 101.834 109.488 101.19 108.444L98.2794 112.561L94.8304 107.825L90.6772 111.796L90.3468 111.538C89.7845 111.099 88.5958 108.69 87.972 107.37C87.3291 108.038 86.1648 109.469 85.1633 110.788L84.8007 111.266L84.4096 110.811C83.8331 110.141 83.5446 108.582 83.4077 107.473C82.1691 109.268 81.1929 112.069 81.1816 112.102L80.2647 111.785C80.3233 111.615 81.7228 107.599 83.441 105.91L84.2033 105.16L84.2653 106.227C84.3204 107.181 84.5179 108.709 84.8466 109.608C85.7368 108.459 87.3084 106.495 87.9019 106.161L88.3601 105.902L88.5803 106.38C89.2982 107.937 90.2 109.705 90.6867 110.445L94.9622 106.357L98.2681 110.897L101.242 106.69L101.628 107.309C101.701 107.426 103.112 109.69 103.936 111.134C104.351 110.293 104.924 108.93 104.874 107.902L104.811 106.629L105.704 107.538C105.775 107.611 107.464 109.381 107.764 114.349L106.796 114.408Z" fill="#FF5D7C"/>
</g>
<mask id="mask11_2011_77218" style="mask-type:luminance" maskUnits="userSpaceOnUse" x="79" y="97" width="29" height="41">
<path d="M107.236 124.905C106.583 133.712 99.5413 138.298 92.3265 137.763C85.1115 137.228 79.2919 131.234 79.9451 122.426C80.8808 109.809 88.0926 97.0317 95.3076 97.5667C102.522 98.1021 108.155 112.511 107.236 124.905Z" fill="white"/>
</mask>
<g mask="url(#mask11_2011_77218)">
<path d="M106.753 120.761C106.603 118.286 106.101 116.669 105.706 115.748C105.578 115.449 105.453 115.203 105.34 115.004C105.061 116.697 103.969 118.542 103.914 118.633L103.631 119.107L103.383 118.614C102.928 117.706 101.448 115.298 100.864 114.353L97.8865 118.563L94.4018 113.779L90.1335 117.86L89.9271 117.698C89.3458 117.244 87.9816 114.415 87.449 113.279C86.7592 113.933 85.276 115.788 84.3785 116.97L84.1517 117.269L83.9071 116.985C83.2607 116.233 82.984 114.284 82.8771 113.203C81.4601 115.013 80.307 118.325 80.2942 118.361L79.7212 118.164C79.7805 117.992 81.1912 113.943 82.9093 112.253L83.386 111.785L83.4246 112.452C83.4706 113.25 83.6864 115.292 84.1591 116.259C84.8891 115.312 86.79 112.89 87.413 112.539L87.6994 112.378L87.8369 112.676C88.485 114.081 89.5931 116.314 90.1271 117.027L94.484 112.861L97.8793 117.524L100.896 113.257L101.138 113.643C101.217 113.77 102.868 116.42 103.658 117.841C104.081 117.033 104.856 115.368 104.795 114.136L104.756 113.341L105.314 113.909C105.385 113.981 107.057 115.734 107.359 120.724L106.753 120.761Z" fill="white"/>
</g>
<mask id="mask12_2011_77218" style="mask-type:luminance" maskUnits="userSpaceOnUse" x="79" y="97" width="29" height="41">
<path d="M107.236 124.905C106.583 133.712 99.5413 138.298 92.3265 137.763C85.1115 137.228 79.2919 131.234 79.9451 122.426C80.8808 109.809 88.0926 97.0317 95.3076 97.5667C102.522 98.1021 108.155 112.511 107.236 124.905Z" fill="white"/>
</mask>
<g mask="url(#mask12_2011_77218)">
<path d="M104.889 105.723C104.77 103.756 104.371 102.472 104.057 101.74C103.955 101.503 103.856 101.307 103.766 101.149C103.545 102.495 102.677 103.96 102.633 104.032L102.408 104.409L102.211 104.017C101.849 103.296 100.674 101.382 100.21 100.632L97.8446 103.977L95.0764 100.176L91.6857 103.418L91.5215 103.29C91.0596 102.929 89.9761 100.682 89.5528 99.7792C89.0048 100.298 87.8266 101.772 87.1135 102.712L86.9334 102.949L86.7393 102.723C86.2259 102.126 86.0061 100.578 85.9212 99.7189C84.7954 101.157 83.8793 103.787 83.8694 103.817L83.4141 103.659C83.4611 103.523 84.5819 100.306 85.9469 98.964L86.3255 98.5917L86.3562 99.122C86.3929 99.7562 86.5641 101.378 86.9396 102.147C87.5195 101.394 89.0298 99.4699 89.5246 99.1913L89.7519 99.0632L89.8612 99.3002C90.3762 100.417 91.2566 102.19 91.6805 102.757L95.1418 99.4477L97.8392 103.151L100.236 99.7614L100.428 100.069C100.49 100.17 101.803 102.275 102.43 103.404C102.766 102.762 103.382 101.439 103.333 100.46L103.302 99.8286L103.746 100.28C103.802 100.337 105.13 101.73 105.37 105.694L104.889 105.723Z" fill="white"/>
</g>
<mask id="mask13_2011_77218" style="mask-type:luminance" maskUnits="userSpaceOnUse" x="79" y="97" width="29" height="41">
<path d="M107.236 124.905C106.583 133.712 99.5413 138.298 92.3265 137.763C85.1115 137.228 79.2919 131.234 79.9451 122.426C80.8808 109.809 88.0926 97.0317 95.3076 97.5667C102.522 98.1021 108.155 112.511 107.236 124.905Z" fill="white"/>
</mask>
<g mask="url(#mask13_2011_77218)">
<path d="M107.28 137.569C107.108 134.73 106.532 132.875 106.08 131.819C105.933 131.477 105.789 131.194 105.66 130.966C105.339 132.909 104.087 135.024 104.024 135.129L103.699 135.672L103.415 135.106C102.893 134.066 101.196 131.303 100.525 130.219L97.1102 135.049L93.1136 129.561L88.2179 134.242L87.981 134.057C87.3141 133.536 85.7495 130.291 85.1383 128.988C84.347 129.738 82.646 131.865 81.6164 133.222L81.3564 133.564L81.0759 133.238C80.3346 132.377 80.0171 130.141 79.8946 128.901C78.2701 130.976 76.9464 134.775 76.9319 134.817L76.2745 134.591C76.3426 134.394 77.9605 129.749 79.9315 127.811L80.4781 127.274L80.5224 128.039C80.5752 128.955 80.8227 131.296 81.3647 132.406C82.202 131.32 84.3823 128.542 85.0969 128.139L85.4254 127.954L85.5832 128.296C86.3265 129.908 87.5976 132.469 88.2099 133.287L93.2074 128.509L97.1018 133.856L100.562 128.962L100.839 129.406C100.93 129.552 102.824 132.591 103.73 134.221C104.215 133.294 105.104 131.384 105.034 129.971L104.989 129.059L105.629 129.71C105.711 129.793 107.627 131.804 107.974 137.527L107.28 137.569Z" fill="white"/>
</g>
<mask id="mask14_2011_77218" style="mask-type:luminance" maskUnits="userSpaceOnUse" x="79" y="97" width="29" height="41">
<path d="M107.236 124.905C106.583 133.712 99.5413 138.298 92.3265 137.763C85.1115 137.228 79.2919 131.234 79.9451 122.426C80.8808 109.809 88.0926 97.0317 95.3076 97.5667C102.522 98.1021 108.155 112.511 107.236 124.905Z" fill="white"/>
</mask>
<g mask="url(#mask14_2011_77218)">
<path d="M107.028 130.942C106.867 128.284 106.331 126.547 105.91 125.558C105.842 125.399 105.775 125.253 105.71 125.121C105.308 126.865 104.28 128.602 104.224 128.695L103.771 129.453L103.374 128.664C102.91 127.739 101.46 125.368 100.761 124.235L97.5289 128.806L93.7117 123.564L89.095 127.978L88.7645 127.72C88.1394 127.232 86.7944 124.493 86.1138 123.05C85.4062 123.772 84.0783 125.401 82.941 126.899L82.5785 127.377L82.1871 126.922C81.5319 126.16 81.2153 124.339 81.0717 123.111C79.6544 125.103 78.5298 128.333 78.5169 128.371L77.6 128.054C77.6649 127.866 79.2128 123.423 81.1096 121.558L81.872 120.809L81.9336 121.876C81.9969 122.967 82.2286 124.736 82.6162 125.729C83.5361 124.54 85.3823 122.219 86.0457 121.845L86.5039 121.587L86.7241 122.064C87.5388 123.831 88.5641 125.837 89.0997 126.632L93.8428 122.097L97.5171 127.142L100.812 122.482L101.198 123.101C101.28 123.232 102.901 125.833 103.806 127.427C104.271 126.499 104.954 124.916 104.895 123.727L104.833 122.455L105.726 123.363C105.804 123.443 107.663 125.393 107.996 130.883L107.028 130.942Z" fill="#00DDDE"/>
</g>
<mask id="mask15_2011_77218" style="mask-type:luminance" maskUnits="userSpaceOnUse" x="81" y="98" width="29" height="41">
<path d="M109.338 123.257C110.067 132.058 103.826 137.688 96.6162 138.285C89.4057 138.882 82.7219 133.868 81.9932 125.066C80.9492 112.457 86.0798 98.7103 93.2902 98.1133C100.5 97.5166 108.312 110.871 109.338 123.257Z" fill="white"/>
</mask>
<g mask="url(#mask15_2011_77218)">
<path opacity="0.37" d="M98.3822 118.037C100.751 117.841 102.401 114.409 102.066 110.372C101.732 106.334 99.5408 103.22 97.1718 103.417C94.8028 103.613 93.1533 107.045 93.4876 111.082C93.8218 115.119 96.0132 118.233 98.3822 118.037Z" fill="white"/>
</g>
<mask id="mask16_2011_77218" style="mask-type:luminance" maskUnits="userSpaceOnUse" x="79" y="97" width="29" height="41">
<path d="M107.236 124.905C106.583 133.712 99.5413 138.298 92.3265 137.763C85.1115 137.228 79.2919 131.234 79.9451 122.426C80.8808 109.809 88.0926 97.0317 95.3076 97.5667C102.522 98.1021 108.155 112.511 107.236 124.905Z" fill="white"/>
</mask>
<g mask="url(#mask16_2011_77218)">
<path opacity="0.03" d="M115.622 124.255C116.329 131.261 108.695 136.491 100.914 136.177C100.188 136.492 99.4267 136.689 98.6358 136.754C92.1116 137.294 86.0769 128.719 85.157 117.6C84.4215 108.712 87.1775 100.889 91.646 97.8333C93.9021 93.253 95.9585 90.1981 95.9585 90.1981L87.013 94.4655L80.8165 104.142L78.4135 121.769L77.5548 133.348L85.0817 138.974L102.059 140.918L111.034 139.94L118.693 132.701L115.622 124.255Z" fill="#242E36"/>
</g>
<mask id="mask17_2011_77218" style="mask-type:luminance" maskUnits="userSpaceOnUse" x="79" y="97" width="29" height="41">
<path d="M107.236 124.905C106.583 133.712 99.5413 138.298 92.3265 137.763C85.1115 137.228 79.2919 131.234 79.9451 122.426C80.8808 109.809 88.0926 97.0317 95.3076 97.5667C102.522 98.1021 108.155 112.511 107.236 124.905Z" fill="white"/>
</mask>
<g mask="url(#mask17_2011_77218)">
<path opacity="0.27" d="M108.559 115.385C107.639 104.267 101.604 95.6912 95.0798 96.2312C93.7714 96.3393 92.5429 96.8069 91.4219 97.5737C86.9536 100.63 84.1974 108.452 84.9328 117.341C85.8531 128.459 91.8878 137.035 98.4117 136.495C99.2023 136.43 99.9638 136.232 100.69 135.918C105.957 133.638 109.367 125.156 108.559 115.385Z" fill="white"/>
</g>
<mask id="mask18_2011_77218" style="mask-type:luminance" maskUnits="userSpaceOnUse" x="110" y="99" width="31" height="45">
<path d="M140.57 129.552C139.849 139.279 132.071 144.345 124.103 143.754C116.134 143.163 109.706 136.542 110.428 126.815C111.461 112.879 119.426 98.7664 127.395 99.3574C135.364 99.9487 141.585 115.863 140.57 129.552Z" fill="white"/>
</mask>
<g mask="url(#mask18_2011_77218)">
<path d="M146.725 95.4514L107.464 92.5397L103.394 147.424L142.654 150.336L146.725 95.4514Z" fill="#FFB41B"/>
</g>
<mask id="mask19_2011_77218" style="mask-type:luminance" maskUnits="userSpaceOnUse" x="110" y="99" width="31" height="45">
<path d="M140.57 129.552C139.849 139.279 132.071 144.345 124.103 143.754C116.134 143.163 109.706 136.542 110.428 126.815C111.461 112.879 119.426 98.7664 127.395 99.3574C135.364 99.9487 141.585 115.863 140.57 129.552Z" fill="white"/>
</mask>
<g mask="url(#mask19_2011_77218)">
<path d="M140.085 117.958C139.914 115.133 139.331 113.344 138.843 112.307C138.42 114.006 137.444 115.654 137.39 115.745L136.89 116.582L136.452 115.71C135.999 114.809 134.603 112.524 133.892 111.371L130.678 115.918L126.868 110.688L122.281 115.073L121.916 114.788C121.295 114.303 119.982 111.643 119.293 110.185C118.583 110.923 117.297 112.504 116.191 113.961L115.791 114.488L115.359 113.986C114.722 113.246 114.403 111.523 114.252 110.299C112.884 112.281 111.806 115.375 111.793 115.411L110.781 115.062C110.845 114.874 112.391 110.438 114.289 108.572L115.131 107.744L115.199 108.923C115.26 109.976 115.478 111.664 115.841 112.657C116.825 111.388 118.56 109.219 119.216 108.849L119.722 108.564L119.965 109.092C120.758 110.812 121.754 112.764 122.292 113.581L127.014 109.067L130.665 114.08L133.95 109.434L134.377 110.118C134.457 110.247 136.016 112.747 136.925 114.343C137.384 113.414 138.017 111.908 137.961 110.772L137.892 109.367L138.878 110.37C138.957 110.451 140.822 112.406 141.154 117.893L140.085 117.958Z" fill="#FF5D7C"/>
</g>
<mask id="mask20_2011_77218" style="mask-type:luminance" maskUnits="userSpaceOnUse" x="110" y="99" width="31" height="45">
<path d="M140.57 129.552C139.849 139.279 132.071 144.345 124.103 143.754C116.134 143.163 109.706 136.542 110.428 126.815C111.461 112.879 119.426 98.7664 127.395 99.3574C135.364 99.9487 141.585 115.863 140.57 129.552Z" fill="white"/>
</mask>
<g mask="url(#mask20_2011_77218)">
<path d="M140.037 124.975C139.871 122.242 139.316 120.455 138.88 119.438C138.739 119.108 138.601 118.836 138.476 118.616C138.168 120.487 136.962 122.524 136.901 122.625L136.589 123.148L136.315 122.604C135.812 121.601 134.178 118.941 133.532 117.897L130.244 122.548L126.395 117.264L121.681 121.771L121.453 121.593C120.811 121.091 119.304 117.966 118.716 116.712C117.954 117.434 116.316 119.483 115.324 120.789L115.074 121.118L114.804 120.804C114.09 119.975 113.784 117.822 113.666 116.628C112.101 118.627 110.827 122.284 110.813 122.325L110.18 122.106C110.246 121.917 111.804 117.445 113.702 115.578L114.228 115.061L114.271 115.798C114.322 116.68 114.56 118.934 115.082 120.003C115.888 118.957 117.988 116.282 118.676 115.894L118.992 115.716L119.144 116.045C119.86 117.597 121.084 120.064 121.674 120.851L126.486 116.25L130.236 121.4L133.568 116.687L133.835 117.114C133.922 117.254 135.746 120.18 136.619 121.751C137.085 120.858 137.942 119.019 137.875 117.658L137.831 116.78L138.448 117.407C138.526 117.486 140.372 119.423 140.706 124.934L140.037 124.975Z" fill="white"/>
</g>
<mask id="mask21_2011_77218" style="mask-type:luminance" maskUnits="userSpaceOnUse" x="110" y="99" width="31" height="45">
<path d="M140.57 129.552C139.849 139.279 132.071 144.345 124.103 143.754C116.134 143.163 109.706 136.542 110.428 126.815C111.461 112.879 119.426 98.7664 127.395 99.3574C135.364 99.9487 141.585 115.863 140.57 129.552Z" fill="white"/>
</mask>
<g mask="url(#mask21_2011_77218)">
<path d="M137.978 108.365C137.846 106.194 137.405 104.775 137.059 103.967C136.946 103.705 136.837 103.488 136.738 103.314C136.493 104.8 135.534 106.418 135.487 106.498L135.238 106.914L135.021 106.482C134.621 105.685 133.323 103.572 132.81 102.743L130.197 106.438L127.14 102.24L123.395 105.82L123.214 105.679C122.703 105.28 121.507 102.798 121.039 101.801C120.434 102.374 119.133 104.002 118.345 105.04L118.146 105.302L117.932 105.052C117.365 104.393 117.122 102.683 117.028 101.734C115.785 103.323 114.773 106.228 114.762 106.26L114.259 106.087C114.311 105.936 115.549 102.383 117.057 100.901L117.475 100.49L117.509 101.075C117.549 101.776 117.738 103.567 118.153 104.416C118.793 103.585 120.462 101.459 121.008 101.152L121.259 101.01L121.38 101.272C121.949 102.505 122.921 104.464 123.389 105.09L127.212 101.435L130.191 105.525L132.839 101.781L133.05 102.121C133.12 102.232 134.569 104.557 135.262 105.805C135.633 105.095 136.313 103.634 136.26 102.553L136.225 101.856L136.715 102.354C136.777 102.417 138.244 103.955 138.509 108.333L137.978 108.365Z" fill="white"/>
</g>
<mask id="mask22_2011_77218" style="mask-type:luminance" maskUnits="userSpaceOnUse" x="110" y="99" width="31" height="45">
<path d="M140.57 129.552C139.849 139.279 132.071 144.345 124.103 143.754C116.134 143.163 109.706 136.542 110.428 126.815C111.461 112.879 119.426 98.7664 127.395 99.3574C135.364 99.9487 141.585 115.863 140.57 129.552Z" fill="white"/>
</mask>
<g mask="url(#mask22_2011_77218)">
<path d="M140.619 143.54C140.429 140.404 139.793 138.356 139.293 137.189C139.131 136.811 138.972 136.499 138.829 136.246C138.475 138.392 137.092 140.729 137.023 140.844L136.664 141.445L136.35 140.82C135.773 139.67 133.899 136.619 133.158 135.422L129.386 140.756L124.972 134.695L119.565 139.865L119.303 139.66C118.567 139.086 116.838 135.501 116.163 134.062C115.289 134.89 113.411 137.24 112.274 138.738L111.986 139.116L111.676 138.756C110.858 137.805 110.507 135.336 110.372 133.966C108.578 136.258 107.116 140.454 107.1 140.5L106.373 140.25C106.449 140.033 108.236 134.903 110.413 132.762L111.016 132.169L111.065 133.014C111.123 134.025 111.397 136.611 111.996 137.838C112.92 136.637 115.328 133.569 116.118 133.124L116.48 132.92L116.655 133.298C117.476 135.078 118.88 137.907 119.556 138.81L125.076 133.533L129.377 139.439L133.199 134.034L133.505 134.524C133.605 134.685 135.697 138.041 136.698 139.842C137.233 138.818 138.216 136.709 138.138 135.148L138.089 134.14L138.796 134.859C138.886 134.951 141.003 137.172 141.385 143.493L140.619 143.54Z" fill="white"/>
</g>
<mask id="mask23_2011_77218" style="mask-type:luminance" maskUnits="userSpaceOnUse" x="110" y="99" width="31" height="45">
<path d="M140.57 129.552C139.849 139.279 132.071 144.345 124.103 143.754C116.134 143.163 109.706 136.542 110.428 126.815C111.461 112.879 119.426 98.7664 127.395 99.3574C135.364 99.9487 141.585 115.863 140.57 129.552Z" fill="white"/>
</mask>
<g mask="url(#mask23_2011_77218)">
<path d="M140.34 136.22C140.162 133.285 139.571 131.366 139.105 130.274C139.031 130.098 138.957 129.937 138.885 129.791C138.441 131.717 137.305 133.636 137.244 133.738L136.743 134.576L136.305 133.704C135.792 132.683 134.191 130.064 133.418 128.813L129.849 133.861L125.633 128.072L120.534 132.947L120.168 132.662C119.478 132.122 117.993 129.097 117.241 127.503C116.459 128.301 114.993 130.1 113.737 131.755L113.336 132.282L112.904 131.78C112.18 130.938 111.83 128.927 111.672 127.571C110.106 129.771 108.864 133.338 108.85 133.38L107.837 133.031C107.909 132.823 109.619 127.916 111.714 125.856L112.556 125.028L112.624 126.207C112.694 127.412 112.95 129.365 113.378 130.462C114.394 129.15 116.433 126.585 117.166 126.173L117.672 125.888L117.915 126.415C118.815 128.366 119.947 130.581 120.539 131.46L125.777 126.451L129.836 132.024L133.475 126.876L133.902 127.56C133.992 127.705 135.783 130.577 136.781 132.338C137.295 131.313 138.05 129.564 137.985 128.251L137.916 126.846L138.902 127.849C138.989 127.938 141.042 130.091 141.409 136.155L140.34 136.22Z" fill="#00DDDE"/>
</g>
<mask id="mask24_2011_77218" style="mask-type:luminance" maskUnits="userSpaceOnUse" x="112" y="99" width="31" height="46">
<path d="M142.892 127.732C143.697 137.453 136.804 143.671 128.841 144.33C120.877 144.989 113.495 139.452 112.69 129.73C111.537 115.804 117.203 100.62 125.167 99.9611C133.131 99.302 141.759 114.052 142.892 127.732Z" fill="white"/>
</mask>
<g mask="url(#mask24_2011_77218)">
<path opacity="0.37" d="M130.791 121.966C133.408 121.75 135.23 117.959 134.86 113.5C134.491 109.041 132.071 105.602 129.454 105.819C126.838 106.035 125.016 109.826 125.385 114.285C125.754 118.744 128.175 122.183 130.791 121.966Z" fill="white"/>
</g>
<mask id="mask25_2011_77218" style="mask-type:luminance" maskUnits="userSpaceOnUse" x="110" y="99" width="31" height="45">
<path d="M140.57 129.552C139.849 139.279 132.071 144.345 124.103 143.754C116.134 143.163 109.706 136.542 110.428 126.815C111.461 112.879 119.426 98.7664 127.395 99.3574C135.364 99.9487 141.585 115.863 140.57 129.552Z" fill="white"/>
</mask>
<g mask="url(#mask25_2011_77218)">
<path opacity="0.03" d="M149.832 128.834C150.614 136.572 142.181 142.349 133.588 142.002C132.786 142.35 131.945 142.568 131.071 142.64C123.865 143.236 117.2 133.765 116.184 121.484C115.372 111.667 118.416 103.027 123.351 99.6518C125.843 94.5929 128.114 91.2188 128.114 91.2188L118.234 95.9321L111.39 106.619L108.736 126.089L107.788 138.878L116.101 145.091L134.852 147.238L144.765 146.158L153.225 138.163L149.832 128.834Z" fill="#242E36"/>
</g>
<mask id="mask26_2011_77218" style="mask-type:luminance" maskUnits="userSpaceOnUse" x="110" y="99" width="31" height="45">
<path d="M140.57 129.552C139.849 139.279 132.071 144.345 124.103 143.754C116.134 143.163 109.706 136.542 110.428 126.815C111.461 112.879 119.426 98.7664 127.395 99.3574C135.364 99.9487 141.585 115.863 140.57 129.552Z" fill="white"/>
</mask>
<g mask="url(#mask26_2011_77218)">
<path opacity="0.27" d="M142.031 119.038C141.015 106.758 134.35 97.2859 127.144 97.8823C125.699 98.0017 124.342 98.5182 123.104 99.3651C118.168 102.741 115.124 111.38 115.937 121.198C116.953 133.478 123.618 142.95 130.824 142.353C131.697 142.281 132.538 142.063 133.34 141.716C139.157 139.198 142.924 129.83 142.031 119.038Z" fill="white"/>
</g>
<mask id="mask27_2011_77218" style="mask-type:luminance" maskUnits="userSpaceOnUse" x="129" y="98" width="27" height="40">
<path d="M155.849 124.774C155.222 133.239 148.454 137.647 141.52 137.132C134.586 136.618 128.993 130.857 129.621 122.392C130.52 110.266 137.451 97.9861 144.385 98.5003C151.319 99.0148 156.733 112.863 155.849 124.774Z" fill="white"/>
</mask>
<g mask="url(#mask27_2011_77218)">
<path d="M161.205 95.1015L127.042 92.5679L123.5 140.326L157.663 142.859L161.205 95.1015Z" fill="#FFB41B"/>
</g>
<mask id="mask28_2011_77218" style="mask-type:luminance" maskUnits="userSpaceOnUse" x="129" y="98" width="27" height="40">
<path d="M155.849 124.774C155.222 133.239 148.454 137.647 141.52 137.132C134.586 136.618 128.993 130.857 129.621 122.392C130.52 110.266 137.451 97.9861 144.385 98.5003C151.319 99.0148 156.733 112.863 155.849 124.774Z" fill="white"/>
</mask>
<g mask="url(#mask28_2011_77218)">
<path d="M155.427 114.686C155.278 112.228 154.771 110.671 154.346 109.769C153.979 111.247 153.129 112.681 153.082 112.76L152.647 113.489L152.266 112.73C151.872 111.946 150.657 109.957 150.039 108.954L147.241 112.911L143.927 108.359L139.935 112.176L139.618 111.927C139.077 111.505 137.935 109.19 137.335 107.922C136.717 108.564 135.598 109.94 134.636 111.207L134.287 111.667L133.911 111.229C133.357 110.586 133.08 109.087 132.949 108.021C131.758 109.746 130.82 112.438 130.809 112.47L129.928 112.166C129.984 112.002 131.329 108.142 132.981 106.519L133.713 105.798L133.773 106.824C133.826 107.74 134.016 109.209 134.332 110.073C135.187 108.969 136.697 107.081 137.268 106.76L137.708 106.512L137.92 106.971C138.61 108.467 139.476 110.166 139.944 110.877L144.053 106.949L147.231 111.312L150.089 107.269L150.46 107.864C150.53 107.976 151.886 110.152 152.678 111.54C153.077 110.731 153.628 109.422 153.579 108.433L153.519 107.21L154.377 108.083C154.446 108.153 156.068 109.855 156.357 114.63L155.427 114.686Z" fill="#FF5D7C"/>
</g>
<mask id="mask29_2011_77218" style="mask-type:luminance" maskUnits="userSpaceOnUse" x="129" y="98" width="27" height="40">
<path d="M155.849 124.774C155.222 133.239 148.454 137.647 141.52 137.132C134.586 136.618 128.993 130.857 129.621 122.392C130.52 110.266 137.451 97.9861 144.385 98.5003C151.319 99.0148 156.733 112.863 155.849 124.774Z" fill="white"/>
</mask>
<g mask="url(#mask29_2011_77218)">
<path d="M155.385 120.792C155.241 118.413 154.759 116.859 154.379 115.974C154.256 115.687 154.136 115.45 154.027 115.259C153.759 116.886 152.709 118.659 152.657 118.747L152.385 119.202L152.147 118.728C151.709 117.856 150.287 115.541 149.725 114.633L146.864 118.68L143.515 114.081L139.413 118.003L139.214 117.848C138.656 117.412 137.345 114.693 136.833 113.601C136.17 114.23 134.744 116.012 133.882 117.149L133.664 117.436L133.429 117.163C132.807 116.44 132.541 114.567 132.439 113.528C131.077 115.268 129.969 118.45 129.956 118.486L129.406 118.295C129.463 118.131 130.818 114.239 132.47 112.615L132.928 112.165L132.965 112.806C133.009 113.573 133.217 115.535 133.671 116.465C134.372 115.555 136.199 113.227 136.798 112.89L137.073 112.735L137.206 113.021C137.828 114.372 138.893 116.518 139.406 117.203L143.594 113.2L146.857 117.68L149.756 113.579L149.988 113.951C150.064 114.073 151.652 116.62 152.411 117.986C152.817 117.209 153.562 115.609 153.504 114.425L153.466 113.661L154.003 114.206C154.071 114.275 155.677 115.961 155.967 120.756L155.385 120.792Z" fill="white"/>
</g>
<mask id="mask30_2011_77218" style="mask-type:luminance" maskUnits="userSpaceOnUse" x="129" y="98" width="27" height="40">
<path d="M155.849 124.774C155.222 133.239 148.454 137.647 141.52 137.132C134.586 136.618 128.993 130.857 129.621 122.392C130.52 110.266 137.451 97.9861 144.385 98.5003C151.319 99.0148 156.733 112.863 155.849 124.774Z" fill="white"/>
</mask>
<g mask="url(#mask30_2011_77218)">
<path d="M153.593 106.339C153.479 104.449 153.096 103.214 152.794 102.511C152.696 102.283 152.601 102.095 152.515 101.943C152.302 103.236 151.468 104.644 151.426 104.714L151.21 105.076L151.02 104.699C150.672 104.007 149.543 102.167 149.097 101.446L146.824 104.661L144.163 101.008L140.904 104.124L140.747 104.001C140.303 103.654 139.261 101.494 138.855 100.627C138.328 101.126 137.196 102.542 136.51 103.445L136.337 103.673L136.15 103.456C135.657 102.882 135.446 101.394 135.364 100.569C134.282 101.951 133.402 104.479 133.392 104.507L132.955 104.356C133 104.225 134.077 101.133 135.389 99.8432L135.753 99.4854L135.782 99.995C135.818 100.605 135.982 102.163 136.343 102.902C136.9 102.179 138.352 100.329 138.827 100.062L139.046 99.9385L139.151 100.166C139.646 101.239 140.492 102.944 140.899 103.489L144.226 100.308L146.818 103.868L149.122 100.61L149.306 100.905C149.366 101.002 150.628 103.025 151.231 104.11C151.553 103.493 152.145 102.222 152.099 101.281L152.069 100.674L152.495 101.108C152.549 101.163 153.825 102.501 154.056 106.311L153.593 106.339Z" fill="white"/>
</g>
<mask id="mask31_2011_77218" style="mask-type:luminance" maskUnits="userSpaceOnUse" x="129" y="98" width="27" height="40">
<path d="M155.849 124.774C155.222 133.239 148.454 137.647 141.52 137.132C134.586 136.618 128.993 130.857 129.621 122.392C130.52 110.266 137.451 97.9861 144.385 98.5003C151.319 99.0148 156.733 112.863 155.849 124.774Z" fill="white"/>
</mask>
<g mask="url(#mask31_2011_77218)">
<path d="M155.892 136.946C155.727 134.217 155.173 132.435 154.738 131.42C154.597 131.09 154.459 130.819 154.334 130.599C154.027 132.467 152.823 134.5 152.763 134.6L152.45 135.123L152.177 134.579C151.675 133.578 150.044 130.924 149.4 129.882L146.118 134.524L142.277 129.25L137.572 133.748L137.344 133.57C136.703 133.07 135.199 129.951 134.612 128.699C133.851 129.419 132.216 131.464 131.227 132.768L130.977 133.097L130.707 132.783C129.995 131.955 129.69 129.807 129.572 128.615C128.011 130.609 126.739 134.261 126.725 134.301L126.093 134.083C126.158 133.894 127.713 129.43 129.608 127.568L130.133 127.051L130.176 127.787C130.226 128.667 130.464 130.917 130.985 131.984C131.79 130.939 133.885 128.27 134.572 127.883L134.888 127.705L135.039 128.034C135.754 129.583 136.975 132.044 137.564 132.83L142.367 128.238L146.11 133.377L149.435 128.674L149.701 129.101C149.789 129.24 151.609 132.161 152.48 133.728C152.946 132.837 153.801 131.002 153.733 129.643L153.69 128.767L154.305 129.393C154.384 129.472 156.226 131.405 156.559 136.905L155.892 136.946Z" fill="white"/>
</g>
<mask id="mask32_2011_77218" style="mask-type:luminance" maskUnits="userSpaceOnUse" x="129" y="98" width="27" height="40">
<path d="M155.849 124.774C155.222 133.239 148.454 137.647 141.52 137.132C134.586 136.618 128.993 130.857 129.621 122.392C130.52 110.266 137.451 97.9861 144.385 98.5003C151.319 99.0148 156.733 112.863 155.849 124.774Z" fill="white"/>
</mask>
<g mask="url(#mask32_2011_77218)">
<path d="M155.649 130.576C155.494 128.022 154.98 126.353 154.575 125.402C154.51 125.249 154.445 125.109 154.383 124.982C153.997 126.658 153.008 128.328 152.955 128.417L152.519 129.146L152.138 128.387C151.692 127.498 150.298 125.22 149.626 124.131L146.52 128.523L142.852 123.486L138.415 127.728L138.097 127.48C137.496 127.011 136.203 124.379 135.549 122.991C134.869 123.686 133.593 125.251 132.5 126.691L132.152 127.15L131.776 126.713C131.146 125.981 130.842 124.231 130.704 123.051C129.341 124.965 128.261 128.069 128.248 128.105L127.367 127.801C127.429 127.62 128.917 123.35 130.74 121.558L131.473 120.838L131.532 121.864C131.593 122.912 131.815 124.612 132.188 125.566C133.072 124.424 134.846 122.193 135.484 121.834L135.924 121.586L136.136 122.045C136.919 123.742 137.904 125.67 138.419 126.434L142.978 122.076L146.509 126.925L149.676 122.446L150.047 123.041C150.125 123.167 151.684 125.666 152.553 127.198C153 126.306 153.656 124.785 153.6 123.642L153.54 122.42L154.398 123.292C154.474 123.369 156.26 125.243 156.58 130.52L155.649 130.576Z" fill="#00DDDE"/>
</g>
<mask id="mask33_2011_77218" style="mask-type:luminance" maskUnits="userSpaceOnUse" x="131" y="99" width="27" height="39">
<path d="M157.87 123.191C158.57 131.65 152.573 137.06 145.643 137.633C138.713 138.207 132.29 133.388 131.589 124.929C130.586 112.811 135.517 99.5994 142.447 99.0256C149.376 98.4522 156.884 111.287 157.87 123.191Z" fill="white"/>
</mask>
<g mask="url(#mask33_2011_77218)">
<path opacity="0.37" d="M147.34 118.174C149.617 117.985 151.202 114.687 150.881 110.807C150.56 106.927 148.454 103.934 146.177 104.123C143.9 104.311 142.315 107.609 142.636 111.489C142.957 115.37 145.063 118.362 147.34 118.174Z" fill="white"/>
</g>
<mask id="mask34_2011_77218" style="mask-type:luminance" maskUnits="userSpaceOnUse" x="129" y="98" width="27" height="40">
<path d="M155.849 124.774C155.222 133.239 148.454 137.647 141.52 137.132C134.586 136.618 128.993 130.857 129.621 122.392C130.52 110.266 137.451 97.9861 144.385 98.5003C151.319 99.0148 156.733 112.863 155.849 124.774Z" fill="white"/>
</mask>
<g mask="url(#mask34_2011_77218)">
<path opacity="0.03" d="M163.909 124.15C164.589 130.883 157.251 135.909 149.774 135.608C149.076 135.91 148.344 136.1 147.584 136.163C141.314 136.682 135.514 128.44 134.63 117.754C133.923 109.211 136.572 101.694 140.866 98.7565C143.034 94.3545 145.011 91.4185 145.011 91.4185L136.414 95.5198L130.458 104.819L128.149 121.761L127.324 132.889L134.557 138.296L150.874 140.164L159.5 139.224L166.861 132.267L163.909 124.15Z" fill="#242E36"/>
</g>
<mask id="mask35_2011_77218" style="mask-type:luminance" maskUnits="userSpaceOnUse" x="129" y="98" width="27" height="40">
<path d="M155.849 124.774C155.222 133.239 148.454 137.647 141.52 137.132C134.586 136.618 128.993 130.857 129.621 122.392C130.52 110.266 137.451 97.9861 144.385 98.5003C151.319 99.0148 156.733 112.863 155.849 124.774Z" fill="white"/>
</mask>
<g mask="url(#mask35_2011_77218)">
<path opacity="0.27" d="M157.121 115.625C156.236 104.94 150.437 96.6978 144.166 97.2167C142.909 97.3207 141.728 97.7701 140.651 98.507C136.357 101.444 133.708 108.962 134.414 117.505C135.299 128.19 141.099 136.432 147.369 135.913C148.128 135.85 148.86 135.661 149.558 135.358C154.62 133.168 157.898 125.016 157.121 115.625Z" fill="white"/>
</g>
<mask id="mask36_2011_77218" style="mask-type:luminance" maskUnits="userSpaceOnUse" x="100" y="105" width="27" height="38">
<path d="M126.536 130.633C125.926 138.867 119.342 143.156 112.596 142.655C105.85 142.155 100.409 136.55 101.02 128.316C101.895 116.519 108.638 104.572 115.384 105.072C122.129 105.573 127.396 119.045 126.536 130.633Z" fill="white"/>
</mask>
<g mask="url(#mask36_2011_77218)">
<path d="M131.746 101.766L98.5114 99.3009L95.0657 145.762L128.301 148.227L131.746 101.766Z" fill="#FFB41B"/>
</g>
<mask id="mask37_2011_77218" style="mask-type:luminance" maskUnits="userSpaceOnUse" x="100" y="105" width="27" height="38">
<path d="M126.536 130.633C125.926 138.867 119.342 143.156 112.596 142.655C105.85 142.155 100.409 136.55 101.02 128.316C101.895 116.519 108.638 104.572 115.384 105.072C122.129 105.573 127.396 119.045 126.536 130.633Z" fill="white"/>
</mask>
<g mask="url(#mask37_2011_77218)">
<path d="M126.125 120.818C125.981 118.427 125.487 116.912 125.074 116.035C124.716 117.473 123.89 118.868 123.844 118.944L123.421 119.654L123.05 118.915C122.667 118.153 121.485 116.218 120.883 115.242L118.162 119.091L114.937 114.664L111.054 118.376L110.745 118.135C110.219 117.724 109.108 115.472 108.525 114.238C107.924 114.863 106.835 116.201 105.899 117.434L105.56 117.881L105.194 117.456C104.655 116.829 104.385 115.371 104.257 114.335C103.099 116.012 102.186 118.631 102.176 118.662L101.319 118.366C101.374 118.207 102.682 114.452 104.288 112.873L105.001 112.172L105.059 113.17C105.111 114.061 105.295 115.49 105.603 116.331C106.435 115.256 107.904 113.42 108.459 113.107L108.888 112.866L109.094 113.312C109.765 114.768 110.608 116.421 111.063 117.113L115.061 113.291L118.152 117.536L120.932 113.603L121.293 114.181C121.361 114.29 122.681 116.407 123.451 117.758C123.839 116.971 124.375 115.697 124.328 114.735L124.269 113.546L125.104 114.395C125.171 114.463 126.749 116.118 127.03 120.763L126.125 120.818Z" fill="#FF5D7C"/>
</g>
<mask id="mask38_2011_77218" style="mask-type:luminance" maskUnits="userSpaceOnUse" x="100" y="105" width="27" height="38">
<path d="M126.536 130.633C125.926 138.867 119.342 143.156 112.596 142.655C105.85 142.155 100.409 136.55 101.02 128.316C101.895 116.519 108.638 104.572 115.384 105.072C122.129 105.573 127.396 119.045 126.536 130.633Z" fill="white"/>
</mask>
<g mask="url(#mask38_2011_77218)">
<path d="M126.085 126.758C125.945 124.444 125.475 122.932 125.106 122.071C124.986 121.792 124.869 121.561 124.764 121.376C124.503 122.959 123.482 124.684 123.431 124.769L123.166 125.212L122.934 124.751C122.508 123.902 121.125 121.65 120.578 120.767L117.795 124.704L114.537 120.23L110.546 124.046L110.353 123.895C109.809 123.47 108.534 120.825 108.036 119.763C107.391 120.374 106.004 122.109 105.165 123.214L104.953 123.494L104.724 123.228C104.12 122.525 103.861 120.703 103.761 119.692C102.436 121.384 101.358 124.48 101.346 124.515L100.811 124.33C100.866 124.169 102.185 120.384 103.791 118.804L104.237 118.366L104.273 118.989C104.316 119.736 104.518 121.645 104.96 122.55C105.642 121.664 107.42 119.399 108.002 119.071L108.27 118.92L108.399 119.199C109.004 120.513 110.041 122.601 110.54 123.267L114.613 119.372L117.788 123.731L120.609 119.742L120.834 120.104C120.908 120.222 122.453 122.699 123.191 124.029C123.586 123.273 124.311 121.716 124.254 120.564L124.218 119.821L124.74 120.351C124.806 120.419 126.369 122.058 126.651 126.723L126.085 126.758Z" fill="white"/>
</g>
<mask id="mask39_2011_77218" style="mask-type:luminance" maskUnits="userSpaceOnUse" x="100" y="105" width="27" height="38">
<path d="M126.536 130.633C125.926 138.867 119.342 143.156 112.596 142.655C105.85 142.155 100.409 136.55 101.02 128.316C101.895 116.519 108.638 104.572 115.384 105.072C122.129 105.573 127.396 119.045 126.536 130.633Z" fill="white"/>
</mask>
<g mask="url(#mask39_2011_77218)">
<path d="M124.342 112.698C124.23 110.86 123.857 109.658 123.564 108.974C123.469 108.752 123.376 108.569 123.292 108.421C123.085 109.68 122.273 111.05 122.233 111.117L122.022 111.469L121.838 111.103C121.5 110.429 120.401 108.64 119.967 107.938L117.756 111.066L115.167 107.512L111.997 110.543L111.844 110.423C111.412 110.086 110.399 107.985 110.003 107.141C109.49 107.626 108.389 109.004 107.722 109.883L107.554 110.104L107.372 109.893C106.892 109.335 106.687 107.887 106.607 107.084C105.555 108.429 104.698 110.888 104.689 110.916L104.263 110.769C104.307 110.641 105.355 107.634 106.631 106.379L106.985 106.031L107.014 106.526C107.048 107.119 107.208 108.636 107.56 109.354C108.102 108.651 109.514 106.852 109.976 106.591L110.189 106.471L110.291 106.693C110.773 107.737 111.596 109.395 111.992 109.925L115.228 106.831L117.75 110.294L119.991 107.124L120.171 107.412C120.229 107.506 121.456 109.474 122.043 110.53C122.357 109.929 122.933 108.693 122.887 107.777L122.858 107.187L123.273 107.609C123.326 107.662 124.567 108.965 124.791 112.671L124.342 112.698Z" fill="white"/>
</g>
<mask id="mask40_2011_77218" style="mask-type:luminance" maskUnits="userSpaceOnUse" x="100" y="105" width="27" height="38">
<path d="M126.536 130.633C125.926 138.867 119.342 143.156 112.596 142.655C105.85 142.155 100.409 136.55 101.02 128.316C101.895 116.519 108.638 104.572 115.384 105.072C122.129 105.573 127.396 119.045 126.536 130.633Z" fill="white"/>
</mask>
<g mask="url(#mask40_2011_77218)">
<path d="M126.578 142.474C126.417 139.82 125.879 138.085 125.455 137.098C125.318 136.777 125.183 136.513 125.062 136.3C124.763 138.116 123.592 140.094 123.533 140.192L123.23 140.7L122.964 140.171C122.475 139.198 120.889 136.615 120.262 135.602L117.069 140.118L113.332 134.986L108.755 139.363L108.533 139.19C107.91 138.703 106.447 135.669 105.875 134.451C105.136 135.152 103.545 137.141 102.582 138.409L102.339 138.729L102.077 138.424C101.384 137.619 101.087 135.529 100.973 134.369C99.4537 136.31 98.2161 139.862 98.2025 139.901L97.5879 139.689C97.6515 139.505 99.1643 135.162 101.007 133.35L101.518 132.848L101.56 133.563C101.609 134.42 101.84 136.609 102.347 137.647C103.13 136.631 105.168 134.033 105.837 133.657L106.144 133.484L106.291 133.804C106.986 135.311 108.175 137.705 108.747 138.47L113.42 134.003L117.061 139.002L120.296 134.427L120.555 134.842C120.64 134.978 122.411 137.819 123.258 139.343C123.712 138.477 124.543 136.691 124.478 135.369L124.436 134.517L125.034 135.126C125.11 135.203 126.902 137.084 127.226 142.434L126.578 142.474Z" fill="white"/>
</g>
<mask id="mask41_2011_77218" style="mask-type:luminance" maskUnits="userSpaceOnUse" x="100" y="105" width="27" height="38">
<path d="M126.536 130.633C125.926 138.867 119.342 143.156 112.596 142.655C105.85 142.155 100.409 136.55 101.02 128.316C101.895 116.519 108.638 104.572 115.384 105.072C122.129 105.573 127.396 119.045 126.536 130.633Z" fill="white"/>
</mask>
<g mask="url(#mask41_2011_77218)">
<path d="M126.342 136.277C126.191 133.793 125.69 132.168 125.296 131.244C125.233 131.095 125.17 130.959 125.109 130.835C124.734 132.466 123.772 134.09 123.72 134.177L123.297 134.886L122.926 134.148C122.492 133.283 121.136 131.066 120.482 130.007L117.46 134.28L113.891 129.38L109.575 133.507L109.266 133.265C108.681 132.809 107.424 130.248 106.787 128.898C106.126 129.574 104.884 131.097 103.821 132.497L103.482 132.944L103.116 132.519C102.504 131.806 102.207 130.104 102.073 128.956C100.748 130.818 99.6966 133.838 99.6845 133.873L98.8272 133.578C98.8879 133.402 100.335 129.248 102.109 127.504L102.821 126.803L102.879 127.801C102.938 128.821 103.155 130.475 103.517 131.403C104.377 130.292 106.104 128.121 106.724 127.772L107.152 127.531L107.358 127.977C108.12 129.629 109.078 131.504 109.579 132.248L114.014 128.008L117.449 132.725L120.53 128.368L120.891 128.947C120.968 129.069 122.484 131.501 123.329 132.991C123.764 132.123 124.403 130.643 124.348 129.531L124.289 128.342L125.124 129.191C125.198 129.266 126.936 131.089 127.247 136.223L126.342 136.277Z" fill="#00DDDE"/>
</g>
<mask id="mask42_2011_77218" style="mask-type:luminance" maskUnits="userSpaceOnUse" x="102" y="105" width="27" height="39">
<path d="M128.502 129.092C129.183 137.321 123.349 142.584 116.607 143.143C109.865 143.701 103.616 139.013 102.935 130.784C101.959 118.994 106.756 106.141 113.497 105.583C120.239 105.025 127.543 117.511 128.502 129.092Z" fill="white"/>
</mask>
<g mask="url(#mask42_2011_77218)">
<path opacity="0.37" d="M118.258 124.211C120.473 124.028 122.015 120.819 121.703 117.045C121.39 113.27 119.341 110.358 117.127 110.542C114.912 110.725 113.369 113.934 113.682 117.709C113.994 121.483 116.043 124.395 118.258 124.211Z" fill="white"/>
</g>
<mask id="mask43_2011_77218" style="mask-type:luminance" maskUnits="userSpaceOnUse" x="100" y="105" width="27" height="38">
<path d="M126.536 130.633C125.926 138.867 119.342 143.156 112.596 142.655C105.85 142.155 100.409 136.55 101.02 128.316C101.895 116.519 108.638 104.572 115.384 105.072C122.129 105.573 127.396 119.045 126.536 130.633Z" fill="white"/>
</mask>
<g mask="url(#mask43_2011_77218)">
<path opacity="0.03" d="M134.377 130.025C135.038 136.576 127.9 141.465 120.626 141.172C119.947 141.466 119.235 141.651 118.495 141.712C112.395 142.217 106.753 134.199 105.893 123.803C105.205 115.492 107.782 108.179 111.96 105.321C114.069 101.039 115.992 98.1827 115.992 98.1827L107.628 102.173L101.835 111.22L99.5879 127.701L98.785 138.527L105.823 143.787L121.696 145.605L130.088 144.69L137.249 137.922L134.377 130.025Z" fill="#242E36"/>
</g>
<mask id="mask44_2011_77218" style="mask-type:luminance" maskUnits="userSpaceOnUse" x="100" y="105" width="27" height="38">
<path d="M126.536 130.633C125.926 138.867 119.342 143.156 112.596 142.655C105.85 142.155 100.409 136.55 101.02 128.316C101.895 116.519 108.638 104.572 115.384 105.072C122.129 105.573 127.396 119.045 126.536 130.633Z" fill="white"/>
</mask>
<g mask="url(#mask44_2011_77218)">
<path opacity="0.27" d="M127.773 121.732C126.913 111.337 121.27 103.319 115.17 103.823C113.947 103.925 112.799 104.362 111.75 105.079C107.573 107.936 104.996 115.25 105.683 123.56C106.544 133.956 112.186 141.974 118.286 141.469C119.025 141.408 119.737 141.223 120.416 140.93C125.34 138.798 128.529 130.868 127.773 121.732Z" fill="white"/>
</g>
<path d="M63.6998 126.104C61.9598 135.537 62.784 145.153 65.7145 154.31C73.865 180.044 102.529 183.157 113.335 182.883C131.925 182.425 147.127 173.45 153.63 162.369C162.329 147.35 161.322 126.562 159.124 126.013C158.025 125.738 156.926 126.104 155.919 126.379C149.051 128.302 133.024 133.247 112.053 132.698C81.0081 131.965 66.6303 125.463 65.3482 125.646C64.0661 125.921 63.0588 127.295 63.6998 126.104Z" fill="#CE965D"/>
<path d="M151.981 149.64C149.692 151.197 147.402 152.845 145.113 154.494C144.38 154.31 143.648 154.127 143.007 153.944C141.358 153.486 139.618 153.028 137.97 152.479C135.406 151.655 132.933 150.739 130.46 149.731C130.827 149.457 131.193 149.182 131.559 148.999C133.299 147.808 135.039 146.618 136.779 145.427C138.519 144.237 140.442 143.046 142.091 141.581C142.549 141.123 141.999 140.299 141.45 140.574C137.97 141.764 134.764 144.237 131.834 146.343C130.643 147.167 129.545 147.991 128.446 148.816C128.354 148.816 128.262 148.724 128.171 148.724C122.127 145.977 116.266 142.405 109.672 140.94C108.665 140.665 108.298 142.314 109.306 142.497C115.442 144.054 120.661 147.625 126.339 150.373C125.149 151.288 123.867 152.204 122.676 153.028C120.02 154.951 117.273 156.875 114.526 158.798C114.343 158.706 114.068 158.615 113.885 158.431C109.581 156.142 105.368 153.669 101.339 151.014C101.796 150.739 102.346 150.373 102.804 150.098C105.368 148.449 108.024 146.801 110.496 144.878C110.954 144.512 110.679 143.504 110.038 143.779C107.291 144.878 104.91 146.526 102.529 148.266C101.705 148.816 100.789 149.457 99.9648 150.006C98.5912 148.999 97.1259 147.991 95.8438 146.984C93.4628 145.153 91.1733 143.321 88.8839 141.306C89.067 141.123 89.2502 140.848 89.3418 140.574C89.4334 140.299 89.067 140.024 88.8839 140.116C88.6092 140.207 88.3344 140.391 88.0597 140.574C87.5102 140.024 86.8692 139.566 86.3197 139.017C85.7702 138.467 84.946 139.383 85.4955 139.933C86.045 140.39 86.5029 140.94 87.0523 141.398C86.5944 141.764 86.045 142.13 85.5871 142.405C84.305 143.229 83.0229 144.054 81.6492 144.786C80.0008 145.702 78.3524 146.435 76.6124 147.259C75.2388 145.427 73.8651 143.596 72.4914 141.764C72.0335 141.123 70.9346 141.764 71.3925 142.405C72.6746 144.237 73.9567 146.068 75.2388 147.808C74.6893 148.083 74.1398 148.266 73.5903 148.541C72.8577 148.907 73.224 150.098 73.9567 149.823C74.5977 149.548 75.3303 149.274 75.9714 148.999C78.5356 152.662 81.0997 156.234 84.0302 159.622C82.2903 160.446 80.4587 161.087 78.6271 161.728C77.8945 162.003 78.2608 163.102 78.9934 162.919C81.0082 162.278 83.0229 161.545 84.946 160.721C85.4039 161.179 85.7702 161.637 86.2281 162.186C89.1586 165.3 92.547 167.864 96.1185 170.245C95.2943 170.611 94.5617 170.886 93.7375 171.161C93.0965 171.344 93.3712 172.443 94.1038 172.26C95.2028 171.893 96.3017 171.527 97.4007 171.069C99.7817 172.534 102.254 173.908 104.818 175.19C106.742 176.198 108.665 177.113 110.496 178.029C112.419 178.945 114.343 179.952 116.357 180.685C116.815 180.868 117.273 180.135 116.815 179.769C113.976 177.571 110.496 175.923 107.2 174.274C104.635 172.901 102.071 171.527 99.5985 169.97C104.361 167.772 108.756 164.75 113.152 161.82C113.518 161.545 113.885 161.27 114.343 160.996C116.724 162.278 119.196 163.468 121.669 164.567C123.867 165.574 126.065 166.49 128.262 167.314C124.599 169.879 120.845 172.351 117.09 174.732C116.357 175.19 117.09 176.381 117.823 175.923C122.035 173.359 126.248 170.703 130.369 167.956C131.376 168.23 132.383 168.505 133.299 168.688C134.032 168.871 134.581 167.772 133.849 167.314C133.299 167.04 132.841 166.857 132.292 166.582C133.574 165.758 134.856 164.842 136.047 164.018C139.343 161.728 142.457 159.439 145.571 156.966C146.395 157.058 147.219 157.149 148.043 157.058C148.776 156.966 149.142 156.05 148.41 155.592C148.226 155.501 147.952 155.318 147.769 155.226C149.6 153.761 151.34 152.204 152.989 150.556C153.263 150.098 152.531 149.182 151.981 149.64ZM85.6787 158.798C83.8471 156.875 82.1987 154.86 80.5503 152.754C79.4513 151.288 78.3524 149.915 77.2535 148.449C78.9019 147.717 80.5503 146.893 82.1987 146.068C83.5724 145.336 84.946 144.512 86.2281 143.687C86.7776 143.321 87.3271 142.863 87.785 142.405C91.1733 145.519 94.6533 148.449 98.3164 151.105C97.1259 151.929 95.9354 152.754 94.6533 153.578C91.8144 155.409 88.7923 157.241 85.6787 158.798ZM104.635 165.574C102.529 166.857 100.423 168.047 98.2248 169.146C97.9501 168.963 97.6754 168.78 97.4007 168.597C94.287 166.582 91.2649 164.292 88.5176 161.637C87.8765 160.996 87.2355 160.355 86.5944 159.713C89.5249 158.248 92.2723 156.691 95.0196 154.951C96.5764 153.944 98.1333 153.028 99.6901 152.021C103.811 154.951 108.115 157.699 112.603 160.08C110.038 162.003 107.383 163.834 104.635 165.574ZM134.673 162.461C133.208 163.56 131.651 164.659 130.094 165.758C127.896 164.842 125.79 164.018 123.592 163.102C121.028 162.003 118.464 160.812 115.991 159.53C120.02 156.783 124.141 153.944 128.171 151.197C131.193 152.57 134.215 153.761 137.329 154.768C138.977 155.318 140.625 155.776 142.365 156.234C142.457 156.234 142.457 156.234 142.549 156.325C139.893 158.34 137.329 160.446 134.673 162.461Z" fill="#916332"/>
<path d="M161.139 143.504C161.139 145.702 159.216 147.442 157.018 147.167C143.281 145.61 127.988 144.512 111.137 144.603C94.2869 144.603 78.8102 145.702 65.0735 147.35C63.4251 147.534 61.9598 146.252 61.9598 144.603V137.094H161.047V143.504H161.139Z" fill="#DFA950"/>
<path d="M61.5021 125.372L160.406 125.005C164.07 125.005 167 128.027 167 131.782C167 135.537 164.07 138.559 160.498 138.559L61.5936 138.925C57.9305 138.925 55 135.903 55 132.148C55 128.485 57.8389 125.463 61.5021 125.372Z" fill="#B77437"/>
<path d="M111.137 140.965C111.137 140.965 118.189 131.166 125.241 131.624C132.292 132.082 133.391 142.064 130.369 146.642C128.079 150.122 120.936 149.939 112.145 144.078C112.145 144.078 108.573 143.62 111.137 140.965Z" fill="#FFCC79"/>
<g opacity="0.18">
<path d="M121.944 134.737C123.684 134.371 125.515 134.829 126.889 135.928C128.262 136.935 129.087 138.492 129.361 140.14C129.453 140.507 129.911 140.782 130.277 140.69C130.735 140.598 130.827 140.14 130.827 139.774C130.46 137.759 129.361 135.928 127.621 134.646C125.881 133.364 123.592 132.906 121.486 133.364C121.119 133.455 120.845 133.913 120.936 134.28C121.119 134.554 121.577 134.737 121.944 134.737Z" fill="white"/>
</g>
<path d="M110.771 141.423C110.771 141.423 103.72 131.624 96.6681 132.082C89.6166 132.54 88.5177 142.522 91.5397 147.1C93.8292 150.58 100.972 150.397 109.764 144.536C109.764 144.536 113.335 144.078 110.771 141.423Z" fill="#FFCC79"/>
<g opacity="0.18">
<path d="M100.423 133.73C98.3165 133.364 96.0271 133.73 94.2871 135.012C92.6387 136.203 91.4482 138.034 91.0819 140.141C90.9903 140.507 91.1734 140.965 91.6313 141.056C91.9976 141.148 92.4555 140.965 92.5471 140.507C92.8218 138.858 93.646 137.302 95.0197 136.294C96.3934 135.287 98.3165 134.829 99.9649 135.104C100.331 135.195 100.789 135.012 100.881 134.554C100.972 134.28 100.789 133.822 100.423 133.73Z" fill="white"/>
</g>
<path d="M112.145 141.697L120.478 137.851" stroke="#CE6B19" stroke-miterlimit="10" stroke-linecap="round"/>
<path d="M112.236 143.071L120.57 142.705" stroke="#CE6B19" stroke-miterlimit="10" stroke-linecap="round"/>
<path d="M110.313 141.789C110.313 141.789 101.979 139.683 101.521 139.408" stroke="#CE6B19" stroke-miterlimit="10" stroke-linecap="round"/>
<path d="M110.038 143.346C110.038 143.346 103.262 143.62 101.979 143.712" stroke="#CE6B19" stroke-miterlimit="10" stroke-linecap="round"/>
<path d="M114.068 142.522C114.159 144.17 112.877 145.544 111.229 145.544C109.581 145.635 108.207 144.353 108.207 142.705C108.115 141.056 109.397 139.683 111.046 139.683C112.694 139.591 114.068 140.873 114.068 142.522Z" fill="#E9A427"/>
<g filter="url(#filter0_f_2011_77218)">
<ellipse cx="109.5" cy="124" rx="55.5" ry="70" fill="#FBDD36" fill-opacity="0.3"/>
</g>
<defs>
<filter id="filter0_f_2011_77218" x="0" y="0" width="219" height="248" filterUnits="userSpaceOnUse" color-interpolation-filters="sRGB">
<feFlood flood-opacity="0" result="BackgroundImageFix"/>
<feBlend mode="normal" in="SourceGraphic" in2="BackgroundImageFix" result="shape"/>
<feGaussianBlur stdDeviation="27" result="effect1_foregroundBlur_2011_77218"/>
</filter>
</defs>
</svg>
