<svg width="189" height="204" viewBox="0 0 189 204" fill="none" xmlns="http://www.w3.org/2000/svg">
<path d="M154.172 104.049C152.523 98.1878 150.692 92.2352 148.219 86.7405C145.747 81.3374 142.541 76.3922 138.146 72.4543C134.116 68.8828 129.079 66.5017 123.951 65.2196C113.786 62.6555 102.522 64.2123 93.2724 69.1575C84.2061 73.9196 77.3378 81.8869 73.5831 91.5026C69.0042 103.316 66.1653 116.045 67.081 128.775C67.1726 130.332 67.3558 131.98 67.6305 133.537C67.9968 136.01 71.7515 135.552 71.4768 132.987C70.1947 121.174 72.301 109.086 76.0557 97.913C77.7041 93.0594 79.6272 88.3889 82.6493 84.2679C85.3051 80.5132 88.5103 77.5827 92.3566 75.0185C100.141 69.8901 110.123 67.6923 119.372 69.0659C124.134 69.7986 128.805 71.3554 132.743 74.1027C137.047 77.0332 140.252 81.3374 142.633 85.9163C145.197 90.8615 146.937 96.173 148.586 101.485C149.501 104.507 150.417 107.529 151.058 110.642C151.791 113.848 152.066 117.053 152.249 120.35C152.34 121.906 152.432 123.555 152.707 125.112C152.89 126.211 153.897 127.126 155.088 126.943C156.37 126.76 156.919 125.753 156.919 124.562C156.919 121.174 156.828 117.785 156.37 114.489C156.003 110.734 155.179 107.437 154.172 104.049Z" fill="#B77437"/>
<mask id="mask0_2011_77264" style="mask-type:luminance" maskUnits="userSpaceOnUse" x="61" y="103" width="27" height="35">
<path d="M86.0689 121.183C88.9581 128.344 85.206 134.661 79.3399 137.028C73.4736 139.395 66.5933 136.94 63.7041 129.779C59.565 119.521 60.287 106.712 66.1533 104.346C72.0195 101.979 82.0031 111.106 86.0689 121.183Z" fill="white"/>
</mask>
<g mask="url(#mask0_2011_77264)">
<path d="M78.5153 94.8122L49.6139 106.473L65.9155 146.876L94.8169 135.215L78.5153 94.8122Z" fill="#FFB41B"/>
</g>
<mask id="mask1_2011_77264" style="mask-type:luminance" maskUnits="userSpaceOnUse" x="61" y="103" width="27" height="35">
<path d="M86.0689 121.183C88.9581 128.344 85.206 134.661 79.3399 137.028C73.4736 139.395 66.5933 136.94 63.7041 129.779C59.565 119.521 60.287 106.712 66.1533 104.346C72.0195 101.979 82.0031 111.106 86.0689 121.183Z" fill="white"/>
</mask>
<g mask="url(#mask1_2011_77264)">
<path d="M81.6699 113.119C80.5606 111.172 79.5209 110.105 78.8118 109.54C79.1059 110.894 78.9889 112.406 78.9821 112.489L78.9195 113.259L78.3036 112.793C77.6671 112.311 75.8766 111.176 74.9687 110.606L74.2755 114.959L69.741 112.577L68.0168 117.295L67.6579 117.221C67.0472 117.093 65.1845 115.663 64.1854 114.869C63.9391 115.641 63.5785 117.213 63.3024 118.635L63.2025 119.15L62.72 118.944C62.0091 118.641 61.1804 117.529 60.6449 116.712C60.3663 118.598 60.6824 121.173 60.6865 121.203L59.8449 121.309C59.8252 121.153 59.3718 117.462 60.0671 115.473L60.3756 114.591L60.8364 115.404C61.2479 116.131 61.9932 117.253 62.5981 117.831C62.8526 116.586 63.3269 114.439 63.6634 113.947L63.923 113.568L64.2802 113.857C65.4447 114.801 66.835 115.84 67.5025 116.232L69.2776 111.375L73.6241 113.659L74.3324 109.21L74.8744 109.547C74.976 109.61 76.9577 110.841 78.1617 111.656C78.1627 110.836 78.0859 109.545 77.6487 108.758L77.1081 107.784L78.1593 108.152C78.2436 108.181 80.2516 108.918 82.4065 112.699L81.6699 113.119Z" fill="#FF5D7C"/>
</g>
<mask id="mask2_2011_77264" style="mask-type:luminance" maskUnits="userSpaceOnUse" x="61" y="103" width="27" height="35">
<path d="M86.0689 121.183C88.9581 128.344 85.206 134.661 79.3399 137.028C73.4736 139.395 66.5933 136.94 63.7041 129.779C59.565 119.521 60.287 106.712 66.1533 104.346C72.0195 101.979 82.0031 111.106 86.0689 121.183Z" fill="white"/>
</mask>
<g mask="url(#mask2_2011_77264)">
<path d="M84.0895 118.119C83.0161 116.236 81.9975 115.161 81.3321 114.591C81.1164 114.406 80.9228 114.261 80.7576 114.149C81.193 115.585 81.0485 117.454 81.0409 117.546L81.0018 118.027L80.617 117.736C79.909 117.2 77.8183 115.882 76.9949 115.367L76.2857 119.82L71.7043 117.413L69.9323 122.262L69.7081 122.215C69.0768 122.084 66.9139 120.391 66.0574 119.706C65.7688 120.485 65.3218 122.513 65.0744 123.787L65.0119 124.109L64.7102 123.981C63.913 123.641 62.9432 122.219 62.4419 121.412C62.0292 123.379 62.4037 126.422 62.4079 126.456L61.882 126.522C61.8622 126.365 61.4049 122.643 62.1001 120.654L62.293 120.103L62.581 120.611C62.9254 121.22 63.8831 122.738 64.6278 123.314C64.8345 122.289 65.3901 119.655 65.7433 119.139L65.9056 118.902L66.1287 119.083C67.1798 119.935 68.9114 121.259 69.6057 121.612L71.4145 116.661L75.8785 119.007L76.597 114.494L76.9357 114.705C77.0466 114.774 79.3656 116.214 80.5343 117.024C80.5538 116.227 80.5188 114.621 79.9951 113.678L79.6573 113.07L80.3144 113.3C80.3979 113.329 82.3862 114.059 84.5502 117.856L84.0895 118.119Z" fill="white"/>
</g>
<mask id="mask3_2011_77264" style="mask-type:luminance" maskUnits="userSpaceOnUse" x="61" y="103" width="27" height="35">
<path d="M86.0689 121.183C88.9581 128.344 85.206 134.661 79.3399 137.028C73.4736 139.395 66.5933 136.94 63.7041 129.779C59.565 119.521 60.287 106.712 66.1533 104.346C72.0195 101.979 82.0031 111.106 86.0689 121.183Z" fill="white"/>
</mask>
<g mask="url(#mask3_2011_77264)">
<path d="M76.8189 107.043C75.9662 105.546 75.1569 104.693 74.6282 104.24C74.4568 104.093 74.3031 103.978 74.1718 103.889C74.5178 105.03 74.4029 106.514 74.3969 106.588L74.3657 106.97L74.06 106.739C73.4976 106.313 71.8366 105.266 71.1826 104.856L70.6193 108.394L66.9799 106.482L65.5722 110.334L65.3939 110.297C64.8923 110.193 63.1742 108.848 62.4936 108.304C62.2642 108.923 61.9093 110.534 61.7128 111.546L61.663 111.802L61.4235 111.699C60.7902 111.429 60.0199 110.3 59.6216 109.659C59.2938 111.222 59.5912 113.639 59.5947 113.666L59.1768 113.718C59.1611 113.593 58.7979 110.637 59.3502 109.057L59.5033 108.619L59.7322 109.023C60.006 109.506 60.7666 110.712 61.3582 111.17C61.5224 110.356 61.9638 108.263 62.2444 107.853L62.3732 107.665L62.5505 107.809C63.3856 108.486 64.7613 109.537 65.3127 109.818L66.7497 105.885L70.296 107.748L70.8668 104.164L71.1359 104.331C71.2241 104.386 73.0664 105.53 73.9949 106.173C74.0102 105.54 73.9826 104.264 73.5664 103.515L73.298 103.032L73.8199 103.215C73.8864 103.238 75.4657 103.818 77.185 106.834L76.8189 107.043Z" fill="white"/>
</g>
<mask id="mask4_2011_77264" style="mask-type:luminance" maskUnits="userSpaceOnUse" x="61" y="103" width="27" height="35">
<path d="M86.0689 121.183C88.9581 128.344 85.206 134.661 79.3399 137.028C73.4736 139.395 66.5933 136.94 63.7041 129.779C59.565 119.521 60.287 106.712 66.1533 104.346C72.0195 101.979 82.0031 111.106 86.0689 121.183Z" fill="white"/>
</mask>
<g mask="url(#mask4_2011_77264)">
<path d="M90.995 131.1C89.7638 128.94 88.5956 127.707 87.8323 127.054C87.5847 126.842 87.3629 126.675 87.1733 126.546C87.6726 128.194 87.5068 130.337 87.4983 130.444L87.4534 130.995L87.0119 130.661C86.2 130.046 83.8021 128.535 82.8574 127.944L82.0441 133.051L76.7895 130.29L74.7569 135.853L74.4996 135.799C73.7755 135.648 71.2948 133.707 70.3121 132.921C69.9809 133.814 69.4684 136.141 69.1846 137.602L69.1129 137.971L68.767 137.824C67.8526 137.434 66.7403 135.803 66.1653 134.878C65.6924 137.133 66.1213 140.624 66.1262 140.663L65.523 140.739C65.5004 140.558 64.9756 136.29 65.7732 134.009L65.9945 133.376L66.3248 133.959C66.7198 134.657 67.8183 136.398 68.6722 137.06C68.9092 135.884 69.5466 132.863 69.9517 132.271L70.1379 131.999L70.3939 132.206C71.5995 133.184 73.5857 134.702 74.3819 135.107L76.4567 129.429L81.5767 132.119L82.4009 126.944L82.7896 127.185C82.917 127.264 85.5768 128.916 86.9171 129.845C86.9393 128.931 86.8993 127.089 86.2986 126.007L85.911 125.309L86.6646 125.573C86.7605 125.606 89.0407 126.444 91.523 130.799L90.995 131.1Z" fill="white"/>
</g>
<mask id="mask5_2011_77264" style="mask-type:luminance" maskUnits="userSpaceOnUse" x="61" y="103" width="27" height="35">
<path d="M86.0689 121.183C88.9581 128.344 85.206 134.661 79.3399 137.028C73.4736 139.395 66.5933 136.94 63.7041 129.779C59.565 119.521 60.287 106.712 66.1533 104.346C72.0195 101.979 82.0031 111.106 86.0689 121.183Z" fill="white"/>
</mask>
<g mask="url(#mask5_2011_77264)">
<path d="M88.2372 125.999C87.0845 123.977 85.9934 122.821 85.2809 122.208C85.1663 122.109 85.0575 122.021 84.9553 121.942C85.3139 123.465 85.1779 125.225 85.1702 125.319L85.1077 126.089L84.4917 125.623C83.7704 125.077 81.7172 123.777 80.7309 123.159L79.9611 127.992L74.9425 125.355L73.0258 130.601L72.6669 130.526C71.988 130.384 69.875 128.755 68.7836 127.886C68.5076 128.726 68.0951 130.516 67.7816 132.131L67.6817 132.646L67.1991 132.44C66.3909 132.095 65.4392 130.789 64.8523 129.882C64.5099 131.991 64.8752 134.959 64.8797 134.994L64.0382 135.1C64.0164 134.927 63.5147 130.844 64.2823 128.649L64.5908 127.766L65.0514 128.58C65.5225 129.411 66.3872 130.709 67.0748 131.338C67.3375 130.051 67.889 127.517 68.2651 126.967L68.5248 126.588L68.8819 126.877C70.2034 127.948 71.7821 129.126 72.5095 129.543L74.4785 124.153L79.3095 126.692L80.0943 121.764L80.6364 122.1C80.7511 122.171 83.0273 123.585 84.3523 124.486C84.3587 123.579 84.2832 122.073 83.778 121.163L83.2374 120.189L84.2886 120.557C84.3814 120.589 86.5925 121.401 88.9739 125.579L88.2372 125.999Z" fill="#00DDDE"/>
</g>
<mask id="mask6_2011_77264" style="mask-type:luminance" maskUnits="userSpaceOnUse" x="61" y="104" width="28" height="34">
<path d="M87.0812 119.079C91.0522 125.701 88.3314 132.527 82.9061 135.78C77.4807 139.033 70.3013 137.682 66.3303 131.059C60.6413 121.571 59.3565 108.807 64.782 105.553C70.2074 102.301 81.493 109.759 87.0812 119.079Z" fill="white"/>
</mask>
<g mask="url(#mask6_2011_77264)">
<path opacity="0.37" d="M76.4713 119.215C78.2538 118.146 78.2223 114.817 76.4007 111.779C74.5792 108.742 71.6576 107.145 69.875 108.214C68.0925 109.283 68.1241 112.612 69.9456 115.65C71.7671 118.688 74.6888 120.284 76.4713 119.215Z" fill="white"/>
</g>
<mask id="mask7_2011_77264" style="mask-type:luminance" maskUnits="userSpaceOnUse" x="61" y="103" width="27" height="35">
<path d="M86.0689 121.183C88.9581 128.344 85.206 134.661 79.3399 137.028C73.4736 139.395 66.5933 136.94 63.7041 129.779C59.565 119.521 60.287 106.712 66.1533 104.346C72.0195 101.979 82.0031 111.106 86.0689 121.183Z" fill="white"/>
</mask>
<g mask="url(#mask7_2011_77264)">
<path opacity="0.03" d="M92.3958 117.435C95.6568 122.657 91.688 129.708 85.4638 132.467C85.0154 132.994 84.4946 133.443 83.8994 133.8C78.9903 136.743 70.9444 132.347 65.9284 123.981C61.9185 117.292 61.0592 110.092 63.384 105.969C63.3847 101.505 63.8179 98.314 63.8179 98.314L58.4491 105.116L57.3256 115.1L62.249 129.856L66.0474 139.27L74.1246 140.776L88.1925 135.744L94.8553 131.51L98.0675 122.873L92.3958 117.435Z" fill="#242E36"/>
</g>
<mask id="mask8_2011_77264" style="mask-type:luminance" maskUnits="userSpaceOnUse" x="61" y="103" width="27" height="35">
<path d="M86.0689 121.183C88.9581 128.344 85.206 134.661 79.3399 137.028C73.4736 139.395 66.5933 136.94 63.7041 129.779C59.565 119.521 60.287 106.712 66.1533 104.346C72.0195 101.979 82.0031 111.106 86.0689 121.183Z" fill="white"/>
</mask>
<g mask="url(#mask8_2011_77264)">
<path opacity="0.27" d="M83.4297 113.205C78.4138 104.839 70.3679 100.442 65.4588 103.386C64.4742 103.976 63.6911 104.817 63.1079 105.852C60.7833 109.975 61.6424 117.175 65.6523 123.864C70.6685 132.23 78.7144 136.626 83.6233 133.683C84.2183 133.326 84.7393 132.877 85.1877 132.35C88.4383 128.528 87.8377 120.557 83.4297 113.205Z" fill="white"/>
</g>
<mask id="mask9_2011_77264" style="mask-type:luminance" maskUnits="userSpaceOnUse" x="75" y="97" width="28" height="41">
<path d="M102.48 124.905C101.827 133.712 94.7849 138.298 87.5702 137.763C80.3552 137.228 74.5355 131.234 75.1887 122.426C76.1244 109.809 83.3363 97.0317 90.5513 97.5667C97.766 98.1021 103.399 112.511 102.48 124.905Z" fill="white"/>
</mask>
<g mask="url(#mask9_2011_77264)">
<path d="M108.052 94.0303L72.5057 91.394L68.8204 141.086L104.367 143.722L108.052 94.0303Z" fill="#FFB41B"/>
</g>
<mask id="mask10_2011_77264" style="mask-type:luminance" maskUnits="userSpaceOnUse" x="75" y="97" width="28" height="41">
<path d="M102.48 124.905C101.827 133.712 94.7849 138.298 87.5702 137.763C80.3552 137.228 74.5355 131.234 75.1887 122.426C76.1244 109.809 83.3363 97.0317 90.5513 97.5667C97.766 98.1021 103.399 112.511 102.48 124.905Z" fill="white"/>
</mask>
<g mask="url(#mask10_2011_77264)">
<path d="M102.04 114.408C101.885 111.85 101.358 110.23 100.916 109.291C100.533 110.83 99.6494 112.322 99.6004 112.404L99.1472 113.162L98.7507 112.373C98.3409 111.557 97.0772 109.488 96.4336 108.444L93.523 112.561L90.074 107.825L85.9209 111.796L85.5904 111.538C85.0281 111.099 83.8395 108.69 83.2156 107.37C82.5728 108.038 81.4084 109.469 80.4069 110.788L80.0443 111.266L79.6532 110.811C79.0768 110.141 78.7883 108.582 78.6514 107.473C77.4128 109.268 76.4365 112.069 76.4253 112.102L75.5084 111.785C75.567 111.615 76.9665 107.599 78.6846 105.91L79.447 105.16L79.5089 106.227C79.564 107.181 79.7616 108.709 80.0903 109.608C80.9805 108.459 82.552 106.495 83.1456 106.161L83.6038 105.902L83.824 106.38C84.5418 107.937 85.4436 109.705 85.9304 110.445L90.2059 106.357L93.5118 110.897L96.4859 106.69L96.8721 107.309C96.9444 107.426 98.3558 109.69 99.1795 111.134C99.5949 110.293 100.168 108.93 100.117 107.902L100.054 106.629L100.947 107.538C101.019 107.611 102.707 109.381 103.008 114.349L102.04 114.408Z" fill="#FF5D7C"/>
</g>
<mask id="mask11_2011_77264" style="mask-type:luminance" maskUnits="userSpaceOnUse" x="75" y="97" width="28" height="41">
<path d="M102.48 124.905C101.827 133.712 94.7849 138.298 87.5702 137.763C80.3552 137.228 74.5355 131.234 75.1887 122.426C76.1244 109.809 83.3363 97.0317 90.5513 97.5667C97.766 98.1021 103.399 112.511 102.48 124.905Z" fill="white"/>
</mask>
<g mask="url(#mask11_2011_77264)">
<path d="M101.997 120.761C101.847 118.286 101.344 116.669 100.95 115.748C100.822 115.449 100.696 115.203 100.584 115.004C100.305 116.697 99.2124 118.542 99.1579 118.633L98.8746 119.107L98.627 118.614C98.1713 117.706 96.6919 115.298 96.1074 114.353L93.1301 118.563L89.6454 113.779L85.3772 117.86L85.1708 117.698C84.5894 117.244 83.2253 114.415 82.6927 113.279C82.0028 113.933 80.5197 115.788 79.6221 116.97L79.3953 117.269L79.1507 116.985C78.5044 116.233 78.2277 114.284 78.1208 113.203C76.7038 115.013 75.5506 118.325 75.5378 118.361L74.9649 118.164C75.0241 117.992 76.4348 113.943 78.153 112.253L78.6296 111.785L78.6683 112.452C78.7142 113.25 78.93 115.292 79.4027 116.259C80.1327 115.312 82.0336 112.89 82.6566 112.539L82.943 112.378L83.0806 112.676C83.7286 114.081 84.8367 116.314 85.3707 117.027L89.7277 112.861L93.123 117.524L96.1399 113.257L96.3812 113.643C96.4602 113.77 98.1119 116.42 98.9018 117.841C99.3246 117.033 100.1 115.368 100.039 114.136L99.9997 113.341L100.558 113.909C100.629 113.981 102.3 115.734 102.602 120.724L101.997 120.761Z" fill="white"/>
</g>
<mask id="mask12_2011_77264" style="mask-type:luminance" maskUnits="userSpaceOnUse" x="75" y="97" width="28" height="41">
<path d="M102.48 124.905C101.827 133.712 94.7849 138.298 87.5702 137.763C80.3552 137.228 74.5355 131.234 75.1887 122.426C76.1244 109.809 83.3363 97.0317 90.5513 97.5667C97.766 98.1021 103.399 112.511 102.48 124.905Z" fill="white"/>
</mask>
<g mask="url(#mask12_2011_77264)">
<path d="M100.132 105.723C100.013 103.756 99.6142 102.472 99.3005 101.74C99.1987 101.503 99.0993 101.307 99.0097 101.149C98.7882 102.495 97.9203 103.96 97.877 104.032L97.6519 104.409L97.4551 104.017C97.093 103.296 95.9178 101.382 95.4535 100.632L93.0882 103.977L90.3201 100.176L86.9293 103.418L86.7652 103.29C86.3033 102.929 85.2198 100.682 84.7965 99.7792C84.2484 100.298 83.0703 101.772 82.3572 102.712L82.1771 102.949L81.9829 102.723C81.4696 102.126 81.2497 100.578 81.1648 99.7189C80.039 101.157 79.1229 103.787 79.113 103.817L78.6577 103.659C78.7048 103.523 79.8256 100.306 81.1906 98.964L81.5691 98.5917L81.5998 99.122C81.6365 99.7562 81.8077 101.378 82.1833 102.147C82.7632 101.394 84.2734 99.4699 84.7683 99.1913L84.9956 99.0632L85.1049 99.3002C85.6198 100.417 86.5002 102.19 86.9241 102.757L90.3855 99.4477L93.0828 103.151L95.4796 99.7614L95.6713 100.069C95.7341 100.17 97.0463 102.275 97.6739 103.404C98.0097 102.762 98.6257 101.439 98.5771 100.46L98.5458 99.8286L98.9892 100.28C99.0456 100.337 100.373 101.73 100.613 105.694L100.132 105.723Z" fill="white"/>
</g>
<mask id="mask13_2011_77264" style="mask-type:luminance" maskUnits="userSpaceOnUse" x="75" y="97" width="28" height="41">
<path d="M102.48 124.905C101.827 133.712 94.7849 138.298 87.5702 137.763C80.3552 137.228 74.5355 131.234 75.1887 122.426C76.1244 109.809 83.3363 97.0317 90.5513 97.5667C97.766 98.1021 103.399 112.511 102.48 124.905Z" fill="white"/>
</mask>
<g mask="url(#mask13_2011_77264)">
<path d="M102.524 137.569C102.352 134.73 101.776 132.875 101.323 131.819C101.176 131.477 101.033 131.194 100.903 130.966C100.583 132.909 99.3303 135.024 99.2678 135.129L98.943 135.672L98.6588 135.106C98.1362 134.066 96.4394 131.303 95.7689 130.219L92.3539 135.049L88.3573 129.561L83.4616 134.242L83.2246 134.057C82.5578 133.536 80.9931 130.291 80.382 128.988C79.5907 129.738 77.8896 131.865 76.8601 133.222L76.6 133.564L76.3195 133.238C75.5782 132.377 75.2608 130.141 75.1382 128.901C73.5137 130.976 72.1901 134.775 72.1756 134.817L71.5182 134.591C71.5863 134.394 73.2042 129.749 75.1752 127.811L75.7217 127.274L75.766 128.039C75.8188 128.955 76.0664 131.296 76.6084 132.406C77.4456 131.32 79.6259 128.542 80.3406 128.139L80.669 127.954L80.8269 128.296C81.5702 129.908 82.8413 132.469 83.4535 133.287L88.4511 128.509L92.3455 133.856L95.8057 128.962L96.0827 129.406C96.1734 129.552 98.0678 132.591 98.9738 134.221C99.4586 133.294 100.348 131.384 100.278 129.971L100.233 129.059L100.873 129.71C100.955 129.793 102.871 131.804 103.218 137.527L102.524 137.569Z" fill="white"/>
</g>
<mask id="mask14_2011_77264" style="mask-type:luminance" maskUnits="userSpaceOnUse" x="75" y="97" width="28" height="41">
<path d="M102.48 124.905C101.827 133.712 94.7849 138.298 87.5702 137.763C80.3552 137.228 74.5355 131.234 75.1887 122.426C76.1244 109.809 83.3363 97.0317 90.5513 97.5667C97.766 98.1021 103.399 112.511 102.48 124.905Z" fill="white"/>
</mask>
<g mask="url(#mask14_2011_77264)">
<path d="M102.271 130.942C102.11 128.284 101.575 126.547 101.153 125.558C101.086 125.399 101.019 125.253 100.954 125.121C100.552 126.865 99.5232 128.602 99.4678 128.695L99.0146 129.453L98.6181 128.664C98.1538 127.739 96.7037 125.368 96.0042 124.235L92.7726 128.806L88.9554 123.564L84.3386 127.978L84.0081 127.72C83.383 127.232 82.038 124.493 81.3574 123.05C80.6498 123.772 79.322 125.401 78.1847 126.899L77.8221 127.377L77.4308 126.922C76.7756 126.16 76.4589 124.339 76.3153 123.111C74.898 125.103 73.7734 128.333 73.7606 128.371L72.8437 128.054C72.9085 127.866 74.4564 123.423 76.3532 121.558L77.1156 120.809L77.1773 121.876C77.2406 122.967 77.4722 124.736 77.8598 125.729C78.7798 124.54 80.626 122.219 81.2894 121.845L81.7476 121.587L81.9677 122.064C82.7825 123.831 83.8077 125.837 84.3434 126.632L89.0864 122.097L92.7608 127.142L96.0559 122.482L96.4421 123.101C96.5238 123.232 98.145 125.833 99.0494 127.427C99.5146 126.499 100.198 124.916 100.139 123.727L100.076 122.455L100.969 123.363C101.048 123.443 102.907 125.393 103.239 130.883L102.271 130.942Z" fill="#00DDDE"/>
</g>
<mask id="mask15_2011_77264" style="mask-type:luminance" maskUnits="userSpaceOnUse" x="77" y="98" width="28" height="41">
<path d="M104.581 123.257C105.31 132.058 99.07 137.688 91.8598 138.285C84.6493 138.882 77.9656 133.868 77.2368 125.066C76.1929 112.457 81.3234 98.7103 88.5339 98.1133C95.7441 97.5166 103.556 110.871 104.581 123.257Z" fill="white"/>
</mask>
<g mask="url(#mask15_2011_77264)">
<path opacity="0.37" d="M93.6259 118.037C95.9949 117.841 97.6444 114.409 97.3101 110.372C96.9758 106.334 94.7844 103.22 92.4154 103.417C90.0464 103.613 88.3969 107.045 88.7312 111.082C89.0655 115.119 91.2569 118.233 93.6259 118.037Z" fill="white"/>
</g>
<mask id="mask16_2011_77264" style="mask-type:luminance" maskUnits="userSpaceOnUse" x="75" y="97" width="28" height="41">
<path d="M102.48 124.905C101.827 133.712 94.7849 138.298 87.5702 137.763C80.3552 137.228 74.5355 131.234 75.1887 122.426C76.1244 109.809 83.3363 97.0317 90.5513 97.5667C97.766 98.1021 103.399 112.511 102.48 124.905Z" fill="white"/>
</mask>
<g mask="url(#mask16_2011_77264)">
<path opacity="0.03" d="M110.865 124.255C111.573 131.261 103.938 136.491 96.158 136.177C95.4316 136.492 94.6704 136.689 93.8794 136.754C87.3553 137.294 81.3206 128.719 80.4006 117.6C79.6652 108.712 82.4211 100.889 86.8897 97.8333C89.1457 93.253 91.2021 90.1981 91.2021 90.1981L82.2567 94.4655L76.0602 104.142L73.6572 121.769L72.7985 133.348L80.3254 138.974L97.3024 140.918L106.278 139.94L113.937 132.701L110.865 124.255Z" fill="#242E36"/>
</g>
<mask id="mask17_2011_77264" style="mask-type:luminance" maskUnits="userSpaceOnUse" x="75" y="97" width="28" height="41">
<path d="M102.48 124.905C101.827 133.712 94.7849 138.298 87.5702 137.763C80.3552 137.228 74.5355 131.234 75.1887 122.426C76.1244 109.809 83.3363 97.0317 90.5513 97.5667C97.766 98.1021 103.399 112.511 102.48 124.905Z" fill="white"/>
</mask>
<g mask="url(#mask17_2011_77264)">
<path opacity="0.27" d="M103.802 115.385C102.882 104.267 96.8476 95.6912 90.3234 96.2312C89.0151 96.3393 87.7865 96.8069 86.6655 97.5737C82.1973 100.63 79.4411 108.452 80.1765 117.341C81.0967 128.459 87.1314 137.035 93.6553 136.495C94.446 136.43 95.2075 136.232 95.9339 135.918C101.2 133.638 104.611 125.156 103.802 115.385Z" fill="white"/>
</g>
<mask id="mask18_2011_77264" style="mask-type:luminance" maskUnits="userSpaceOnUse" x="105" y="99" width="31" height="45">
<path d="M135.814 129.552C135.092 139.279 127.315 144.345 119.346 143.754C111.377 143.163 104.95 136.542 105.671 126.815C106.705 112.879 114.67 98.7664 122.639 99.3574C130.608 99.9487 136.829 115.863 135.814 129.552Z" fill="white"/>
</mask>
<g mask="url(#mask18_2011_77264)">
<path d="M141.968 95.4514L102.708 92.5397L98.6375 147.424L137.898 150.336L141.968 95.4514Z" fill="#FFB41B"/>
</g>
<mask id="mask19_2011_77264" style="mask-type:luminance" maskUnits="userSpaceOnUse" x="105" y="99" width="31" height="45">
<path d="M135.814 129.552C135.092 139.279 127.315 144.345 119.346 143.754C111.377 143.163 104.95 136.542 105.671 126.815C106.705 112.879 114.67 98.7664 122.639 99.3574C130.608 99.9487 136.829 115.863 135.814 129.552Z" fill="white"/>
</mask>
<g mask="url(#mask19_2011_77264)">
<path d="M135.328 117.958C135.157 115.133 134.575 113.344 134.087 112.307C133.664 114.006 132.688 115.654 132.634 115.745L132.133 116.582L131.695 115.71C131.243 114.809 129.847 112.524 129.136 111.371L125.921 115.918L122.112 110.688L117.525 115.073L117.16 114.788C116.539 114.303 115.226 111.643 114.537 110.185C113.827 110.923 112.541 112.504 111.435 113.961L111.034 114.488L110.602 113.986C109.966 113.246 109.647 111.523 109.496 110.299C108.128 112.281 107.049 115.375 107.037 115.411L106.024 115.062C106.089 114.874 107.635 110.438 109.532 108.572L110.374 107.744L110.443 108.923C110.504 109.976 110.722 111.664 111.085 112.657C112.068 111.388 113.804 109.219 114.46 108.849L114.966 108.564L115.209 109.092C116.002 110.812 116.998 112.764 117.535 113.581L122.258 109.067L125.909 114.08L129.194 109.434L129.62 110.118C129.7 110.247 131.259 112.747 132.169 114.343C132.628 113.414 133.261 111.908 133.205 110.772L133.135 109.367L134.122 110.37C134.201 110.451 136.065 112.406 136.397 117.893L135.328 117.958Z" fill="#FF5D7C"/>
</g>
<mask id="mask20_2011_77264" style="mask-type:luminance" maskUnits="userSpaceOnUse" x="105" y="99" width="31" height="45">
<path d="M135.814 129.552C135.092 139.279 127.315 144.345 119.346 143.754C111.377 143.163 104.95 136.542 105.671 126.815C106.705 112.879 114.67 98.7664 122.639 99.3574C130.608 99.9487 136.829 115.863 135.814 129.552Z" fill="white"/>
</mask>
<g mask="url(#mask20_2011_77264)">
<path d="M135.28 124.975C135.115 122.242 134.56 120.455 134.124 119.438C133.983 119.108 133.844 118.836 133.72 118.616C133.412 120.487 132.205 122.524 132.145 122.625L131.832 123.148L131.559 122.604C131.055 121.601 129.421 118.941 128.776 117.897L125.487 122.548L121.639 117.264L116.924 121.771L116.696 121.593C116.054 121.091 114.548 117.966 113.959 116.712C113.197 117.434 111.559 119.483 110.568 120.789L110.317 121.118L110.047 120.804C109.333 119.975 109.028 117.822 108.91 116.628C107.345 118.627 106.071 122.284 106.057 122.325L105.424 122.106C105.489 121.917 107.048 117.445 108.945 115.578L109.472 115.061L109.514 115.798C109.565 116.68 109.804 118.934 110.326 120.003C111.132 118.957 113.231 116.282 113.919 115.894L114.236 115.716L114.388 116.045C115.103 117.597 116.327 120.064 116.917 120.851L121.729 116.25L125.48 121.4L128.812 116.687L129.078 117.114C129.165 117.254 130.99 120.18 131.862 121.751C132.329 120.858 133.185 119.019 133.118 117.658L133.075 116.78L133.691 117.407C133.77 117.486 135.616 119.423 135.949 124.934L135.28 124.975Z" fill="white"/>
</g>
<mask id="mask21_2011_77264" style="mask-type:luminance" maskUnits="userSpaceOnUse" x="105" y="99" width="31" height="45">
<path d="M135.814 129.552C135.092 139.279 127.315 144.345 119.346 143.754C111.377 143.163 104.95 136.542 105.671 126.815C106.705 112.879 114.67 98.7664 122.639 99.3574C130.608 99.9487 136.829 115.863 135.814 129.552Z" fill="white"/>
</mask>
<g mask="url(#mask21_2011_77264)">
<path d="M133.221 108.365C133.09 106.194 132.649 104.775 132.303 103.967C132.19 103.705 132.08 103.488 131.981 103.314C131.737 104.8 130.778 106.418 130.73 106.498L130.482 106.914L130.264 106.482C129.864 105.685 128.566 103.572 128.054 102.743L125.441 106.438L122.384 102.24L118.639 105.82L118.457 105.679C117.947 105.28 116.75 102.798 116.283 101.801C115.678 102.374 114.376 104.002 113.589 105.04L113.39 105.302L113.175 105.052C112.608 104.393 112.366 102.683 112.272 101.734C111.028 103.323 110.017 106.228 110.006 106.26L109.503 106.087C109.555 105.936 110.793 102.383 112.3 100.901L112.718 100.49L112.752 101.075C112.793 101.776 112.982 103.567 113.397 104.416C114.037 103.585 115.705 101.459 116.252 101.152L116.503 101.01L116.624 101.272C117.192 102.505 118.165 104.464 118.633 105.09L122.456 101.435L125.435 105.525L128.082 101.781L128.294 102.121C128.363 102.232 129.813 104.557 130.506 105.805C130.877 105.095 131.557 103.634 131.503 102.553L131.469 101.856L131.959 102.354C132.021 102.417 133.487 103.955 133.753 108.333L133.221 108.365Z" fill="white"/>
</g>
<mask id="mask22_2011_77264" style="mask-type:luminance" maskUnits="userSpaceOnUse" x="105" y="99" width="31" height="45">
<path d="M135.814 129.552C135.092 139.279 127.315 144.345 119.346 143.754C111.377 143.163 104.95 136.542 105.671 126.815C106.705 112.879 114.67 98.7664 122.639 99.3574C130.608 99.9487 136.829 115.863 135.814 129.552Z" fill="white"/>
</mask>
<g mask="url(#mask22_2011_77264)">
<path d="M135.863 143.54C135.673 140.404 135.037 138.356 134.536 137.189C134.374 136.811 134.215 136.499 134.073 136.246C133.719 138.392 132.335 140.729 132.266 140.844L131.908 141.445L131.594 140.82C131.017 139.67 129.142 136.619 128.402 135.422L124.63 140.756L120.216 134.695L114.808 139.865L114.547 139.66C113.81 139.086 112.082 135.501 111.407 134.062C110.533 134.89 108.654 137.24 107.517 138.738L107.23 139.116L106.92 138.756C106.101 137.805 105.751 135.336 105.615 133.966C103.821 136.258 102.359 140.454 102.343 140.5L101.617 140.25C101.692 140.033 103.479 134.903 105.656 132.762L106.26 132.169L106.309 133.014C106.367 134.025 106.641 136.611 107.239 137.838C108.164 136.637 110.572 133.569 111.361 133.124L111.724 132.92L111.898 133.298C112.719 135.078 114.123 137.907 114.8 138.81L120.319 133.533L124.621 139.439L128.443 134.034L128.748 134.524C128.849 134.685 130.941 138.041 131.942 139.842C132.477 138.818 133.459 136.709 133.382 135.148L133.332 134.14L134.039 134.859C134.129 134.951 136.246 137.172 136.629 143.493L135.863 143.54Z" fill="white"/>
</g>
<mask id="mask23_2011_77264" style="mask-type:luminance" maskUnits="userSpaceOnUse" x="105" y="99" width="31" height="45">
<path d="M135.814 129.552C135.092 139.279 127.315 144.345 119.346 143.754C111.377 143.163 104.95 136.542 105.671 126.815C106.705 112.879 114.67 98.7664 122.639 99.3574C130.608 99.9487 136.829 115.863 135.814 129.552Z" fill="white"/>
</mask>
<g mask="url(#mask23_2011_77264)">
<path d="M135.584 136.22C135.406 133.285 134.814 131.366 134.349 130.274C134.274 130.098 134.2 129.937 134.128 129.791C133.685 131.717 132.548 133.636 132.487 133.738L131.987 134.576L131.549 133.704C131.036 132.683 129.434 130.064 128.662 128.813L125.092 133.861L120.876 128.072L115.777 132.947L115.412 132.662C114.722 132.122 113.236 129.097 112.484 127.503C111.703 128.301 110.236 130.1 108.98 131.755L108.58 132.282L108.147 131.78C107.424 130.938 107.074 128.927 106.916 127.571C105.35 129.771 104.108 133.338 104.094 133.38L103.081 133.031C103.153 132.823 104.862 127.916 106.957 125.856L107.799 125.028L107.868 126.207C107.937 127.412 108.193 129.365 108.621 130.462C109.638 129.15 111.677 126.585 112.409 126.173L112.915 125.888L113.159 126.415C114.058 128.366 115.191 130.581 115.782 131.46L121.021 126.451L125.079 132.024L128.719 126.876L129.145 127.56C129.236 127.705 131.026 130.577 132.025 132.338C132.539 131.313 133.293 129.564 133.229 128.251L133.159 126.846L134.146 127.849C134.233 127.938 136.286 130.091 136.653 136.155L135.584 136.22Z" fill="#00DDDE"/>
</g>
<mask id="mask24_2011_77264" style="mask-type:luminance" maskUnits="userSpaceOnUse" x="107" y="99" width="32" height="46">
<path d="M138.135 127.732C138.94 137.453 132.048 143.671 124.084 144.33C116.12 144.989 108.738 139.452 107.933 129.73C106.78 115.804 112.447 100.62 120.411 99.9611C128.375 99.302 137.003 114.052 138.135 127.732Z" fill="white"/>
</mask>
<g mask="url(#mask24_2011_77264)">
<path opacity="0.37" d="M126.035 121.966C128.651 121.75 130.473 117.959 130.104 113.5C129.735 109.041 127.315 105.602 124.698 105.819C122.081 106.035 120.26 109.826 120.629 114.285C120.998 118.744 123.418 122.183 126.035 121.966Z" fill="white"/>
</g>
<mask id="mask25_2011_77264" style="mask-type:luminance" maskUnits="userSpaceOnUse" x="105" y="99" width="31" height="45">
<path d="M135.814 129.552C135.092 139.279 127.315 144.345 119.346 143.754C111.377 143.163 104.95 136.542 105.671 126.815C106.705 112.879 114.67 98.7664 122.639 99.3574C130.608 99.9487 136.829 115.863 135.814 129.552Z" fill="white"/>
</mask>
<g mask="url(#mask25_2011_77264)">
<path opacity="0.03" d="M145.076 128.834C145.857 136.572 137.425 142.349 128.832 142.002C128.029 142.35 127.189 142.568 126.315 142.64C119.109 143.236 112.444 133.765 111.428 121.484C110.615 111.667 113.659 103.027 118.595 99.6518C121.087 94.5929 123.358 91.2188 123.358 91.2188L113.478 95.9321L106.634 106.619L103.98 126.089L103.031 138.878L111.345 145.091L130.096 147.238L140.009 146.158L148.468 138.163L145.076 128.834Z" fill="#242E36"/>
</g>
<mask id="mask26_2011_77264" style="mask-type:luminance" maskUnits="userSpaceOnUse" x="105" y="99" width="31" height="45">
<path d="M135.814 129.552C135.092 139.279 127.315 144.345 119.346 143.754C111.377 143.163 104.95 136.542 105.671 126.815C106.705 112.879 114.67 98.7664 122.639 99.3574C130.608 99.9487 136.829 115.863 135.814 129.552Z" fill="white"/>
</mask>
<g mask="url(#mask26_2011_77264)">
<path opacity="0.27" d="M137.275 119.038C136.259 106.758 129.593 97.2859 122.387 97.8823C120.942 98.0017 119.585 98.5182 118.347 99.3651C113.412 102.741 110.368 111.38 111.18 121.198C112.197 133.478 118.862 142.95 126.067 142.353C126.941 142.281 127.782 142.063 128.584 141.716C134.401 139.198 138.168 129.83 137.275 119.038Z" fill="white"/>
</g>
<mask id="mask27_2011_77264" style="mask-type:luminance" maskUnits="userSpaceOnUse" x="124" y="98" width="28" height="40">
<path d="M151.093 124.774C150.465 133.239 143.698 137.647 136.764 137.132C129.83 136.618 124.237 130.857 124.864 122.392C125.764 110.266 132.695 97.9861 139.629 98.5003C146.563 99.0148 151.977 112.863 151.093 124.774Z" fill="white"/>
</mask>
<g mask="url(#mask27_2011_77264)">
<path d="M156.448 95.1015L122.286 92.5679L118.744 140.326L152.907 142.859L156.448 95.1015Z" fill="#FFB41B"/>
</g>
<mask id="mask28_2011_77264" style="mask-type:luminance" maskUnits="userSpaceOnUse" x="124" y="98" width="28" height="40">
<path d="M151.093 124.774C150.465 133.239 143.698 137.647 136.764 137.132C129.83 136.618 124.237 130.857 124.864 122.392C125.764 110.266 132.695 97.9861 139.629 98.5003C146.563 99.0148 151.977 112.863 151.093 124.774Z" fill="white"/>
</mask>
<g mask="url(#mask28_2011_77264)">
<path d="M150.671 114.686C150.522 112.228 150.015 110.671 149.59 109.769C149.222 111.247 148.373 112.681 148.326 112.76L147.89 113.489L147.509 112.73C147.115 111.946 145.901 109.957 145.282 108.954L142.485 112.911L139.17 108.359L135.179 112.176L134.861 111.927C134.321 111.505 133.178 109.19 132.579 107.922C131.961 108.564 130.842 109.94 129.879 111.207L129.531 111.667L129.155 111.229C128.601 110.586 128.324 109.087 128.192 108.021C127.002 109.746 126.064 112.438 126.053 112.47L125.172 112.166C125.228 112.002 126.573 108.142 128.224 106.519L128.957 105.798L129.016 106.824C129.069 107.74 129.259 109.209 129.575 110.073C130.431 108.969 131.941 107.081 132.512 106.76L132.952 106.512L133.164 106.971C133.853 108.467 134.72 110.166 135.188 110.877L139.297 106.949L142.474 111.312L145.333 107.269L145.704 107.864C145.773 107.976 147.13 110.152 147.921 111.54C148.321 110.731 148.871 109.422 148.823 108.433L148.762 107.21L149.62 108.083C149.689 108.153 151.312 109.855 151.601 114.63L150.671 114.686Z" fill="#FF5D7C"/>
</g>
<mask id="mask29_2011_77264" style="mask-type:luminance" maskUnits="userSpaceOnUse" x="124" y="98" width="28" height="40">
<path d="M151.093 124.774C150.465 133.239 143.698 137.647 136.764 137.132C129.83 136.618 124.237 130.857 124.864 122.392C125.764 110.266 132.695 97.9861 139.629 98.5003C146.563 99.0148 151.977 112.863 151.093 124.774Z" fill="white"/>
</mask>
<g mask="url(#mask29_2011_77264)">
<path d="M150.629 120.792C150.485 118.413 150.002 116.859 149.623 115.974C149.5 115.687 149.379 115.45 149.271 115.259C149.003 116.886 147.953 118.659 147.901 118.747L147.628 119.202L147.39 118.728C146.952 117.856 145.531 115.541 144.969 114.633L142.108 118.68L138.758 114.081L134.656 118.003L134.458 117.848C133.899 117.412 132.588 114.693 132.076 113.601C131.413 114.23 129.988 116.012 129.125 117.149L128.907 117.436L128.672 117.163C128.051 116.44 127.785 114.567 127.682 113.528C126.321 115.268 125.212 118.45 125.2 118.486L124.649 118.295C124.706 118.131 126.062 114.239 127.713 112.615L128.171 112.165L128.209 112.806C128.253 113.573 128.46 115.535 128.914 116.465C129.616 115.555 131.443 113.227 132.042 112.89L132.317 112.735L132.449 113.021C133.072 114.372 134.137 116.518 134.65 117.203L138.838 113.2L142.101 117.68L145 113.579L145.232 113.951C145.308 114.073 146.895 116.62 147.655 117.986C148.061 117.209 148.806 115.609 148.747 114.425L148.71 113.661L149.246 114.206C149.314 114.275 150.921 115.961 151.211 120.756L150.629 120.792Z" fill="white"/>
</g>
<mask id="mask30_2011_77264" style="mask-type:luminance" maskUnits="userSpaceOnUse" x="124" y="98" width="28" height="40">
<path d="M151.093 124.774C150.465 133.239 143.698 137.647 136.764 137.132C129.83 136.618 124.237 130.857 124.864 122.392C125.764 110.266 132.695 97.9861 139.629 98.5003C146.563 99.0148 151.977 112.863 151.093 124.774Z" fill="white"/>
</mask>
<g mask="url(#mask30_2011_77264)">
<path d="M148.837 106.339C148.723 104.449 148.339 103.214 148.038 102.511C147.94 102.283 147.844 102.095 147.758 101.943C147.545 103.236 146.711 104.644 146.67 104.714L146.453 105.076L146.264 104.699C145.916 104.007 144.787 102.167 144.34 101.446L142.067 104.661L139.407 101.008L136.148 104.124L135.99 104.001C135.546 103.654 134.505 101.494 134.098 100.627C133.571 101.126 132.439 102.542 131.754 103.445L131.581 103.673L131.394 103.456C130.901 102.882 130.689 101.394 130.608 100.569C129.526 101.951 128.645 104.479 128.636 104.507L128.198 104.356C128.244 104.225 129.321 101.133 130.633 99.8432L130.996 99.4854L131.026 99.995C131.061 100.605 131.226 102.163 131.587 102.902C132.144 102.179 133.595 100.329 134.071 100.062L134.29 99.9385L134.395 100.166C134.889 101.239 135.736 102.944 136.143 103.489L139.47 100.308L142.062 103.868L144.365 100.61L144.55 100.905C144.61 101.002 145.871 103.025 146.474 104.11C146.797 103.493 147.389 102.222 147.342 101.281L147.312 100.674L147.738 101.108C147.793 101.163 149.069 102.501 149.299 106.311L148.837 106.339Z" fill="white"/>
</g>
<mask id="mask31_2011_77264" style="mask-type:luminance" maskUnits="userSpaceOnUse" x="124" y="98" width="28" height="40">
<path d="M151.093 124.774C150.465 133.239 143.698 137.647 136.764 137.132C129.83 136.618 124.237 130.857 124.864 122.392C125.764 110.266 132.695 97.9861 139.629 98.5003C146.563 99.0148 151.977 112.863 151.093 124.774Z" fill="white"/>
</mask>
<g mask="url(#mask31_2011_77264)">
<path d="M151.136 136.946C150.97 134.217 150.417 132.435 149.982 131.42C149.84 131.09 149.702 130.819 149.578 130.599C149.27 132.467 148.066 134.5 148.006 134.6L147.694 135.123L147.421 134.579C146.919 133.578 145.288 130.924 144.643 129.882L141.361 134.524L137.52 129.25L132.815 133.748L132.587 133.57C131.947 133.07 130.443 129.951 129.855 128.699C129.095 129.419 127.46 131.464 126.471 132.768L126.221 133.097L125.951 132.783C125.239 131.955 124.934 129.807 124.816 128.615C123.255 130.609 121.982 134.261 121.968 134.301L121.337 134.083C121.402 133.894 122.957 129.43 124.851 127.568L125.377 127.051L125.419 127.787C125.47 128.667 125.708 130.917 126.229 131.984C127.033 130.939 129.129 128.27 129.816 127.883L130.131 127.705L130.283 128.034C130.997 129.583 132.219 132.044 132.807 132.83L137.61 128.238L141.353 133.377L144.679 128.674L144.945 129.101C145.032 129.24 146.853 132.161 147.724 133.728C148.19 132.837 149.044 131.002 148.977 129.643L148.934 128.767L149.549 129.393C149.627 129.472 151.469 131.405 151.802 136.905L151.136 136.946Z" fill="white"/>
</g>
<mask id="mask32_2011_77264" style="mask-type:luminance" maskUnits="userSpaceOnUse" x="124" y="98" width="28" height="40">
<path d="M151.093 124.774C150.465 133.239 143.698 137.647 136.764 137.132C129.83 136.618 124.237 130.857 124.864 122.392C125.764 110.266 132.695 97.9861 139.629 98.5003C146.563 99.0148 151.977 112.863 151.093 124.774Z" fill="white"/>
</mask>
<g mask="url(#mask32_2011_77264)">
<path d="M150.893 130.576C150.738 128.022 150.223 126.353 149.819 125.402C149.753 125.249 149.689 125.109 149.626 124.982C149.24 126.658 148.252 128.328 148.198 128.417L147.763 129.146L147.382 128.387C146.936 127.498 145.542 125.22 144.87 124.131L141.764 128.523L138.095 123.486L133.658 127.728L133.341 127.48C132.74 127.011 131.447 124.379 130.793 122.991C130.113 123.686 128.837 125.251 127.744 126.691L127.395 127.15L127.019 126.713C126.39 125.981 126.085 124.231 125.947 123.051C124.585 124.965 123.504 128.069 123.492 128.105L122.611 127.801C122.673 127.62 124.161 123.35 125.984 121.558L126.716 120.838L126.776 121.864C126.836 122.912 127.059 124.612 127.432 125.566C128.316 124.424 130.09 122.193 130.728 121.834L131.168 121.586L131.38 122.045C132.163 123.742 133.148 125.67 133.663 126.434L138.221 122.076L141.753 126.925L144.919 122.446L145.291 123.041C145.369 123.167 146.927 125.666 147.796 127.198C148.243 126.306 148.9 124.785 148.844 123.642L148.783 122.42L149.641 123.292C149.717 123.369 151.504 125.243 151.823 130.52L150.893 130.576Z" fill="#00DDDE"/>
</g>
<mask id="mask33_2011_77264" style="mask-type:luminance" maskUnits="userSpaceOnUse" x="126" y="99" width="28" height="39">
<path d="M153.113 123.191C153.814 131.65 147.816 137.06 140.887 137.633C133.957 138.207 127.533 133.388 126.833 124.929C125.83 112.811 130.76 99.5994 137.69 99.0256C144.62 98.4522 152.128 111.287 153.113 123.191Z" fill="white"/>
</mask>
<g mask="url(#mask33_2011_77264)">
<path opacity="0.37" d="M142.584 118.174C144.861 117.985 146.446 114.687 146.125 110.807C145.804 106.927 143.697 103.934 141.421 104.123C139.144 104.311 137.559 107.609 137.88 111.489C138.201 115.37 140.307 118.362 142.584 118.174Z" fill="white"/>
</g>
<mask id="mask34_2011_77264" style="mask-type:luminance" maskUnits="userSpaceOnUse" x="124" y="98" width="28" height="40">
<path d="M151.093 124.774C150.465 133.239 143.698 137.647 136.764 137.132C129.83 136.618 124.237 130.857 124.864 122.392C125.764 110.266 132.695 97.9861 139.629 98.5003C146.563 99.0148 151.977 112.863 151.093 124.774Z" fill="white"/>
</mask>
<g mask="url(#mask34_2011_77264)">
<path opacity="0.03" d="M159.152 124.15C159.832 130.883 152.495 135.909 145.017 135.608C144.319 135.91 143.588 136.1 142.828 136.163C136.557 136.682 130.758 128.44 129.873 117.754C129.167 109.211 131.815 101.694 136.11 98.7565C138.278 94.3545 140.254 91.4185 140.254 91.4185L131.657 95.5198L125.702 104.819L123.392 121.761L122.567 132.889L129.801 138.296L146.117 140.164L154.743 139.224L162.104 132.267L159.152 124.15Z" fill="#242E36"/>
</g>
<mask id="mask35_2011_77264" style="mask-type:luminance" maskUnits="userSpaceOnUse" x="124" y="98" width="28" height="40">
<path d="M151.093 124.774C150.465 133.239 143.698 137.647 136.764 137.132C129.83 136.618 124.237 130.857 124.864 122.392C125.764 110.266 132.695 97.9861 139.629 98.5003C146.563 99.0148 151.977 112.863 151.093 124.774Z" fill="white"/>
</mask>
<g mask="url(#mask35_2011_77264)">
<path opacity="0.27" d="M152.364 115.625C151.48 104.94 145.68 96.6978 139.41 97.2167C138.153 97.3207 136.972 97.7701 135.895 98.507C131.6 101.444 128.951 108.962 129.658 117.505C130.542 128.19 136.342 136.432 142.612 135.913C143.372 135.85 144.104 135.661 144.802 135.358C149.863 133.168 153.141 125.016 152.364 115.625Z" fill="white"/>
</g>
<mask id="mask36_2011_77264" style="mask-type:luminance" maskUnits="userSpaceOnUse" x="135" y="101" width="27" height="36">
<path d="M159.515 128.272C156.72 135.688 149.495 137.851 143.421 135.561C137.346 133.271 133.856 126.635 136.651 119.22C140.656 108.596 150.103 99.4257 156.178 101.716C162.253 104.006 163.449 117.837 159.515 128.272Z" fill="white"/>
</mask>
<g mask="url(#mask36_2011_77264)">
<path d="M172.14 103.109L142.21 91.8268L126.439 133.667L156.368 144.949L172.14 103.109Z" fill="#FFB41B"/>
</g>
<mask id="mask37_2011_77264" style="mask-type:luminance" maskUnits="userSpaceOnUse" x="135" y="101" width="27" height="36">
<path d="M159.515 128.272C156.72 135.688 149.495 137.851 143.421 135.561C137.346 133.271 133.856 126.635 136.651 119.22C140.656 108.596 150.103 99.4257 156.178 101.716C162.253 104.006 163.449 117.837 159.515 128.272Z" fill="white"/>
</mask>
<g mask="url(#mask37_2011_77264)">
<path d="M161.798 119.125C162.313 116.884 162.27 115.356 162.127 114.436C161.408 115.663 160.269 116.724 160.206 116.781L159.624 117.319L159.483 116.539C159.337 115.733 158.773 113.632 158.484 112.57L154.935 115.376L153.167 110.425L148.585 112.79L148.366 112.484C147.993 111.963 147.581 109.589 147.378 108.294C146.656 108.706 145.29 109.643 144.094 110.525L143.661 110.844L143.439 110.353C143.113 109.63 143.26 108.215 143.423 107.226C141.902 108.456 140.352 110.62 140.334 110.646L139.625 110.141C139.718 110.009 141.941 106.907 143.848 105.888L144.695 105.436L144.477 106.371C144.283 107.206 144.066 108.571 144.121 109.428C145.178 108.665 147.029 107.373 147.625 107.236L148.085 107.129L148.153 107.596C148.376 109.119 148.704 110.869 148.936 111.63L153.652 109.195L155.347 113.941L158.974 111.074L159.149 111.705C159.182 111.823 159.823 114.13 160.166 115.582C160.736 114.963 161.575 113.936 161.792 113.037L162.061 111.926L162.599 112.934C162.642 113.015 163.647 114.967 162.646 119.32L161.798 119.125Z" fill="#FF5D7C"/>
</g>
<mask id="mask38_2011_77264" style="mask-type:luminance" maskUnits="userSpaceOnUse" x="135" y="101" width="27" height="36">
<path d="M159.515 128.272C156.72 135.688 149.495 137.851 143.421 135.561C137.346 133.271 133.856 126.635 136.651 119.22C140.656 108.596 150.103 99.4257 156.178 101.716C162.253 104.006 163.449 117.837 159.515 128.272Z" fill="white"/>
</mask>
<g mask="url(#mask38_2011_77264)">
<path d="M160.15 124.583C160.648 122.415 160.626 120.895 160.52 120.002C160.485 119.713 160.44 119.469 160.393 119.269C159.724 120.656 158.316 121.967 158.246 122.032L157.882 122.368L157.794 121.88C157.631 120.984 156.969 118.535 156.705 117.574L153.075 120.443L151.288 115.441L146.579 117.872L146.443 117.681C146.057 117.142 145.6 114.361 145.43 113.248C144.67 113.636 142.923 114.857 141.851 115.647L141.58 115.847L141.442 115.54C141.076 114.729 141.332 112.981 141.514 112.024C139.835 113.222 138.003 115.781 137.983 115.809L137.54 115.493C137.634 115.361 139.875 112.233 141.782 111.214L142.312 110.932L142.176 111.516C142.013 112.215 141.681 114.027 141.842 114.98C142.711 114.349 144.961 112.746 145.587 112.602L145.874 112.536L145.917 112.827C146.118 114.201 146.506 116.404 146.785 117.154L151.592 114.672L153.332 119.546L157.011 116.638L157.121 117.032C157.157 117.162 157.906 119.861 158.226 121.285C158.795 120.697 159.884 119.46 160.144 118.384L160.312 117.69L160.649 118.32C160.691 118.4 161.686 120.333 160.681 124.704L160.15 124.583Z" fill="white"/>
</g>
<mask id="mask39_2011_77264" style="mask-type:luminance" maskUnits="userSpaceOnUse" x="135" y="101" width="27" height="36">
<path d="M159.515 128.272C156.72 135.688 149.495 137.851 143.421 135.561C137.346 133.271 133.856 126.635 136.651 119.22C140.656 108.596 150.103 99.4257 156.178 101.716C162.253 104.006 163.449 117.837 159.515 128.272Z" fill="white"/>
</mask>
<g mask="url(#mask39_2011_77264)">
<path d="M162.358 111.165C162.754 109.443 162.736 108.236 162.652 107.526C162.624 107.296 162.588 107.102 162.551 106.944C162.019 108.046 160.901 109.087 160.845 109.138L160.556 109.406L160.486 109.018C160.357 108.306 159.831 106.361 159.621 105.597L156.737 107.877L155.318 103.903L151.577 105.834L151.468 105.682C151.162 105.255 150.799 103.045 150.664 102.161C150.06 102.469 148.673 103.439 147.821 104.067L147.605 104.225L147.496 103.982C147.205 103.337 147.408 101.949 147.553 101.188C146.219 102.141 144.764 104.173 144.748 104.195L144.396 103.945C144.471 103.839 146.251 101.354 147.767 100.545L148.187 100.321L148.079 100.785C147.95 101.34 147.686 102.779 147.814 103.536C148.504 103.036 150.292 101.762 150.789 101.648L151.017 101.595L151.051 101.827C151.211 102.918 151.519 104.669 151.74 105.264L155.559 103.293L156.942 107.165L159.864 104.854L159.951 105.168C159.98 105.27 160.576 107.415 160.83 108.546C161.282 108.078 162.147 107.096 162.353 106.241L162.487 105.69L162.754 106.19C162.788 106.254 163.578 107.789 162.779 111.262L162.358 111.165Z" fill="white"/>
</g>
<mask id="mask40_2011_77264" style="mask-type:luminance" maskUnits="userSpaceOnUse" x="135" y="101" width="27" height="36">
<path d="M159.515 128.272C156.72 135.688 149.495 137.851 143.421 135.561C137.346 133.271 133.856 126.635 136.651 119.22C140.656 108.596 150.103 99.4257 156.178 101.716C162.253 104.006 163.449 117.837 159.515 128.272Z" fill="white"/>
</mask>
<g mask="url(#mask40_2011_77264)">
<path d="M156.342 139.185C156.914 136.698 156.888 134.955 156.766 133.931C156.727 133.599 156.675 133.319 156.621 133.09C155.853 134.681 154.238 136.184 154.158 136.259L153.741 136.644L153.639 136.085C153.454 135.057 152.693 132.249 152.391 131.146L148.227 134.437L146.178 128.7L140.777 131.488L140.62 131.268C140.178 130.651 139.654 127.461 139.458 126.185C138.587 126.629 136.583 128.029 135.353 128.936L135.042 129.165L134.884 128.813C134.464 127.883 134.757 125.879 134.966 124.78C133.042 126.155 130.939 129.089 130.916 129.122L130.408 128.76C130.516 128.608 133.087 125.02 135.274 123.851L135.881 123.527L135.725 124.197C135.539 124.999 135.158 127.077 135.343 128.17C136.339 127.447 138.92 125.609 139.638 125.443L139.967 125.367L140.016 125.702C140.248 127.278 140.692 129.805 141.012 130.664L146.525 127.818L148.522 133.408L152.741 130.073L152.867 130.525C152.908 130.674 153.769 133.77 154.135 135.403C154.787 134.728 156.037 133.31 156.335 132.075L156.528 131.279L156.914 132.001C156.963 132.093 158.103 134.311 156.95 139.325L156.342 139.185Z" fill="white"/>
</g>
<mask id="mask41_2011_77264" style="mask-type:luminance" maskUnits="userSpaceOnUse" x="135" y="101" width="27" height="36">
<path d="M159.515 128.272C156.72 135.688 149.495 137.851 143.421 135.561C137.346 133.271 133.856 126.635 136.651 119.22C140.656 108.596 150.103 99.4257 156.178 101.716C162.253 104.006 163.449 117.837 159.515 128.272Z" fill="white"/>
</mask>
<g mask="url(#mask41_2011_77264)">
<path d="M157.805 133.416C158.34 131.088 158.32 129.457 158.208 128.498C158.19 128.344 158.169 128.202 158.147 128.072C157.359 129.471 156.033 130.706 155.961 130.771L155.379 131.309L155.238 130.529C155.073 129.616 154.426 127.207 154.111 126.054L150.17 129.169L148.213 123.69L143.12 126.319L142.901 126.013C142.487 125.434 142.023 122.735 141.804 121.32C141.011 121.762 139.455 122.828 138.096 123.829L137.663 124.148L137.442 123.658C137.071 122.836 137.26 121.188 137.448 120.095C135.723 121.45 133.936 123.945 133.915 123.974L133.206 123.47C133.31 123.324 135.768 119.892 137.874 118.768L138.72 118.316L138.503 119.25C138.281 120.205 138.032 121.786 138.113 122.74C139.207 121.95 141.385 120.419 142.05 120.266L142.51 120.16L142.579 120.627C142.832 122.354 143.206 124.34 143.466 125.161L148.698 122.46L150.582 127.734L154.6 124.558L154.775 125.189C154.812 125.323 155.548 127.972 155.923 129.574C156.559 128.893 157.548 127.704 157.799 126.665L158.067 125.554L158.606 126.562C158.653 126.651 159.759 128.801 158.653 133.611L157.805 133.416Z" fill="#00DDDE"/>
</g>
<mask id="mask42_2011_77264" style="mask-type:luminance" maskUnits="userSpaceOnUse" x="137" y="101" width="26" height="37">
<path d="M161.742 127.387C160.138 135.148 153.339 138.411 146.981 137.097C140.623 135.783 136.141 129.772 137.745 122.011C140.044 110.893 147.945 100.36 154.303 101.675C160.661 102.989 164 116.465 161.742 127.387Z" fill="white"/>
</mask>
<g mask="url(#mask42_2011_77264)">
<path opacity="0.37" d="M153.635 120.116C155.724 120.548 158.014 118.012 158.75 114.452C159.486 110.892 158.389 107.656 156.3 107.224C154.211 106.792 151.921 109.328 151.185 112.888C150.449 116.448 151.546 119.684 153.635 120.116Z" fill="white"/>
</g>
<mask id="mask43_2011_77264" style="mask-type:luminance" maskUnits="userSpaceOnUse" x="135" y="101" width="27" height="36">
<path d="M159.515 128.272C156.72 135.688 149.495 137.851 143.421 135.561C137.346 133.271 133.856 126.635 136.651 119.22C140.656 108.596 150.103 99.4257 156.178 101.716C162.253 104.006 163.449 117.837 159.515 128.272Z" fill="white"/>
</mask>
<g mask="url(#mask43_2011_77264)">
<path opacity="0.03" d="M166.898 129.839C165.731 136.049 157.833 138.615 151.215 136.373C150.51 136.459 149.805 136.436 149.107 136.292C143.355 135.103 140.334 126.191 142.361 116.387C143.982 108.549 148.338 102.514 152.959 101.017C156.062 97.646 158.607 95.5377 158.607 95.5377L149.825 96.943L142.038 103.701L135.5 118.266L131.825 128.015L136.877 134.766L150.998 140.744L158.972 142.178L167.401 137.888L166.898 129.839Z" fill="#242E36"/>
</g>
<mask id="mask44_2011_77264" style="mask-type:luminance" maskUnits="userSpaceOnUse" x="135" y="101" width="27" height="36">
<path d="M159.515 128.272C156.72 135.688 149.495 137.851 143.421 135.561C137.346 133.271 133.856 126.635 136.651 119.22C140.656 108.596 150.103 99.4257 156.178 101.716C162.253 104.006 163.449 117.837 159.515 128.272Z" fill="white"/>
</mask>
<g mask="url(#mask44_2011_77264)">
<path opacity="0.27" d="M163.067 120.413C165.094 110.609 162.074 101.698 156.321 100.508C155.167 100.27 153.991 100.361 152.832 100.736C148.211 102.234 143.855 108.269 142.234 116.106C140.207 125.911 143.228 134.823 148.98 136.012C149.678 136.156 150.383 136.179 151.088 136.093C156.199 135.466 161.286 129.029 163.067 120.413Z" fill="white"/>
</g>
<mask id="mask45_2011_77264" style="mask-type:luminance" maskUnits="userSpaceOnUse" x="96" y="105" width="26" height="38">
<path d="M121.78 130.633C121.169 138.867 114.586 143.156 107.84 142.655C101.094 142.155 95.6528 136.55 96.2635 128.316C97.1383 116.519 103.881 104.572 110.627 105.072C117.373 105.573 122.639 119.045 121.78 130.633Z" fill="white"/>
</mask>
<g mask="url(#mask45_2011_77264)">
<path d="M126.99 101.766L93.755 99.3009L90.3093 145.762L123.544 148.227L126.99 101.766Z" fill="#FFB41B"/>
</g>
<mask id="mask46_2011_77264" style="mask-type:luminance" maskUnits="userSpaceOnUse" x="96" y="105" width="26" height="38">
<path d="M121.78 130.633C121.169 138.867 114.586 143.156 107.84 142.655C101.094 142.155 95.6528 136.55 96.2635 128.316C97.1383 116.519 103.881 104.572 110.627 105.072C117.373 105.573 122.639 119.045 121.78 130.633Z" fill="white"/>
</mask>
<g mask="url(#mask46_2011_77264)">
<path d="M121.369 120.818C121.224 118.427 120.731 116.912 120.318 116.035C119.96 117.473 119.134 118.868 119.088 118.944L118.664 119.654L118.294 118.915C117.91 118.153 116.729 116.218 116.127 115.242L113.406 119.091L110.181 114.664L106.298 118.376L105.989 118.135C105.463 117.724 104.352 115.472 103.768 114.238C103.167 114.863 102.079 116.201 101.142 117.434L100.803 117.881L100.438 117.456C99.8987 116.829 99.629 115.371 99.501 114.335C98.3429 116.012 97.4301 118.631 97.4196 118.662L96.5624 118.366C96.6172 118.207 97.9256 114.452 99.5321 112.873L100.245 112.172L100.303 113.17C100.354 114.061 100.539 115.49 100.846 116.331C101.679 115.256 103.148 113.42 103.703 113.107L104.131 112.866L104.337 113.312C105.008 114.768 105.852 116.421 106.307 117.113L110.304 113.291L113.395 117.536L116.176 113.603L116.537 114.181C116.605 114.29 117.924 116.407 118.694 117.758C119.083 116.971 119.619 115.697 119.571 114.735L119.513 113.546L120.347 114.395C120.414 114.463 121.993 116.118 122.274 120.763L121.369 120.818Z" fill="#FF5D7C"/>
</g>
<mask id="mask47_2011_77264" style="mask-type:luminance" maskUnits="userSpaceOnUse" x="96" y="105" width="26" height="38">
<path d="M121.78 130.633C121.169 138.867 114.586 143.156 107.84 142.655C101.094 142.155 95.6528 136.55 96.2635 128.316C97.1383 116.519 103.881 104.572 110.627 105.072C117.373 105.573 122.639 119.045 121.78 130.633Z" fill="white"/>
</mask>
<g mask="url(#mask47_2011_77264)">
<path d="M121.328 126.758C121.188 124.444 120.719 122.932 120.35 122.071C120.23 121.792 120.113 121.561 120.007 121.376C119.747 122.959 118.725 124.684 118.674 124.769L118.409 125.212L118.178 124.751C117.752 123.902 116.369 121.65 115.822 120.767L113.038 124.704L109.78 120.23L105.789 124.046L105.597 123.895C105.053 123.47 103.777 120.825 103.28 119.763C102.634 120.374 101.248 122.109 100.409 123.214L100.197 123.494L99.9679 123.228C99.3635 122.525 99.1048 120.703 99.0048 119.692C97.68 121.384 96.6018 124.48 96.5899 124.515L96.0542 124.33C96.1095 124.169 97.4285 120.384 99.035 118.804L99.4806 118.366L99.5168 118.989C99.5597 119.736 99.7615 121.645 100.203 122.55C100.886 121.664 102.663 119.399 103.246 119.071L103.514 118.92L103.642 119.199C104.248 120.513 105.284 122.601 105.783 123.267L109.857 119.372L113.032 123.731L115.852 119.742L116.078 120.104C116.152 120.222 117.696 122.699 118.435 124.029C118.83 123.273 119.555 121.716 119.498 120.564L119.461 119.821L119.983 120.351C120.049 120.419 121.612 122.058 121.895 126.723L121.328 126.758Z" fill="white"/>
</g>
<mask id="mask48_2011_77264" style="mask-type:luminance" maskUnits="userSpaceOnUse" x="96" y="105" width="26" height="38">
<path d="M121.78 130.633C121.169 138.867 114.586 143.156 107.84 142.655C101.094 142.155 95.6528 136.55 96.2635 128.316C97.1383 116.519 103.881 104.572 110.627 105.072C117.373 105.573 122.639 119.045 121.78 130.633Z" fill="white"/>
</mask>
<g mask="url(#mask48_2011_77264)">
<path d="M119.585 112.698C119.474 110.86 119.101 109.658 118.808 108.974C118.712 108.752 118.619 108.569 118.536 108.421C118.329 109.68 117.517 111.05 117.477 111.117L117.266 111.469L117.082 111.103C116.744 110.429 115.645 108.64 115.211 107.938L112.999 111.066L110.411 107.512L107.241 110.543L107.087 110.423C106.655 110.086 105.642 107.985 105.247 107.141C104.734 107.626 103.633 109.004 102.966 109.883L102.797 110.104L102.616 109.893C102.136 109.335 101.93 107.887 101.851 107.084C100.798 108.429 99.9419 110.888 99.9326 110.916L99.5069 110.769C99.5509 110.641 100.599 107.634 101.875 106.379L102.229 106.031L102.258 106.526C102.292 107.119 102.452 108.636 102.803 109.354C103.345 108.651 104.757 106.852 105.22 106.591L105.433 106.471L105.535 106.693C106.016 107.737 106.839 109.395 107.236 109.925L110.472 106.831L112.994 110.294L115.235 107.124L115.414 107.412C115.473 107.506 116.7 109.474 117.287 110.53C117.601 109.929 118.177 108.693 118.131 107.777L118.102 107.187L118.516 107.609C118.569 107.662 119.81 108.965 120.035 112.671L119.585 112.698Z" fill="white"/>
</g>
<mask id="mask49_2011_77264" style="mask-type:luminance" maskUnits="userSpaceOnUse" x="96" y="105" width="26" height="38">
<path d="M121.78 130.633C121.169 138.867 114.586 143.156 107.84 142.655C101.094 142.155 95.6528 136.55 96.2635 128.316C97.1383 116.519 103.881 104.572 110.627 105.072C117.373 105.573 122.639 119.045 121.78 130.633Z" fill="white"/>
</mask>
<g mask="url(#mask49_2011_77264)">
<path d="M121.821 142.474C121.661 139.82 121.122 138.085 120.699 137.098C120.561 136.777 120.427 136.513 120.306 136.3C120.007 138.116 118.835 140.094 118.777 140.192L118.473 140.7L118.208 140.171C117.719 139.198 116.132 136.615 115.505 135.602L112.313 140.118L108.576 134.986L103.998 139.363L103.777 139.19C103.153 138.703 101.69 135.669 101.119 134.451C100.379 135.152 98.7887 137.141 97.8261 138.409L97.583 138.729L97.3207 138.424C96.6276 137.619 96.3308 135.529 96.2162 134.369C94.6973 136.31 93.4597 139.862 93.4462 139.901L92.8315 139.689C92.8952 139.505 94.4079 135.162 96.2507 133.35L96.7618 132.848L96.8032 133.563C96.8525 134.42 97.084 136.609 97.5908 137.647C98.3736 136.631 100.412 134.033 101.08 133.657L101.387 133.484L101.535 133.804C102.23 135.311 103.418 137.705 103.991 138.47L108.663 134.003L112.305 139.002L115.54 134.427L115.799 134.842C115.884 134.978 117.655 137.819 118.502 139.343C118.955 138.477 119.787 136.691 119.721 135.369L119.679 134.517L120.278 135.126C120.354 135.203 122.146 137.084 122.47 142.434L121.821 142.474Z" fill="white"/>
</g>
<mask id="mask50_2011_77264" style="mask-type:luminance" maskUnits="userSpaceOnUse" x="96" y="105" width="26" height="38">
<path d="M121.78 130.633C121.169 138.867 114.586 143.156 107.84 142.655C101.094 142.155 95.6528 136.55 96.2635 128.316C97.1383 116.519 103.881 104.572 110.627 105.072C117.373 105.573 122.639 119.045 121.78 130.633Z" fill="white"/>
</mask>
<g mask="url(#mask50_2011_77264)">
<path d="M121.585 136.277C121.435 133.793 120.934 132.168 120.54 131.244C120.477 131.095 120.414 130.959 120.353 130.835C119.978 132.466 119.016 134.09 118.964 134.177L118.54 134.886L118.169 134.148C117.735 133.283 116.38 131.066 115.726 130.007L112.704 134.28L109.135 129.38L104.818 133.507L104.509 133.265C103.925 132.809 102.667 130.248 102.031 128.898C101.369 129.574 100.128 131.097 99.0646 132.497L98.7256 132.944L98.3597 132.519C97.7472 131.806 97.4511 130.104 97.3168 128.956C95.9917 130.818 94.9402 133.838 94.9282 133.873L94.0709 133.578C94.1315 133.402 95.5788 129.248 97.3523 127.504L98.0651 126.803L98.1227 127.801C98.1819 128.821 98.3985 130.475 98.7609 131.403C99.6211 130.292 101.347 128.121 101.967 127.772L102.396 127.531L102.602 127.977C103.364 129.629 104.322 131.504 104.823 132.248L109.258 128.008L112.693 132.725L115.774 128.368L116.135 128.947C116.211 129.069 117.727 131.501 118.573 132.991C119.008 132.123 119.646 130.643 119.592 129.531L119.533 128.342L120.368 129.191C120.441 129.266 122.179 131.089 122.49 136.223L121.585 136.277Z" fill="#00DDDE"/>
</g>
<mask id="mask51_2011_77264" style="mask-type:luminance" maskUnits="userSpaceOnUse" x="98" y="105" width="26" height="39">
<path d="M123.745 129.092C124.427 137.321 118.592 142.584 111.851 143.143C105.109 143.701 98.8599 139.013 98.1786 130.784C97.2025 118.994 101.999 106.141 108.741 105.583C115.483 105.025 122.786 117.511 123.745 129.092Z" fill="white"/>
</mask>
<g mask="url(#mask51_2011_77264)">
<path opacity="0.37" d="M113.502 124.211C115.717 124.028 117.259 120.819 116.947 117.045C116.634 113.27 114.585 110.358 112.37 110.542C110.155 110.725 108.613 113.934 108.926 117.709C109.238 121.483 111.287 124.395 113.502 124.211Z" fill="white"/>
</g>
<mask id="mask52_2011_77264" style="mask-type:luminance" maskUnits="userSpaceOnUse" x="96" y="105" width="26" height="38">
<path d="M121.78 130.633C121.169 138.867 114.586 143.156 107.84 142.655C101.094 142.155 95.6528 136.55 96.2635 128.316C97.1383 116.519 103.881 104.572 110.627 105.072C117.373 105.573 122.639 119.045 121.78 130.633Z" fill="white"/>
</mask>
<g mask="url(#mask52_2011_77264)">
<path opacity="0.03" d="M129.62 130.025C130.282 136.576 123.144 141.465 115.869 141.172C115.19 141.466 114.479 141.651 113.739 141.712C107.639 142.217 101.997 134.199 101.137 123.803C100.449 115.492 103.026 108.179 107.204 105.321C109.313 101.039 111.236 98.1827 111.236 98.1827L102.872 102.173L97.0783 111.22L94.8316 127.701L94.0287 138.527L101.066 143.787L116.939 145.605L125.331 144.69L132.493 137.922L129.62 130.025Z" fill="#242E36"/>
</g>
<mask id="mask53_2011_77264" style="mask-type:luminance" maskUnits="userSpaceOnUse" x="96" y="105" width="26" height="38">
<path d="M121.78 130.633C121.169 138.867 114.586 143.156 107.84 142.655C101.094 142.155 95.6528 136.55 96.2635 128.316C97.1383 116.519 103.881 104.572 110.627 105.072C117.373 105.573 122.639 119.045 121.78 130.633Z" fill="white"/>
</mask>
<g mask="url(#mask53_2011_77264)">
<path opacity="0.27" d="M123.017 121.732C122.156 111.337 116.514 103.319 110.414 103.823C109.191 103.925 108.042 104.362 106.994 105.079C102.816 107.936 100.239 115.25 100.927 123.56C101.787 133.956 107.43 141.974 113.529 141.469C114.269 141.408 114.981 141.223 115.66 140.93C120.584 138.798 123.773 130.868 123.017 121.732Z" fill="white"/>
</g>
<path d="M63.6998 126.104C61.9598 135.537 62.784 145.153 65.7145 154.31C73.865 180.044 102.529 183.157 113.335 182.883C131.925 182.425 147.127 173.45 153.63 162.369C162.329 147.35 161.322 126.562 159.124 126.013C158.025 125.738 156.926 126.104 155.919 126.379C149.051 128.302 133.024 133.247 112.053 132.698C81.0081 131.965 66.6303 125.463 65.3482 125.646C64.0661 125.921 63.0588 127.295 63.6998 126.104Z" fill="#CE965D"/>
<path d="M151.981 149.64C149.692 151.197 147.402 152.845 145.113 154.494C144.38 154.31 143.648 154.127 143.007 153.944C141.358 153.486 139.618 153.028 137.97 152.479C135.406 151.655 132.933 150.739 130.46 149.731C130.827 149.457 131.193 149.182 131.559 148.999C133.299 147.808 135.039 146.618 136.779 145.427C138.519 144.237 140.442 143.046 142.091 141.581C142.549 141.123 141.999 140.299 141.45 140.574C137.97 141.764 134.764 144.237 131.834 146.343C130.643 147.167 129.545 147.991 128.446 148.816C128.354 148.816 128.262 148.724 128.171 148.724C122.127 145.977 116.266 142.405 109.672 140.94C108.665 140.665 108.298 142.314 109.306 142.497C115.442 144.054 120.661 147.625 126.339 150.373C125.149 151.288 123.867 152.204 122.676 153.028C120.02 154.951 117.273 156.875 114.526 158.798C114.343 158.706 114.068 158.615 113.885 158.431C109.581 156.142 105.368 153.669 101.339 151.014C101.796 150.739 102.346 150.373 102.804 150.098C105.368 148.449 108.024 146.801 110.496 144.878C110.954 144.512 110.679 143.504 110.038 143.779C107.291 144.878 104.91 146.526 102.529 148.266C101.705 148.816 100.789 149.457 99.9648 150.006C98.5912 148.999 97.1259 147.991 95.8438 146.984C93.4628 145.153 91.1733 143.321 88.8839 141.306C89.067 141.123 89.2502 140.848 89.3418 140.574C89.4334 140.299 89.067 140.024 88.8839 140.116C88.6092 140.207 88.3344 140.391 88.0597 140.574C87.5102 140.024 86.8692 139.566 86.3197 139.017C85.7702 138.467 84.946 139.383 85.4955 139.933C86.045 140.39 86.5029 140.94 87.0523 141.398C86.5944 141.764 86.045 142.13 85.5871 142.405C84.305 143.229 83.0229 144.054 81.6492 144.786C80.0008 145.702 78.3524 146.435 76.6124 147.259C75.2388 145.427 73.8651 143.596 72.4914 141.764C72.0335 141.123 70.9346 141.764 71.3925 142.405C72.6746 144.237 73.9567 146.068 75.2388 147.808C74.6893 148.083 74.1398 148.266 73.5903 148.541C72.8577 148.907 73.224 150.098 73.9567 149.823C74.5977 149.548 75.3303 149.274 75.9714 148.999C78.5356 152.662 81.0997 156.234 84.0302 159.622C82.2903 160.446 80.4587 161.087 78.6271 161.728C77.8945 162.003 78.2608 163.102 78.9934 162.919C81.0082 162.278 83.0229 161.545 84.946 160.721C85.4039 161.179 85.7702 161.637 86.2281 162.186C89.1586 165.3 92.547 167.864 96.1185 170.245C95.2943 170.611 94.5617 170.886 93.7375 171.161C93.0965 171.344 93.3712 172.443 94.1038 172.26C95.2028 171.893 96.3017 171.527 97.4007 171.069C99.7817 172.534 102.254 173.908 104.818 175.19C106.742 176.198 108.665 177.113 110.496 178.029C112.419 178.945 114.343 179.952 116.357 180.685C116.815 180.868 117.273 180.135 116.815 179.769C113.976 177.571 110.496 175.923 107.2 174.274C104.635 172.901 102.071 171.527 99.5985 169.97C104.361 167.772 108.756 164.75 113.152 161.82C113.518 161.545 113.885 161.27 114.343 160.996C116.724 162.278 119.196 163.468 121.669 164.567C123.867 165.574 126.065 166.49 128.262 167.314C124.599 169.879 120.845 172.351 117.09 174.732C116.357 175.19 117.09 176.381 117.823 175.923C122.035 173.359 126.248 170.703 130.369 167.956C131.376 168.23 132.383 168.505 133.299 168.688C134.032 168.871 134.581 167.772 133.849 167.314C133.299 167.04 132.841 166.857 132.292 166.582C133.574 165.758 134.856 164.842 136.047 164.018C139.343 161.728 142.457 159.439 145.571 156.966C146.395 157.058 147.219 157.149 148.043 157.058C148.776 156.966 149.142 156.05 148.41 155.592C148.226 155.501 147.952 155.318 147.769 155.226C149.6 153.761 151.34 152.204 152.989 150.556C153.263 150.098 152.531 149.182 151.981 149.64ZM85.6787 158.798C83.8471 156.875 82.1987 154.86 80.5503 152.754C79.4513 151.288 78.3524 149.915 77.2535 148.449C78.9019 147.717 80.5503 146.893 82.1987 146.068C83.5724 145.336 84.946 144.512 86.2281 143.687C86.7776 143.321 87.3271 142.863 87.785 142.405C91.1733 145.519 94.6533 148.449 98.3164 151.105C97.1259 151.929 95.9354 152.754 94.6533 153.578C91.8144 155.409 88.7923 157.241 85.6787 158.798ZM104.635 165.574C102.529 166.857 100.423 168.047 98.2248 169.146C97.9501 168.963 97.6754 168.78 97.4007 168.597C94.287 166.582 91.2649 164.292 88.5176 161.637C87.8765 160.996 87.2355 160.355 86.5944 159.713C89.5249 158.248 92.2723 156.691 95.0196 154.951C96.5764 153.944 98.1333 153.028 99.6901 152.021C103.811 154.951 108.115 157.699 112.603 160.08C110.038 162.003 107.383 163.834 104.635 165.574ZM134.673 162.461C133.208 163.56 131.651 164.659 130.094 165.758C127.896 164.842 125.79 164.018 123.592 163.102C121.028 162.003 118.464 160.812 115.991 159.53C120.02 156.783 124.141 153.944 128.171 151.197C131.193 152.57 134.215 153.761 137.329 154.768C138.977 155.318 140.625 155.776 142.365 156.234C142.457 156.234 142.457 156.234 142.549 156.325C139.893 158.34 137.329 160.446 134.673 162.461Z" fill="#916332"/>
<path d="M161.139 143.504C161.139 145.702 159.216 147.442 157.018 147.167C143.281 145.61 127.988 144.512 111.137 144.603C94.2869 144.603 78.8102 145.702 65.0735 147.35C63.4251 147.534 61.9598 146.252 61.9598 144.603V137.094H161.047V143.504H161.139Z" fill="#DFA950"/>
<path d="M61.5021 125.372L160.406 125.005C164.07 125.005 167 128.027 167 131.782C167 135.537 164.07 138.559 160.498 138.559L61.5936 138.925C57.9305 138.925 55 135.903 55 132.148C55 128.485 57.8389 125.463 61.5021 125.372Z" fill="#B77437"/>
<path d="M111.137 140.965C111.137 140.965 118.189 131.166 125.241 131.624C132.292 132.082 133.391 142.064 130.369 146.642C128.079 150.122 120.936 149.939 112.145 144.078C112.145 144.078 108.573 143.62 111.137 140.965Z" fill="#FFCC79"/>
<g opacity="0.18">
<path d="M121.944 134.737C123.684 134.371 125.515 134.829 126.889 135.928C128.262 136.935 129.087 138.492 129.361 140.14C129.453 140.507 129.911 140.782 130.277 140.69C130.735 140.598 130.827 140.14 130.827 139.774C130.46 137.759 129.361 135.928 127.621 134.646C125.881 133.364 123.592 132.906 121.486 133.364C121.119 133.455 120.845 133.913 120.936 134.28C121.119 134.554 121.577 134.737 121.944 134.737Z" fill="white"/>
</g>
<path d="M110.771 141.423C110.771 141.423 103.72 131.624 96.6681 132.082C89.6166 132.54 88.5177 142.522 91.5397 147.1C93.8292 150.58 100.972 150.397 109.764 144.536C109.764 144.536 113.335 144.078 110.771 141.423Z" fill="#FFCC79"/>
<g opacity="0.18">
<path d="M100.423 133.73C98.3165 133.364 96.0271 133.73 94.2871 135.012C92.6387 136.203 91.4482 138.034 91.0819 140.141C90.9903 140.507 91.1734 140.965 91.6313 141.056C91.9976 141.148 92.4555 140.965 92.5471 140.507C92.8218 138.858 93.646 137.302 95.0197 136.294C96.3934 135.287 98.3165 134.829 99.9649 135.104C100.331 135.195 100.789 135.012 100.881 134.554C100.972 134.28 100.789 133.822 100.423 133.73Z" fill="white"/>
</g>
<path d="M112.145 141.697L120.478 137.851" stroke="#CE6B19" stroke-miterlimit="10" stroke-linecap="round"/>
<path d="M112.236 143.071L120.57 142.705" stroke="#CE6B19" stroke-miterlimit="10" stroke-linecap="round"/>
<path d="M110.313 141.789C110.313 141.789 101.979 139.683 101.521 139.408" stroke="#CE6B19" stroke-miterlimit="10" stroke-linecap="round"/>
<path d="M110.038 143.346C110.038 143.346 103.262 143.62 101.979 143.712" stroke="#CE6B19" stroke-miterlimit="10" stroke-linecap="round"/>
<path d="M114.068 142.522C114.159 144.17 112.877 145.544 111.229 145.544C109.581 145.635 108.207 144.353 108.207 142.705C108.115 141.056 109.397 139.683 111.046 139.683C112.694 139.591 114.068 140.873 114.068 142.522Z" fill="#E9A427"/>
<g filter="url(#filter0_f_2011_77264)">
<ellipse cx="109.5" cy="124" rx="55.5" ry="70" fill="#FBDD36" fill-opacity="0.3"/>
</g>
<defs>
<filter id="filter0_f_2011_77264" x="0" y="0" width="219" height="248" filterUnits="userSpaceOnUse" color-interpolation-filters="sRGB">
<feFlood flood-opacity="0" result="BackgroundImageFix"/>
<feBlend mode="normal" in="SourceGraphic" in2="BackgroundImageFix" result="shape"/>
<feGaussianBlur stdDeviation="27" result="effect1_foregroundBlur_2011_77264"/>
</filter>
</defs>
</svg>
