<svg width="120" height="120" viewBox="0 0 120 120" fill="none" xmlns="http://www.w3.org/2000/svg">
<path d="M105.172 40.0488C103.523 34.1878 101.692 28.2352 99.2192 22.7405C96.7466 17.3374 93.5414 12.3922 89.1456 8.45431C85.1162 4.88276 80.0794 2.50174 74.951 1.21965C64.7859 -1.34454 53.5217 0.212304 44.2724 5.15752C35.2061 9.91958 28.3378 17.8869 24.5831 27.5026C20.0042 39.3161 17.1653 52.0455 18.081 64.7748C18.1726 66.3317 18.3558 67.9801 18.6305 69.5369C18.9968 72.0095 22.7515 71.5516 22.4768 68.9874C21.1947 57.1739 23.301 45.0856 27.0557 33.913C28.7041 29.0594 30.6272 24.3889 33.6493 20.2679C36.3051 16.5132 39.5103 13.5827 43.3566 11.0185C51.1407 5.89014 61.1227 3.69227 70.3721 5.06594C75.1342 5.79856 79.8046 7.35539 83.7425 10.1027C88.0467 13.0332 91.2519 17.3374 93.633 21.9163C96.1971 26.8615 97.9371 32.173 99.5855 37.4846C100.501 40.5067 101.417 43.5287 102.058 46.6424C102.791 49.8476 103.066 53.0529 103.249 56.3497C103.34 57.9065 103.432 59.5549 103.707 61.1117C103.89 62.2106 104.897 63.1264 106.088 62.9433C107.37 62.7601 107.919 61.7528 107.919 60.5623C107.919 57.1739 107.828 53.7855 107.37 50.4887C107.003 46.734 106.179 43.4371 105.172 40.0488Z" fill="#B77437"/>
<mask id="mask0_2011_76825" style="mask-type:luminance" maskUnits="userSpaceOnUse" x="34" y="39" width="27" height="35">
<path d="M59.8252 57.1829C62.7144 64.3437 58.9623 70.6612 53.0963 73.028C47.23 75.3949 40.3496 72.9402 37.4604 65.7794C33.3213 55.5209 34.0434 42.7124 39.9097 40.3455C45.7758 37.9789 55.7594 47.1059 59.8252 57.1829Z" fill="white"/>
</mask>
<g mask="url(#mask0_2011_76825)">
<path d="M52.2716 30.8122L23.3702 42.4732L39.6718 82.8761L68.5732 71.2151L52.2716 30.8122Z" fill="#FFB41B"/>
</g>
<mask id="mask1_2011_76825" style="mask-type:luminance" maskUnits="userSpaceOnUse" x="34" y="39" width="27" height="35">
<path d="M59.8252 57.1829C62.7144 64.3437 58.9623 70.6612 53.0963 73.028C47.23 75.3949 40.3496 72.9402 37.4604 65.7794C33.3213 55.5209 34.0434 42.7124 39.9097 40.3455C45.7758 37.9789 55.7594 47.1059 59.8252 57.1829Z" fill="white"/>
</mask>
<g mask="url(#mask1_2011_76825)">
<path d="M55.4262 49.1188C54.317 47.1723 53.2772 46.1051 52.5682 45.5395C52.8623 46.894 52.7453 48.4059 52.7384 48.4889L52.6759 49.2588L52.0599 48.7927C51.4234 48.3112 49.6329 47.176 48.7251 46.6061L48.0318 50.9593L43.4973 48.5767L41.7731 53.2955L41.4142 53.2207C40.8035 53.0934 38.9408 51.663 37.9417 50.8688C37.6954 51.6409 37.3349 53.2134 37.0587 54.6349L36.9589 55.1498L36.4764 54.944C35.7655 54.6411 34.9368 53.5291 34.4012 52.7125C34.1227 54.5984 34.4388 57.1727 34.4428 57.2032L33.6013 57.3089C33.5816 57.1529 33.1281 53.4618 33.8235 51.4732L34.1319 50.5906L34.5928 51.4041C35.0043 52.1307 35.7495 53.2534 36.3545 53.8313C36.609 52.5861 37.0832 50.4386 37.4197 49.9471L37.6794 49.5675L38.0365 49.8571C39.2011 50.8014 40.5913 51.84 41.2589 52.2323L43.0339 47.3746L47.3804 49.6586L48.0887 45.2102L48.6308 45.5467C48.7323 45.6099 50.714 46.8409 51.918 47.6558C51.919 46.8356 51.8422 45.545 51.405 44.7578L50.8644 43.7841L51.9156 44.1516C52 44.1812 54.008 44.9178 56.1628 48.6989L55.4262 49.1188Z" fill="#FF5D7C"/>
</g>
<mask id="mask2_2011_76825" style="mask-type:luminance" maskUnits="userSpaceOnUse" x="34" y="39" width="27" height="35">
<path d="M59.8252 57.1829C62.7144 64.3437 58.9623 70.6612 53.0963 73.028C47.23 75.3949 40.3496 72.9402 37.4604 65.7794C33.3213 55.5209 34.0434 42.7124 39.9097 40.3455C45.7758 37.9789 55.7594 47.1059 59.8252 57.1829Z" fill="white"/>
</mask>
<g mask="url(#mask2_2011_76825)">
<path d="M57.8459 54.119C56.7725 52.2356 55.7539 51.161 55.0884 50.591C54.8727 50.4061 54.6791 50.2612 54.514 50.1487C54.9494 51.585 54.8048 53.4537 54.7973 53.5464L54.7581 54.0275L54.3733 53.7362C53.6653 53.2003 51.5746 51.8824 50.7512 51.3669L50.042 55.8198L45.4607 53.4125L43.6887 58.2622L43.4645 58.2154C42.8331 58.0838 40.6703 56.3913 39.8138 55.706C39.5251 56.4853 39.0782 58.5132 38.8308 59.7873L38.7682 60.1092L38.4666 59.9807C37.6693 59.6409 36.6995 58.2189 36.1982 57.4124C35.7856 59.379 36.1601 62.4221 36.1642 62.4559L35.6384 62.522C35.6186 62.3646 35.1613 58.6435 35.8564 56.6544L36.0493 56.1028L36.3374 56.6113C36.6817 57.2197 37.6395 58.7377 38.3841 59.3144C38.5908 58.2892 39.1465 55.6552 39.4996 55.1393L39.6619 54.902L39.8851 55.0829C40.9361 55.9349 42.6678 57.2585 43.362 57.6116L45.1708 52.6611L49.6348 55.0068L50.3533 50.4945L50.6921 50.7048C50.803 50.7738 53.1219 52.2142 54.2907 53.0243C54.3101 52.227 54.2751 50.6215 53.7515 49.6784L53.4137 49.07L54.0707 49.2995C54.1542 49.3288 56.1425 50.0588 58.3065 53.8559L57.8459 54.119Z" fill="white"/>
</g>
<mask id="mask3_2011_76825" style="mask-type:luminance" maskUnits="userSpaceOnUse" x="34" y="39" width="27" height="35">
<path d="M59.8252 57.1829C62.7144 64.3437 58.9623 70.6612 53.0963 73.028C47.23 75.3949 40.3496 72.9402 37.4604 65.7794C33.3213 55.5209 34.0434 42.7124 39.9097 40.3455C45.7758 37.9789 55.7594 47.1059 59.8252 57.1829Z" fill="white"/>
</mask>
<g mask="url(#mask3_2011_76825)">
<path d="M50.5753 43.0426C49.7225 41.5464 48.9133 40.6928 48.3846 40.2399C48.2131 40.0933 48.0594 39.9779 47.9281 39.8885C48.2741 41.0296 48.1592 42.5142 48.1532 42.5878L48.1221 42.9701L47.8164 42.7387C47.2539 42.313 45.5929 41.2659 44.9389 40.8565L44.3756 44.3943L40.7362 42.4819L39.3285 46.3344L39.1502 46.2973C38.6486 46.1928 36.9306 44.8481 36.25 44.3037C36.0205 44.9225 35.6657 46.5338 35.4691 47.5461L35.4194 47.8016L35.1799 47.6995C34.5466 47.4294 33.7762 46.2999 33.3779 45.659C33.0501 47.2217 33.3476 49.6391 33.3511 49.6658L32.9332 49.7183C32.9175 49.5932 32.5542 46.637 33.1065 45.0569L33.2597 44.6187L33.4886 45.0228C33.7623 45.5061 34.5229 46.712 35.1145 47.1702C35.2787 46.3558 35.7202 44.2631 36.0007 43.8534L36.1296 43.6651L36.3069 43.8089C37.1419 44.4856 38.5177 45.5371 39.069 45.8178L40.5061 41.885L44.0523 43.7484L44.6231 40.1636L44.8923 40.3308C44.9805 40.3856 46.8228 41.5299 47.7513 42.1734C47.7666 41.5398 47.7389 40.2644 47.3227 39.5154L47.0543 39.032L47.5763 39.2146C47.6427 39.2378 49.2221 39.8176 50.9414 42.8342L50.5753 43.0426Z" fill="white"/>
</g>
<mask id="mask4_2011_76825" style="mask-type:luminance" maskUnits="userSpaceOnUse" x="34" y="39" width="27" height="35">
<path d="M59.8252 57.1829C62.7144 64.3437 58.9623 70.6612 53.0963 73.028C47.23 75.3949 40.3496 72.9402 37.4604 65.7794C33.3213 55.5209 34.0434 42.7124 39.9097 40.3455C45.7758 37.9789 55.7594 47.1059 59.8252 57.1829Z" fill="white"/>
</mask>
<g mask="url(#mask4_2011_76825)">
<path d="M64.7514 67.1002C63.5201 64.9398 62.3519 63.7071 61.5887 63.0536C61.341 62.8415 61.1192 62.6754 60.9296 62.5464C61.4289 64.1939 61.2632 66.3371 61.2546 66.4435L61.2098 66.9954L60.7683 66.6611C59.9563 66.0465 57.5584 64.5349 56.6138 63.9437L55.8004 69.0514L50.5458 66.2901L48.5133 71.8526L48.256 71.799C47.5318 71.6482 45.0511 69.7069 44.0685 68.9208C43.7373 69.8145 43.2247 72.1405 42.9409 73.6021L42.8692 73.9712L42.5233 73.8238C41.609 73.4341 40.4966 71.8033 39.9216 70.878C39.4487 73.1331 39.8777 76.6244 39.8826 76.663L39.2793 76.739C39.2567 76.5583 38.732 72.2901 39.5295 70.0087L39.7508 69.3761L40.0811 69.9594C40.4762 70.6572 41.5746 72.3981 42.4286 73.0597C42.6656 71.8838 43.3029 68.8626 43.708 68.2708L43.8942 67.9988L44.1502 68.2063C45.3558 69.1835 47.3421 70.7016 48.1383 71.1068L50.2131 65.4287L55.3331 68.1189L56.1573 62.9436L56.5459 63.1848C56.6733 63.2638 59.3331 64.9161 60.6735 65.8451C60.6957 64.9306 60.6557 63.0892 60.0549 62.0073L59.6674 61.3094L60.421 61.5729C60.5169 61.6064 62.7971 62.4438 65.2794 66.7991L64.7514 67.1002Z" fill="white"/>
</g>
<mask id="mask5_2011_76825" style="mask-type:luminance" maskUnits="userSpaceOnUse" x="34" y="39" width="27" height="35">
<path d="M59.8252 57.1829C62.7144 64.3437 58.9623 70.6612 53.0963 73.028C47.23 75.3949 40.3496 72.9402 37.4604 65.7794C33.3213 55.5209 34.0434 42.7124 39.9097 40.3455C45.7758 37.9789 55.7594 47.1059 59.8252 57.1829Z" fill="white"/>
</mask>
<g mask="url(#mask5_2011_76825)">
<path d="M61.9935 61.999C60.8408 59.9768 59.7498 58.8209 59.0373 58.2076C58.9226 58.1089 58.8138 58.0206 58.7117 57.942C59.0702 59.4653 58.9342 61.2252 58.9266 61.3194L58.864 62.0893L58.2481 61.6233C57.5268 61.0772 55.4735 59.7775 54.4872 59.1588L53.7175 63.9921L48.6988 61.3551L46.7821 66.6006L46.4232 66.5258C45.7443 66.3842 43.6314 64.7552 42.54 63.8857C42.2639 64.7257 41.8514 66.5162 41.538 68.1307L41.4381 68.6455L40.9554 68.4398C40.1472 68.0953 39.1955 66.7891 38.6087 65.8815C38.2663 67.9914 38.6315 70.9592 38.636 70.9939L37.7946 71.0999C37.7728 70.9272 37.271 66.8442 38.0387 64.6488L38.3471 63.7663L38.8078 64.5797C39.2788 65.4112 40.1436 66.7089 40.8312 67.3382C41.0938 66.0507 41.6453 63.5165 42.0214 62.9672L42.2812 62.5879L42.6383 62.8773C43.9597 63.9485 45.5385 65.1255 46.2658 65.5425L48.2349 60.1534L53.0658 62.692L53.8507 57.7636L54.3927 58.1001C54.5075 58.1714 56.7837 59.5854 58.1087 60.4865C58.1151 59.5786 58.0396 58.0732 57.5343 57.163L56.9938 56.1893L58.0449 56.5568C58.1377 56.5894 60.3489 57.4007 62.7302 61.5793L61.9935 61.999Z" fill="#00DDDE"/>
</g>
<mask id="mask6_2011_76825" style="mask-type:luminance" maskUnits="userSpaceOnUse" x="35" y="40" width="28" height="34">
<path d="M60.8376 55.0786C64.8086 61.7013 62.0878 68.527 56.6625 71.7801C51.237 75.0332 44.0577 73.6818 40.0866 67.0591C34.3977 57.5714 33.1128 44.8066 38.5383 41.5534C43.9637 38.3005 55.2493 45.7588 60.8376 55.0786Z" fill="white"/>
</mask>
<g mask="url(#mask6_2011_76825)">
<path opacity="0.37" d="M50.2276 55.2152C52.0102 54.1464 51.9786 50.8173 50.1571 47.7795C48.3356 44.7416 45.4139 43.1455 43.6314 44.2143C41.8488 45.2831 41.8804 48.6122 43.7019 51.65C45.5234 54.6879 48.4451 56.2841 50.2276 55.2152Z" fill="white"/>
</g>
<mask id="mask7_2011_76825" style="mask-type:luminance" maskUnits="userSpaceOnUse" x="34" y="39" width="27" height="35">
<path d="M59.8252 57.1829C62.7144 64.3437 58.9623 70.6612 53.0963 73.028C47.23 75.3949 40.3496 72.9402 37.4604 65.7794C33.3213 55.5209 34.0434 42.7124 39.9097 40.3455C45.7758 37.9789 55.7594 47.1059 59.8252 57.1829Z" fill="white"/>
</mask>
<g mask="url(#mask7_2011_76825)">
<path opacity="0.03" d="M66.1522 53.4346C69.4131 58.6568 65.4443 65.7078 59.2202 68.4669C58.7717 68.9941 58.2509 69.4431 57.6558 69.7999C52.7466 72.7432 44.7007 68.347 39.6848 59.9807C35.6748 53.2923 34.8155 46.092 37.1404 41.9688C37.1411 37.5046 37.5742 34.314 37.5742 34.314L32.2054 41.1164L31.082 51.0999L36.0053 65.8556L39.8037 75.2698L47.8809 76.7759L61.9488 71.7437L68.6117 67.5101L71.8238 58.8733L66.1522 53.4346Z" fill="#242E36"/>
</g>
<mask id="mask8_2011_76825" style="mask-type:luminance" maskUnits="userSpaceOnUse" x="34" y="39" width="27" height="35">
<path d="M59.8252 57.1829C62.7144 64.3437 58.9623 70.6612 53.0963 73.028C47.23 75.3949 40.3496 72.9402 37.4604 65.7794C33.3213 55.5209 34.0434 42.7124 39.9097 40.3455C45.7758 37.9789 55.7594 47.1059 59.8252 57.1829Z" fill="white"/>
</mask>
<g mask="url(#mask8_2011_76825)">
<path opacity="0.27" d="M57.1861 49.205C52.1702 40.8387 44.1242 36.4425 39.2151 39.3858C38.2306 39.976 37.4475 40.8173 36.8643 41.8517C34.5396 45.9748 35.3987 53.1752 39.4087 59.8637C44.4248 68.2299 52.4707 72.6261 57.3797 69.6828C57.9746 69.3261 58.4956 68.877 58.9441 68.3499C62.1947 64.5279 61.5941 56.5572 57.1861 49.205Z" fill="white"/>
</g>
<mask id="mask9_2011_76825" style="mask-type:luminance" maskUnits="userSpaceOnUse" x="48" y="33" width="29" height="41">
<path d="M76.236 60.9047C75.5829 69.7118 68.5413 74.2984 61.3265 73.7633C54.1115 73.2283 48.2919 67.2335 48.9451 58.4264C49.8808 45.8092 57.0926 33.0317 64.3076 33.5668C71.5224 34.1021 77.1552 48.5109 76.236 60.9047Z" fill="white"/>
</mask>
<g mask="url(#mask9_2011_76825)">
<path d="M81.8082 30.0303L46.2621 27.3941L42.5768 77.086L78.1229 79.7222L81.8082 30.0303Z" fill="#FFB41B"/>
</g>
<mask id="mask10_2011_76825" style="mask-type:luminance" maskUnits="userSpaceOnUse" x="48" y="33" width="29" height="41">
<path d="M76.236 60.9047C75.5829 69.7118 68.5413 74.2984 61.3265 73.7633C54.1115 73.2283 48.2919 67.2335 48.9451 58.4264C49.8808 45.8092 57.0926 33.0317 64.3076 33.5668C71.5224 34.1021 77.1552 48.5109 76.236 60.9047Z" fill="white"/>
</mask>
<g mask="url(#mask10_2011_76825)">
<path d="M75.7964 50.4079C75.6416 47.8503 75.1139 46.2299 74.6721 45.2914C74.2896 46.8298 73.4057 48.3219 73.3568 48.4036L72.9036 49.162L72.5071 48.3726C72.0973 47.5569 70.8336 45.4876 70.19 44.4442L67.2794 48.5607L63.8304 43.825L59.6772 47.7958L59.3468 47.5377C58.7845 47.0986 57.5958 44.6899 56.972 43.3701C56.3291 44.038 55.1648 45.4693 54.1633 46.7884L53.8007 47.2662L53.4096 46.8113C52.8331 46.1414 52.5446 44.5817 52.4077 43.4733C51.1691 45.2676 50.1929 48.0687 50.1816 48.102L49.2647 47.7854C49.3233 47.6153 50.7228 43.599 52.441 41.9097L53.2033 41.16L53.2653 42.2275C53.3204 43.181 53.5179 44.7094 53.8466 45.608C54.7368 44.459 56.3084 42.495 56.9019 42.1607L57.3601 41.9024L57.5803 42.38C58.2982 43.9372 59.2 45.7053 59.6867 46.445L63.9622 42.3574L67.2681 46.8969L70.2423 42.6904L70.6284 43.3095C70.7007 43.4257 72.1122 45.6899 72.9359 47.1343C73.3513 46.2932 73.9245 44.9302 73.8736 43.9016L73.8108 42.6294L74.7038 43.5376C74.7753 43.6106 76.4635 45.3808 76.7644 50.3492L75.7964 50.4079Z" fill="#FF5D7C"/>
</g>
<mask id="mask11_2011_76825" style="mask-type:luminance" maskUnits="userSpaceOnUse" x="48" y="33" width="29" height="41">
<path d="M76.236 60.9047C75.5829 69.7118 68.5413 74.2984 61.3265 73.7633C54.1115 73.2283 48.2919 67.2335 48.9451 58.4264C49.8808 45.8092 57.0926 33.0317 64.3076 33.5668C71.5224 34.1021 77.1552 48.5109 76.236 60.9047Z" fill="white"/>
</mask>
<g mask="url(#mask11_2011_76825)">
<path d="M75.753 56.7609C75.6032 54.2861 75.1008 52.6689 74.7061 51.7478C74.5781 51.4491 74.4527 51.2026 74.34 51.0038C74.0612 52.6974 72.9688 54.5419 72.9142 54.6332L72.631 55.107L72.3833 54.6137C71.9276 53.7062 70.4482 51.2976 69.8638 50.3527L66.8865 54.5634L63.4018 49.7789L59.1335 53.8598L58.9271 53.6984C58.3458 53.2444 56.9816 50.4152 56.449 49.2793C55.7592 49.9331 54.276 51.788 53.3785 52.9704L53.1517 53.2691L52.9071 52.9848C52.2607 52.2334 51.984 50.2844 51.8771 49.2035C50.4601 51.013 49.307 54.3246 49.2942 54.3614L48.7212 54.1636C48.7805 53.992 50.1912 49.9429 51.9093 48.2531L52.386 47.7846L52.4246 48.4518C52.4706 49.2501 52.6864 51.2916 53.1591 52.2595C53.8891 51.312 55.79 48.8901 56.413 48.5391L56.6994 48.3776L56.8369 48.6759C57.485 50.0812 58.5931 52.3142 59.1271 53.0272L63.484 48.8614L66.8793 53.5236L69.8962 49.2566L70.1376 49.6435C70.2165 49.7703 71.8682 52.4198 72.6582 53.8415C73.0809 53.0333 73.8561 51.3682 73.7953 50.136L73.7561 49.341L74.3143 49.9086C74.3852 49.9807 76.0565 51.7342 76.3586 56.7236L75.753 56.7609Z" fill="white"/>
</g>
<mask id="mask12_2011_76825" style="mask-type:luminance" maskUnits="userSpaceOnUse" x="48" y="33" width="29" height="41">
<path d="M76.236 60.9047C75.5829 69.7118 68.5413 74.2984 61.3265 73.7633C54.1115 73.2283 48.2919 67.2335 48.9451 58.4264C49.8808 45.8092 57.0926 33.0317 64.3076 33.5668C71.5224 34.1021 77.1552 48.5109 76.236 60.9047Z" fill="white"/>
</mask>
<g mask="url(#mask12_2011_76825)">
<path d="M73.8887 41.7226C73.7697 39.7565 73.3706 38.4718 73.0569 37.74C72.9551 37.503 72.8556 37.3069 72.7661 37.1489C72.5446 38.4945 71.6767 39.9597 71.6333 40.0322L71.4082 40.4088L71.2114 40.017C70.8494 39.296 69.6742 37.3824 69.2099 36.6319L66.8446 39.9774L64.0764 36.1765L60.6857 39.4183L60.5215 39.2901C60.0596 38.9294 58.9761 36.6818 58.5528 35.7792C58.0048 36.2983 56.8266 37.7723 56.1135 38.7117L55.9334 38.9488L55.7393 38.723C55.2259 38.126 55.0061 36.5778 54.9212 35.719C53.7954 37.1568 52.8793 39.7874 52.8694 39.8167L52.4141 39.6594C52.4611 39.5231 53.5819 36.3063 54.9469 34.964L55.3255 34.5918L55.3562 35.122C55.3929 35.7563 55.5641 37.3779 55.9396 38.1468C56.5195 37.3942 58.0298 35.4699 58.5246 35.1913L58.7519 35.0632L58.8612 35.3003C59.3762 36.4166 60.2566 38.1905 60.6805 38.7571L64.1418 35.4477L66.8392 39.1513L69.2359 35.7614L69.4276 36.0689C69.4904 36.1697 70.8026 38.2746 71.4303 39.4039C71.7661 38.7616 72.382 37.439 72.3334 36.4602L72.3022 35.8286L72.7455 36.2796C72.802 36.337 74.1295 37.7299 74.3697 41.6936L73.8887 41.7226Z" fill="white"/>
</g>
<mask id="mask13_2011_76825" style="mask-type:luminance" maskUnits="userSpaceOnUse" x="48" y="33" width="29" height="41">
<path d="M76.236 60.9047C75.5829 69.7118 68.5413 74.2984 61.3265 73.7633C54.1115 73.2283 48.2919 67.2335 48.9451 58.4264C49.8808 45.8092 57.0926 33.0317 64.3076 33.5668C71.5224 34.1021 77.1552 48.5109 76.236 60.9047Z" fill="white"/>
</mask>
<g mask="url(#mask13_2011_76825)">
<path d="M76.2803 73.5692C76.1084 70.7304 75.5325 68.8755 75.0795 67.8193C74.9326 67.4766 74.7889 67.1941 74.6596 66.9659C74.3395 68.9087 73.0867 71.0239 73.0241 71.1289L72.6993 71.6725L72.4152 71.1064C71.8926 70.0656 70.1958 67.3031 69.5252 66.2192L66.1102 71.0492L62.1136 65.5613L57.2179 70.2419L56.981 70.0569C56.3141 69.5363 54.7495 66.2912 54.1383 64.9882C53.347 65.7378 51.646 67.8655 50.6164 69.2218L50.3564 69.5643L50.0759 69.2383C49.3346 68.3766 49.0171 66.1412 48.8946 64.9013C47.2701 66.9763 45.9464 70.7753 45.9319 70.8174L45.2745 70.5906C45.3426 70.3938 46.9605 65.7492 48.9315 63.8112L49.4781 63.274L49.5224 64.0393C49.5752 64.9549 49.8227 67.2962 50.3647 68.4064C51.202 67.3196 53.3823 64.5416 54.0969 64.139L54.4254 63.9541L54.5832 64.2963C55.3265 65.9081 56.5976 68.4692 57.2099 69.2872L62.2074 64.5092L66.1018 69.8563L69.5621 64.9624L69.839 65.4063C69.9298 65.5518 71.8242 68.5909 72.7302 70.2212C73.215 69.2941 74.1042 67.3844 74.0343 65.9709L73.9893 65.059L74.6294 65.7101C74.7109 65.7929 76.6275 67.8041 76.9742 73.5271L76.2803 73.5692Z" fill="white"/>
</g>
<mask id="mask14_2011_76825" style="mask-type:luminance" maskUnits="userSpaceOnUse" x="48" y="33" width="29" height="41">
<path d="M76.236 60.9047C75.5829 69.7118 68.5413 74.2984 61.3265 73.7633C54.1115 73.2283 48.2919 67.2335 48.9451 58.4264C49.8808 45.8092 57.0926 33.0317 64.3076 33.5668C71.5224 34.1021 77.1552 48.5109 76.236 60.9047Z" fill="white"/>
</mask>
<g mask="url(#mask14_2011_76825)">
<path d="M76.0277 66.9418C75.8666 64.2844 75.3311 62.5472 74.9098 61.558C74.842 61.3987 74.7751 61.2532 74.7099 61.1209C74.3082 62.8652 73.2796 64.6022 73.2241 64.695L72.7709 65.4534L72.3744 64.664C71.9101 63.7393 70.4601 61.3683 69.7606 60.2353L66.5289 64.8057L62.7117 59.5644L58.095 63.9784L57.7645 63.7203C57.1394 63.232 55.7944 60.4931 55.1138 59.0495C54.4062 59.772 53.0783 61.4008 51.941 62.899L51.5785 63.3767L51.1871 62.9219C50.5319 62.16 50.2153 60.339 50.0717 59.1113C48.6544 61.1032 47.5298 64.3329 47.5169 64.3707L46.6 64.0544C46.6649 63.8661 48.2128 59.4233 50.1096 57.5584L50.872 56.8087L50.9336 57.8761C50.9969 58.9672 51.2286 60.7357 51.6162 61.7288C52.5361 60.5404 54.3823 58.2187 55.0457 57.8452L55.5039 57.5871L55.7241 58.0645C56.5388 59.8312 57.5641 61.8366 58.0997 62.6319L62.8428 58.097L66.5171 63.1424L69.8123 58.4821L70.1984 59.1012C70.2802 59.2324 71.9014 61.8331 72.8057 63.4272C73.271 62.4988 73.954 60.916 73.8954 59.7269L73.8327 58.4547L74.7256 59.3628C74.8044 59.4431 76.6633 61.3927 76.9956 66.8833L76.0277 66.9418Z" fill="#00DDDE"/>
</g>
<mask id="mask15_2011_76825" style="mask-type:luminance" maskUnits="userSpaceOnUse" x="50" y="34" width="29" height="41">
<path d="M78.3378 59.2569C79.0665 68.0584 72.8264 73.6876 65.6162 74.2845C58.4057 74.8815 51.7219 69.8678 50.9932 61.0662C49.9492 48.457 55.0798 34.7103 62.2902 34.1133C69.5005 33.5166 77.3123 46.8709 78.3378 59.2569Z" fill="white"/>
</mask>
<g mask="url(#mask15_2011_76825)">
<path opacity="0.37" d="M67.3822 54.0369C69.7512 53.8407 71.4007 50.4089 71.0665 46.3716C70.7322 42.3343 68.5408 39.2205 66.1718 39.4166C63.8028 39.6128 62.1533 43.0446 62.4876 47.0819C62.8218 51.1191 65.0132 54.233 67.3822 54.0369Z" fill="white"/>
</g>
<mask id="mask16_2011_76825" style="mask-type:luminance" maskUnits="userSpaceOnUse" x="48" y="33" width="29" height="41">
<path d="M76.236 60.9047C75.5829 69.7118 68.5413 74.2984 61.3265 73.7633C54.1115 73.2283 48.2919 67.2335 48.9451 58.4264C49.8808 45.8092 57.0926 33.0317 64.3076 33.5668C71.5224 34.1021 77.1552 48.5109 76.236 60.9047Z" fill="white"/>
</mask>
<g mask="url(#mask16_2011_76825)">
<path opacity="0.03" d="M84.6216 60.255C85.3293 67.2609 77.6947 72.4906 69.9144 72.1772C69.1879 72.4916 68.4267 72.6891 67.6358 72.7545C61.1116 73.2945 55.0769 64.7188 54.157 53.6003C53.4215 44.7116 56.1775 36.8894 60.646 33.8333C62.9021 29.253 64.9585 26.1981 64.9585 26.1981L56.013 30.4655L49.8165 40.1417L47.4135 57.7695L46.5548 69.3481L54.0817 74.9741L71.0588 76.9179L80.0342 75.94L87.6934 68.7009L84.6216 60.255Z" fill="#242E36"/>
</g>
<mask id="mask17_2011_76825" style="mask-type:luminance" maskUnits="userSpaceOnUse" x="48" y="33" width="29" height="41">
<path d="M76.236 60.9047C75.5829 69.7118 68.5413 74.2984 61.3265 73.7633C54.1115 73.2283 48.2919 67.2335 48.9451 58.4264C49.8808 45.8092 57.0926 33.0317 64.3076 33.5668C71.5224 34.1021 77.1552 48.5109 76.236 60.9047Z" fill="white"/>
</mask>
<g mask="url(#mask17_2011_76825)">
<path opacity="0.27" d="M77.5586 51.3854C76.6386 40.2669 70.6039 31.6912 64.0798 32.2312C62.7714 32.3393 61.5429 32.8069 60.4219 33.5737C55.9536 36.6299 53.1974 44.452 53.9328 53.3407C54.8531 64.4592 60.8878 73.0349 67.4117 72.4949C68.2023 72.4295 68.9638 72.232 69.6903 71.9176C74.9565 69.6382 78.3671 61.1563 77.5586 51.3854Z" fill="white"/>
</g>
<mask id="mask18_2011_76825" style="mask-type:luminance" maskUnits="userSpaceOnUse" x="69" y="41" width="27" height="38">
<path d="M95.5364 66.6327C94.9257 74.8672 88.3419 79.1556 81.5963 78.6553C74.8503 78.155 69.4091 72.55 70.0198 64.3155C70.8947 52.5187 77.6376 40.5719 84.3835 41.0722C91.1292 41.5727 96.3958 55.0447 95.5364 66.6327Z" fill="white"/>
</mask>
<g mask="url(#mask18_2011_76825)">
<path d="M100.746 37.7657L67.5114 35.3008L64.0657 81.7619L97.3007 84.2267L100.746 37.7657Z" fill="#FFB41B"/>
</g>
<mask id="mask19_2011_76825" style="mask-type:luminance" maskUnits="userSpaceOnUse" x="69" y="41" width="27" height="38">
<path d="M95.5364 66.6327C94.9257 74.8672 88.3419 79.1556 81.5963 78.6553C74.8503 78.155 69.4091 72.55 70.0198 64.3155C70.8947 52.5187 77.6376 40.5719 84.3835 41.0722C91.1292 41.5727 96.3958 55.0447 95.5364 66.6327Z" fill="white"/>
</mask>
<g mask="url(#mask19_2011_76825)">
<path d="M95.1253 56.8184C94.9806 54.427 94.4872 52.912 94.0742 52.0345C93.7165 53.4729 92.8901 54.8681 92.8443 54.9444L92.4206 55.6535L92.0499 54.9154C91.6667 54.1528 90.4852 52.218 89.8834 51.2424L87.1621 55.0912L83.9373 50.6635L80.0542 54.3761L79.7452 54.1348C79.2195 53.7242 78.1081 51.4721 77.5248 50.2382C76.9238 50.8626 75.8351 52.2009 74.8987 53.4342L74.5597 53.8809L74.194 53.4556C73.6551 52.8293 73.3853 51.371 73.2573 50.3346C72.0993 52.0123 71.1865 54.6313 71.176 54.6624L70.3187 54.3664C70.3735 54.2074 71.682 50.4521 73.2884 48.8728L74.0012 48.1718L74.0591 49.1698C74.1107 50.0613 74.2953 51.4904 74.6027 52.3306C75.435 51.2562 76.9044 49.42 77.4594 49.1074L77.8878 48.8659L78.0936 49.3125C78.7648 50.7684 79.6079 52.4215 80.0631 53.1132L84.0606 49.2913L87.1516 53.5357L89.9323 49.6026L90.2934 50.1815C90.3609 50.2901 91.6807 52.4072 92.4508 53.7576C92.8392 52.9712 93.3751 51.6969 93.3275 50.7351L93.2689 49.5456L94.1037 50.3947C94.1707 50.463 95.7491 52.1182 96.0304 56.7635L95.1253 56.8184Z" fill="#FF5D7C"/>
</g>
<mask id="mask20_2011_76825" style="mask-type:luminance" maskUnits="userSpaceOnUse" x="69" y="41" width="27" height="38">
<path d="M95.5364 66.6327C94.9257 74.8672 88.3419 79.1556 81.5963 78.6553C74.8503 78.155 69.4091 72.55 70.0198 64.3155C70.8947 52.5187 77.6376 40.5719 84.3835 41.0722C91.1292 41.5727 96.3958 55.0447 95.5364 66.6327Z" fill="white"/>
</mask>
<g mask="url(#mask20_2011_76825)">
<path d="M95.0847 62.7583C94.9446 60.4444 94.475 58.9323 94.1059 58.0711C93.9862 57.7919 93.869 57.5614 93.7636 57.3755C93.5029 58.9591 92.4815 60.6836 92.4305 60.7689L92.1657 61.212L91.9341 60.7507C91.508 59.9022 90.1249 57.6503 89.5784 56.7668L86.7947 60.7037L83.5366 56.2302L79.5458 60.0458L79.3528 59.895C78.8093 59.4705 77.5338 56.8252 77.0359 55.7631C76.3908 56.3744 75.0041 58.1088 74.1649 59.2142L73.9529 59.4935L73.7242 59.2277C73.1199 58.5252 72.8612 56.7029 72.7612 55.6923C71.4364 57.3841 70.3582 60.4804 70.3462 60.5148L69.8105 60.3299C69.8659 60.1694 71.1849 56.3836 72.7913 54.8037L73.237 54.3656L73.2731 54.9895C73.3161 55.7359 73.5179 57.6446 73.9598 58.5496C74.6424 57.6637 76.4197 55.3992 77.0021 55.0711L77.2699 54.9201L77.3986 55.199C78.0044 56.5129 79.0405 58.6007 79.5398 59.2673L83.6135 55.3724L86.788 59.7315L89.6087 55.7419L89.8344 56.1037C89.9082 56.2222 91.4525 58.6995 92.1911 60.0288C92.5864 59.2731 93.3112 57.7162 93.2543 56.5641L93.2176 55.8209L93.7396 56.3515C93.8058 56.419 95.3685 58.0585 95.651 62.7234L95.0847 62.7583Z" fill="white"/>
</g>
<mask id="mask21_2011_76825" style="mask-type:luminance" maskUnits="userSpaceOnUse" x="69" y="41" width="27" height="38">
<path d="M95.5364 66.6327C94.9257 74.8672 88.3419 79.1556 81.5963 78.6553C74.8503 78.155 69.4091 72.55 70.0198 64.3155C70.8947 52.5187 77.6376 40.5719 84.3835 41.0722C91.1292 41.5727 96.3958 55.0447 95.5364 66.6327Z" fill="white"/>
</mask>
<g mask="url(#mask21_2011_76825)">
<path d="M93.3417 48.6977C93.2303 46.8595 92.8572 45.6583 92.5639 44.9741C92.4687 44.7525 92.3757 44.5692 92.292 44.4214C92.0849 45.6796 91.2734 47.0495 91.2329 47.1173L91.0224 47.4694L90.8384 47.103C90.4999 46.4289 89.4011 44.6397 88.967 43.938L86.7555 47.066L84.1673 43.5123L80.9971 46.5432L80.8436 46.4234C80.4117 46.0862 79.3986 43.9847 79.0029 43.1408C78.4904 43.6262 77.3889 45.0043 76.7222 45.8826L76.5538 46.1043L76.3723 45.8932C75.8923 45.335 75.6867 43.8874 75.6073 43.0845C74.5547 44.4288 73.6982 46.8884 73.6889 46.9158L73.2633 46.7687C73.3073 46.6412 74.3552 43.6336 75.6314 42.3786L75.9853 42.0306L76.0141 42.5263C76.0484 43.1194 76.2085 44.6355 76.5596 45.3545C77.1018 44.6508 78.5138 42.8516 78.9765 42.5911L79.189 42.4714L79.2912 42.693C79.7727 43.7367 80.5958 45.3953 80.9922 45.9251L84.2285 42.8309L86.7505 46.2937L88.9914 43.1242L89.1706 43.4117C89.2293 43.5059 90.4562 45.474 91.0431 46.5299C91.357 45.9293 91.9329 44.6927 91.8875 43.7775L91.8583 43.187L92.2728 43.6087C92.3256 43.6623 93.5668 44.9646 93.7914 48.6707L93.3417 48.6977Z" fill="white"/>
</g>
<mask id="mask22_2011_76825" style="mask-type:luminance" maskUnits="userSpaceOnUse" x="69" y="41" width="27" height="38">
<path d="M95.5364 66.6327C94.9257 74.8672 88.3419 79.1556 81.5963 78.6553C74.8503 78.155 69.4091 72.55 70.0198 64.3155C70.8947 52.5187 77.6376 40.5719 84.3835 41.0722C91.1292 41.5727 96.3958 55.0447 95.5364 66.6327Z" fill="white"/>
</mask>
<g mask="url(#mask22_2011_76825)">
<path d="M95.5777 78.4738C95.417 75.8196 94.8785 74.0852 94.455 73.0977C94.3176 72.7773 94.1833 72.5132 94.0624 72.2998C93.7631 74.1163 92.5918 76.094 92.5333 76.1921L92.2295 76.7004L91.9639 76.1711C91.4753 75.1979 89.8888 72.6151 89.2618 71.6017L86.0689 76.1176L82.3321 70.9865L77.7547 75.3628L77.5332 75.1898C76.9097 74.7031 75.4468 71.669 74.8754 70.4506C74.1355 71.1515 72.5451 73.1409 71.5824 74.409L71.3393 74.7293L71.0771 74.4245C70.3839 73.6187 70.0871 71.5288 69.9726 70.3695C68.4537 72.3096 67.2161 75.8615 67.2025 75.9009L66.5879 75.6888C66.6515 75.5049 68.1643 71.1622 70.0071 69.3503L70.5181 68.8479L70.5595 69.5635C70.6089 70.4196 70.8404 72.6086 71.3471 73.6467C72.1299 72.6305 74.1685 70.0331 74.8366 69.6567L75.1438 69.4838L75.2913 69.8038C75.9863 71.3108 77.1748 73.7053 77.7472 74.4702L82.4198 70.0029L86.061 75.0022L89.2963 70.4266L89.5552 70.8416C89.6401 70.9776 91.4113 73.8191 92.2584 75.3435C92.7117 74.4766 93.5431 72.6911 93.4778 71.3695L93.4357 70.5169L94.0342 71.1257C94.1104 71.2031 95.9023 73.0835 96.2265 78.4344L95.5777 78.4738Z" fill="white"/>
</g>
<mask id="mask23_2011_76825" style="mask-type:luminance" maskUnits="userSpaceOnUse" x="69" y="41" width="27" height="38">
<path d="M95.5364 66.6327C94.9257 74.8672 88.3419 79.1556 81.5963 78.6553C74.8503 78.155 69.4091 72.55 70.0198 64.3155C70.8947 52.5187 77.6376 40.5719 84.3835 41.0722C91.1292 41.5727 96.3958 55.0447 95.5364 66.6327Z" fill="white"/>
</mask>
<g mask="url(#mask23_2011_76825)">
<path d="M95.3416 72.2772C95.191 69.7927 94.6902 68.1684 94.2964 67.2435C94.233 67.0946 94.1704 66.9585 94.1095 66.8349C93.7339 68.4657 92.7721 70.0898 92.7203 70.1765L92.2966 70.8856L91.9258 70.1476C91.4917 69.283 90.1359 67.0662 89.4819 66.0068L86.4604 70.2801L82.8914 65.3796L78.5748 69.5065L78.2658 69.2652C77.6814 68.8087 76.4238 66.2479 75.7874 64.8981C75.1258 65.5737 73.8843 67.0965 72.821 68.4973L72.482 68.944L72.1161 68.5187C71.5035 67.8064 71.2074 66.1038 71.0732 64.9559C69.748 66.8183 68.6966 69.838 68.6845 69.8733L67.8272 69.5776C67.8879 69.4016 69.3351 65.2476 71.1086 63.504L71.8214 62.803L71.8791 63.8011C71.9382 64.8212 72.1548 66.4746 72.5172 67.4032C73.3774 66.2921 75.1035 64.1214 75.7238 63.7721L76.1522 63.5308L76.3581 63.9771C77.1199 65.629 78.0784 67.504 78.5792 68.2476L83.0139 64.0076L86.4494 68.725L89.5303 64.3676L89.8913 64.9465C89.9678 65.0691 91.4835 67.5008 92.3291 68.9912C92.7641 68.1232 93.4027 66.6433 93.3479 65.5314L93.2893 64.342L94.1241 65.1911C94.1978 65.2661 95.9358 67.089 96.2466 72.2226L95.3416 72.2772Z" fill="#00DDDE"/>
</g>
<mask id="mask24_2011_76825" style="mask-type:luminance" maskUnits="userSpaceOnUse" x="71" y="41" width="27" height="39">
<path d="M97.5016 65.092C98.183 73.3213 92.3485 78.5845 85.6071 79.1426C78.8655 79.7008 72.6162 75.0131 71.9349 66.7837C70.9588 54.9944 75.7558 42.1414 82.4974 41.5833C89.2389 41.0253 96.5428 53.5113 97.5016 65.092Z" fill="white"/>
</mask>
<g mask="url(#mask24_2011_76825)">
<path opacity="0.37" d="M87.2583 60.2114C89.4733 60.028 91.0155 56.8193 90.703 53.0445C90.3904 49.2697 88.3415 46.3583 86.1265 46.5417C83.9116 46.7251 82.3693 49.9338 82.6818 53.7086C82.9944 57.4834 85.0433 60.3948 87.2583 60.2114Z" fill="white"/>
</g>
<mask id="mask25_2011_76825" style="mask-type:luminance" maskUnits="userSpaceOnUse" x="69" y="41" width="27" height="38">
<path d="M95.5364 66.6327C94.9257 74.8672 88.3419 79.1556 81.5963 78.6553C74.8503 78.155 69.4091 72.55 70.0198 64.3155C70.8947 52.5187 77.6376 40.5719 84.3835 41.0722C91.1292 41.5727 96.3958 55.0447 95.5364 66.6327Z" fill="white"/>
</mask>
<g mask="url(#mask25_2011_76825)">
<path opacity="0.03" d="M103.377 66.0252C104.038 72.5756 96.9003 77.4653 89.6258 77.1723C88.9466 77.4662 88.2349 77.6509 87.4953 77.712C81.3954 78.2169 75.7531 70.1988 74.8929 59.8032C74.2053 51.4924 76.782 44.1788 80.96 41.3214C83.0694 37.0389 84.9921 34.1826 84.9921 34.1826L76.6283 38.1726L70.8347 47.2196L68.5879 63.7013L67.785 74.5271L74.8226 79.7873L90.6958 81.6047L99.0876 80.6904L106.249 73.922L103.377 66.0252Z" fill="#242E36"/>
</g>
<mask id="mask26_2011_76825" style="mask-type:luminance" maskUnits="userSpaceOnUse" x="69" y="41" width="27" height="38">
<path d="M95.5364 66.6327C94.9257 74.8672 88.3419 79.1556 81.5963 78.6553C74.8503 78.155 69.4091 72.55 70.0198 64.3155C70.8947 52.5187 77.6376 40.5719 84.3835 41.0722C91.1292 41.5727 96.3958 55.0447 95.5364 66.6327Z" fill="white"/>
</mask>
<g mask="url(#mask26_2011_76825)">
<path opacity="0.27" d="M96.7729 57.7323C95.9128 47.3367 90.2705 39.3186 84.1705 39.8235C82.9472 39.9246 81.7985 40.3618 80.7504 41.0787C76.5727 43.9362 73.9956 51.2497 74.6833 59.5605C75.5437 69.9561 81.186 77.9742 87.2857 77.4693C88.025 77.4082 88.737 77.2235 89.4162 76.9296C94.34 74.7984 97.5289 66.8679 96.7729 57.7323Z" fill="white"/>
</g>
<path d="M14.6998 62.1043C12.9598 71.5369 13.784 81.1526 16.7145 90.3104C24.865 116.044 53.5289 119.157 64.3351 118.883C82.9255 118.425 98.1275 109.45 104.63 98.3692C113.329 83.3504 112.322 62.5622 110.124 62.0127C109.025 61.738 107.926 62.1043 106.919 62.379C100.051 64.3022 84.0244 69.2474 63.053 68.6979C32.0081 67.9653 17.6303 61.4633 16.3482 61.6464C15.0661 61.9212 14.0588 63.2948 14.6998 62.1043Z" fill="#CE965D"/>
<path d="M102.981 85.6399C100.692 87.1967 98.4023 88.8451 96.1128 90.4935C95.3802 90.3104 94.6476 90.1272 94.0065 89.9441C92.3581 89.4862 90.6181 89.0283 88.9697 88.4788C86.4056 87.6546 83.9329 86.7388 81.4603 85.7315C81.8266 85.4567 82.193 85.182 82.5593 84.9988C84.2993 83.8083 86.0392 82.6178 87.7792 81.4273C89.5192 80.2368 91.4424 79.0463 93.0908 77.581C93.5487 77.1231 92.9992 76.2989 92.4497 76.5736C88.9697 77.7642 85.7645 80.2368 82.834 82.3431C81.6435 83.1673 80.5446 83.9915 79.4456 84.8157C79.354 84.8157 79.2625 84.7241 79.1709 84.7241C73.1267 81.9767 67.2657 78.4052 60.6721 76.94C59.6647 76.6652 59.2984 78.3136 60.3058 78.4968C66.4415 80.0536 71.6615 83.6252 77.3393 86.3725C76.1488 87.2883 74.8667 88.2041 73.6762 89.0283C71.0204 90.9514 68.2731 92.8745 65.5257 94.7977C65.3426 94.7061 65.0679 94.6145 64.8847 94.4314C60.5805 92.1419 56.3679 89.6693 52.3385 87.0135C52.7964 86.7388 53.3459 86.3725 53.8037 86.0978C56.3679 84.4494 59.0237 82.801 61.4963 80.8778C61.9542 80.5115 61.6795 79.5041 61.0384 79.7789C58.2911 80.8778 55.91 82.5262 53.529 84.2662C52.7048 84.8157 51.789 85.4567 50.9648 86.0062C49.5912 84.9988 48.1259 83.9915 46.8438 82.9841C44.4628 81.1526 42.1733 79.321 39.8839 77.3063C40.067 77.1231 40.2502 76.8484 40.3418 76.5736C40.4334 76.2989 40.067 76.0242 39.8839 76.1158C39.6092 76.2073 39.3344 76.3905 39.0597 76.5736C38.5102 76.0242 37.8692 75.5663 37.3197 75.0168C36.7702 74.4673 35.946 75.3831 36.4955 75.9326C37.045 76.3905 37.5029 76.94 38.0523 77.3978C37.5944 77.7642 37.045 78.1305 36.5871 78.4052C35.305 79.2294 34.0229 80.0536 32.6492 80.7862C31.0008 81.702 29.3524 82.4346 27.6124 83.2588C26.2388 81.4273 24.8651 79.5957 23.4914 77.7642C23.0335 77.1231 21.9346 77.7642 22.3925 78.4052C23.6746 80.2368 24.9567 82.0683 26.2388 83.8083C25.6893 84.083 25.1398 84.2662 24.5903 84.541C23.8577 84.9073 24.224 86.0978 24.9567 85.823C25.5977 85.5483 26.3303 85.2736 26.9714 84.9988C29.5356 88.662 32.0997 92.2335 35.0302 95.6219C33.2903 96.4461 31.4587 97.0871 29.6271 97.7282C28.8945 98.0029 29.2608 99.1019 29.9934 98.9187C32.0082 98.2776 34.0229 97.545 35.946 96.7208C36.4039 97.1787 36.7702 97.6366 37.2281 98.1861C40.1586 101.3 43.547 103.864 47.1185 106.245C46.2943 106.611 45.5617 106.886 44.7375 107.161C44.0965 107.344 44.3712 108.443 45.1038 108.26C46.2028 107.893 47.3017 107.527 48.4007 107.069C50.7817 108.534 53.2543 109.908 55.8185 111.19C57.7416 112.198 59.6648 113.113 61.4963 114.029C63.4195 114.945 65.3426 115.952 67.3573 116.685C67.8152 116.868 68.2731 116.135 67.8152 115.769C64.9763 113.571 61.4963 111.923 58.1995 110.274C55.6353 108.901 53.0711 107.527 50.5985 105.97C55.3606 103.772 59.7563 100.75 64.1521 97.8198C64.5184 97.545 64.8847 97.2703 65.3426 96.9956C67.7236 98.2776 70.1962 99.4682 72.6688 100.567C74.8667 101.574 77.0646 102.49 79.2625 103.314C75.5993 105.879 71.8446 108.351 68.0899 110.732C67.3573 111.19 68.0899 112.381 68.8226 111.923C73.0352 109.359 77.2477 106.703 81.3687 103.955C82.3761 104.23 83.3835 104.505 84.2993 104.688C85.0319 104.871 85.5814 103.772 84.8487 103.314C84.2993 103.04 83.8414 102.857 83.2919 102.582C84.574 101.758 85.8561 100.842 87.0466 100.018C90.3434 97.7282 93.4571 95.4387 96.5707 92.9661C97.3949 93.0577 98.2191 93.1493 99.0433 93.0577C99.776 92.9661 100.142 92.0503 99.4096 91.5924C99.2265 91.5009 98.9517 91.3177 98.7686 91.2261C100.6 89.7609 102.34 88.2041 103.989 86.5557C104.263 86.0978 103.531 85.182 102.981 85.6399ZM36.6787 94.7977C34.8471 92.8745 33.1987 90.8598 31.5503 88.7535C30.4513 87.2883 29.3524 85.9146 28.2535 84.4494C29.9019 83.7167 31.5503 82.8925 33.1987 82.0683C34.5724 81.3357 35.946 80.5115 37.2281 79.6873C37.7776 79.321 38.3271 78.8631 38.785 78.4052C42.1733 81.5189 45.6533 84.4494 49.3164 87.1051C48.1259 87.9293 46.9354 88.7535 45.6533 89.5777C42.8144 91.4093 39.7923 93.2409 36.6787 94.7977ZM55.6353 101.574C53.529 102.857 51.4227 104.047 49.2248 105.146C48.9501 104.963 48.6754 104.78 48.4007 104.597C45.287 102.582 42.2649 100.292 39.5176 97.6366C38.8765 96.9956 38.2355 96.3545 37.5944 95.7135C40.5249 94.2482 43.2723 92.6914 46.0196 90.9514C47.5764 89.9441 49.1333 89.0283 50.6901 88.0209C54.8111 90.9514 59.1153 93.6987 63.6026 96.0798C61.0384 98.0029 58.3827 99.8345 55.6353 101.574ZM85.6729 98.4608C84.2077 99.5597 82.6509 100.659 81.094 101.758C78.8962 100.842 76.7898 100.018 74.592 99.1019C72.0278 98.0029 69.4636 96.8124 66.991 95.5303C71.0204 92.783 75.1414 89.9441 79.1709 87.1967C82.193 88.5704 85.215 89.7609 88.3287 90.7683C89.9771 91.3177 91.6255 91.7756 93.3655 92.2335C93.4571 92.2335 93.4571 92.2335 93.5487 92.3251C90.8929 94.3398 88.3287 96.4461 85.6729 98.4608Z" fill="#916332"/>
<path d="M112.139 79.5042C112.139 81.7021 110.216 83.442 108.018 83.1673C94.2812 81.6105 78.9876 80.5115 62.1373 80.6031C45.2869 80.6031 29.8102 81.702 16.0735 83.3504C14.4251 83.5336 12.9598 82.2515 12.9598 80.6031V73.0937H112.047V79.5042H112.139Z" fill="#DFA950"/>
<path d="M12.5021 61.3717L111.406 61.0054C115.07 61.0054 118 64.0274 118 67.7821C118 71.5368 115.07 74.5589 111.498 74.5589L12.5936 74.9253C8.9305 74.9253 6 71.9032 6 68.1485C6 64.4853 8.83893 61.4633 12.5021 61.3717Z" fill="#B77437"/>
<path d="M62.1375 76.9646C62.1375 76.9646 69.189 67.1658 76.2405 67.6237C83.292 68.0816 84.3909 78.0636 81.3689 82.6425C79.0794 86.1225 71.9363 85.9393 63.1448 80.0783C63.1448 80.0783 59.5733 79.6204 62.1375 76.9646Z" fill="#FFCC79"/>
<g opacity="0.18">
<path d="M72.9436 70.7374C74.6836 70.3711 76.5151 70.829 77.8888 71.9279C79.2625 72.9353 80.0867 74.4921 80.3614 76.1405C80.453 76.5068 80.9109 76.7815 81.2772 76.69C81.7351 76.5984 81.8266 76.1405 81.8266 75.7742C81.4603 73.7595 80.3614 71.9279 78.6214 70.6458C76.8814 69.3637 74.592 68.9058 72.4857 69.3637C72.1194 69.4553 71.8446 69.9132 71.9362 70.2795C72.1194 70.5542 72.5773 70.7374 72.9436 70.7374Z" fill="white"/>
</g>
<path d="M61.7711 77.4226C61.7711 77.4226 54.7196 67.6237 47.6681 68.0816C40.6166 68.5395 39.5177 78.5215 42.5397 83.1004C44.8292 86.5804 51.9723 86.3973 60.7638 80.5363C60.7638 80.5363 64.3353 80.0783 61.7711 77.4226Z" fill="#FFCC79"/>
<g opacity="0.18">
<path d="M51.4228 69.7301C49.3165 69.3638 47.0271 69.7301 45.2871 71.0122C43.6387 72.2027 42.4482 74.0343 42.0819 76.1406C41.9903 76.5069 42.1734 76.9648 42.6313 77.0563C42.9976 77.1479 43.4555 76.9648 43.5471 76.5069C43.8218 74.8585 44.646 73.3017 46.0197 72.2943C47.3934 71.2869 49.3165 70.829 50.9649 71.1038C51.3313 71.1953 51.7891 71.0122 51.8807 70.5543C51.9723 70.2796 51.7891 69.8217 51.4228 69.7301Z" fill="white"/>
</g>
<path d="M63.1448 77.6973L71.4784 73.851" stroke="#CE6B19" stroke-miterlimit="10" stroke-linecap="round"/>
<path d="M63.2365 79.071L71.5701 78.7047" stroke="#CE6B19" stroke-miterlimit="10" stroke-linecap="round"/>
<path d="M61.313 77.7889C61.313 77.7889 52.9794 75.6826 52.5215 75.4079" stroke="#CE6B19" stroke-miterlimit="10" stroke-linecap="round"/>
<path d="M61.0384 79.3457C61.0384 79.3457 54.2616 79.6205 52.9795 79.712" stroke="#CE6B19" stroke-miterlimit="10" stroke-linecap="round"/>
<path d="M65.0679 78.5215C65.1595 80.1699 63.8774 81.5436 62.229 81.5436C60.5805 81.6352 59.2069 80.3531 59.2069 78.7047C59.1153 77.0563 60.3974 75.6826 62.0458 75.6826C63.6942 75.591 65.0679 76.8731 65.0679 78.5215Z" fill="#E9A427"/>
</svg>
