<svg width="219" height="204" viewBox="0 0 219 204" fill="none" xmlns="http://www.w3.org/2000/svg">
<path d="M154.172 104.049C152.523 98.1878 150.692 92.2352 148.219 86.7405C145.747 81.3374 142.541 76.3922 138.146 72.4543C134.116 68.8828 129.079 66.5017 123.951 65.2196C113.786 62.6555 102.522 64.2123 93.2724 69.1575C84.2061 73.9196 77.3378 81.8869 73.5831 91.5026C69.0042 103.316 66.1653 116.045 67.081 128.775C67.1726 130.332 67.3558 131.98 67.6305 133.537C67.9968 136.01 71.7515 135.552 71.4768 132.987C70.1947 121.174 72.301 109.086 76.0557 97.913C77.7041 93.0594 79.6272 88.3889 82.6493 84.2679C85.3051 80.5132 88.5103 77.5827 92.3566 75.0185C100.141 69.8901 110.123 67.6923 119.372 69.0659C124.134 69.7986 128.805 71.3554 132.743 74.1027C137.047 77.0332 140.252 81.3374 142.633 85.9163C145.197 90.8615 146.937 96.173 148.586 101.485C149.501 104.507 150.417 107.529 151.058 110.642C151.791 113.848 152.066 117.053 152.249 120.35C152.34 121.906 152.432 123.555 152.707 125.112C152.89 126.211 153.897 127.126 155.088 126.943C156.37 126.76 156.919 125.753 156.919 124.562C156.919 121.174 156.828 117.785 156.37 114.489C156.003 110.734 155.179 107.437 154.172 104.049Z" fill="#B77437"/>
<mask id="mask0_2011_77044" style="mask-type:luminance" maskUnits="userSpaceOnUse" x="97" y="97" width="28" height="41">
<path d="M124.48 124.905C123.826 133.712 116.785 138.298 109.57 137.763C102.355 137.228 96.5354 131.234 97.1886 122.426C98.1243 109.809 105.336 97.0317 112.551 97.5667C119.766 98.1021 125.399 112.511 124.48 124.905Z" fill="white"/>
</mask>
<g mask="url(#mask0_2011_77044)">
<path d="M130.052 94.0303L94.5056 91.394L90.8203 141.086L126.366 143.722L130.052 94.0303Z" fill="#FFB41B"/>
</g>
<mask id="mask1_2011_77044" style="mask-type:luminance" maskUnits="userSpaceOnUse" x="97" y="97" width="28" height="41">
<path d="M124.48 124.905C123.826 133.712 116.785 138.298 109.57 137.763C102.355 137.228 96.5354 131.234 97.1886 122.426C98.1243 109.809 105.336 97.0317 112.551 97.5667C119.766 98.1021 125.399 112.511 124.48 124.905Z" fill="white"/>
</mask>
<g mask="url(#mask1_2011_77044)">
<path d="M124.04 114.408C123.885 111.85 123.357 110.23 122.916 109.291C122.533 110.83 121.649 112.322 121.6 112.404L121.147 113.162L120.751 112.373C120.341 111.557 119.077 109.488 118.434 108.444L115.523 112.561L112.074 107.825L107.921 111.796L107.59 111.538C107.028 111.099 105.839 108.69 105.215 107.37C104.573 108.038 103.408 109.469 102.407 110.788L102.044 111.266L101.653 110.811C101.077 110.141 100.788 108.582 100.651 107.473C99.4127 109.268 98.4364 112.069 98.4252 112.102L97.5083 111.785C97.5669 111.615 98.9664 107.599 100.684 105.91L101.447 105.16L101.509 106.227C101.564 107.181 101.761 108.709 102.09 109.608C102.98 108.459 104.552 106.495 105.145 106.161L105.604 105.902L105.824 106.38C106.542 107.937 107.443 109.705 107.93 110.445L112.206 106.357L115.512 110.897L118.486 106.69L118.872 107.309C118.944 107.426 120.356 109.69 121.179 111.134C121.595 110.293 122.168 108.93 122.117 107.902L122.054 106.629L122.947 107.538C123.019 107.611 124.707 109.381 125.008 114.349L124.04 114.408Z" fill="#FF5D7C"/>
</g>
<mask id="mask2_2011_77044" style="mask-type:luminance" maskUnits="userSpaceOnUse" x="97" y="97" width="28" height="41">
<path d="M124.48 124.905C123.826 133.712 116.785 138.298 109.57 137.763C102.355 137.228 96.5354 131.234 97.1886 122.426C98.1243 109.809 105.336 97.0317 112.551 97.5667C119.766 98.1021 125.399 112.511 124.48 124.905Z" fill="white"/>
</mask>
<g mask="url(#mask2_2011_77044)">
<path d="M123.997 120.761C123.847 118.286 123.344 116.669 122.95 115.748C122.822 115.449 122.696 115.203 122.584 115.004C122.305 116.697 121.212 118.542 121.158 118.633L120.875 119.107L120.627 118.614C120.171 117.706 118.692 115.298 118.107 114.353L115.13 118.563L111.645 113.779L107.377 117.86L107.171 117.698C106.589 117.244 105.225 114.415 104.693 113.279C104.003 113.933 102.52 115.788 101.622 116.97L101.395 117.269L101.151 116.985C100.504 116.233 100.228 114.284 100.121 113.203C98.7037 115.013 97.5505 118.325 97.5377 118.361L96.9648 118.164C97.024 117.992 98.4347 113.943 100.153 112.253L100.63 111.785L100.668 112.452C100.714 113.25 100.93 115.292 101.403 116.259C102.133 115.312 104.034 112.89 104.656 112.539L104.943 112.378L105.08 112.676C105.728 114.081 106.837 116.314 107.371 117.027L111.728 112.861L115.123 117.524L118.14 113.257L118.381 113.643C118.46 113.77 120.112 116.42 120.902 117.841C121.324 117.033 122.1 115.368 122.039 114.136L122 113.341L122.558 113.909C122.629 113.981 124.3 115.734 124.602 120.724L123.997 120.761Z" fill="white"/>
</g>
<mask id="mask3_2011_77044" style="mask-type:luminance" maskUnits="userSpaceOnUse" x="97" y="97" width="28" height="41">
<path d="M124.48 124.905C123.826 133.712 116.785 138.298 109.57 137.763C102.355 137.228 96.5354 131.234 97.1886 122.426C98.1243 109.809 105.336 97.0317 112.551 97.5667C119.766 98.1021 125.399 112.511 124.48 124.905Z" fill="white"/>
</mask>
<g mask="url(#mask3_2011_77044)">
<path d="M122.132 105.723C122.013 103.756 121.614 102.472 121.3 101.74C121.199 101.503 121.099 101.307 121.01 101.149C120.788 102.495 119.92 103.96 119.877 104.032L119.652 104.409L119.455 104.017C119.093 103.296 117.918 101.382 117.453 100.632L115.088 103.977L112.32 100.176L108.929 103.418L108.765 103.29C108.303 102.929 107.22 100.682 106.796 99.7792C106.248 100.298 105.07 101.772 104.357 102.712L104.177 102.949L103.983 102.723C103.469 102.126 103.25 100.578 103.165 99.7189C102.039 101.157 101.123 103.787 101.113 103.817L100.658 103.659C100.705 103.523 101.825 100.306 103.19 98.964L103.569 98.5917L103.6 99.122C103.636 99.7562 103.808 101.378 104.183 102.147C104.763 101.394 106.273 99.4699 106.768 99.1913L106.995 99.0632L107.105 99.3002C107.62 100.417 108.5 102.19 108.924 102.757L112.385 99.4477L115.083 103.151L117.479 99.7614L117.671 100.069C117.734 100.17 119.046 102.275 119.674 103.404C120.01 102.762 120.626 101.439 120.577 100.46L120.546 99.8286L120.989 100.28C121.046 100.337 122.373 101.73 122.613 105.694L122.132 105.723Z" fill="white"/>
</g>
<mask id="mask4_2011_77044" style="mask-type:luminance" maskUnits="userSpaceOnUse" x="97" y="97" width="28" height="41">
<path d="M124.48 124.905C123.826 133.712 116.785 138.298 109.57 137.763C102.355 137.228 96.5354 131.234 97.1886 122.426C98.1243 109.809 105.336 97.0317 112.551 97.5667C119.766 98.1021 125.399 112.511 124.48 124.905Z" fill="white"/>
</mask>
<g mask="url(#mask4_2011_77044)">
<path d="M124.524 137.569C124.352 134.73 123.776 132.875 123.323 131.819C123.176 131.477 123.032 131.194 122.903 130.966C122.583 132.909 121.33 135.024 121.268 135.129L120.943 135.672L120.659 135.106C120.136 134.066 118.439 131.303 117.769 130.219L114.354 135.049L110.357 129.561L105.461 134.242L105.224 134.057C104.558 133.536 102.993 130.291 102.382 128.988C101.591 129.738 99.8895 131.865 98.8599 133.222L98.5999 133.564L98.3194 133.238C97.5781 132.377 97.2606 130.141 97.1381 128.901C95.5136 130.976 94.1899 134.775 94.1754 134.817L93.5181 134.591C93.5861 134.394 95.2041 129.749 97.175 127.811L97.7216 127.274L97.7659 128.039C97.8187 128.955 98.0663 131.296 98.6082 132.406C99.4455 131.32 101.626 128.542 102.34 128.139L102.669 127.954L102.827 128.296C103.57 129.908 104.841 132.469 105.453 133.287L110.451 128.509L114.345 133.856L117.806 128.962L118.083 129.406C118.173 129.552 120.068 132.591 120.974 134.221C121.459 133.294 122.348 131.384 122.278 129.971L122.233 129.059L122.873 129.71C122.954 129.793 124.871 131.804 125.218 137.527L124.524 137.569Z" fill="white"/>
</g>
<mask id="mask5_2011_77044" style="mask-type:luminance" maskUnits="userSpaceOnUse" x="97" y="97" width="28" height="41">
<path d="M124.48 124.905C123.826 133.712 116.785 138.298 109.57 137.763C102.355 137.228 96.5354 131.234 97.1886 122.426C98.1243 109.809 105.336 97.0317 112.551 97.5667C119.766 98.1021 125.399 112.511 124.48 124.905Z" fill="white"/>
</mask>
<g mask="url(#mask5_2011_77044)">
<path d="M124.271 130.942C124.11 128.284 123.575 126.547 123.153 125.558C123.086 125.399 123.019 125.253 122.953 125.121C122.552 126.865 121.523 128.602 121.468 128.695L121.014 129.453L120.618 128.664C120.154 127.739 118.704 125.368 118.004 124.235L114.772 128.806L110.955 123.564L106.338 127.978L106.008 127.72C105.383 127.232 104.038 124.493 103.357 123.05C102.65 123.772 101.322 125.401 100.185 126.899L99.822 127.377L99.4306 126.922C98.7755 126.16 98.4588 124.339 98.3152 123.111C96.8979 125.103 95.7733 128.333 95.7604 128.371L94.8435 128.054C94.9084 127.866 96.4563 123.423 98.3531 121.558L99.1155 120.809L99.1772 121.876C99.2404 122.967 99.4721 124.736 99.8597 125.729C100.78 124.54 102.626 122.219 103.289 121.845L103.747 121.587L103.968 122.064C104.782 123.831 105.808 125.837 106.343 126.632L111.086 122.097L114.761 127.142L118.056 122.482L118.442 123.101C118.524 123.232 120.145 125.833 121.049 127.427C121.514 126.499 122.198 124.916 122.139 123.727L122.076 122.455L122.969 123.363C123.048 123.443 124.907 125.393 125.239 130.883L124.271 130.942Z" fill="#00DDDE"/>
</g>
<mask id="mask6_2011_77044" style="mask-type:luminance" maskUnits="userSpaceOnUse" x="99" y="98" width="28" height="41">
<path d="M126.581 123.257C127.31 132.058 121.07 137.688 113.86 138.285C106.649 138.882 99.9654 133.868 99.2367 125.066C98.1928 112.457 103.323 98.7103 110.534 98.1133C117.744 97.5166 125.556 110.871 126.581 123.257Z" fill="white"/>
</mask>
<g mask="url(#mask6_2011_77044)">
<path opacity="0.37" d="M115.626 118.037C117.995 117.841 119.644 114.409 119.31 110.372C118.976 106.334 116.784 103.22 114.415 103.417C112.046 103.613 110.397 107.045 110.731 111.082C111.065 115.119 113.257 118.233 115.626 118.037Z" fill="white"/>
</g>
<mask id="mask7_2011_77044" style="mask-type:luminance" maskUnits="userSpaceOnUse" x="97" y="97" width="28" height="41">
<path d="M124.48 124.905C123.826 133.712 116.785 138.298 109.57 137.763C102.355 137.228 96.5354 131.234 97.1886 122.426C98.1243 109.809 105.336 97.0317 112.551 97.5667C119.766 98.1021 125.399 112.511 124.48 124.905Z" fill="white"/>
</mask>
<g mask="url(#mask7_2011_77044)">
<path opacity="0.03" d="M132.865 124.255C133.573 131.261 125.938 136.491 118.158 136.177C117.431 136.492 116.67 136.689 115.879 136.754C109.355 137.294 103.32 128.719 102.401 117.6C101.665 108.712 104.421 100.889 108.89 97.8333C111.146 93.253 113.202 90.1981 113.202 90.1981L104.257 94.4655L98.0601 104.142L95.6571 121.769L94.7984 133.348L102.325 138.974L119.302 140.918L128.278 139.94L135.937 132.701L132.865 124.255Z" fill="#242E36"/>
</g>
<mask id="mask8_2011_77044" style="mask-type:luminance" maskUnits="userSpaceOnUse" x="97" y="97" width="28" height="41">
<path d="M124.48 124.905C123.826 133.712 116.785 138.298 109.57 137.763C102.355 137.228 96.5354 131.234 97.1886 122.426C98.1243 109.809 105.336 97.0317 112.551 97.5667C119.766 98.1021 125.399 112.511 124.48 124.905Z" fill="white"/>
</mask>
<g mask="url(#mask8_2011_77044)">
<path opacity="0.27" d="M125.802 115.385C124.882 104.267 118.847 95.6912 112.323 96.2312C111.015 96.3393 109.786 96.8069 108.665 97.5737C104.197 100.63 101.441 108.452 102.176 117.341C103.097 128.459 109.131 137.035 115.655 136.495C116.446 136.43 117.207 136.232 117.934 135.918C123.2 133.638 126.611 125.156 125.802 115.385Z" fill="white"/>
</g>
<path d="M63.6998 126.104C61.9598 135.537 62.784 145.153 65.7145 154.31C73.865 180.044 102.529 183.157 113.335 182.883C131.925 182.425 147.127 173.45 153.63 162.369C162.329 147.35 161.322 126.562 159.124 126.013C158.025 125.738 156.926 126.104 155.919 126.379C149.051 128.302 133.024 133.247 112.053 132.698C81.0081 131.965 66.6303 125.463 65.3482 125.646C64.0661 125.921 63.0588 127.295 63.6998 126.104Z" fill="#CE965D"/>
<path d="M151.981 149.64C149.692 151.197 147.402 152.845 145.113 154.494C144.38 154.31 143.648 154.127 143.007 153.944C141.358 153.486 139.618 153.028 137.97 152.479C135.406 151.655 132.933 150.739 130.46 149.731C130.827 149.457 131.193 149.182 131.559 148.999C133.299 147.808 135.039 146.618 136.779 145.427C138.519 144.237 140.442 143.046 142.091 141.581C142.549 141.123 141.999 140.299 141.45 140.574C137.97 141.764 134.764 144.237 131.834 146.343C130.643 147.167 129.545 147.991 128.446 148.816C128.354 148.816 128.262 148.724 128.171 148.724C122.127 145.977 116.266 142.405 109.672 140.94C108.665 140.665 108.298 142.314 109.306 142.497C115.442 144.054 120.661 147.625 126.339 150.373C125.149 151.288 123.867 152.204 122.676 153.028C120.02 154.951 117.273 156.875 114.526 158.798C114.343 158.706 114.068 158.615 113.885 158.431C109.581 156.142 105.368 153.669 101.339 151.014C101.796 150.739 102.346 150.373 102.804 150.098C105.368 148.449 108.024 146.801 110.496 144.878C110.954 144.512 110.679 143.504 110.038 143.779C107.291 144.878 104.91 146.526 102.529 148.266C101.705 148.816 100.789 149.457 99.9648 150.006C98.5912 148.999 97.1259 147.991 95.8438 146.984C93.4628 145.153 91.1733 143.321 88.8839 141.306C89.067 141.123 89.2502 140.848 89.3418 140.574C89.4334 140.299 89.067 140.024 88.8839 140.116C88.6092 140.207 88.3344 140.391 88.0597 140.574C87.5102 140.024 86.8692 139.566 86.3197 139.017C85.7702 138.467 84.946 139.383 85.4955 139.933C86.045 140.39 86.5029 140.94 87.0523 141.398C86.5944 141.764 86.045 142.13 85.5871 142.405C84.305 143.229 83.0229 144.054 81.6492 144.786C80.0008 145.702 78.3524 146.435 76.6124 147.259C75.2388 145.427 73.8651 143.596 72.4914 141.764C72.0335 141.123 70.9346 141.764 71.3925 142.405C72.6746 144.237 73.9567 146.068 75.2388 147.808C74.6893 148.083 74.1398 148.266 73.5903 148.541C72.8577 148.907 73.224 150.098 73.9567 149.823C74.5977 149.548 75.3303 149.274 75.9714 148.999C78.5356 152.662 81.0997 156.234 84.0302 159.622C82.2903 160.446 80.4587 161.087 78.6271 161.728C77.8945 162.003 78.2608 163.102 78.9934 162.919C81.0082 162.278 83.0229 161.545 84.946 160.721C85.4039 161.179 85.7702 161.637 86.2281 162.186C89.1586 165.3 92.547 167.864 96.1185 170.245C95.2943 170.611 94.5617 170.886 93.7375 171.161C93.0965 171.344 93.3712 172.443 94.1038 172.26C95.2028 171.893 96.3017 171.527 97.4007 171.069C99.7817 172.534 102.254 173.908 104.818 175.19C106.742 176.198 108.665 177.113 110.496 178.029C112.419 178.945 114.343 179.952 116.357 180.685C116.815 180.868 117.273 180.135 116.815 179.769C113.976 177.571 110.496 175.923 107.2 174.274C104.635 172.901 102.071 171.527 99.5985 169.97C104.361 167.772 108.756 164.75 113.152 161.82C113.518 161.545 113.885 161.27 114.343 160.996C116.724 162.278 119.196 163.468 121.669 164.567C123.867 165.574 126.065 166.49 128.262 167.314C124.599 169.879 120.845 172.351 117.09 174.732C116.357 175.19 117.09 176.381 117.823 175.923C122.035 173.359 126.248 170.703 130.369 167.956C131.376 168.23 132.383 168.505 133.299 168.688C134.032 168.871 134.581 167.772 133.849 167.314C133.299 167.04 132.841 166.857 132.292 166.582C133.574 165.758 134.856 164.842 136.047 164.018C139.343 161.728 142.457 159.439 145.571 156.966C146.395 157.058 147.219 157.149 148.043 157.058C148.776 156.966 149.142 156.05 148.41 155.592C148.226 155.501 147.952 155.318 147.769 155.226C149.6 153.761 151.34 152.204 152.989 150.556C153.263 150.098 152.531 149.182 151.981 149.64ZM85.6787 158.798C83.8471 156.875 82.1987 154.86 80.5503 152.754C79.4513 151.288 78.3524 149.915 77.2535 148.449C78.9019 147.717 80.5503 146.893 82.1987 146.068C83.5724 145.336 84.946 144.512 86.2281 143.687C86.7776 143.321 87.3271 142.863 87.785 142.405C91.1733 145.519 94.6533 148.449 98.3164 151.105C97.1259 151.929 95.9354 152.754 94.6533 153.578C91.8144 155.409 88.7923 157.241 85.6787 158.798ZM104.635 165.574C102.529 166.857 100.423 168.047 98.2248 169.146C97.9501 168.963 97.6754 168.78 97.4007 168.597C94.287 166.582 91.2649 164.292 88.5176 161.637C87.8765 160.996 87.2355 160.355 86.5944 159.713C89.5249 158.248 92.2723 156.691 95.0196 154.951C96.5764 153.944 98.1333 153.028 99.6901 152.021C103.811 154.951 108.115 157.699 112.603 160.08C110.038 162.003 107.383 163.834 104.635 165.574ZM134.673 162.461C133.208 163.56 131.651 164.659 130.094 165.758C127.896 164.842 125.79 164.018 123.592 163.102C121.028 162.003 118.464 160.812 115.991 159.53C120.02 156.783 124.141 153.944 128.171 151.197C131.193 152.57 134.215 153.761 137.329 154.768C138.977 155.318 140.625 155.776 142.365 156.234C142.457 156.234 142.457 156.234 142.549 156.325C139.893 158.34 137.329 160.446 134.673 162.461Z" fill="#916332"/>
<path d="M161.139 143.504C161.139 145.702 159.216 147.442 157.018 147.167C143.281 145.61 127.988 144.512 111.137 144.603C94.2869 144.603 78.8102 145.702 65.0735 147.35C63.4251 147.534 61.9598 146.252 61.9598 144.603V137.094H161.047V143.504H161.139Z" fill="#DFA950"/>
<path d="M61.5021 125.372L160.406 125.005C164.07 125.005 167 128.027 167 131.782C167 135.537 164.07 138.559 160.498 138.559L61.5936 138.925C57.9305 138.925 55 135.903 55 132.148C55 128.485 57.8389 125.463 61.5021 125.372Z" fill="#B77437"/>
<path d="M111.137 140.965C111.137 140.965 118.189 131.166 125.241 131.624C132.292 132.082 133.391 142.064 130.369 146.642C128.079 150.122 120.936 149.939 112.145 144.078C112.145 144.078 108.573 143.62 111.137 140.965Z" fill="#FFCC79"/>
<g opacity="0.18">
<path d="M121.944 134.737C123.684 134.371 125.515 134.829 126.889 135.928C128.262 136.935 129.087 138.492 129.361 140.14C129.453 140.507 129.911 140.782 130.277 140.69C130.735 140.598 130.827 140.14 130.827 139.774C130.46 137.759 129.361 135.928 127.621 134.646C125.881 133.364 123.592 132.906 121.486 133.364C121.119 133.455 120.845 133.913 120.936 134.28C121.119 134.554 121.577 134.737 121.944 134.737Z" fill="white"/>
</g>
<path d="M110.771 141.423C110.771 141.423 103.72 131.624 96.6681 132.082C89.6166 132.54 88.5177 142.522 91.5397 147.1C93.8292 150.58 100.972 150.397 109.764 144.536C109.764 144.536 113.335 144.078 110.771 141.423Z" fill="#FFCC79"/>
<g opacity="0.18">
<path d="M100.423 133.73C98.3165 133.364 96.0271 133.73 94.2871 135.012C92.6387 136.203 91.4482 138.034 91.0819 140.141C90.9903 140.507 91.1734 140.965 91.6313 141.056C91.9976 141.148 92.4555 140.965 92.5471 140.507C92.8218 138.858 93.646 137.302 95.0197 136.294C96.3934 135.287 98.3165 134.829 99.9649 135.104C100.331 135.195 100.789 135.012 100.881 134.554C100.972 134.28 100.789 133.822 100.423 133.73Z" fill="white"/>
</g>
<path d="M112.145 141.697L120.478 137.851" stroke="#CE6B19" stroke-miterlimit="10" stroke-linecap="round"/>
<path d="M112.236 143.071L120.57 142.705" stroke="#CE6B19" stroke-miterlimit="10" stroke-linecap="round"/>
<path d="M110.313 141.789C110.313 141.789 101.979 139.683 101.521 139.408" stroke="#CE6B19" stroke-miterlimit="10" stroke-linecap="round"/>
<path d="M110.038 143.346C110.038 143.346 103.262 143.62 101.979 143.712" stroke="#CE6B19" stroke-miterlimit="10" stroke-linecap="round"/>
<path d="M114.068 142.522C114.159 144.17 112.877 145.544 111.229 145.544C109.581 145.635 108.207 144.353 108.207 142.705C108.115 141.056 109.397 139.683 111.046 139.683C112.694 139.591 114.068 140.873 114.068 142.522Z" fill="#E9A427"/>
<g filter="url(#filter0_f_2011_77044)">
<ellipse cx="109.5" cy="124" rx="55.5" ry="70" fill="#FBDD36" fill-opacity="0.3"/>
</g>
<defs>
<filter id="filter0_f_2011_77044" x="0" y="0" width="219" height="248" filterUnits="userSpaceOnUse" color-interpolation-filters="sRGB">
<feFlood flood-opacity="0" result="BackgroundImageFix"/>
<feBlend mode="normal" in="SourceGraphic" in2="BackgroundImageFix" result="shape"/>
<feGaussianBlur stdDeviation="27" result="effect1_foregroundBlur_2011_77044"/>
</filter>
</defs>
</svg>
