<svg width="120" height="120" viewBox="0 0 120 120" fill="none" xmlns="http://www.w3.org/2000/svg">
<g clip-path="url(#clip0_2011_76700)">
<path d="M104.172 42.0488C102.523 36.1878 100.692 30.2352 98.2192 24.7405C95.7466 19.3374 92.5414 14.3922 88.1456 10.4543C84.1162 6.88276 79.0794 4.50174 73.951 3.21965C63.7859 0.65546 52.5217 2.2123 43.2724 7.15752C34.2061 11.9196 27.3378 19.8869 23.5831 29.5026C19.0042 41.3161 16.1653 54.0455 17.081 66.7748C17.1726 68.3317 17.3558 69.9801 17.6305 71.5369C17.9968 74.0095 21.7515 73.5516 21.4768 70.9874C20.1947 59.1739 22.301 47.0856 26.0557 35.913C27.7041 31.0594 29.6272 26.3889 32.6493 22.2679C35.3051 18.5132 38.5103 15.5827 42.3566 13.0185C50.1407 7.89014 60.1227 5.69227 69.3721 7.06594C74.1342 7.79856 78.8046 9.35539 82.7425 12.1027C87.0467 15.0332 90.2519 19.3374 92.633 23.9163C95.1971 28.8615 96.9371 34.173 98.5855 39.4846C99.5013 42.5067 100.417 45.5287 101.058 48.6424C101.791 51.8476 102.066 55.0529 102.249 58.3497C102.34 59.9065 102.432 61.5549 102.707 63.1117C102.89 64.2106 103.897 65.1264 105.088 64.9433C106.37 64.7601 106.919 63.7528 106.919 62.5623C106.919 59.1739 106.828 55.7855 106.37 52.4887C106.003 48.734 105.179 45.4371 104.172 42.0488Z" fill="#B77437"/>
<path d="M14.6998 62.1043C12.9598 71.5369 13.784 81.1526 16.7145 90.3104C24.865 116.044 53.5289 119.157 64.3351 118.883C82.9255 118.425 98.1275 109.45 104.63 98.3692C113.329 83.3504 112.322 62.5622 110.124 62.0127C109.025 61.738 107.926 62.1043 106.919 62.379C100.051 64.3022 84.0244 69.2474 63.053 68.6979C32.0081 67.9653 17.6303 61.4633 16.3482 61.6464C15.0661 61.9212 14.0588 63.2948 14.6998 62.1043Z" fill="#CE965D"/>
<path d="M102.981 85.6399C100.692 87.1967 98.4023 88.8451 96.1128 90.4935C95.3802 90.3104 94.6476 90.1272 94.0065 89.9441C92.3581 89.4862 90.6181 89.0283 88.9697 88.4788C86.4056 87.6546 83.9329 86.7388 81.4603 85.7315C81.8266 85.4567 82.193 85.182 82.5593 84.9988C84.2993 83.8083 86.0392 82.6178 87.7792 81.4273C89.5192 80.2368 91.4424 79.0463 93.0908 77.581C93.5487 77.1231 92.9992 76.2989 92.4497 76.5736C88.9697 77.7642 85.7645 80.2368 82.834 82.3431C81.6435 83.1673 80.5446 83.9915 79.4456 84.8157C79.354 84.8157 79.2625 84.7241 79.1709 84.7241C73.1267 81.9767 67.2657 78.4052 60.6721 76.94C59.6647 76.6652 59.2984 78.3136 60.3058 78.4968C66.4415 80.0536 71.6615 83.6252 77.3393 86.3725C76.1488 87.2883 74.8667 88.2041 73.6762 89.0283C71.0204 90.9514 68.2731 92.8745 65.5257 94.7977C65.3426 94.7061 65.0679 94.6145 64.8847 94.4314C60.5805 92.1419 56.3679 89.6693 52.3385 87.0135C52.7964 86.7388 53.3459 86.3725 53.8037 86.0978C56.3679 84.4494 59.0237 82.801 61.4963 80.8778C61.9542 80.5115 61.6795 79.5041 61.0384 79.7789C58.2911 80.8778 55.91 82.5262 53.529 84.2662C52.7048 84.8157 51.789 85.4567 50.9648 86.0062C49.5912 84.9988 48.1259 83.9915 46.8438 82.9841C44.4628 81.1526 42.1733 79.321 39.8839 77.3063C40.067 77.1231 40.2502 76.8484 40.3418 76.5736C40.4334 76.2989 40.067 76.0242 39.8839 76.1158C39.6092 76.2073 39.3344 76.3905 39.0597 76.5736C38.5102 76.0242 37.8692 75.5663 37.3197 75.0168C36.7702 74.4673 35.946 75.3831 36.4955 75.9326C37.045 76.3905 37.5029 76.94 38.0523 77.3978C37.5944 77.7642 37.045 78.1305 36.5871 78.4052C35.305 79.2294 34.0229 80.0536 32.6492 80.7862C31.0008 81.702 29.3524 82.4346 27.6124 83.2588C26.2388 81.4273 24.8651 79.5957 23.4914 77.7642C23.0335 77.1231 21.9346 77.7642 22.3925 78.4052C23.6746 80.2368 24.9567 82.0683 26.2388 83.8083C25.6893 84.083 25.1398 84.2662 24.5903 84.541C23.8577 84.9073 24.224 86.0978 24.9567 85.823C25.5977 85.5483 26.3303 85.2736 26.9714 84.9988C29.5356 88.662 32.0997 92.2335 35.0302 95.6219C33.2903 96.4461 31.4587 97.0871 29.6271 97.7282C28.8945 98.0029 29.2608 99.1019 29.9934 98.9187C32.0082 98.2776 34.0229 97.545 35.946 96.7208C36.4039 97.1787 36.7702 97.6366 37.2281 98.1861C40.1586 101.3 43.547 103.864 47.1185 106.245C46.2943 106.611 45.5617 106.886 44.7375 107.161C44.0965 107.344 44.3712 108.443 45.1038 108.26C46.2028 107.893 47.3017 107.527 48.4007 107.069C50.7817 108.534 53.2543 109.908 55.8185 111.19C57.7416 112.198 59.6648 113.113 61.4963 114.029C63.4195 114.945 65.3426 115.952 67.3573 116.685C67.8152 116.868 68.2731 116.135 67.8152 115.769C64.9763 113.571 61.4963 111.923 58.1995 110.274C55.6353 108.901 53.0711 107.527 50.5985 105.97C55.3606 103.772 59.7563 100.75 64.1521 97.8198C64.5184 97.545 64.8847 97.2703 65.3426 96.9956C67.7236 98.2776 70.1962 99.4682 72.6688 100.567C74.8667 101.574 77.0646 102.49 79.2625 103.314C75.5993 105.879 71.8446 108.351 68.0899 110.732C67.3573 111.19 68.0899 112.381 68.8226 111.923C73.0352 109.359 77.2477 106.703 81.3687 103.955C82.3761 104.23 83.3835 104.505 84.2993 104.688C85.0319 104.871 85.5814 103.772 84.8487 103.314C84.2993 103.04 83.8414 102.857 83.2919 102.582C84.574 101.758 85.8561 100.842 87.0466 100.018C90.3434 97.7282 93.4571 95.4387 96.5707 92.9661C97.3949 93.0577 98.2191 93.1493 99.0433 93.0577C99.776 92.9661 100.142 92.0503 99.4096 91.5924C99.2265 91.5009 98.9517 91.3177 98.7686 91.2261C100.6 89.7609 102.34 88.2041 103.989 86.5557C104.263 86.0978 103.531 85.182 102.981 85.6399ZM36.6787 94.7977C34.8471 92.8745 33.1987 90.8598 31.5503 88.7535C30.4513 87.2883 29.3524 85.9146 28.2535 84.4494C29.9019 83.7167 31.5503 82.8925 33.1987 82.0683C34.5724 81.3357 35.946 80.5115 37.2281 79.6873C37.7776 79.321 38.3271 78.8631 38.785 78.4052C42.1733 81.5189 45.6533 84.4494 49.3164 87.1051C48.1259 87.9293 46.9354 88.7535 45.6533 89.5777C42.8144 91.4093 39.7923 93.2409 36.6787 94.7977ZM55.6353 101.574C53.529 102.857 51.4227 104.047 49.2248 105.146C48.9501 104.963 48.6754 104.78 48.4007 104.597C45.287 102.582 42.2649 100.292 39.5176 97.6366C38.8765 96.9956 38.2355 96.3545 37.5944 95.7135C40.5249 94.2482 43.2723 92.6914 46.0196 90.9514C47.5764 89.9441 49.1333 89.0283 50.6901 88.0209C54.8111 90.9514 59.1153 93.6987 63.6026 96.0798C61.0384 98.0029 58.3827 99.8345 55.6353 101.574ZM85.6729 98.4608C84.2077 99.5597 82.6509 100.659 81.094 101.758C78.8962 100.842 76.7898 100.018 74.592 99.1019C72.0278 98.0029 69.4636 96.8124 66.991 95.5303C71.0204 92.783 75.1414 89.9441 79.1709 87.1967C82.193 88.5704 85.215 89.7609 88.3287 90.7683C89.9771 91.3177 91.6255 91.7756 93.3655 92.2335C93.4571 92.2335 93.4571 92.2335 93.5487 92.3251C90.8929 94.3398 88.3287 96.4461 85.6729 98.4608Z" fill="#916332"/>
<path d="M112.139 79.5042C112.139 81.7021 110.216 83.442 108.018 83.1673C94.2812 81.6105 78.9876 80.5115 62.1373 80.6031C45.2869 80.6031 29.8102 81.702 16.0735 83.3504C14.4251 83.5336 12.9598 82.2515 12.9598 80.6031V73.0937H112.047V79.5042H112.139Z" fill="#DFA950"/>
<path d="M12.5021 61.3717L111.406 61.0054C115.07 61.0054 118 64.0274 118 67.7821C118 71.5368 115.07 74.5589 111.498 74.5589L12.5936 74.9253C8.9305 74.9253 6 71.9032 6 68.1485C6 64.4853 8.83893 61.4633 12.5021 61.3717Z" fill="#B77437"/>
<path d="M62.1375 76.9646C62.1375 76.9646 69.189 67.1658 76.2405 67.6237C83.292 68.0816 84.3909 78.0636 81.3689 82.6425C79.0794 86.1225 71.9363 85.9393 63.1448 80.0783C63.1448 80.0783 59.5733 79.6204 62.1375 76.9646Z" fill="#FFCC79"/>
<g opacity="0.18">
<path d="M72.9436 70.7374C74.6836 70.3711 76.5151 70.829 77.8888 71.9279C79.2625 72.9353 80.0867 74.4921 80.3614 76.1405C80.453 76.5068 80.9109 76.7815 81.2772 76.69C81.7351 76.5984 81.8266 76.1405 81.8266 75.7742C81.4603 73.7595 80.3614 71.9279 78.6214 70.6458C76.8814 69.3637 74.592 68.9058 72.4857 69.3637C72.1194 69.4553 71.8446 69.9132 71.9362 70.2795C72.1194 70.5542 72.5773 70.7374 72.9436 70.7374Z" fill="white"/>
</g>
<path d="M61.7711 77.4226C61.7711 77.4226 54.7196 67.6237 47.6681 68.0816C40.6166 68.5395 39.5177 78.5215 42.5397 83.1004C44.8292 86.5804 51.9723 86.3973 60.7638 80.5363C60.7638 80.5363 64.3353 80.0783 61.7711 77.4226Z" fill="#FFCC79"/>
<g opacity="0.18">
<path d="M51.4228 69.7301C49.3165 69.3638 47.0271 69.7301 45.2871 71.0122C43.6387 72.2027 42.4482 74.0343 42.0819 76.1406C41.9903 76.5069 42.1734 76.9648 42.6313 77.0563C42.9976 77.1479 43.4555 76.9648 43.5471 76.5069C43.8218 74.8585 44.646 73.3017 46.0197 72.2943C47.3934 71.2869 49.3165 70.829 50.9649 71.1038C51.3313 71.1953 51.7891 71.0122 51.8807 70.5543C51.9723 70.2796 51.7891 69.8217 51.4228 69.7301Z" fill="white"/>
</g>
<path d="M63.1448 77.6973L71.4784 73.851" stroke="#CE6B19" stroke-miterlimit="10" stroke-linecap="round"/>
<path d="M63.2365 79.071L71.5701 78.7047" stroke="#CE6B19" stroke-miterlimit="10" stroke-linecap="round"/>
<path d="M61.313 77.7889C61.313 77.7889 52.9794 75.6826 52.5215 75.4079" stroke="#CE6B19" stroke-miterlimit="10" stroke-linecap="round"/>
<path d="M61.0384 79.3457C61.0384 79.3457 54.2616 79.6205 52.9795 79.712" stroke="#CE6B19" stroke-miterlimit="10" stroke-linecap="round"/>
<path d="M65.0679 78.5215C65.1595 80.1699 63.8774 81.5436 62.229 81.5436C60.5805 81.6352 59.2069 80.3531 59.2069 78.7047C59.1153 77.0563 60.3974 75.6826 62.0458 75.6826C63.6942 75.591 65.0679 76.8731 65.0679 78.5215Z" fill="#E9A427"/>
</g>
<defs>
<clipPath id="clip0_2011_76700">
<rect width="120" height="120" fill="white"/>
</clipPath>
</defs>
</svg>
