<svg width="120" height="120" viewBox="0 0 120 120" fill="none" xmlns="http://www.w3.org/2000/svg">
<g clip-path="url(#clip0_2011_76911)">
<path d="M105.172 40.0488C103.523 34.1878 101.692 28.2352 99.2192 22.7405C96.7466 17.3374 93.5414 12.3922 89.1456 8.45431C85.1162 4.88276 80.0794 2.50174 74.951 1.21965C64.7859 -1.34454 53.5217 0.212304 44.2724 5.15752C35.2061 9.91958 28.3378 17.8869 24.5831 27.5026C20.0042 39.3161 17.1653 52.0455 18.081 64.7748C18.1726 66.3317 18.3558 67.9801 18.6305 69.5369C18.9968 72.0095 22.7515 71.5516 22.4768 68.9874C21.1947 57.1739 23.301 45.0856 27.0557 33.913C28.7041 29.0594 30.6272 24.3889 33.6493 20.2679C36.3051 16.5132 39.5103 13.5827 43.3566 11.0185C51.1407 5.89014 61.1227 3.69227 70.3721 5.06594C75.1342 5.79856 79.8046 7.35539 83.7425 10.1027C88.0467 13.0332 91.2519 17.3374 93.633 21.9163C96.1971 26.8615 97.9371 32.173 99.5855 37.4846C100.501 40.5067 101.417 43.5287 102.058 46.6424C102.791 49.8476 103.066 53.0529 103.249 56.3497C103.34 57.9065 103.432 59.5549 103.707 61.1117C103.89 62.2106 104.897 63.1264 106.088 62.9433C107.37 62.7601 107.919 61.7528 107.919 60.5623C107.919 57.1739 107.828 53.7855 107.37 50.4887C107.003 46.734 106.179 43.4371 105.172 40.0488Z" fill="#B77437"/>
<mask id="mask0_2011_76911" style="mask-type:luminance" maskUnits="userSpaceOnUse" x="16" y="39" width="27" height="35">
<path d="M41.8252 57.1829C44.7144 64.3437 40.9623 70.6612 35.0963 73.028C29.23 75.3949 22.3496 72.9402 19.4604 65.7794C15.3213 55.5209 16.0434 42.7124 21.9097 40.3455C27.7758 37.9789 37.7594 47.1059 41.8252 57.1829Z" fill="white"/>
</mask>
<g mask="url(#mask0_2011_76911)">
<path d="M34.2716 30.8122L5.37024 42.4732L21.6718 82.8761L50.5732 71.2151L34.2716 30.8122Z" fill="#FFB41B"/>
</g>
<mask id="mask1_2011_76911" style="mask-type:luminance" maskUnits="userSpaceOnUse" x="16" y="39" width="27" height="35">
<path d="M41.8252 57.1829C44.7144 64.3437 40.9623 70.6612 35.0963 73.028C29.23 75.3949 22.3496 72.9402 19.4604 65.7794C15.3213 55.5209 16.0434 42.7124 21.9097 40.3455C27.7758 37.9789 37.7594 47.1059 41.8252 57.1829Z" fill="white"/>
</mask>
<g mask="url(#mask1_2011_76911)">
<path d="M37.4262 49.1188C36.317 47.1723 35.2772 46.1051 34.5682 45.5395C34.8623 46.894 34.7453 48.4059 34.7384 48.4889L34.6759 49.2588L34.0599 48.7927C33.4234 48.3112 31.6329 47.176 30.7251 46.6061L30.0318 50.9593L25.4973 48.5767L23.7731 53.2955L23.4142 53.2207C22.8035 53.0934 20.9408 51.663 19.9417 50.8688C19.6954 51.6409 19.3349 53.2134 19.0587 54.6349L18.9589 55.1498L18.4764 54.944C17.7655 54.6411 16.9368 53.5291 16.4012 52.7125C16.1227 54.5984 16.4388 57.1727 16.4428 57.2032L15.6013 57.3089C15.5816 57.1529 15.1281 53.4618 15.8235 51.4732L16.1319 50.5906L16.5928 51.4041C17.0043 52.1307 17.7495 53.2534 18.3545 53.8313C18.609 52.5861 19.0832 50.4386 19.4197 49.9471L19.6794 49.5675L20.0365 49.8571C21.2011 50.8014 22.5913 51.84 23.2589 52.2323L25.0339 47.3746L29.3804 49.6586L30.0887 45.2102L30.6308 45.5467C30.7323 45.6099 32.714 46.8409 33.918 47.6558C33.919 46.8356 33.8422 45.545 33.405 44.7578L32.8644 43.7841L33.9156 44.1516C34 44.1812 36.008 44.9178 38.1628 48.6989L37.4262 49.1188Z" fill="#FF5D7C"/>
</g>
<mask id="mask2_2011_76911" style="mask-type:luminance" maskUnits="userSpaceOnUse" x="16" y="39" width="27" height="35">
<path d="M41.8252 57.1829C44.7144 64.3437 40.9623 70.6612 35.0963 73.028C29.23 75.3949 22.3496 72.9402 19.4604 65.7794C15.3213 55.5209 16.0434 42.7124 21.9097 40.3455C27.7758 37.9789 37.7594 47.1059 41.8252 57.1829Z" fill="white"/>
</mask>
<g mask="url(#mask2_2011_76911)">
<path d="M39.8459 54.119C38.7725 52.2356 37.7539 51.161 37.0884 50.591C36.8727 50.4061 36.6791 50.2612 36.514 50.1487C36.9494 51.585 36.8048 53.4537 36.7973 53.5464L36.7581 54.0275L36.3733 53.7362C35.6653 53.2003 33.5746 51.8824 32.7512 51.3669L32.042 55.8198L27.4607 53.4125L25.6887 58.2622L25.4645 58.2154C24.8331 58.0838 22.6703 56.3913 21.8138 55.706C21.5251 56.4853 21.0782 58.5132 20.8308 59.7873L20.7682 60.1092L20.4666 59.9807C19.6693 59.6409 18.6995 58.2189 18.1982 57.4124C17.7856 59.379 18.1601 62.4221 18.1642 62.4559L17.6384 62.522C17.6186 62.3646 17.1613 58.6435 17.8564 56.6544L18.0493 56.1028L18.3374 56.6113C18.6817 57.2197 19.6395 58.7377 20.3841 59.3144C20.5908 58.2892 21.1465 55.6552 21.4996 55.1393L21.6619 54.902L21.8851 55.0829C22.9361 55.9349 24.6678 57.2585 25.362 57.6116L27.1708 52.6611L31.6348 55.0068L32.3533 50.4945L32.6921 50.7048C32.803 50.7738 35.1219 52.2142 36.2907 53.0243C36.3101 52.227 36.2751 50.6215 35.7515 49.6784L35.4137 49.07L36.0707 49.2995C36.1542 49.3288 38.1425 50.0588 40.3065 53.8559L39.8459 54.119Z" fill="white"/>
</g>
<mask id="mask3_2011_76911" style="mask-type:luminance" maskUnits="userSpaceOnUse" x="16" y="39" width="27" height="35">
<path d="M41.8252 57.1829C44.7144 64.3437 40.9623 70.6612 35.0963 73.028C29.23 75.3949 22.3496 72.9402 19.4604 65.7794C15.3213 55.5209 16.0434 42.7124 21.9097 40.3455C27.7758 37.9789 37.7594 47.1059 41.8252 57.1829Z" fill="white"/>
</mask>
<g mask="url(#mask3_2011_76911)">
<path d="M32.5753 43.0426C31.7225 41.5464 30.9133 40.6928 30.3846 40.2399C30.2131 40.0933 30.0594 39.9779 29.9281 39.8885C30.2741 41.0296 30.1592 42.5142 30.1532 42.5878L30.1221 42.9701L29.8164 42.7387C29.2539 42.313 27.5929 41.2659 26.9389 40.8565L26.3756 44.3943L22.7362 42.4819L21.3285 46.3344L21.1502 46.2973C20.6486 46.1928 18.9306 44.8481 18.25 44.3037C18.0205 44.9225 17.6657 46.5338 17.4691 47.5461L17.4194 47.8016L17.1799 47.6995C16.5466 47.4294 15.7762 46.2999 15.3779 45.659C15.0501 47.2217 15.3476 49.6391 15.3511 49.6658L14.9332 49.7183C14.9175 49.5932 14.5542 46.637 15.1065 45.0569L15.2597 44.6187L15.4886 45.0228C15.7623 45.5061 16.5229 46.712 17.1145 47.1702C17.2787 46.3558 17.7202 44.2631 18.0007 43.8534L18.1296 43.6651L18.3069 43.8089C19.1419 44.4856 20.5177 45.5371 21.069 45.8178L22.5061 41.885L26.0523 43.7484L26.6231 40.1636L26.8923 40.3308C26.9805 40.3856 28.8228 41.5299 29.7513 42.1734C29.7666 41.5398 29.7389 40.2644 29.3227 39.5154L29.0543 39.032L29.5763 39.2146C29.6427 39.2378 31.2221 39.8176 32.9414 42.8342L32.5753 43.0426Z" fill="white"/>
</g>
<mask id="mask4_2011_76911" style="mask-type:luminance" maskUnits="userSpaceOnUse" x="16" y="39" width="27" height="35">
<path d="M41.8252 57.1829C44.7144 64.3437 40.9623 70.6612 35.0963 73.028C29.23 75.3949 22.3496 72.9402 19.4604 65.7794C15.3213 55.5209 16.0434 42.7124 21.9097 40.3455C27.7758 37.9789 37.7594 47.1059 41.8252 57.1829Z" fill="white"/>
</mask>
<g mask="url(#mask4_2011_76911)">
<path d="M46.7514 67.1002C45.5201 64.9398 44.3519 63.7071 43.5887 63.0536C43.341 62.8415 43.1192 62.6754 42.9296 62.5464C43.4289 64.1939 43.2632 66.3371 43.2546 66.4435L43.2098 66.9954L42.7683 66.6611C41.9563 66.0465 39.5584 64.5349 38.6138 63.9437L37.8004 69.0514L32.5458 66.2901L30.5133 71.8526L30.256 71.799C29.5318 71.6482 27.0511 69.7069 26.0685 68.9208C25.7373 69.8145 25.2247 72.1405 24.9409 73.6021L24.8692 73.9712L24.5233 73.8238C23.609 73.4341 22.4966 71.8033 21.9216 70.878C21.4487 73.1331 21.8777 76.6244 21.8826 76.663L21.2793 76.739C21.2567 76.5583 20.732 72.2901 21.5295 70.0087L21.7508 69.3761L22.0811 69.9594C22.4762 70.6572 23.5746 72.3981 24.4286 73.0597C24.6656 71.8838 25.3029 68.8626 25.708 68.2708L25.8942 67.9988L26.1502 68.2063C27.3558 69.1835 29.3421 70.7016 30.1383 71.1068L32.2131 65.4287L37.3331 68.1189L38.1573 62.9436L38.5459 63.1848C38.6733 63.2638 41.3331 64.9161 42.6735 65.8451C42.6957 64.9306 42.6557 63.0892 42.0549 62.0073L41.6674 61.3094L42.421 61.5729C42.5169 61.6064 44.7971 62.4438 47.2794 66.7991L46.7514 67.1002Z" fill="white"/>
</g>
<mask id="mask5_2011_76911" style="mask-type:luminance" maskUnits="userSpaceOnUse" x="16" y="39" width="27" height="35">
<path d="M41.8252 57.1829C44.7144 64.3437 40.9623 70.6612 35.0963 73.028C29.23 75.3949 22.3496 72.9402 19.4604 65.7794C15.3213 55.5209 16.0434 42.7124 21.9097 40.3455C27.7758 37.9789 37.7594 47.1059 41.8252 57.1829Z" fill="white"/>
</mask>
<g mask="url(#mask5_2011_76911)">
<path d="M43.9935 61.999C42.8408 59.9768 41.7498 58.8209 41.0373 58.2076C40.9226 58.1089 40.8138 58.0206 40.7117 57.942C41.0702 59.4653 40.9342 61.2252 40.9266 61.3194L40.864 62.0893L40.2481 61.6233C39.5268 61.0772 37.4735 59.7775 36.4872 59.1588L35.7175 63.9921L30.6988 61.3551L28.7821 66.6006L28.4232 66.5258C27.7443 66.3842 25.6314 64.7552 24.54 63.8857C24.2639 64.7257 23.8514 66.5162 23.538 68.1307L23.4381 68.6455L22.9554 68.4398C22.1472 68.0953 21.1955 66.7891 20.6087 65.8815C20.2663 67.9914 20.6315 70.9592 20.636 70.9939L19.7946 71.0999C19.7728 70.9272 19.271 66.8442 20.0387 64.6488L20.3471 63.7663L20.8078 64.5797C21.2788 65.4112 22.1436 66.7089 22.8312 67.3382C23.0938 66.0507 23.6453 63.5165 24.0214 62.9672L24.2812 62.5879L24.6383 62.8773C25.9597 63.9485 27.5385 65.1255 28.2658 65.5425L30.2349 60.1534L35.0658 62.692L35.8507 57.7636L36.3927 58.1001C36.5075 58.1714 38.7837 59.5854 40.1087 60.4865C40.1151 59.5786 40.0396 58.0732 39.5343 57.163L38.9938 56.1893L40.0449 56.5568C40.1377 56.5894 42.3489 57.4007 44.7302 61.5793L43.9935 61.999Z" fill="#00DDDE"/>
</g>
<mask id="mask6_2011_76911" style="mask-type:luminance" maskUnits="userSpaceOnUse" x="17" y="40" width="28" height="34">
<path d="M42.8376 55.0786C46.8086 61.7013 44.0878 68.527 38.6625 71.7801C33.237 75.0332 26.0577 73.6818 22.0866 67.0591C16.3977 57.5714 15.1128 44.8066 20.5383 41.5534C25.9637 38.3005 37.2493 45.7588 42.8376 55.0786Z" fill="white"/>
</mask>
<g mask="url(#mask6_2011_76911)">
<path opacity="0.37" d="M32.2276 55.2152C34.0102 54.1464 33.9786 50.8173 32.1571 47.7795C30.3356 44.7416 27.4139 43.1455 25.6314 44.2143C23.8488 45.2831 23.8804 48.6122 25.7019 51.65C27.5234 54.6879 30.4451 56.2841 32.2276 55.2152Z" fill="white"/>
</g>
<mask id="mask7_2011_76911" style="mask-type:luminance" maskUnits="userSpaceOnUse" x="16" y="39" width="27" height="35">
<path d="M41.8252 57.1829C44.7144 64.3437 40.9623 70.6612 35.0963 73.028C29.23 75.3949 22.3496 72.9402 19.4604 65.7794C15.3213 55.5209 16.0434 42.7124 21.9097 40.3455C27.7758 37.9789 37.7594 47.1059 41.8252 57.1829Z" fill="white"/>
</mask>
<g mask="url(#mask7_2011_76911)">
<path opacity="0.03" d="M48.1522 53.4346C51.4131 58.6568 47.4443 65.7078 41.2202 68.4669C40.7717 68.9941 40.2509 69.4431 39.6558 69.7999C34.7466 72.7432 26.7007 68.347 21.6848 59.9807C17.6748 53.2923 16.8155 46.092 19.1404 41.9688C19.1411 37.5046 19.5742 34.314 19.5742 34.314L14.2054 41.1164L13.082 51.0999L18.0053 65.8556L21.8037 75.2698L29.8809 76.7759L43.9488 71.7437L50.6117 67.5101L53.8238 58.8733L48.1522 53.4346Z" fill="#242E36"/>
</g>
<mask id="mask8_2011_76911" style="mask-type:luminance" maskUnits="userSpaceOnUse" x="16" y="39" width="27" height="35">
<path d="M41.8252 57.1829C44.7144 64.3437 40.9623 70.6612 35.0963 73.028C29.23 75.3949 22.3496 72.9402 19.4604 65.7794C15.3213 55.5209 16.0434 42.7124 21.9097 40.3455C27.7758 37.9789 37.7594 47.1059 41.8252 57.1829Z" fill="white"/>
</mask>
<g mask="url(#mask8_2011_76911)">
<path opacity="0.27" d="M39.1861 49.205C34.1702 40.8387 26.1242 36.4425 21.2151 39.3858C20.2306 39.976 19.4475 40.8173 18.8643 41.8517C16.5396 45.9748 17.3987 53.1752 21.4087 59.8637C26.4248 68.2299 34.4707 72.6261 39.3797 69.6828C39.9746 69.3261 40.4956 68.877 40.9441 68.3499C44.1947 64.5279 43.5941 56.5572 39.1861 49.205Z" fill="white"/>
</g>
<mask id="mask9_2011_76911" style="mask-type:luminance" maskUnits="userSpaceOnUse" x="30" y="33" width="29" height="41">
<path d="M58.236 60.9047C57.5829 69.7118 50.5413 74.2984 43.3265 73.7633C36.1115 73.2283 30.2919 67.2335 30.9451 58.4264C31.8808 45.8092 39.0926 33.0317 46.3076 33.5668C53.5224 34.1021 59.1552 48.5109 58.236 60.9047Z" fill="white"/>
</mask>
<g mask="url(#mask9_2011_76911)">
<path d="M63.8082 30.0303L28.2621 27.3941L24.5768 77.086L60.1229 79.7222L63.8082 30.0303Z" fill="#FFB41B"/>
</g>
<mask id="mask10_2011_76911" style="mask-type:luminance" maskUnits="userSpaceOnUse" x="30" y="33" width="29" height="41">
<path d="M58.236 60.9047C57.5829 69.7118 50.5413 74.2984 43.3265 73.7633C36.1115 73.2283 30.2919 67.2335 30.9451 58.4264C31.8808 45.8092 39.0926 33.0317 46.3076 33.5668C53.5224 34.1021 59.1552 48.5109 58.236 60.9047Z" fill="white"/>
</mask>
<g mask="url(#mask10_2011_76911)">
<path d="M57.7964 50.4079C57.6416 47.8503 57.1139 46.2299 56.6721 45.2914C56.2896 46.8298 55.4057 48.3219 55.3568 48.4036L54.9036 49.162L54.5071 48.3726C54.0973 47.5569 52.8336 45.4876 52.19 44.4442L49.2794 48.5607L45.8304 43.825L41.6772 47.7958L41.3468 47.5377C40.7845 47.0986 39.5958 44.6899 38.972 43.3701C38.3291 44.038 37.1648 45.4693 36.1633 46.7884L35.8007 47.2662L35.4096 46.8113C34.8331 46.1414 34.5446 44.5817 34.4077 43.4733C33.1691 45.2676 32.1929 48.0687 32.1816 48.102L31.2647 47.7854C31.3233 47.6153 32.7228 43.599 34.441 41.9097L35.2033 41.16L35.2653 42.2275C35.3204 43.181 35.5179 44.7094 35.8466 45.608C36.7368 44.459 38.3084 42.495 38.9019 42.1607L39.3601 41.9024L39.5803 42.38C40.2982 43.9372 41.2 45.7053 41.6867 46.445L45.9622 42.3574L49.2681 46.8969L52.2423 42.6904L52.6284 43.3095C52.7007 43.4257 54.1122 45.6899 54.9359 47.1343C55.3513 46.2932 55.9245 44.9302 55.8736 43.9016L55.8108 42.6294L56.7038 43.5376C56.7753 43.6106 58.4635 45.3808 58.7644 50.3492L57.7964 50.4079Z" fill="#FF5D7C"/>
</g>
<mask id="mask11_2011_76911" style="mask-type:luminance" maskUnits="userSpaceOnUse" x="30" y="33" width="29" height="41">
<path d="M58.236 60.9047C57.5829 69.7118 50.5413 74.2984 43.3265 73.7633C36.1115 73.2283 30.2919 67.2335 30.9451 58.4264C31.8808 45.8092 39.0926 33.0317 46.3076 33.5668C53.5224 34.1021 59.1552 48.5109 58.236 60.9047Z" fill="white"/>
</mask>
<g mask="url(#mask11_2011_76911)">
<path d="M57.753 56.7609C57.6032 54.2861 57.1008 52.6689 56.7061 51.7478C56.5781 51.4491 56.4527 51.2026 56.34 51.0038C56.0612 52.6974 54.9688 54.5419 54.9142 54.6332L54.631 55.107L54.3833 54.6137C53.9276 53.7062 52.4482 51.2976 51.8638 50.3527L48.8865 54.5634L45.4018 49.7789L41.1335 53.8598L40.9271 53.6984C40.3458 53.2444 38.9816 50.4152 38.449 49.2793C37.7592 49.9331 36.276 51.788 35.3785 52.9704L35.1517 53.2691L34.9071 52.9848C34.2607 52.2334 33.984 50.2844 33.8771 49.2035C32.4601 51.013 31.307 54.3246 31.2942 54.3614L30.7212 54.1636C30.7805 53.992 32.1912 49.9429 33.9093 48.2531L34.386 47.7846L34.4246 48.4518C34.4706 49.2501 34.6864 51.2916 35.1591 52.2595C35.8891 51.312 37.79 48.8901 38.413 48.5391L38.6994 48.3776L38.8369 48.6759C39.485 50.0812 40.5931 52.3142 41.1271 53.0272L45.484 48.8614L48.8793 53.5236L51.8962 49.2566L52.1376 49.6435C52.2165 49.7703 53.8682 52.4198 54.6582 53.8415C55.0809 53.0333 55.8561 51.3682 55.7953 50.136L55.7561 49.341L56.3143 49.9086C56.3852 49.9807 58.0565 51.7342 58.3586 56.7236L57.753 56.7609Z" fill="white"/>
</g>
<mask id="mask12_2011_76911" style="mask-type:luminance" maskUnits="userSpaceOnUse" x="30" y="33" width="29" height="41">
<path d="M58.236 60.9047C57.5829 69.7118 50.5413 74.2984 43.3265 73.7633C36.1115 73.2283 30.2919 67.2335 30.9451 58.4264C31.8808 45.8092 39.0926 33.0317 46.3076 33.5668C53.5224 34.1021 59.1552 48.5109 58.236 60.9047Z" fill="white"/>
</mask>
<g mask="url(#mask12_2011_76911)">
<path d="M55.8887 41.7226C55.7697 39.7565 55.3706 38.4718 55.0569 37.74C54.9551 37.503 54.8556 37.3069 54.7661 37.1489C54.5446 38.4945 53.6767 39.9597 53.6333 40.0322L53.4082 40.4088L53.2114 40.017C52.8494 39.296 51.6742 37.3824 51.2099 36.6319L48.8446 39.9774L46.0764 36.1765L42.6857 39.4183L42.5215 39.2901C42.0596 38.9294 40.9761 36.6818 40.5528 35.7792C40.0048 36.2983 38.8266 37.7723 38.1135 38.7117L37.9334 38.9488L37.7393 38.723C37.2259 38.126 37.0061 36.5778 36.9212 35.719C35.7954 37.1568 34.8793 39.7874 34.8694 39.8167L34.4141 39.6594C34.4611 39.5231 35.5819 36.3063 36.9469 34.964L37.3255 34.5918L37.3562 35.122C37.3929 35.7563 37.5641 37.3779 37.9396 38.1468C38.5195 37.3942 40.0298 35.4699 40.5246 35.1913L40.7519 35.0632L40.8612 35.3003C41.3762 36.4166 42.2566 38.1905 42.6805 38.7571L46.1418 35.4477L48.8392 39.1513L51.2359 35.7614L51.4276 36.0689C51.4904 36.1697 52.8026 38.2746 53.4303 39.4039C53.7661 38.7616 54.382 37.439 54.3334 36.4602L54.3022 35.8286L54.7455 36.2796C54.802 36.337 56.1295 37.7299 56.3697 41.6936L55.8887 41.7226Z" fill="white"/>
</g>
<mask id="mask13_2011_76911" style="mask-type:luminance" maskUnits="userSpaceOnUse" x="30" y="33" width="29" height="41">
<path d="M58.236 60.9047C57.5829 69.7118 50.5413 74.2984 43.3265 73.7633C36.1115 73.2283 30.2919 67.2335 30.9451 58.4264C31.8808 45.8092 39.0926 33.0317 46.3076 33.5668C53.5224 34.1021 59.1552 48.5109 58.236 60.9047Z" fill="white"/>
</mask>
<g mask="url(#mask13_2011_76911)">
<path d="M58.2803 73.5692C58.1084 70.7304 57.5325 68.8755 57.0795 67.8193C56.9326 67.4766 56.7889 67.1941 56.6596 66.9659C56.3395 68.9087 55.0867 71.0239 55.0241 71.1289L54.6993 71.6725L54.4152 71.1064C53.8926 70.0656 52.1958 67.3031 51.5252 66.2192L48.1102 71.0492L44.1136 65.5613L39.2179 70.2419L38.981 70.0569C38.3141 69.5363 36.7495 66.2912 36.1383 64.9882C35.347 65.7378 33.646 67.8655 32.6164 69.2218L32.3564 69.5643L32.0759 69.2383C31.3346 68.3766 31.0171 66.1412 30.8946 64.9013C29.2701 66.9763 27.9464 70.7753 27.9319 70.8174L27.2745 70.5906C27.3426 70.3938 28.9605 65.7492 30.9315 63.8112L31.4781 63.274L31.5224 64.0393C31.5752 64.9549 31.8227 67.2962 32.3647 68.4064C33.202 67.3196 35.3823 64.5416 36.0969 64.139L36.4254 63.9541L36.5832 64.2963C37.3265 65.9081 38.5976 68.4692 39.2099 69.2872L44.2074 64.5092L48.1018 69.8563L51.5621 64.9624L51.839 65.4063C51.9298 65.5518 53.8242 68.5909 54.7302 70.2212C55.215 69.2941 56.1042 67.3844 56.0343 65.9709L55.9893 65.059L56.6294 65.7101C56.7109 65.7929 58.6275 67.8041 58.9742 73.5271L58.2803 73.5692Z" fill="white"/>
</g>
<mask id="mask14_2011_76911" style="mask-type:luminance" maskUnits="userSpaceOnUse" x="30" y="33" width="29" height="41">
<path d="M58.236 60.9047C57.5829 69.7118 50.5413 74.2984 43.3265 73.7633C36.1115 73.2283 30.2919 67.2335 30.9451 58.4264C31.8808 45.8092 39.0926 33.0317 46.3076 33.5668C53.5224 34.1021 59.1552 48.5109 58.236 60.9047Z" fill="white"/>
</mask>
<g mask="url(#mask14_2011_76911)">
<path d="M58.0277 66.9418C57.8666 64.2844 57.3311 62.5472 56.9098 61.558C56.842 61.3987 56.7751 61.2532 56.7099 61.1209C56.3082 62.8652 55.2796 64.6022 55.2241 64.695L54.7709 65.4534L54.3744 64.664C53.9101 63.7393 52.4601 61.3683 51.7606 60.2353L48.5289 64.8057L44.7117 59.5644L40.095 63.9784L39.7645 63.7203C39.1394 63.232 37.7944 60.4931 37.1138 59.0495C36.4062 59.772 35.0783 61.4008 33.941 62.899L33.5785 63.3767L33.1871 62.9219C32.5319 62.16 32.2153 60.339 32.0717 59.1113C30.6544 61.1032 29.5298 64.3329 29.5169 64.3707L28.6 64.0544C28.6649 63.8661 30.2128 59.4233 32.1096 57.5584L32.872 56.8087L32.9336 57.8761C32.9969 58.9672 33.2286 60.7357 33.6162 61.7288C34.5361 60.5404 36.3823 58.2187 37.0457 57.8452L37.5039 57.5871L37.7241 58.0645C38.5388 59.8312 39.5641 61.8366 40.0997 62.6319L44.8428 58.097L48.5171 63.1424L51.8123 58.4821L52.1984 59.1012C52.2802 59.2324 53.9014 61.8331 54.8057 63.4272C55.271 62.4988 55.954 60.916 55.8954 59.7269L55.8327 58.4547L56.7256 59.3628C56.8044 59.4431 58.6633 61.3927 58.9956 66.8833L58.0277 66.9418Z" fill="#00DDDE"/>
</g>
<mask id="mask15_2011_76911" style="mask-type:luminance" maskUnits="userSpaceOnUse" x="32" y="34" width="29" height="41">
<path d="M60.3378 59.2569C61.0665 68.0584 54.8264 73.6876 47.6162 74.2845C40.4057 74.8815 33.7219 69.8678 32.9932 61.0662C31.9492 48.457 37.0798 34.7103 44.2902 34.1133C51.5005 33.5166 59.3123 46.8709 60.3378 59.2569Z" fill="white"/>
</mask>
<g mask="url(#mask15_2011_76911)">
<path opacity="0.37" d="M49.3822 54.0369C51.7512 53.8407 53.4007 50.4089 53.0665 46.3716C52.7322 42.3343 50.5408 39.2205 48.1718 39.4166C45.8028 39.6128 44.1533 43.0446 44.4876 47.0819C44.8218 51.1191 47.0132 54.233 49.3822 54.0369Z" fill="white"/>
</g>
<mask id="mask16_2011_76911" style="mask-type:luminance" maskUnits="userSpaceOnUse" x="30" y="33" width="29" height="41">
<path d="M58.236 60.9047C57.5829 69.7118 50.5413 74.2984 43.3265 73.7633C36.1115 73.2283 30.2919 67.2335 30.9451 58.4264C31.8808 45.8092 39.0926 33.0317 46.3076 33.5668C53.5224 34.1021 59.1552 48.5109 58.236 60.9047Z" fill="white"/>
</mask>
<g mask="url(#mask16_2011_76911)">
<path opacity="0.03" d="M66.6216 60.255C67.3293 67.2609 59.6947 72.4906 51.9144 72.1772C51.1879 72.4916 50.4267 72.6891 49.6358 72.7545C43.1116 73.2945 37.0769 64.7188 36.157 53.6003C35.4215 44.7116 38.1775 36.8894 42.646 33.8333C44.9021 29.253 46.9585 26.1981 46.9585 26.1981L38.013 30.4655L31.8165 40.1417L29.4135 57.7695L28.5548 69.3481L36.0817 74.9741L53.0588 76.9179L62.0342 75.94L69.6934 68.7009L66.6216 60.255Z" fill="#242E36"/>
</g>
<mask id="mask17_2011_76911" style="mask-type:luminance" maskUnits="userSpaceOnUse" x="30" y="33" width="29" height="41">
<path d="M58.236 60.9047C57.5829 69.7118 50.5413 74.2984 43.3265 73.7633C36.1115 73.2283 30.2919 67.2335 30.9451 58.4264C31.8808 45.8092 39.0926 33.0317 46.3076 33.5668C53.5224 34.1021 59.1552 48.5109 58.236 60.9047Z" fill="white"/>
</mask>
<g mask="url(#mask17_2011_76911)">
<path opacity="0.27" d="M59.5586 51.3854C58.6386 40.2669 52.6039 31.6912 46.0798 32.2312C44.7714 32.3393 43.5429 32.8069 42.4219 33.5737C37.9536 36.6299 35.1974 44.452 35.9328 53.3407C36.8531 64.4592 42.8878 73.0349 49.4117 72.4949C50.2023 72.4295 50.9638 72.232 51.6903 71.9176C56.9565 69.6382 60.3671 61.1563 59.5586 51.3854Z" fill="white"/>
</g>
<mask id="mask18_2011_76911" style="mask-type:luminance" maskUnits="userSpaceOnUse" x="61" y="35" width="31" height="45">
<path d="M91.5702 65.5519C90.8488 75.2793 83.0714 80.3452 75.1028 79.7542C67.1338 79.1632 60.7061 72.5421 61.4275 62.8147C62.461 48.8791 70.4264 34.7664 78.3954 35.3574C86.364 35.9487 92.5854 51.863 91.5702 65.5519Z" fill="white"/>
</mask>
<g mask="url(#mask18_2011_76911)">
<path d="M97.7247 31.4514L58.4642 28.5397L54.3938 83.4241L93.6543 86.3358L97.7247 31.4514Z" fill="#FFB41B"/>
</g>
<mask id="mask19_2011_76911" style="mask-type:luminance" maskUnits="userSpaceOnUse" x="61" y="35" width="31" height="45">
<path d="M91.5702 65.5519C90.8488 75.2793 83.0714 80.3452 75.1028 79.7542C67.1338 79.1632 60.7061 72.5421 61.4275 62.8147C62.461 48.8791 70.4264 34.7664 78.3954 35.3574C86.364 35.9487 92.5854 51.863 91.5702 65.5519Z" fill="white"/>
</mask>
<g mask="url(#mask19_2011_76911)">
<path d="M91.0847 53.9583C90.9137 51.1334 90.3309 49.3437 89.8429 48.3072C89.4204 50.0063 88.4442 51.6544 88.3901 51.7446L87.8896 52.5822L87.4517 51.7104C86.999 50.8094 85.6033 48.5239 84.8925 47.3715L81.6777 51.918L77.8683 46.6876L73.2812 51.0733L72.9162 50.7882C72.2951 50.3032 70.9823 47.6428 70.2932 46.1851C69.5832 46.9228 68.2972 48.5037 67.191 49.9606L66.7906 50.4883L66.3586 49.9859C65.7219 49.246 65.4033 47.5233 65.2521 46.299C63.8841 48.2808 62.8058 51.3747 62.7934 51.4114L61.7807 51.0618C61.8454 50.8739 63.3911 46.4379 65.2888 44.5722L66.1308 43.7441L66.1992 44.9231C66.2601 45.9762 66.4783 47.6644 66.8413 48.6569C67.8245 47.3877 69.5603 45.2186 70.2159 44.8494L70.722 44.5641L70.9651 45.0916C71.7581 46.8115 72.754 48.7643 73.2917 49.5813L78.0139 45.0666L81.6653 50.0805L84.9502 45.4344L85.3767 46.1182C85.4565 46.2465 87.0155 48.7474 87.9253 50.3427C88.384 49.4137 89.0171 47.9083 88.961 46.7721L88.8916 45.367L89.8779 46.3701C89.9569 46.4507 91.8215 48.406 92.1538 53.8934L91.0847 53.9583Z" fill="#FF5D7C"/>
</g>
<mask id="mask20_2011_76911" style="mask-type:luminance" maskUnits="userSpaceOnUse" x="61" y="35" width="31" height="45">
<path d="M91.5702 65.5519C90.8488 75.2793 83.0714 80.3452 75.1028 79.7542C67.1338 79.1632 60.7061 72.5421 61.4275 62.8147C62.461 48.8791 70.4264 34.7664 78.3954 35.3574C86.364 35.9487 92.5854 51.863 91.5702 65.5519Z" fill="white"/>
</mask>
<g mask="url(#mask20_2011_76911)">
<path d="M91.0367 60.9751C90.8713 58.2417 90.3164 56.4555 89.8804 55.4382C89.7391 55.1084 89.6006 54.8361 89.4761 54.6165C89.1682 56.4871 87.9616 58.5242 87.9013 58.6251L87.5885 59.1485L87.315 58.6036C86.8116 57.6013 85.1777 54.941 84.5321 53.8973L81.2437 58.5481L77.3949 53.2636L72.6807 57.7709L72.4527 57.5927C71.8106 57.0913 70.3039 53.9664 69.7157 52.7117C68.9537 53.4339 67.3156 55.4827 66.3243 56.7886L66.0737 57.1185L65.8036 56.8045C65.0897 55.9746 64.7841 53.8219 64.666 52.6281C63.101 54.6267 61.8273 58.2843 61.8132 58.3249L61.1804 58.1064C61.2458 57.9169 62.8039 53.4447 64.7016 51.5784L65.2281 51.0609L65.2707 51.7979C65.3215 52.6796 65.5599 54.9343 66.0819 56.0034C66.8882 54.9569 68.9878 52.2819 69.6758 51.8942L69.9922 51.7159L70.1441 52.0454C70.8598 53.5975 72.0838 56.0638 72.6735 56.8513L77.4858 52.2502L81.2359 57.3995L84.568 52.6867L84.8345 53.114C84.9218 53.2541 86.746 56.1805 87.6185 57.7507C88.0855 56.858 88.9417 55.019 88.8745 53.658L88.8312 52.78L89.4477 53.4068C89.526 53.4865 91.372 55.4233 91.7057 60.934L91.0367 60.9751Z" fill="white"/>
</g>
<mask id="mask21_2011_76911" style="mask-type:luminance" maskUnits="userSpaceOnUse" x="61" y="35" width="31" height="45">
<path d="M91.5702 65.5519C90.8488 75.2793 83.0714 80.3452 75.1028 79.7542C67.1338 79.1632 60.7061 72.5421 61.4275 62.8147C62.461 48.8791 70.4264 34.7664 78.3954 35.3574C86.364 35.9487 92.5854 51.863 91.5702 65.5519Z" fill="white"/>
</mask>
<g mask="url(#mask21_2011_76911)">
<path d="M88.9776 44.3654C88.8461 42.1939 88.4053 40.775 88.0589 39.9667C87.9464 39.7049 87.8366 39.4884 87.7377 39.3138C87.493 40.8001 86.5344 42.4184 86.4865 42.4984L86.2379 42.9144L86.0206 42.4816C85.6207 41.6853 84.3227 39.5717 83.8099 38.7428L81.1974 42.4378L78.14 38.2398L74.395 41.8203L74.2137 41.6787C73.7035 41.2804 72.5068 38.7979 72.0393 37.8011C71.4339 38.3744 70.1327 40.0024 69.3451 41.0399L69.1461 41.3018L68.9317 41.0524C68.3647 40.393 68.1219 38.683 68.0281 37.7345C66.7847 39.3225 65.7729 42.2281 65.7619 42.2604L65.2591 42.0866C65.311 41.9361 66.5489 38.3831 68.0566 36.9006L68.4747 36.4895L68.5086 37.0751C68.5491 37.7757 68.7382 39.5667 69.153 40.4161C69.7935 39.5848 71.4615 37.4594 72.0081 37.1517L72.2592 37.0102L72.3799 37.272C72.9486 38.505 73.921 40.4643 74.3892 41.0901L78.2123 37.4349L81.1915 41.5255L83.8387 37.7814L84.0504 38.121C84.1197 38.2323 85.5691 40.5572 86.2623 41.8045C86.6332 41.0951 87.3135 39.6343 87.2598 38.5531L87.2253 37.8556L87.715 38.3537C87.7773 38.4171 89.2436 39.9555 89.5089 44.3335L88.9776 44.3654Z" fill="white"/>
</g>
<mask id="mask22_2011_76911" style="mask-type:luminance" maskUnits="userSpaceOnUse" x="61" y="35" width="31" height="45">
<path d="M91.5702 65.5519C90.8488 75.2793 83.0714 80.3452 75.1028 79.7542C67.1338 79.1632 60.7061 72.5421 61.4275 62.8147C62.461 48.8791 70.4264 34.7664 78.3954 35.3574C86.364 35.9487 92.5854 51.863 91.5702 65.5519Z" fill="white"/>
</mask>
<g mask="url(#mask22_2011_76911)">
<path d="M91.6191 79.5398C91.4292 76.4044 90.7931 74.3556 90.2928 73.1891C90.1305 72.8106 89.9718 72.4986 89.829 72.2465C89.4755 74.3923 88.0918 76.7286 88.0227 76.8444L87.6639 77.4449L87.3501 76.8197C86.7729 75.67 84.8988 72.6189 84.1581 71.4218L80.3863 76.7565L75.9721 70.6951L70.5648 75.8648L70.3031 75.6605C69.5666 75.0855 67.8385 71.5013 67.1634 70.0621C66.2895 70.89 64.4107 73.2401 63.2735 74.7381L62.9863 75.1164L62.6765 74.7563C61.8577 73.8045 61.5071 71.3357 61.3718 69.9662C59.5775 72.258 58.1155 76.454 58.0995 76.5004L57.3734 76.2499C57.4486 76.0326 59.2356 70.9026 61.4125 68.7622L62.0162 68.1688L62.0652 69.0141C62.1234 70.0254 62.3969 72.6113 62.9955 73.8376C63.9202 72.6372 66.3284 69.5689 67.1177 69.1242L67.4805 68.92L67.6548 69.2979C68.4758 71.0782 69.8797 73.9069 70.556 74.8104L76.0757 69.5331L80.377 75.4389L84.1989 70.0337L84.5047 70.5239C84.605 70.6846 86.6973 74.0413 87.698 75.842C88.2335 74.8179 89.2156 72.7088 89.1384 71.1475L89.0887 70.1403L89.7957 70.8595C89.8857 70.9509 92.0025 73.1723 92.3854 79.4933L91.6191 79.5398Z" fill="white"/>
</g>
<mask id="mask23_2011_76911" style="mask-type:luminance" maskUnits="userSpaceOnUse" x="61" y="35" width="31" height="45">
<path d="M91.5702 65.5519C90.8488 75.2793 83.0714 80.3452 75.1028 79.7542C67.1338 79.1632 60.7061 72.5421 61.4275 62.8147C62.461 48.8791 70.4264 34.7664 78.3954 35.3574C86.364 35.9487 92.5854 51.863 91.5702 65.5519Z" fill="white"/>
</mask>
<g mask="url(#mask23_2011_76911)">
<path d="M91.3401 72.2198C91.1622 69.2848 90.5707 67.3661 90.1054 66.2735C90.0305 66.0976 89.9565 65.9368 89.8846 65.7908C89.4409 67.7173 88.3048 69.6358 88.2435 69.7383L87.743 70.5759L87.3051 69.7041C86.7923 68.6828 85.1907 66.064 84.4181 64.8126L80.8488 69.8606L76.6327 64.0716L71.5335 68.9468L71.1685 68.6617C70.4781 68.1225 68.9925 65.0973 68.2408 63.5029C67.4593 64.3009 65.9927 66.0999 64.7366 67.7546L64.3361 68.2823L63.9038 67.7799C63.1802 66.9385 62.8305 64.9272 62.6719 63.5711C61.1065 65.7712 59.8644 69.3384 59.8501 69.3801L58.8374 69.0307C58.9091 68.8228 60.6187 63.9158 62.7137 61.856L63.5558 61.028L63.6239 62.2069C63.6938 63.412 63.9496 65.3652 64.3777 66.4622C65.3938 65.1496 67.4329 62.5853 68.1657 62.1727L68.6717 61.8877L68.9149 62.415C69.8148 64.3663 70.9472 66.5812 71.5388 67.4596L76.7774 62.4509L80.8357 68.0235L84.4752 62.8763L84.9017 63.5601C84.992 63.7049 86.7826 66.5774 87.7814 68.338C88.2953 67.3126 89.0497 65.5645 88.985 64.2511L88.9157 62.8459L89.9019 63.849C89.9889 63.9376 92.0421 66.0909 92.4092 72.1553L91.3401 72.2198Z" fill="#00DDDE"/>
</g>
<mask id="mask24_2011_76911" style="mask-type:luminance" maskUnits="userSpaceOnUse" x="63" y="35" width="31" height="46">
<path d="M93.8917 63.732C94.6966 73.4533 87.8043 79.6706 79.8407 80.3299C71.8768 80.9893 64.4946 75.4517 63.6898 65.7304C62.5367 51.8036 68.2034 36.6205 76.1673 35.9611C84.1309 35.3021 92.7591 50.0517 93.8917 63.732Z" fill="white"/>
</mask>
<g mask="url(#mask24_2011_76911)">
<path opacity="0.37" d="M81.7913 57.9665C84.4078 57.7499 86.2297 53.9594 85.8605 49.5003C85.4913 45.0412 83.0709 41.6019 80.4543 41.8186C77.8378 42.0352 76.016 45.8257 76.3852 50.2848C76.7543 54.7439 79.1748 58.1831 81.7913 57.9665Z" fill="white"/>
</g>
<mask id="mask25_2011_76911" style="mask-type:luminance" maskUnits="userSpaceOnUse" x="61" y="35" width="31" height="45">
<path d="M91.5702 65.5519C90.8488 75.2793 83.0714 80.3452 75.1028 79.7542C67.1338 79.1632 60.7061 72.5421 61.4275 62.8147C62.461 48.8791 70.4264 34.7664 78.3954 35.3574C86.364 35.9487 92.5854 51.863 91.5702 65.5519Z" fill="white"/>
</mask>
<g mask="url(#mask25_2011_76911)">
<path opacity="0.03" d="M100.832 64.8344C101.614 72.5723 93.1813 78.3485 84.588 78.0023C83.7856 78.3496 82.9449 78.5678 82.0713 78.64C74.8654 79.2364 68.2002 69.7646 67.1841 57.4843C66.3718 47.6668 69.4157 39.0273 74.3511 35.6518C76.843 30.5929 79.1142 27.2188 79.1142 27.2188L69.2341 31.9321L62.3901 42.6194L59.736 62.0891L58.7876 74.8776L67.101 81.0914L85.852 83.2384L95.7652 82.1584L104.225 74.1628L100.832 64.8344Z" fill="#242E36"/>
</g>
<mask id="mask26_2011_76911" style="mask-type:luminance" maskUnits="userSpaceOnUse" x="61" y="35" width="31" height="45">
<path d="M91.5702 65.5519C90.8488 75.2793 83.0714 80.3452 75.1028 79.7542C67.1338 79.1632 60.7061 72.5421 61.4275 62.8147C62.461 48.8791 70.4264 34.7664 78.3954 35.3574C86.364 35.9487 92.5854 51.863 91.5702 65.5519Z" fill="white"/>
</mask>
<g mask="url(#mask26_2011_76911)">
<path opacity="0.27" d="M93.031 55.0379C92.0149 42.7576 85.3496 33.2859 78.1438 33.8823C76.6987 34.0017 75.3418 34.5182 74.1036 35.3651C69.1685 38.7406 66.1242 47.3801 66.9365 57.1976C67.9529 69.4779 74.6182 78.9497 81.8238 78.3532C82.6971 78.281 83.5381 78.0628 84.3405 77.7156C90.157 75.1981 93.924 65.8298 93.031 55.0379Z" fill="white"/>
</g>
<mask id="mask27_2011_76911" style="mask-type:luminance" maskUnits="userSpaceOnUse" x="80" y="34" width="27" height="40">
<path d="M106.849 60.7742C106.222 69.2385 99.4542 73.6466 92.5203 73.1324C85.5861 72.6181 79.993 66.8567 80.6208 58.3924C81.5201 46.2663 88.4512 33.9861 95.3854 34.5004C102.319 35.0148 107.733 48.8628 106.849 60.7742Z" fill="white"/>
</mask>
<g mask="url(#mask27_2011_76911)">
<path d="M112.205 31.1015L78.0422 28.5679L74.5004 76.3257L108.663 78.8593L112.205 31.1015Z" fill="#FFB41B"/>
</g>
<mask id="mask28_2011_76911" style="mask-type:luminance" maskUnits="userSpaceOnUse" x="80" y="34" width="27" height="40">
<path d="M106.849 60.7742C106.222 69.2385 99.4542 73.6466 92.5203 73.1324C85.5861 72.6181 79.993 66.8567 80.6208 58.3924C81.5201 46.2663 88.4512 33.9861 95.3854 34.5004C102.319 35.0148 107.733 48.8628 106.849 60.7742Z" fill="white"/>
</mask>
<g mask="url(#mask28_2011_76911)">
<path d="M106.427 50.686C106.278 48.2279 105.771 46.6706 105.346 45.7686C104.979 47.2471 104.129 48.6812 104.082 48.7597L103.647 49.4886L103.266 48.7299C102.872 47.946 101.657 45.9572 101.039 44.9544L98.2414 48.9107L94.9266 44.3593L90.9352 48.1756L90.6176 47.9275C90.0771 47.5055 88.9348 45.1905 88.3352 43.9222C87.7174 44.564 86.5983 45.9396 85.6358 47.2074L85.2873 47.6666L84.9115 47.2294C84.3574 46.5856 84.0802 45.0865 83.9486 44.0213C82.7582 45.7457 81.82 48.4379 81.8092 48.4698L80.928 48.1656C80.9843 48.0021 82.3293 44.1421 83.9806 42.5186L84.7132 41.7981L84.7728 42.824C84.8257 43.7404 85.0156 45.2093 85.3315 46.0729C86.187 44.9686 87.6974 43.0811 88.2679 42.7598L88.7083 42.5116L88.9198 42.9706C89.6098 44.4672 90.4765 46.1664 90.9443 46.8774L95.0533 42.9489L98.2306 47.3117L101.089 43.2689L101.46 43.8639C101.53 43.9756 102.886 46.1517 103.678 47.5398C104.077 46.7315 104.628 45.4215 104.579 44.4329L104.519 43.2103L105.377 44.0831C105.446 44.1532 107.068 45.8546 107.357 50.6296L106.427 50.686Z" fill="#FF5D7C"/>
</g>
<mask id="mask29_2011_76911" style="mask-type:luminance" maskUnits="userSpaceOnUse" x="80" y="34" width="27" height="40">
<path d="M106.849 60.7742C106.222 69.2385 99.4542 73.6466 92.5203 73.1324C85.5861 72.6181 79.993 66.8567 80.6208 58.3924C81.5201 46.2663 88.4512 33.9861 95.3854 34.5004C102.319 35.0148 107.733 48.8628 106.849 60.7742Z" fill="white"/>
</mask>
<g mask="url(#mask29_2011_76911)">
<path d="M106.385 56.7917C106.241 54.4132 105.759 52.8589 105.379 51.9737C105.256 51.6867 105.136 51.4498 105.027 51.2587C104.759 52.8864 103.709 54.659 103.657 54.7468L103.385 55.2022L103.147 54.7281C102.709 53.8559 101.287 51.5411 100.725 50.6329L97.8639 54.6798L94.5148 50.0814L90.4127 54.0035L90.2143 53.8484C89.6556 53.4121 88.3445 50.693 87.8327 49.6013C87.1697 50.2296 85.7443 52.0124 84.8817 53.1487L84.6637 53.4358L84.4286 53.1625C83.8074 52.4405 83.5415 50.5673 83.4387 49.5285C82.0769 51.2675 80.9687 54.4502 80.9563 54.4856L80.4057 54.2955C80.4626 54.1306 81.8184 50.239 83.4697 48.6151L83.9278 48.1648L83.9649 48.806C84.0091 49.5733 84.2165 51.5352 84.6708 52.4655C85.3724 51.5549 87.1993 49.2272 87.798 48.8899L88.0733 48.7347L88.2055 49.0214C88.8283 50.372 89.8933 52.518 90.4065 53.2033L94.5939 49.1997L97.857 53.6804L100.756 49.5795L100.988 49.9513C101.064 50.0732 102.652 52.6196 103.411 53.986C103.817 53.2092 104.562 51.6089 104.504 50.4246L104.466 49.6606L105.003 50.2061C105.071 50.2754 106.677 51.9607 106.967 56.7559L106.385 56.7917Z" fill="white"/>
</g>
<mask id="mask30_2011_76911" style="mask-type:luminance" maskUnits="userSpaceOnUse" x="80" y="34" width="27" height="40">
<path d="M106.849 60.7742C106.222 69.2385 99.4542 73.6466 92.5203 73.1324C85.5861 72.6181 79.993 66.8567 80.6208 58.3924C81.5201 46.2663 88.4512 33.9861 95.3854 34.5004C102.319 35.0148 107.733 48.8628 106.849 60.7742Z" fill="white"/>
</mask>
<g mask="url(#mask30_2011_76911)">
<path d="M104.593 42.3387C104.479 40.4492 104.096 39.2145 103.794 38.5111C103.696 38.2833 103.601 38.0949 103.515 37.943C103.302 39.2363 102.468 40.6445 102.426 40.7142L102.21 41.0761L102.02 40.6995C101.672 40.0066 100.543 38.1674 100.097 37.4462L97.8235 40.6614L95.1631 37.0085L91.9044 40.1241L91.7466 40.0009C91.3027 39.6543 90.2613 37.4941 89.8545 36.6267C89.3278 37.1256 88.1955 38.5422 87.5102 39.445L87.337 39.6729L87.1505 39.4559C86.6571 38.8821 86.4458 37.3942 86.3642 36.5688C85.2822 37.9506 84.4018 40.4789 84.3923 40.507L83.9547 40.3558C83.9999 40.2248 85.0771 37.1332 86.389 35.8432L86.7528 35.4855L86.7823 35.995C86.8175 36.6046 86.9821 38.1631 87.343 38.9022C87.9003 38.1788 89.3518 36.3294 89.8274 36.0617L90.0459 35.9386L90.1509 36.1664C90.6458 37.2392 91.4919 38.9441 91.8993 39.4887L95.226 36.3081L97.8183 39.8675L100.122 36.6096L100.306 36.9051C100.366 37.002 101.628 39.025 102.231 40.1103C102.553 39.493 103.145 38.2219 103.099 37.2811L103.069 36.6741L103.495 37.1076C103.549 37.1628 104.825 38.5014 105.056 42.3109L104.593 42.3387Z" fill="white"/>
</g>
<mask id="mask31_2011_76911" style="mask-type:luminance" maskUnits="userSpaceOnUse" x="80" y="34" width="27" height="40">
<path d="M106.849 60.7742C106.222 69.2385 99.4542 73.6466 92.5203 73.1324C85.5861 72.6181 79.993 66.8567 80.6208 58.3924C81.5201 46.2663 88.4512 33.9861 95.3854 34.5004C102.319 35.0148 107.733 48.8628 106.849 60.7742Z" fill="white"/>
</mask>
<g mask="url(#mask31_2011_76911)">
<path d="M106.892 72.9457C106.727 70.2175 106.173 68.4347 105.738 67.4197C105.597 67.0903 105.459 66.8188 105.334 66.5995C105.027 68.4667 103.823 70.4996 103.763 70.6004L103.45 71.1229L103.177 70.5789C102.675 69.5785 101.044 66.9236 100.4 65.8819L97.1178 70.5238L93.2767 65.2495L88.5715 69.748L88.3438 69.5702C87.7029 69.0699 86.1992 65.951 85.6118 64.6987C84.8513 65.4192 83.2165 67.4641 82.227 68.7676L81.9771 69.0967L81.7075 68.7834C80.995 67.9552 80.6899 65.8069 80.5722 64.6153C79.0109 66.6095 77.7388 70.2606 77.7248 70.3011L77.093 70.0831C77.1585 69.894 78.7134 65.4301 80.6077 63.5676L81.133 63.0513L81.1755 63.7868C81.2263 64.6668 81.4642 66.9169 81.9851 67.9839C82.7897 66.9394 84.8852 64.2696 85.572 63.8826L85.8877 63.7049L86.0394 64.0338C86.7538 65.5829 87.9754 68.0443 88.5638 68.8305L93.3668 64.2385L97.1097 69.3773L100.435 64.674L100.701 65.1005C100.789 65.2404 102.609 68.1612 103.48 69.7281C103.946 68.837 104.801 67.0017 104.733 65.6432L104.69 64.7668L105.305 65.3926C105.384 65.4721 107.226 67.4051 107.559 72.9053L106.892 72.9457Z" fill="white"/>
</g>
<mask id="mask32_2011_76911" style="mask-type:luminance" maskUnits="userSpaceOnUse" x="80" y="34" width="27" height="40">
<path d="M106.849 60.7742C106.222 69.2385 99.4542 73.6466 92.5203 73.1324C85.5861 72.6181 79.993 66.8567 80.6208 58.3924C81.5201 46.2663 88.4512 33.9861 95.3854 34.5004C102.319 35.0148 107.733 48.8628 106.849 60.7742Z" fill="white"/>
</mask>
<g mask="url(#mask32_2011_76911)">
<path d="M106.649 66.5763C106.494 64.0224 105.98 62.3528 105.575 61.4021C105.51 61.249 105.445 61.1092 105.383 60.9821C104.997 62.6584 104.008 64.3278 103.955 64.417L103.519 65.1459L103.138 64.3872C102.692 63.4985 101.298 61.2198 100.626 60.1309L97.5202 64.5234L93.8516 59.4861L89.4145 63.7283L89.0969 63.4802C88.4962 63.011 87.2035 60.3787 86.5494 58.9913C85.8693 59.6857 84.5932 61.251 83.5001 62.6909L83.1517 63.1501L82.7756 62.7129C82.1459 61.9807 81.8416 60.2306 81.7036 59.0506C80.3414 60.965 79.2606 64.069 79.2482 64.1053L78.367 63.8013C78.4293 63.6204 79.917 59.3505 81.74 57.5582L82.4727 56.8377L82.5319 57.8636C82.5928 58.9122 82.8154 60.6118 83.1879 61.5663C84.0721 60.4241 85.8464 58.1928 86.484 57.8338L86.9243 57.5858L87.1359 58.0446C87.919 59.7425 88.9043 61.6698 89.4191 62.4342L93.9775 58.0759L97.5089 62.9249L100.676 58.446L101.047 59.041C101.125 59.167 102.684 61.6665 103.553 63.1985C104 62.3063 104.656 60.7851 104.6 59.6423L104.54 58.4196L105.398 59.2924C105.474 59.3695 107.26 61.2432 107.58 66.5201L106.649 66.5763Z" fill="#00DDDE"/>
</g>
<mask id="mask33_2011_76911" style="mask-type:luminance" maskUnits="userSpaceOnUse" x="82" y="35" width="27" height="39">
<path d="M108.87 59.1906C109.57 67.6495 103.573 73.0596 96.643 73.6333C89.7132 74.2071 83.2896 69.3885 82.5892 60.9295C81.5859 48.8111 86.5168 35.5994 93.4466 35.0257C100.376 34.4522 107.884 47.2867 108.87 59.1906Z" fill="white"/>
</mask>
<g mask="url(#mask33_2011_76911)">
<path opacity="0.37" d="M98.3403 54.1737C100.617 53.9852 102.202 50.6869 101.881 46.8068C101.56 42.9267 99.4537 39.934 97.1769 40.1226C94.9001 40.3111 93.3149 43.6093 93.6361 47.4895C93.9574 51.3696 96.0635 54.3622 98.3403 54.1737Z" fill="white"/>
</g>
<mask id="mask34_2011_76911" style="mask-type:luminance" maskUnits="userSpaceOnUse" x="80" y="34" width="27" height="40">
<path d="M106.849 60.7742C106.222 69.2385 99.4542 73.6466 92.5203 73.1324C85.5861 72.6181 79.993 66.8567 80.6208 58.3924C81.5201 46.2663 88.4512 33.9861 95.3854 34.5004C102.319 35.0148 107.733 48.8628 106.849 60.7742Z" fill="white"/>
</mask>
<g mask="url(#mask34_2011_76911)">
<path opacity="0.03" d="M114.909 60.1498C115.589 66.883 108.251 71.9092 100.774 71.608C100.076 71.9101 99.3441 72.1 98.5839 72.1628C92.3137 72.6818 86.5139 64.4399 85.6297 53.7541C84.9229 45.2114 87.5716 37.6937 91.8662 34.7565C94.0345 30.3545 96.0108 27.4185 96.0108 27.4185L87.4136 31.5198L81.4583 40.8194L79.1488 57.761L78.3235 68.8889L85.5574 74.2959L101.874 76.1641L110.5 75.2243L117.861 68.267L114.909 60.1498Z" fill="#242E36"/>
</g>
<mask id="mask35_2011_76911" style="mask-type:luminance" maskUnits="userSpaceOnUse" x="80" y="34" width="27" height="40">
<path d="M106.849 60.7742C106.222 69.2385 99.4542 73.6466 92.5203 73.1324C85.5861 72.6181 79.993 66.8567 80.6208 58.3924C81.5201 46.2663 88.4512 33.9861 95.3854 34.5004C102.319 35.0148 107.733 48.8628 106.849 60.7742Z" fill="white"/>
</mask>
<g mask="url(#mask35_2011_76911)">
<path opacity="0.27" d="M108.121 51.6254C107.236 40.9397 101.437 32.6978 95.1664 33.2168C93.909 33.3207 92.7282 33.7701 91.6508 34.507C87.3565 37.4442 84.7076 44.962 85.4144 53.5046C86.2988 64.1904 92.0986 72.4323 98.3686 71.9133C99.1285 71.8505 99.8603 71.6606 100.558 71.3585C105.62 69.1678 108.898 61.016 108.121 51.6254Z" fill="white"/>
</g>
<mask id="mask36_2011_76911" style="mask-type:luminance" maskUnits="userSpaceOnUse" x="51" y="41" width="27" height="38">
<path d="M77.5364 66.6327C76.9257 74.8672 70.3419 79.1556 63.5963 78.6553C56.8503 78.155 51.4091 72.55 52.0198 64.3155C52.8947 52.5187 59.6376 40.5719 66.3835 41.0722C73.1292 41.5727 78.3958 55.0447 77.5364 66.6327Z" fill="white"/>
</mask>
<g mask="url(#mask36_2011_76911)">
<path d="M82.7464 37.7657L49.5114 35.3008L46.0657 81.7619L79.3007 84.2267L82.7464 37.7657Z" fill="#FFB41B"/>
</g>
<mask id="mask37_2011_76911" style="mask-type:luminance" maskUnits="userSpaceOnUse" x="51" y="41" width="27" height="38">
<path d="M77.5364 66.6327C76.9257 74.8672 70.3419 79.1556 63.5963 78.6553C56.8503 78.155 51.4091 72.55 52.0198 64.3155C52.8947 52.5187 59.6376 40.5719 66.3835 41.0722C73.1292 41.5727 78.3958 55.0447 77.5364 66.6327Z" fill="white"/>
</mask>
<g mask="url(#mask37_2011_76911)">
<path d="M77.1253 56.8184C76.9806 54.427 76.4872 52.912 76.0742 52.0345C75.7165 53.4729 74.8901 54.8681 74.8443 54.9444L74.4206 55.6535L74.0499 54.9154C73.6667 54.1528 72.4852 52.218 71.8834 51.2424L69.1621 55.0912L65.9373 50.6635L62.0542 54.3761L61.7452 54.1348C61.2195 53.7242 60.1081 51.4721 59.5248 50.2382C58.9238 50.8626 57.8351 52.2009 56.8987 53.4342L56.5597 53.8809L56.194 53.4556C55.6551 52.8293 55.3853 51.371 55.2573 50.3346C54.0993 52.0123 53.1865 54.6313 53.176 54.6624L52.3187 54.3664C52.3735 54.2074 53.682 50.4521 55.2884 48.8728L56.0012 48.1718L56.0591 49.1698C56.1107 50.0613 56.2953 51.4904 56.6027 52.3306C57.435 51.2562 58.9044 49.42 59.4594 49.1074L59.8878 48.8659L60.0936 49.3125C60.7648 50.7684 61.6079 52.4215 62.0631 53.1132L66.0606 49.2913L69.1516 53.5357L71.9323 49.6026L72.2934 50.1815C72.3609 50.2901 73.6807 52.4072 74.4508 53.7576C74.8392 52.9712 75.3751 51.6969 75.3275 50.7351L75.2689 49.5456L76.1037 50.3947C76.1707 50.463 77.7491 52.1182 78.0304 56.7635L77.1253 56.8184Z" fill="#FF5D7C"/>
</g>
<mask id="mask38_2011_76911" style="mask-type:luminance" maskUnits="userSpaceOnUse" x="51" y="41" width="27" height="38">
<path d="M77.5364 66.6327C76.9257 74.8672 70.3419 79.1556 63.5963 78.6553C56.8503 78.155 51.4091 72.55 52.0198 64.3155C52.8947 52.5187 59.6376 40.5719 66.3835 41.0722C73.1292 41.5727 78.3958 55.0447 77.5364 66.6327Z" fill="white"/>
</mask>
<g mask="url(#mask38_2011_76911)">
<path d="M77.0847 62.7583C76.9446 60.4444 76.475 58.9323 76.1059 58.0711C75.9862 57.7919 75.869 57.5614 75.7636 57.3755C75.5029 58.9591 74.4815 60.6836 74.4305 60.7689L74.1657 61.212L73.9341 60.7507C73.508 59.9022 72.1249 57.6503 71.5784 56.7668L68.7947 60.7037L65.5366 56.2302L61.5458 60.0458L61.3528 59.895C60.8093 59.4705 59.5338 56.8252 59.0359 55.7631C58.3908 56.3744 57.0041 58.1088 56.1649 59.2142L55.9529 59.4935L55.7242 59.2277C55.1199 58.5252 54.8612 56.7029 54.7612 55.6923C53.4364 57.3841 52.3582 60.4804 52.3462 60.5148L51.8105 60.3299C51.8659 60.1694 53.1849 56.3836 54.7913 54.8037L55.237 54.3656L55.2731 54.9895C55.3161 55.7359 55.5179 57.6446 55.9598 58.5496C56.6424 57.6637 58.4197 55.3992 59.0021 55.0711L59.2699 54.9201L59.3986 55.199C60.0044 56.5129 61.0405 58.6007 61.5398 59.2673L65.6135 55.3724L68.788 59.7315L71.6087 55.7419L71.8344 56.1037C71.9082 56.2222 73.4525 58.6995 74.1911 60.0288C74.5864 59.2731 75.3112 57.7162 75.2543 56.5641L75.2176 55.8209L75.7396 56.3515C75.8058 56.419 77.3685 58.0585 77.651 62.7234L77.0847 62.7583Z" fill="white"/>
</g>
<mask id="mask39_2011_76911" style="mask-type:luminance" maskUnits="userSpaceOnUse" x="51" y="41" width="27" height="38">
<path d="M77.5364 66.6327C76.9257 74.8672 70.3419 79.1556 63.5963 78.6553C56.8503 78.155 51.4091 72.55 52.0198 64.3155C52.8947 52.5187 59.6376 40.5719 66.3835 41.0722C73.1292 41.5727 78.3958 55.0447 77.5364 66.6327Z" fill="white"/>
</mask>
<g mask="url(#mask39_2011_76911)">
<path d="M75.3417 48.6977C75.2303 46.8595 74.8572 45.6583 74.5639 44.9741C74.4687 44.7525 74.3757 44.5692 74.292 44.4214C74.0849 45.6796 73.2734 47.0495 73.2329 47.1173L73.0224 47.4694L72.8384 47.103C72.4999 46.4289 71.4011 44.6397 70.967 43.938L68.7555 47.066L66.1673 43.5123L62.9971 46.5432L62.8436 46.4234C62.4117 46.0862 61.3986 43.9847 61.0029 43.1408C60.4904 43.6262 59.3889 45.0043 58.7222 45.8826L58.5538 46.1043L58.3723 45.8932C57.8923 45.335 57.6867 43.8874 57.6073 43.0845C56.5547 44.4288 55.6982 46.8884 55.6889 46.9158L55.2633 46.7687C55.3073 46.6412 56.3552 43.6336 57.6314 42.3786L57.9853 42.0306L58.0141 42.5263C58.0484 43.1194 58.2085 44.6355 58.5596 45.3545C59.1018 44.6508 60.5138 42.8516 60.9765 42.5911L61.189 42.4714L61.2912 42.693C61.7727 43.7367 62.5958 45.3953 62.9922 45.9251L66.2285 42.8309L68.7505 46.2937L70.9914 43.1242L71.1706 43.4117C71.2293 43.5059 72.4562 45.474 73.0431 46.5299C73.357 45.9293 73.9329 44.6927 73.8875 43.7775L73.8583 43.187L74.2728 43.6087C74.3256 43.6623 75.5668 44.9646 75.7914 48.6707L75.3417 48.6977Z" fill="white"/>
</g>
<mask id="mask40_2011_76911" style="mask-type:luminance" maskUnits="userSpaceOnUse" x="51" y="41" width="27" height="38">
<path d="M77.5364 66.6327C76.9257 74.8672 70.3419 79.1556 63.5963 78.6553C56.8503 78.155 51.4091 72.55 52.0198 64.3155C52.8947 52.5187 59.6376 40.5719 66.3835 41.0722C73.1292 41.5727 78.3958 55.0447 77.5364 66.6327Z" fill="white"/>
</mask>
<g mask="url(#mask40_2011_76911)">
<path d="M77.5777 78.4738C77.417 75.8196 76.8785 74.0852 76.455 73.0977C76.3176 72.7773 76.1833 72.5132 76.0624 72.2998C75.7631 74.1163 74.5918 76.094 74.5333 76.1921L74.2295 76.7004L73.9639 76.1711C73.4753 75.1979 71.8888 72.6151 71.2618 71.6017L68.0689 76.1176L64.3321 70.9865L59.7547 75.3628L59.5332 75.1898C58.9097 74.7031 57.4468 71.669 56.8754 70.4506C56.1355 71.1515 54.5451 73.1409 53.5824 74.409L53.3393 74.7293L53.0771 74.4245C52.3839 73.6187 52.0871 71.5288 51.9726 70.3695C50.4537 72.3096 49.2161 75.8615 49.2025 75.9009L48.5879 75.6888C48.6515 75.5049 50.1643 71.1622 52.0071 69.3503L52.5181 68.8479L52.5595 69.5635C52.6089 70.4196 52.8404 72.6086 53.3471 73.6467C54.1299 72.6305 56.1685 70.0331 56.8366 69.6567L57.1438 69.4838L57.2913 69.8038C57.9863 71.3108 59.1748 73.7053 59.7472 74.4702L64.4198 70.0029L68.061 75.0022L71.2963 70.4266L71.5552 70.8416C71.6401 70.9776 73.4113 73.8191 74.2584 75.3435C74.7117 74.4766 75.5431 72.6911 75.4778 71.3695L75.4357 70.5169L76.0342 71.1257C76.1104 71.2031 77.9023 73.0835 78.2265 78.4344L77.5777 78.4738Z" fill="white"/>
</g>
<mask id="mask41_2011_76911" style="mask-type:luminance" maskUnits="userSpaceOnUse" x="51" y="41" width="27" height="38">
<path d="M77.5364 66.6327C76.9257 74.8672 70.3419 79.1556 63.5963 78.6553C56.8503 78.155 51.4091 72.55 52.0198 64.3155C52.8947 52.5187 59.6376 40.5719 66.3835 41.0722C73.1292 41.5727 78.3958 55.0447 77.5364 66.6327Z" fill="white"/>
</mask>
<g mask="url(#mask41_2011_76911)">
<path d="M77.3416 72.2772C77.191 69.7927 76.6902 68.1684 76.2964 67.2435C76.233 67.0946 76.1704 66.9585 76.1095 66.8349C75.7339 68.4657 74.7721 70.0898 74.7203 70.1765L74.2966 70.8856L73.9258 70.1476C73.4917 69.283 72.1359 67.0662 71.4819 66.0068L68.4604 70.2801L64.8914 65.3796L60.5748 69.5065L60.2658 69.2652C59.6814 68.8087 58.4238 66.2479 57.7874 64.8981C57.1258 65.5737 55.8843 67.0965 54.821 68.4973L54.482 68.944L54.1161 68.5187C53.5035 67.8064 53.2074 66.1038 53.0732 64.9559C51.748 66.8183 50.6966 69.838 50.6845 69.8733L49.8272 69.5776C49.8879 69.4016 51.3351 65.2476 53.1086 63.504L53.8214 62.803L53.8791 63.8011C53.9382 64.8212 54.1548 66.4746 54.5172 67.4032C55.3774 66.2921 57.1035 64.1214 57.7238 63.7721L58.1522 63.5308L58.3581 63.9771C59.1199 65.629 60.0784 67.504 60.5792 68.2476L65.0139 64.0076L68.4494 68.725L71.5303 64.3676L71.8913 64.9465C71.9678 65.0691 73.4835 67.5008 74.3291 68.9912C74.7641 68.1232 75.4027 66.6433 75.3479 65.5314L75.2893 64.342L76.1241 65.1911C76.1978 65.2661 77.9358 67.089 78.2466 72.2226L77.3416 72.2772Z" fill="#00DDDE"/>
</g>
<mask id="mask42_2011_76911" style="mask-type:luminance" maskUnits="userSpaceOnUse" x="53" y="41" width="27" height="39">
<path d="M79.5016 65.092C80.183 73.3213 74.3485 78.5845 67.6071 79.1426C60.8655 79.7008 54.6162 75.0131 53.9349 66.7837C52.9588 54.9944 57.7558 42.1414 64.4974 41.5833C71.2389 41.0253 78.5428 53.5113 79.5016 65.092Z" fill="white"/>
</mask>
<g mask="url(#mask42_2011_76911)">
<path opacity="0.37" d="M69.2583 60.2114C71.4733 60.028 73.0155 56.8193 72.703 53.0445C72.3904 49.2697 70.3415 46.3583 68.1265 46.5417C65.9116 46.7251 64.3693 49.9338 64.6818 53.7086C64.9944 57.4834 67.0433 60.3948 69.2583 60.2114Z" fill="white"/>
</g>
<mask id="mask43_2011_76911" style="mask-type:luminance" maskUnits="userSpaceOnUse" x="51" y="41" width="27" height="38">
<path d="M77.5364 66.6327C76.9257 74.8672 70.3419 79.1556 63.5963 78.6553C56.8503 78.155 51.4091 72.55 52.0198 64.3155C52.8947 52.5187 59.6376 40.5719 66.3835 41.0722C73.1292 41.5727 78.3958 55.0447 77.5364 66.6327Z" fill="white"/>
</mask>
<g mask="url(#mask43_2011_76911)">
<path opacity="0.03" d="M85.3768 66.0252C86.0384 72.5756 78.9003 77.4653 71.6258 77.1723C70.9466 77.4662 70.2349 77.6509 69.4953 77.712C63.3954 78.2169 57.7531 70.1988 56.8929 59.8032C56.2053 51.4924 58.782 44.1788 62.96 41.3214C65.0694 37.0389 66.9921 34.1826 66.9921 34.1826L58.6283 38.1726L52.8347 47.2196L50.5879 63.7013L49.785 74.5271L56.8226 79.7873L72.6958 81.6047L81.0876 80.6904L88.2489 73.922L85.3768 66.0252Z" fill="#242E36"/>
</g>
<mask id="mask44_2011_76911" style="mask-type:luminance" maskUnits="userSpaceOnUse" x="51" y="41" width="27" height="38">
<path d="M77.5364 66.6327C76.9257 74.8672 70.3419 79.1556 63.5963 78.6553C56.8503 78.155 51.4091 72.55 52.0198 64.3155C52.8947 52.5187 59.6376 40.5719 66.3835 41.0722C73.1292 41.5727 78.3958 55.0447 77.5364 66.6327Z" fill="white"/>
</mask>
<g mask="url(#mask44_2011_76911)">
<path opacity="0.27" d="M78.7729 57.7323C77.9128 47.3367 72.2705 39.3186 66.1705 39.8235C64.9472 39.9246 63.7985 40.3618 62.7504 41.0787C58.5727 43.9362 55.9956 51.2497 56.6833 59.5605C57.5437 69.9561 63.186 77.9742 69.2857 77.4693C70.025 77.4082 70.737 77.2235 71.4162 76.9296C76.34 74.7984 79.5289 66.8679 78.7729 57.7323Z" fill="white"/>
</g>
<path d="M14.6998 62.1043C12.9598 71.5369 13.784 81.1526 16.7145 90.3104C24.865 116.044 53.5289 119.157 64.3351 118.883C82.9255 118.425 98.1275 109.45 104.63 98.3692C113.329 83.3504 112.322 62.5622 110.124 62.0127C109.025 61.738 107.926 62.1043 106.919 62.379C100.051 64.3022 84.0244 69.2474 63.053 68.6979C32.0081 67.9653 17.6303 61.4633 16.3482 61.6464C15.0661 61.9212 14.0588 63.2948 14.6998 62.1043Z" fill="#CE965D"/>
<path d="M102.981 85.6399C100.692 87.1967 98.4023 88.8451 96.1128 90.4935C95.3802 90.3104 94.6476 90.1272 94.0065 89.9441C92.3581 89.4862 90.6181 89.0283 88.9697 88.4788C86.4056 87.6546 83.9329 86.7388 81.4603 85.7315C81.8266 85.4567 82.193 85.182 82.5593 84.9988C84.2993 83.8083 86.0392 82.6178 87.7792 81.4273C89.5192 80.2368 91.4424 79.0463 93.0908 77.581C93.5487 77.1231 92.9992 76.2989 92.4497 76.5736C88.9697 77.7642 85.7645 80.2368 82.834 82.3431C81.6435 83.1673 80.5446 83.9915 79.4456 84.8157C79.354 84.8157 79.2625 84.7241 79.1709 84.7241C73.1267 81.9767 67.2657 78.4052 60.6721 76.94C59.6647 76.6652 59.2984 78.3136 60.3058 78.4968C66.4415 80.0536 71.6615 83.6252 77.3393 86.3725C76.1488 87.2883 74.8667 88.2041 73.6762 89.0283C71.0204 90.9514 68.2731 92.8745 65.5257 94.7977C65.3426 94.7061 65.0679 94.6145 64.8847 94.4314C60.5805 92.1419 56.3679 89.6693 52.3385 87.0135C52.7964 86.7388 53.3459 86.3725 53.8037 86.0978C56.3679 84.4494 59.0237 82.801 61.4963 80.8778C61.9542 80.5115 61.6795 79.5041 61.0384 79.7789C58.2911 80.8778 55.91 82.5262 53.529 84.2662C52.7048 84.8157 51.789 85.4567 50.9648 86.0062C49.5912 84.9988 48.1259 83.9915 46.8438 82.9841C44.4628 81.1526 42.1733 79.321 39.8839 77.3063C40.067 77.1231 40.2502 76.8484 40.3418 76.5736C40.4334 76.2989 40.067 76.0242 39.8839 76.1158C39.6092 76.2073 39.3344 76.3905 39.0597 76.5736C38.5102 76.0242 37.8692 75.5663 37.3197 75.0168C36.7702 74.4673 35.946 75.3831 36.4955 75.9326C37.045 76.3905 37.5029 76.94 38.0523 77.3978C37.5944 77.7642 37.045 78.1305 36.5871 78.4052C35.305 79.2294 34.0229 80.0536 32.6492 80.7862C31.0008 81.702 29.3524 82.4346 27.6124 83.2588C26.2388 81.4273 24.8651 79.5957 23.4914 77.7642C23.0335 77.1231 21.9346 77.7642 22.3925 78.4052C23.6746 80.2368 24.9567 82.0683 26.2388 83.8083C25.6893 84.083 25.1398 84.2662 24.5903 84.541C23.8577 84.9073 24.224 86.0978 24.9567 85.823C25.5977 85.5483 26.3303 85.2736 26.9714 84.9988C29.5356 88.662 32.0997 92.2335 35.0302 95.6219C33.2903 96.4461 31.4587 97.0871 29.6271 97.7282C28.8945 98.0029 29.2608 99.1019 29.9934 98.9187C32.0082 98.2776 34.0229 97.545 35.946 96.7208C36.4039 97.1787 36.7702 97.6366 37.2281 98.1861C40.1586 101.3 43.547 103.864 47.1185 106.245C46.2943 106.611 45.5617 106.886 44.7375 107.161C44.0965 107.344 44.3712 108.443 45.1038 108.26C46.2028 107.893 47.3017 107.527 48.4007 107.069C50.7817 108.534 53.2543 109.908 55.8185 111.19C57.7416 112.198 59.6648 113.113 61.4963 114.029C63.4195 114.945 65.3426 115.952 67.3573 116.685C67.8152 116.868 68.2731 116.135 67.8152 115.769C64.9763 113.571 61.4963 111.923 58.1995 110.274C55.6353 108.901 53.0711 107.527 50.5985 105.97C55.3606 103.772 59.7563 100.75 64.1521 97.8198C64.5184 97.545 64.8847 97.2703 65.3426 96.9956C67.7236 98.2776 70.1962 99.4682 72.6688 100.567C74.8667 101.574 77.0646 102.49 79.2625 103.314C75.5993 105.879 71.8446 108.351 68.0899 110.732C67.3573 111.19 68.0899 112.381 68.8226 111.923C73.0352 109.359 77.2477 106.703 81.3687 103.955C82.3761 104.23 83.3835 104.505 84.2993 104.688C85.0319 104.871 85.5814 103.772 84.8487 103.314C84.2993 103.04 83.8414 102.857 83.2919 102.582C84.574 101.758 85.8561 100.842 87.0466 100.018C90.3434 97.7282 93.4571 95.4387 96.5707 92.9661C97.3949 93.0577 98.2191 93.1493 99.0433 93.0577C99.776 92.9661 100.142 92.0503 99.4096 91.5924C99.2265 91.5009 98.9517 91.3177 98.7686 91.2261C100.6 89.7609 102.34 88.2041 103.989 86.5557C104.263 86.0978 103.531 85.182 102.981 85.6399ZM36.6787 94.7977C34.8471 92.8745 33.1987 90.8598 31.5503 88.7535C30.4513 87.2883 29.3524 85.9146 28.2535 84.4494C29.9019 83.7167 31.5503 82.8925 33.1987 82.0683C34.5724 81.3357 35.946 80.5115 37.2281 79.6873C37.7776 79.321 38.3271 78.8631 38.785 78.4052C42.1733 81.5189 45.6533 84.4494 49.3164 87.1051C48.1259 87.9293 46.9354 88.7535 45.6533 89.5777C42.8144 91.4093 39.7923 93.2409 36.6787 94.7977ZM55.6353 101.574C53.529 102.857 51.4227 104.047 49.2248 105.146C48.9501 104.963 48.6754 104.78 48.4007 104.597C45.287 102.582 42.2649 100.292 39.5176 97.6366C38.8765 96.9956 38.2355 96.3545 37.5944 95.7135C40.5249 94.2482 43.2723 92.6914 46.0196 90.9514C47.5764 89.9441 49.1333 89.0283 50.6901 88.0209C54.8111 90.9514 59.1153 93.6987 63.6026 96.0798C61.0384 98.0029 58.3827 99.8345 55.6353 101.574ZM85.6729 98.4608C84.2077 99.5597 82.6509 100.659 81.094 101.758C78.8962 100.842 76.7898 100.018 74.592 99.1019C72.0278 98.0029 69.4636 96.8124 66.991 95.5303C71.0204 92.783 75.1414 89.9441 79.1709 87.1967C82.193 88.5704 85.215 89.7609 88.3287 90.7683C89.9771 91.3177 91.6255 91.7756 93.3655 92.2335C93.4571 92.2335 93.4571 92.2335 93.5487 92.3251C90.8929 94.3398 88.3287 96.4461 85.6729 98.4608Z" fill="#916332"/>
<path d="M112.139 79.5042C112.139 81.7021 110.216 83.442 108.018 83.1673C94.2812 81.6105 78.9876 80.5115 62.1373 80.6031C45.2869 80.6031 29.8102 81.702 16.0735 83.3504C14.4251 83.5336 12.9598 82.2515 12.9598 80.6031V73.0937H112.047V79.5042H112.139Z" fill="#DFA950"/>
<path d="M12.5021 61.3717L111.406 61.0054C115.07 61.0054 118 64.0274 118 67.7821C118 71.5368 115.07 74.5589 111.498 74.5589L12.5936 74.9253C8.9305 74.9253 6 71.9032 6 68.1485C6 64.4853 8.83893 61.4633 12.5021 61.3717Z" fill="#B77437"/>
<path d="M62.1375 76.9646C62.1375 76.9646 69.189 67.1658 76.2405 67.6237C83.292 68.0816 84.3909 78.0636 81.3689 82.6425C79.0794 86.1225 71.9363 85.9393 63.1448 80.0783C63.1448 80.0783 59.5733 79.6204 62.1375 76.9646Z" fill="#FFCC79"/>
<g opacity="0.18">
<path d="M72.9436 70.7374C74.6836 70.3711 76.5151 70.829 77.8888 71.9279C79.2625 72.9353 80.0867 74.4921 80.3614 76.1405C80.453 76.5068 80.9109 76.7815 81.2772 76.69C81.7351 76.5984 81.8266 76.1405 81.8266 75.7742C81.4603 73.7595 80.3614 71.9279 78.6214 70.6458C76.8814 69.3637 74.592 68.9058 72.4857 69.3637C72.1194 69.4553 71.8446 69.9132 71.9362 70.2795C72.1194 70.5542 72.5773 70.7374 72.9436 70.7374Z" fill="white"/>
</g>
<path d="M61.7711 77.4226C61.7711 77.4226 54.7196 67.6237 47.6681 68.0816C40.6166 68.5395 39.5177 78.5215 42.5397 83.1004C44.8292 86.5804 51.9723 86.3973 60.7638 80.5363C60.7638 80.5363 64.3353 80.0783 61.7711 77.4226Z" fill="#FFCC79"/>
<g opacity="0.18">
<path d="M51.4228 69.7301C49.3165 69.3638 47.0271 69.7301 45.2871 71.0122C43.6387 72.2027 42.4482 74.0343 42.0819 76.1406C41.9903 76.5069 42.1734 76.9648 42.6313 77.0563C42.9976 77.1479 43.4555 76.9648 43.5471 76.5069C43.8218 74.8585 44.646 73.3017 46.0197 72.2943C47.3934 71.2869 49.3165 70.829 50.9649 71.1038C51.3313 71.1953 51.7891 71.0122 51.8807 70.5543C51.9723 70.2796 51.7891 69.8217 51.4228 69.7301Z" fill="white"/>
</g>
<path d="M63.1448 77.6973L71.4784 73.851" stroke="#CE6B19" stroke-miterlimit="10" stroke-linecap="round"/>
<path d="M63.2365 79.071L71.5701 78.7047" stroke="#CE6B19" stroke-miterlimit="10" stroke-linecap="round"/>
<path d="M61.313 77.7889C61.313 77.7889 52.9794 75.6826 52.5215 75.4079" stroke="#CE6B19" stroke-miterlimit="10" stroke-linecap="round"/>
<path d="M61.0384 79.3457C61.0384 79.3457 54.2616 79.6205 52.9795 79.712" stroke="#CE6B19" stroke-miterlimit="10" stroke-linecap="round"/>
<path d="M65.0679 78.5215C65.1595 80.1699 63.8774 81.5436 62.229 81.5436C60.5805 81.6352 59.2069 80.3531 59.2069 78.7047C59.1153 77.0563 60.3974 75.6826 62.0458 75.6826C63.6942 75.591 65.0679 76.8731 65.0679 78.5215Z" fill="#E9A427"/>
</g>
<defs>
<clipPath id="clip0_2011_76911">
<rect width="120" height="120" fill="white"/>
</clipPath>
</defs>
</svg>
