<svg width="219" height="204" viewBox="0 0 219 204" fill="none" xmlns="http://www.w3.org/2000/svg">
<path d="M154.172 104.049C152.523 98.1878 150.692 92.2352 148.219 86.7405C145.747 81.3374 142.541 76.3922 138.146 72.4543C134.116 68.8828 129.079 66.5017 123.951 65.2196C113.786 62.6555 102.522 64.2123 93.2724 69.1575C84.2061 73.9196 77.3378 81.8869 73.5831 91.5026C69.0042 103.316 66.1653 116.045 67.081 128.775C67.1726 130.332 67.3558 131.98 67.6305 133.537C67.9968 136.01 71.7515 135.552 71.4768 132.987C70.1947 121.174 72.301 109.086 76.0557 97.913C77.7041 93.0594 79.6272 88.3889 82.6493 84.2679C85.3051 80.5132 88.5103 77.5827 92.3566 75.0185C100.141 69.8901 110.123 67.6923 119.372 69.0659C124.134 69.7986 128.805 71.3554 132.743 74.1027C137.047 77.0332 140.252 81.3374 142.633 85.9163C145.197 90.8615 146.937 96.173 148.586 101.485C149.501 104.507 150.417 107.529 151.058 110.642C151.791 113.848 152.066 117.053 152.249 120.35C152.34 121.906 152.432 123.555 152.707 125.112C152.89 126.211 153.897 127.126 155.088 126.943C156.37 126.76 156.919 125.753 156.919 124.562C156.919 121.174 156.828 117.785 156.37 114.489C156.003 110.734 155.179 107.437 154.172 104.049Z" fill="#B77437"/>
<mask id="mask0_2011_77129" style="mask-type:luminance" maskUnits="userSpaceOnUse" x="83" y="103" width="27" height="35">
<path d="M108.825 121.183C111.714 128.344 107.962 134.661 102.096 137.028C96.23 139.395 89.3496 136.94 86.4604 129.779C82.3213 119.521 83.0434 106.712 88.9097 104.346C94.7758 101.979 104.759 111.106 108.825 121.183Z" fill="white"/>
</mask>
<g mask="url(#mask0_2011_77129)">
<path d="M101.272 94.8122L72.3702 106.473L88.6718 146.876L117.573 135.215L101.272 94.8122Z" fill="#FFB41B"/>
</g>
<mask id="mask1_2011_77129" style="mask-type:luminance" maskUnits="userSpaceOnUse" x="83" y="103" width="27" height="35">
<path d="M108.825 121.183C111.714 128.344 107.962 134.661 102.096 137.028C96.23 139.395 89.3496 136.94 86.4604 129.779C82.3213 119.521 83.0434 106.712 88.9097 104.346C94.7758 101.979 104.759 111.106 108.825 121.183Z" fill="white"/>
</mask>
<g mask="url(#mask1_2011_77129)">
<path d="M104.426 113.119C103.317 111.172 102.277 110.105 101.568 109.54C101.862 110.894 101.745 112.406 101.738 112.489L101.676 113.259L101.06 112.793C100.423 112.311 98.6329 111.176 97.7251 110.606L97.0318 114.959L92.4973 112.577L90.7731 117.295L90.4142 117.221C89.8035 117.093 87.9408 115.663 86.9417 114.869C86.6954 115.641 86.3349 117.213 86.0587 118.635L85.9589 119.15L85.4764 118.944C84.7655 118.641 83.9368 117.529 83.4012 116.712C83.1227 118.598 83.4388 121.173 83.4428 121.203L82.6013 121.309C82.5816 121.153 82.1281 117.462 82.8235 115.473L83.1319 114.591L83.5928 115.404C84.0043 116.131 84.7495 117.253 85.3545 117.831C85.609 116.586 86.0832 114.439 86.4197 113.947L86.6794 113.568L87.0365 113.857C88.2011 114.801 89.5913 115.84 90.2589 116.232L92.0339 111.375L96.3804 113.659L97.0887 109.21L97.6308 109.547C97.7323 109.61 99.714 110.841 100.918 111.656C100.919 110.836 100.842 109.545 100.405 108.758L99.8644 107.784L100.916 108.152C101 108.181 103.008 108.918 105.163 112.699L104.426 113.119Z" fill="#FF5D7C"/>
</g>
<mask id="mask2_2011_77129" style="mask-type:luminance" maskUnits="userSpaceOnUse" x="83" y="103" width="27" height="35">
<path d="M108.825 121.183C111.714 128.344 107.962 134.661 102.096 137.028C96.23 139.395 89.3496 136.94 86.4604 129.779C82.3213 119.521 83.0434 106.712 88.9097 104.346C94.7758 101.979 104.759 111.106 108.825 121.183Z" fill="white"/>
</mask>
<g mask="url(#mask2_2011_77129)">
<path d="M106.846 118.119C105.772 116.236 104.754 115.161 104.088 114.591C103.873 114.406 103.679 114.261 103.514 114.149C103.949 115.585 103.805 117.454 103.797 117.546L103.758 118.027L103.373 117.736C102.665 117.2 100.575 115.882 99.7512 115.367L99.042 119.82L94.4607 117.413L92.6887 122.262L92.4645 122.215C91.8331 122.084 89.6703 120.391 88.8138 119.706C88.5251 120.485 88.0782 122.513 87.8308 123.787L87.7682 124.109L87.4666 123.981C86.6693 123.641 85.6995 122.219 85.1982 121.412C84.7856 123.379 85.1601 126.422 85.1642 126.456L84.6384 126.522C84.6186 126.365 84.1613 122.643 84.8564 120.654L85.0493 120.103L85.3374 120.611C85.6817 121.22 86.6395 122.738 87.3841 123.314C87.5908 122.289 88.1465 119.655 88.4996 119.139L88.6619 118.902L88.8851 119.083C89.9361 119.935 91.6678 121.259 92.362 121.612L94.1708 116.661L98.6348 119.007L99.3533 114.494L99.6921 114.705C99.803 114.774 102.122 116.214 103.291 117.024C103.31 116.227 103.275 114.621 102.751 113.678L102.414 113.07L103.071 113.3C103.154 113.329 105.143 114.059 107.307 117.856L106.846 118.119Z" fill="white"/>
</g>
<mask id="mask3_2011_77129" style="mask-type:luminance" maskUnits="userSpaceOnUse" x="83" y="103" width="27" height="35">
<path d="M108.825 121.183C111.714 128.344 107.962 134.661 102.096 137.028C96.23 139.395 89.3496 136.94 86.4604 129.779C82.3213 119.521 83.0434 106.712 88.9097 104.346C94.7758 101.979 104.759 111.106 108.825 121.183Z" fill="white"/>
</mask>
<g mask="url(#mask3_2011_77129)">
<path d="M99.5753 107.043C98.7225 105.546 97.9133 104.693 97.3846 104.24C97.2131 104.093 97.0594 103.978 96.9281 103.889C97.2741 105.03 97.1592 106.514 97.1532 106.588L97.1221 106.97L96.8164 106.739C96.2539 106.313 94.5929 105.266 93.9389 104.856L93.3756 108.394L89.7362 106.482L88.3285 110.334L88.1502 110.297C87.6486 110.193 85.9306 108.848 85.25 108.304C85.0205 108.923 84.6657 110.534 84.4691 111.546L84.4194 111.802L84.1799 111.699C83.5466 111.429 82.7762 110.3 82.3779 109.659C82.0501 111.222 82.3476 113.639 82.3511 113.666L81.9332 113.718C81.9175 113.593 81.5542 110.637 82.1065 109.057L82.2597 108.619L82.4886 109.023C82.7623 109.506 83.5229 110.712 84.1145 111.17C84.2787 110.356 84.7202 108.263 85.0007 107.853L85.1296 107.665L85.3069 107.809C86.1419 108.486 87.5177 109.537 88.069 109.818L89.5061 105.885L93.0523 107.748L93.6231 104.164L93.8923 104.331C93.9805 104.386 95.8228 105.53 96.7513 106.173C96.7666 105.54 96.7389 104.264 96.3227 103.515L96.0543 103.032L96.5763 103.215C96.6427 103.238 98.2221 103.818 99.9414 106.834L99.5753 107.043Z" fill="white"/>
</g>
<mask id="mask4_2011_77129" style="mask-type:luminance" maskUnits="userSpaceOnUse" x="83" y="103" width="27" height="35">
<path d="M108.825 121.183C111.714 128.344 107.962 134.661 102.096 137.028C96.23 139.395 89.3496 136.94 86.4604 129.779C82.3213 119.521 83.0434 106.712 88.9097 104.346C94.7758 101.979 104.759 111.106 108.825 121.183Z" fill="white"/>
</mask>
<g mask="url(#mask4_2011_77129)">
<path d="M113.751 131.1C112.52 128.94 111.352 127.707 110.589 127.054C110.341 126.842 110.119 126.675 109.93 126.546C110.429 128.194 110.263 130.337 110.255 130.444L110.21 130.995L109.768 130.661C108.956 130.046 106.558 128.535 105.614 127.944L104.8 133.051L99.5458 130.29L97.5133 135.853L97.256 135.799C96.5318 135.648 94.0511 133.707 93.0685 132.921C92.7373 133.814 92.2247 136.141 91.9409 137.602L91.8692 137.971L91.5233 137.824C90.609 137.434 89.4966 135.803 88.9216 134.878C88.4487 137.133 88.8777 140.624 88.8826 140.663L88.2793 140.739C88.2567 140.558 87.732 136.29 88.5295 134.009L88.7508 133.376L89.0811 133.959C89.4762 134.657 90.5746 136.398 91.4286 137.06C91.6656 135.884 92.3029 132.863 92.708 132.271L92.8942 131.999L93.1502 132.206C94.3558 133.184 96.3421 134.702 97.1383 135.107L99.2131 129.429L104.333 132.119L105.157 126.944L105.546 127.185C105.673 127.264 108.333 128.916 109.673 129.845C109.696 128.931 109.656 127.089 109.055 126.007L108.667 125.309L109.421 125.573C109.517 125.606 111.797 126.444 114.279 130.799L113.751 131.1Z" fill="white"/>
</g>
<mask id="mask5_2011_77129" style="mask-type:luminance" maskUnits="userSpaceOnUse" x="83" y="103" width="27" height="35">
<path d="M108.825 121.183C111.714 128.344 107.962 134.661 102.096 137.028C96.23 139.395 89.3496 136.94 86.4604 129.779C82.3213 119.521 83.0434 106.712 88.9097 104.346C94.7758 101.979 104.759 111.106 108.825 121.183Z" fill="white"/>
</mask>
<g mask="url(#mask5_2011_77129)">
<path d="M110.994 125.999C109.841 123.977 108.75 122.821 108.037 122.208C107.923 122.109 107.814 122.021 107.712 121.942C108.07 123.465 107.934 125.225 107.927 125.319L107.864 126.089L107.248 125.623C106.527 125.077 104.474 123.777 103.487 123.159L102.717 127.992L97.6988 125.355L95.7821 130.601L95.4232 130.526C94.7443 130.384 92.6314 128.755 91.54 127.886C91.2639 128.726 90.8514 130.516 90.538 132.131L90.4381 132.646L89.9554 132.44C89.1472 132.095 88.1955 130.789 87.6087 129.882C87.2663 131.991 87.6315 134.959 87.636 134.994L86.7946 135.1C86.7728 134.927 86.271 130.844 87.0387 128.649L87.3471 127.766L87.8078 128.58C88.2788 129.411 89.1436 130.709 89.8312 131.338C90.0938 130.051 90.6453 127.517 91.0214 126.967L91.2812 126.588L91.6383 126.877C92.9597 127.948 94.5385 129.126 95.2658 129.543L97.2349 124.153L102.066 126.692L102.851 121.764L103.393 122.1C103.507 122.171 105.784 123.585 107.109 124.486C107.115 123.579 107.04 122.073 106.534 121.163L105.994 120.189L107.045 120.557C107.138 120.589 109.349 121.401 111.73 125.579L110.994 125.999Z" fill="#00DDDE"/>
</g>
<mask id="mask6_2011_77129" style="mask-type:luminance" maskUnits="userSpaceOnUse" x="84" y="104" width="28" height="34">
<path d="M109.838 119.079C113.809 125.701 111.088 132.527 105.662 135.78C100.237 139.033 93.0577 137.682 89.0866 131.059C83.3977 121.571 82.1128 108.807 87.5383 105.553C92.9637 102.301 104.249 109.759 109.838 119.079Z" fill="white"/>
</mask>
<g mask="url(#mask6_2011_77129)">
<path opacity="0.37" d="M99.2276 119.215C101.01 118.146 100.979 114.817 99.1571 111.779C97.3356 108.742 94.4139 107.145 92.6314 108.214C90.8488 109.283 90.8804 112.612 92.7019 115.65C94.5234 118.688 97.4451 120.284 99.2276 119.215Z" fill="white"/>
</g>
<mask id="mask7_2011_77129" style="mask-type:luminance" maskUnits="userSpaceOnUse" x="83" y="103" width="27" height="35">
<path d="M108.825 121.183C111.714 128.344 107.962 134.661 102.096 137.028C96.23 139.395 89.3496 136.94 86.4604 129.779C82.3213 119.521 83.0434 106.712 88.9097 104.346C94.7758 101.979 104.759 111.106 108.825 121.183Z" fill="white"/>
</mask>
<g mask="url(#mask7_2011_77129)">
<path opacity="0.03" d="M115.152 117.435C118.413 122.657 114.444 129.708 108.22 132.467C107.772 132.994 107.251 133.443 106.656 133.8C101.747 136.743 93.7007 132.347 88.6848 123.981C84.6748 117.292 83.8155 110.092 86.1404 105.969C86.1411 101.505 86.5742 98.314 86.5742 98.314L81.2054 105.116L80.082 115.1L85.0053 129.856L88.8037 139.27L96.8809 140.776L110.949 135.744L117.612 131.51L120.824 122.873L115.152 117.435Z" fill="#242E36"/>
</g>
<mask id="mask8_2011_77129" style="mask-type:luminance" maskUnits="userSpaceOnUse" x="83" y="103" width="27" height="35">
<path d="M108.825 121.183C111.714 128.344 107.962 134.661 102.096 137.028C96.23 139.395 89.3496 136.94 86.4604 129.779C82.3213 119.521 83.0434 106.712 88.9097 104.346C94.7758 101.979 104.759 111.106 108.825 121.183Z" fill="white"/>
</mask>
<g mask="url(#mask8_2011_77129)">
<path opacity="0.27" d="M106.186 113.205C101.17 104.839 93.1242 100.442 88.2151 103.386C87.2306 103.976 86.4475 104.817 85.8643 105.852C83.5396 109.975 84.3987 117.175 88.4087 123.864C93.4248 132.23 101.471 136.626 106.38 133.683C106.975 133.326 107.496 132.877 107.944 132.35C111.195 128.528 110.594 120.557 106.186 113.205Z" fill="white"/>
</g>
<mask id="mask9_2011_77129" style="mask-type:luminance" maskUnits="userSpaceOnUse" x="97" y="97" width="29" height="41">
<path d="M125.236 124.905C124.583 133.712 117.541 138.298 110.327 137.763C103.112 137.228 97.2919 131.234 97.9451 122.426C98.8808 109.809 106.093 97.0317 113.308 97.5667C120.522 98.1021 126.155 112.511 125.236 124.905Z" fill="white"/>
</mask>
<g mask="url(#mask9_2011_77129)">
<path d="M130.808 94.0303L95.2621 91.394L91.5768 141.086L127.123 143.722L130.808 94.0303Z" fill="#FFB41B"/>
</g>
<mask id="mask10_2011_77129" style="mask-type:luminance" maskUnits="userSpaceOnUse" x="97" y="97" width="29" height="41">
<path d="M125.236 124.905C124.583 133.712 117.541 138.298 110.327 137.763C103.112 137.228 97.2919 131.234 97.9451 122.426C98.8808 109.809 106.093 97.0317 113.308 97.5667C120.522 98.1021 126.155 112.511 125.236 124.905Z" fill="white"/>
</mask>
<g mask="url(#mask10_2011_77129)">
<path d="M124.796 114.408C124.642 111.85 124.114 110.23 123.672 109.291C123.29 110.83 122.406 112.322 122.357 112.404L121.904 113.162L121.507 112.373C121.097 111.557 119.834 109.488 119.19 108.444L116.279 112.561L112.83 107.825L108.677 111.796L108.347 111.538C107.784 111.099 106.596 108.69 105.972 107.37C105.329 108.038 104.165 109.469 103.163 110.788L102.801 111.266L102.41 110.811C101.833 110.141 101.545 108.582 101.408 107.473C100.169 109.268 99.1929 112.069 99.1816 112.102L98.2647 111.785C98.3233 111.615 99.7228 107.599 101.441 105.91L102.203 105.16L102.265 106.227C102.32 107.181 102.518 108.709 102.847 109.608C103.737 108.459 105.308 106.495 105.902 106.161L106.36 105.902L106.58 106.38C107.298 107.937 108.2 109.705 108.687 110.445L112.962 106.357L116.268 110.897L119.242 106.69L119.628 107.309C119.701 107.426 121.112 109.69 121.936 111.134C122.351 110.293 122.924 108.93 122.874 107.902L122.811 106.629L123.704 107.538C123.775 107.611 125.464 109.381 125.764 114.349L124.796 114.408Z" fill="#FF5D7C"/>
</g>
<mask id="mask11_2011_77129" style="mask-type:luminance" maskUnits="userSpaceOnUse" x="97" y="97" width="29" height="41">
<path d="M125.236 124.905C124.583 133.712 117.541 138.298 110.327 137.763C103.112 137.228 97.2919 131.234 97.9451 122.426C98.8808 109.809 106.093 97.0317 113.308 97.5667C120.522 98.1021 126.155 112.511 125.236 124.905Z" fill="white"/>
</mask>
<g mask="url(#mask11_2011_77129)">
<path d="M124.753 120.761C124.603 118.286 124.101 116.669 123.706 115.748C123.578 115.449 123.453 115.203 123.34 115.004C123.061 116.697 121.969 118.542 121.914 118.633L121.631 119.107L121.383 118.614C120.928 117.706 119.448 115.298 118.864 114.353L115.886 118.563L112.402 113.779L108.134 117.86L107.927 117.698C107.346 117.244 105.982 114.415 105.449 113.279C104.759 113.933 103.276 115.788 102.378 116.97L102.152 117.269L101.907 116.985C101.261 116.233 100.984 114.284 100.877 113.203C99.4601 115.013 98.307 118.325 98.2942 118.361L97.7212 118.164C97.7805 117.992 99.1912 113.943 100.909 112.253L101.386 111.785L101.425 112.452C101.471 113.25 101.686 115.292 102.159 116.259C102.889 115.312 104.79 112.89 105.413 112.539L105.699 112.378L105.837 112.676C106.485 114.081 107.593 116.314 108.127 117.027L112.484 112.861L115.879 117.524L118.896 113.257L119.138 113.643C119.217 113.77 120.868 116.42 121.658 117.841C122.081 117.033 122.856 115.368 122.795 114.136L122.756 113.341L123.314 113.909C123.385 113.981 125.057 115.734 125.359 120.724L124.753 120.761Z" fill="white"/>
</g>
<mask id="mask12_2011_77129" style="mask-type:luminance" maskUnits="userSpaceOnUse" x="97" y="97" width="29" height="41">
<path d="M125.236 124.905C124.583 133.712 117.541 138.298 110.327 137.763C103.112 137.228 97.2919 131.234 97.9451 122.426C98.8808 109.809 106.093 97.0317 113.308 97.5667C120.522 98.1021 126.155 112.511 125.236 124.905Z" fill="white"/>
</mask>
<g mask="url(#mask12_2011_77129)">
<path d="M122.889 105.723C122.77 103.756 122.371 102.472 122.057 101.74C121.955 101.503 121.856 101.307 121.766 101.149C121.545 102.495 120.677 103.96 120.633 104.032L120.408 104.409L120.211 104.017C119.849 103.296 118.674 101.382 118.21 100.632L115.845 103.977L113.076 100.176L109.686 103.418L109.522 103.29C109.06 102.929 107.976 100.682 107.553 99.7792C107.005 100.298 105.827 101.772 105.114 102.712L104.933 102.949L104.739 102.723C104.226 102.126 104.006 100.578 103.921 99.7189C102.795 101.157 101.879 103.787 101.869 103.817L101.414 103.659C101.461 103.523 102.582 100.306 103.947 98.964L104.325 98.5917L104.356 99.122C104.393 99.7562 104.564 101.378 104.94 102.147C105.52 101.394 107.03 99.4699 107.525 99.1913L107.752 99.0632L107.861 99.3002C108.376 100.417 109.257 102.19 109.68 102.757L113.142 99.4477L115.839 103.151L118.236 99.7614L118.428 100.069C118.49 100.17 119.803 102.275 120.43 103.404C120.766 102.762 121.382 101.439 121.333 100.46L121.302 99.8286L121.746 100.28C121.802 100.337 123.13 101.73 123.37 105.694L122.889 105.723Z" fill="white"/>
</g>
<mask id="mask13_2011_77129" style="mask-type:luminance" maskUnits="userSpaceOnUse" x="97" y="97" width="29" height="41">
<path d="M125.236 124.905C124.583 133.712 117.541 138.298 110.327 137.763C103.112 137.228 97.2919 131.234 97.9451 122.426C98.8808 109.809 106.093 97.0317 113.308 97.5667C120.522 98.1021 126.155 112.511 125.236 124.905Z" fill="white"/>
</mask>
<g mask="url(#mask13_2011_77129)">
<path d="M125.28 137.569C125.108 134.73 124.532 132.875 124.08 131.819C123.933 131.477 123.789 131.194 123.66 130.966C123.339 132.909 122.087 135.024 122.024 135.129L121.699 135.672L121.415 135.106C120.893 134.066 119.196 131.303 118.525 130.219L115.11 135.049L111.114 129.561L106.218 134.242L105.981 134.057C105.314 133.536 103.749 130.291 103.138 128.988C102.347 129.738 100.646 131.865 99.6164 133.222L99.3564 133.564L99.0759 133.238C98.3346 132.377 98.0171 130.141 97.8946 128.901C96.2701 130.976 94.9464 134.775 94.9319 134.817L94.2745 134.591C94.3426 134.394 95.9605 129.749 97.9315 127.811L98.4781 127.274L98.5224 128.039C98.5752 128.955 98.8227 131.296 99.3647 132.406C100.202 131.32 102.382 128.542 103.097 128.139L103.425 127.954L103.583 128.296C104.327 129.908 105.598 132.469 106.21 133.287L111.207 128.509L115.102 133.856L118.562 128.962L118.839 129.406C118.93 129.552 120.824 132.591 121.73 134.221C122.215 133.294 123.104 131.384 123.034 129.971L122.989 129.059L123.629 129.71C123.711 129.793 125.627 131.804 125.974 137.527L125.28 137.569Z" fill="white"/>
</g>
<mask id="mask14_2011_77129" style="mask-type:luminance" maskUnits="userSpaceOnUse" x="97" y="97" width="29" height="41">
<path d="M125.236 124.905C124.583 133.712 117.541 138.298 110.327 137.763C103.112 137.228 97.2919 131.234 97.9451 122.426C98.8808 109.809 106.093 97.0317 113.308 97.5667C120.522 98.1021 126.155 112.511 125.236 124.905Z" fill="white"/>
</mask>
<g mask="url(#mask14_2011_77129)">
<path d="M125.028 130.942C124.867 128.284 124.331 126.547 123.91 125.558C123.842 125.399 123.775 125.253 123.71 125.121C123.308 126.865 122.28 128.602 122.224 128.695L121.771 129.453L121.374 128.664C120.91 127.739 119.46 125.368 118.761 124.235L115.529 128.806L111.712 123.564L107.095 127.978L106.764 127.72C106.139 127.232 104.794 124.493 104.114 123.05C103.406 123.772 102.078 125.401 100.941 126.899L100.578 127.377L100.187 126.922C99.5319 126.16 99.2153 124.339 99.0717 123.111C97.6544 125.103 96.5298 128.333 96.5169 128.371L95.6 128.054C95.6649 127.866 97.2128 123.423 99.1096 121.558L99.872 120.809L99.9336 121.876C99.9969 122.967 100.229 124.736 100.616 125.729C101.536 124.54 103.382 122.219 104.046 121.845L104.504 121.587L104.724 122.064C105.539 123.831 106.564 125.837 107.1 126.632L111.843 122.097L115.517 127.142L118.812 122.482L119.198 123.101C119.28 123.232 120.901 125.833 121.806 127.427C122.271 126.499 122.954 124.916 122.895 123.727L122.833 122.455L123.726 123.363C123.804 123.443 125.663 125.393 125.996 130.883L125.028 130.942Z" fill="#00DDDE"/>
</g>
<mask id="mask15_2011_77129" style="mask-type:luminance" maskUnits="userSpaceOnUse" x="99" y="98" width="29" height="41">
<path d="M127.338 123.257C128.067 132.058 121.826 137.688 114.616 138.285C107.406 138.882 100.722 133.868 99.9932 125.066C98.9492 112.457 104.08 98.7103 111.29 98.1133C118.5 97.5166 126.312 110.871 127.338 123.257Z" fill="white"/>
</mask>
<g mask="url(#mask15_2011_77129)">
<path opacity="0.37" d="M116.382 118.037C118.751 117.841 120.401 114.409 120.066 110.372C119.732 106.334 117.541 103.22 115.172 103.417C112.803 103.613 111.153 107.045 111.488 111.082C111.822 115.119 114.013 118.233 116.382 118.037Z" fill="white"/>
</g>
<mask id="mask16_2011_77129" style="mask-type:luminance" maskUnits="userSpaceOnUse" x="97" y="97" width="29" height="41">
<path d="M125.236 124.905C124.583 133.712 117.541 138.298 110.327 137.763C103.112 137.228 97.2919 131.234 97.9451 122.426C98.8808 109.809 106.093 97.0317 113.308 97.5667C120.522 98.1021 126.155 112.511 125.236 124.905Z" fill="white"/>
</mask>
<g mask="url(#mask16_2011_77129)">
<path opacity="0.03" d="M133.622 124.255C134.329 131.261 126.695 136.491 118.914 136.177C118.188 136.492 117.427 136.689 116.636 136.754C110.112 137.294 104.077 128.719 103.157 117.6C102.422 108.712 105.177 100.889 109.646 97.8333C111.902 93.253 113.958 90.1981 113.958 90.1981L105.013 94.4655L98.8165 104.142L96.4135 121.769L95.5548 133.348L103.082 138.974L120.059 140.918L129.034 139.94L136.693 132.701L133.622 124.255Z" fill="#242E36"/>
</g>
<mask id="mask17_2011_77129" style="mask-type:luminance" maskUnits="userSpaceOnUse" x="97" y="97" width="29" height="41">
<path d="M125.236 124.905C124.583 133.712 117.541 138.298 110.327 137.763C103.112 137.228 97.2919 131.234 97.9451 122.426C98.8808 109.809 106.093 97.0317 113.308 97.5667C120.522 98.1021 126.155 112.511 125.236 124.905Z" fill="white"/>
</mask>
<g mask="url(#mask17_2011_77129)">
<path opacity="0.27" d="M126.559 115.385C125.639 104.267 119.604 95.6912 113.08 96.2312C111.771 96.3393 110.543 96.8069 109.422 97.5737C104.954 100.63 102.197 108.452 102.933 117.341C103.853 128.459 109.888 137.035 116.412 136.495C117.202 136.43 117.964 136.232 118.69 135.918C123.957 133.638 127.367 125.156 126.559 115.385Z" fill="white"/>
</g>
<mask id="mask18_2011_77129" style="mask-type:luminance" maskUnits="userSpaceOnUse" x="118" y="105" width="27" height="38">
<path d="M144.536 130.633C143.926 138.867 137.342 143.156 130.596 142.655C123.85 142.155 118.409 136.55 119.02 128.316C119.895 116.519 126.638 104.572 133.384 105.072C140.129 105.573 145.396 119.045 144.536 130.633Z" fill="white"/>
</mask>
<g mask="url(#mask18_2011_77129)">
<path d="M149.746 101.766L116.511 99.3009L113.066 145.762L146.301 148.227L149.746 101.766Z" fill="#FFB41B"/>
</g>
<mask id="mask19_2011_77129" style="mask-type:luminance" maskUnits="userSpaceOnUse" x="118" y="105" width="27" height="38">
<path d="M144.536 130.633C143.926 138.867 137.342 143.156 130.596 142.655C123.85 142.155 118.409 136.55 119.02 128.316C119.895 116.519 126.638 104.572 133.384 105.072C140.129 105.573 145.396 119.045 144.536 130.633Z" fill="white"/>
</mask>
<g mask="url(#mask19_2011_77129)">
<path d="M144.125 120.818C143.981 118.427 143.487 116.912 143.074 116.035C142.716 117.473 141.89 118.868 141.844 118.944L141.421 119.654L141.05 118.915C140.667 118.153 139.485 116.218 138.883 115.242L136.162 119.091L132.937 114.664L129.054 118.376L128.745 118.135C128.219 117.724 127.108 115.472 126.525 114.238C125.924 114.863 124.835 116.201 123.899 117.434L123.56 117.881L123.194 117.456C122.655 116.829 122.385 115.371 122.257 114.335C121.099 116.012 120.186 118.631 120.176 118.662L119.319 118.366C119.374 118.207 120.682 114.452 122.288 112.873L123.001 112.172L123.059 113.17C123.111 114.061 123.295 115.49 123.603 116.331C124.435 115.256 125.904 113.42 126.459 113.107L126.888 112.866L127.094 113.312C127.765 114.768 128.608 116.421 129.063 117.113L133.061 113.291L136.152 117.536L138.932 113.603L139.293 114.181C139.361 114.29 140.681 116.407 141.451 117.758C141.839 116.971 142.375 115.697 142.328 114.735L142.269 113.546L143.104 114.395C143.171 114.463 144.749 116.118 145.03 120.763L144.125 120.818Z" fill="#FF5D7C"/>
</g>
<mask id="mask20_2011_77129" style="mask-type:luminance" maskUnits="userSpaceOnUse" x="118" y="105" width="27" height="38">
<path d="M144.536 130.633C143.926 138.867 137.342 143.156 130.596 142.655C123.85 142.155 118.409 136.55 119.02 128.316C119.895 116.519 126.638 104.572 133.384 105.072C140.129 105.573 145.396 119.045 144.536 130.633Z" fill="white"/>
</mask>
<g mask="url(#mask20_2011_77129)">
<path d="M144.085 126.758C143.945 124.444 143.475 122.932 143.106 122.071C142.986 121.792 142.869 121.561 142.764 121.376C142.503 122.959 141.482 124.684 141.431 124.769L141.166 125.212L140.934 124.751C140.508 123.902 139.125 121.65 138.578 120.767L135.795 124.704L132.537 120.23L128.546 124.046L128.353 123.895C127.809 123.47 126.534 120.825 126.036 119.763C125.391 120.374 124.004 122.109 123.165 123.214L122.953 123.494L122.724 123.228C122.12 122.525 121.861 120.703 121.761 119.692C120.436 121.384 119.358 124.48 119.346 124.515L118.811 124.33C118.866 124.169 120.185 120.384 121.791 118.804L122.237 118.366L122.273 118.989C122.316 119.736 122.518 121.645 122.96 122.55C123.642 121.664 125.42 119.399 126.002 119.071L126.27 118.92L126.399 119.199C127.004 120.513 128.041 122.601 128.54 123.267L132.613 119.372L135.788 123.731L138.609 119.742L138.834 120.104C138.908 120.222 140.453 122.699 141.191 124.029C141.586 123.273 142.311 121.716 142.254 120.564L142.218 119.821L142.74 120.351C142.806 120.419 144.369 122.058 144.651 126.723L144.085 126.758Z" fill="white"/>
</g>
<mask id="mask21_2011_77129" style="mask-type:luminance" maskUnits="userSpaceOnUse" x="118" y="105" width="27" height="38">
<path d="M144.536 130.633C143.926 138.867 137.342 143.156 130.596 142.655C123.85 142.155 118.409 136.55 119.02 128.316C119.895 116.519 126.638 104.572 133.384 105.072C140.129 105.573 145.396 119.045 144.536 130.633Z" fill="white"/>
</mask>
<g mask="url(#mask21_2011_77129)">
<path d="M142.342 112.698C142.23 110.86 141.857 109.658 141.564 108.974C141.469 108.752 141.376 108.569 141.292 108.421C141.085 109.68 140.273 111.05 140.233 111.117L140.022 111.469L139.838 111.103C139.5 110.429 138.401 108.64 137.967 107.938L135.756 111.066L133.167 107.512L129.997 110.543L129.844 110.423C129.412 110.086 128.399 107.985 128.003 107.141C127.49 107.626 126.389 109.004 125.722 109.883L125.554 110.104L125.372 109.893C124.892 109.335 124.687 107.887 124.607 107.084C123.555 108.429 122.698 110.888 122.689 110.916L122.263 110.769C122.307 110.641 123.355 107.634 124.631 106.379L124.985 106.031L125.014 106.526C125.048 107.119 125.208 108.636 125.56 109.354C126.102 108.651 127.514 106.852 127.976 106.591L128.189 106.471L128.291 106.693C128.773 107.737 129.596 109.395 129.992 109.925L133.228 106.831L135.75 110.294L137.991 107.124L138.171 107.412C138.229 107.506 139.456 109.474 140.043 110.53C140.357 109.929 140.933 108.693 140.887 107.777L140.858 107.187L141.273 107.609C141.326 107.662 142.567 108.965 142.791 112.671L142.342 112.698Z" fill="white"/>
</g>
<mask id="mask22_2011_77129" style="mask-type:luminance" maskUnits="userSpaceOnUse" x="118" y="105" width="27" height="38">
<path d="M144.536 130.633C143.926 138.867 137.342 143.156 130.596 142.655C123.85 142.155 118.409 136.55 119.02 128.316C119.895 116.519 126.638 104.572 133.384 105.072C140.129 105.573 145.396 119.045 144.536 130.633Z" fill="white"/>
</mask>
<g mask="url(#mask22_2011_77129)">
<path d="M144.578 142.474C144.417 139.82 143.879 138.085 143.455 137.098C143.318 136.777 143.183 136.513 143.062 136.3C142.763 138.116 141.592 140.094 141.533 140.192L141.23 140.7L140.964 140.171C140.475 139.198 138.889 136.615 138.262 135.602L135.069 140.118L131.332 134.986L126.755 139.363L126.533 139.19C125.91 138.703 124.447 135.669 123.875 134.451C123.136 135.152 121.545 137.141 120.582 138.409L120.339 138.729L120.077 138.424C119.384 137.619 119.087 135.529 118.973 134.369C117.454 136.31 116.216 139.862 116.203 139.901L115.588 139.689C115.652 139.505 117.164 135.162 119.007 133.35L119.518 132.848L119.56 133.563C119.609 134.42 119.84 136.609 120.347 137.647C121.13 136.631 123.168 134.033 123.837 133.657L124.144 133.484L124.291 133.804C124.986 135.311 126.175 137.705 126.747 138.47L131.42 134.003L135.061 139.002L138.296 134.427L138.555 134.842C138.64 134.978 140.411 137.819 141.258 139.343C141.712 138.477 142.543 136.691 142.478 135.369L142.436 134.517L143.034 135.126C143.11 135.203 144.902 137.084 145.226 142.434L144.578 142.474Z" fill="white"/>
</g>
<mask id="mask23_2011_77129" style="mask-type:luminance" maskUnits="userSpaceOnUse" x="118" y="105" width="27" height="38">
<path d="M144.536 130.633C143.926 138.867 137.342 143.156 130.596 142.655C123.85 142.155 118.409 136.55 119.02 128.316C119.895 116.519 126.638 104.572 133.384 105.072C140.129 105.573 145.396 119.045 144.536 130.633Z" fill="white"/>
</mask>
<g mask="url(#mask23_2011_77129)">
<path d="M144.342 136.277C144.191 133.793 143.69 132.168 143.296 131.244C143.233 131.095 143.17 130.959 143.109 130.835C142.734 132.466 141.772 134.09 141.72 134.177L141.297 134.886L140.926 134.148C140.492 133.283 139.136 131.066 138.482 130.007L135.46 134.28L131.891 129.38L127.575 133.507L127.266 133.265C126.681 132.809 125.424 130.248 124.787 128.898C124.126 129.574 122.884 131.097 121.821 132.497L121.482 132.944L121.116 132.519C120.504 131.806 120.207 130.104 120.073 128.956C118.748 130.818 117.697 133.838 117.685 133.873L116.827 133.578C116.888 133.402 118.335 129.248 120.109 127.504L120.821 126.803L120.879 127.801C120.938 128.821 121.155 130.475 121.517 131.403C122.377 130.292 124.104 128.121 124.724 127.772L125.152 127.531L125.358 127.977C126.12 129.629 127.078 131.504 127.579 132.248L132.014 128.008L135.449 132.725L138.53 128.368L138.891 128.947C138.968 129.069 140.484 131.501 141.329 132.991C141.764 132.123 142.403 130.643 142.348 129.531L142.289 128.342L143.124 129.191C143.198 129.266 144.936 131.089 145.247 136.223L144.342 136.277Z" fill="#00DDDE"/>
</g>
<mask id="mask24_2011_77129" style="mask-type:luminance" maskUnits="userSpaceOnUse" x="120" y="105" width="27" height="39">
<path d="M146.502 129.092C147.183 137.321 141.349 142.584 134.607 143.143C127.865 143.701 121.616 139.013 120.935 130.784C119.959 118.994 124.756 106.141 131.497 105.583C138.239 105.025 145.543 117.511 146.502 129.092Z" fill="white"/>
</mask>
<g mask="url(#mask24_2011_77129)">
<path opacity="0.37" d="M136.258 124.211C138.473 124.028 140.015 120.819 139.703 117.045C139.39 113.27 137.341 110.358 135.127 110.542C132.912 110.725 131.369 113.934 131.682 117.709C131.994 121.483 134.043 124.395 136.258 124.211Z" fill="white"/>
</g>
<mask id="mask25_2011_77129" style="mask-type:luminance" maskUnits="userSpaceOnUse" x="118" y="105" width="27" height="38">
<path d="M144.536 130.633C143.926 138.867 137.342 143.156 130.596 142.655C123.85 142.155 118.409 136.55 119.02 128.316C119.895 116.519 126.638 104.572 133.384 105.072C140.129 105.573 145.396 119.045 144.536 130.633Z" fill="white"/>
</mask>
<g mask="url(#mask25_2011_77129)">
<path opacity="0.03" d="M152.377 130.025C153.038 136.576 145.9 141.465 138.626 141.172C137.947 141.466 137.235 141.651 136.495 141.712C130.395 142.217 124.753 134.199 123.893 123.803C123.205 115.492 125.782 108.179 129.96 105.321C132.069 101.039 133.992 98.1827 133.992 98.1827L125.628 102.173L119.835 111.22L117.588 127.701L116.785 138.527L123.823 143.787L139.696 145.605L148.088 144.69L155.249 137.922L152.377 130.025Z" fill="#242E36"/>
</g>
<mask id="mask26_2011_77129" style="mask-type:luminance" maskUnits="userSpaceOnUse" x="118" y="105" width="27" height="38">
<path d="M144.536 130.633C143.926 138.867 137.342 143.156 130.596 142.655C123.85 142.155 118.409 136.55 119.02 128.316C119.895 116.519 126.638 104.572 133.384 105.072C140.129 105.573 145.396 119.045 144.536 130.633Z" fill="white"/>
</mask>
<g mask="url(#mask26_2011_77129)">
<path opacity="0.27" d="M145.773 121.732C144.913 111.337 139.27 103.319 133.17 103.823C131.947 103.925 130.799 104.362 129.75 105.079C125.573 107.936 122.996 115.25 123.683 123.56C124.544 133.956 130.186 141.974 136.286 141.469C137.025 141.408 137.737 141.223 138.416 140.93C143.34 138.798 146.529 130.868 145.773 121.732Z" fill="white"/>
</g>
<path d="M63.6998 126.104C61.9598 135.537 62.784 145.153 65.7145 154.31C73.865 180.044 102.529 183.157 113.335 182.883C131.925 182.425 147.127 173.45 153.63 162.369C162.329 147.35 161.322 126.562 159.124 126.013C158.025 125.738 156.926 126.104 155.919 126.379C149.051 128.302 133.024 133.247 112.053 132.698C81.0081 131.965 66.6303 125.463 65.3482 125.646C64.0661 125.921 63.0588 127.295 63.6998 126.104Z" fill="#CE965D"/>
<path d="M151.981 149.64C149.692 151.197 147.402 152.845 145.113 154.494C144.38 154.31 143.648 154.127 143.007 153.944C141.358 153.486 139.618 153.028 137.97 152.479C135.406 151.655 132.933 150.739 130.46 149.731C130.827 149.457 131.193 149.182 131.559 148.999C133.299 147.808 135.039 146.618 136.779 145.427C138.519 144.237 140.442 143.046 142.091 141.581C142.549 141.123 141.999 140.299 141.45 140.574C137.97 141.764 134.764 144.237 131.834 146.343C130.643 147.167 129.545 147.991 128.446 148.816C128.354 148.816 128.262 148.724 128.171 148.724C122.127 145.977 116.266 142.405 109.672 140.94C108.665 140.665 108.298 142.314 109.306 142.497C115.442 144.054 120.661 147.625 126.339 150.373C125.149 151.288 123.867 152.204 122.676 153.028C120.02 154.951 117.273 156.875 114.526 158.798C114.343 158.706 114.068 158.615 113.885 158.431C109.581 156.142 105.368 153.669 101.339 151.014C101.796 150.739 102.346 150.373 102.804 150.098C105.368 148.449 108.024 146.801 110.496 144.878C110.954 144.512 110.679 143.504 110.038 143.779C107.291 144.878 104.91 146.526 102.529 148.266C101.705 148.816 100.789 149.457 99.9648 150.006C98.5912 148.999 97.1259 147.991 95.8438 146.984C93.4628 145.153 91.1733 143.321 88.8839 141.306C89.067 141.123 89.2502 140.848 89.3418 140.574C89.4334 140.299 89.067 140.024 88.8839 140.116C88.6092 140.207 88.3344 140.391 88.0597 140.574C87.5102 140.024 86.8692 139.566 86.3197 139.017C85.7702 138.467 84.946 139.383 85.4955 139.933C86.045 140.39 86.5029 140.94 87.0523 141.398C86.5944 141.764 86.045 142.13 85.5871 142.405C84.305 143.229 83.0229 144.054 81.6492 144.786C80.0008 145.702 78.3524 146.435 76.6124 147.259C75.2388 145.427 73.8651 143.596 72.4914 141.764C72.0335 141.123 70.9346 141.764 71.3925 142.405C72.6746 144.237 73.9567 146.068 75.2388 147.808C74.6893 148.083 74.1398 148.266 73.5903 148.541C72.8577 148.907 73.224 150.098 73.9567 149.823C74.5977 149.548 75.3303 149.274 75.9714 148.999C78.5356 152.662 81.0997 156.234 84.0302 159.622C82.2903 160.446 80.4587 161.087 78.6271 161.728C77.8945 162.003 78.2608 163.102 78.9934 162.919C81.0082 162.278 83.0229 161.545 84.946 160.721C85.4039 161.179 85.7702 161.637 86.2281 162.186C89.1586 165.3 92.547 167.864 96.1185 170.245C95.2943 170.611 94.5617 170.886 93.7375 171.161C93.0965 171.344 93.3712 172.443 94.1038 172.26C95.2028 171.893 96.3017 171.527 97.4007 171.069C99.7817 172.534 102.254 173.908 104.818 175.19C106.742 176.198 108.665 177.113 110.496 178.029C112.419 178.945 114.343 179.952 116.357 180.685C116.815 180.868 117.273 180.135 116.815 179.769C113.976 177.571 110.496 175.923 107.2 174.274C104.635 172.901 102.071 171.527 99.5985 169.97C104.361 167.772 108.756 164.75 113.152 161.82C113.518 161.545 113.885 161.27 114.343 160.996C116.724 162.278 119.196 163.468 121.669 164.567C123.867 165.574 126.065 166.49 128.262 167.314C124.599 169.879 120.845 172.351 117.09 174.732C116.357 175.19 117.09 176.381 117.823 175.923C122.035 173.359 126.248 170.703 130.369 167.956C131.376 168.23 132.383 168.505 133.299 168.688C134.032 168.871 134.581 167.772 133.849 167.314C133.299 167.04 132.841 166.857 132.292 166.582C133.574 165.758 134.856 164.842 136.047 164.018C139.343 161.728 142.457 159.439 145.571 156.966C146.395 157.058 147.219 157.149 148.043 157.058C148.776 156.966 149.142 156.05 148.41 155.592C148.226 155.501 147.952 155.318 147.769 155.226C149.6 153.761 151.34 152.204 152.989 150.556C153.263 150.098 152.531 149.182 151.981 149.64ZM85.6787 158.798C83.8471 156.875 82.1987 154.86 80.5503 152.754C79.4513 151.288 78.3524 149.915 77.2535 148.449C78.9019 147.717 80.5503 146.893 82.1987 146.068C83.5724 145.336 84.946 144.512 86.2281 143.687C86.7776 143.321 87.3271 142.863 87.785 142.405C91.1733 145.519 94.6533 148.449 98.3164 151.105C97.1259 151.929 95.9354 152.754 94.6533 153.578C91.8144 155.409 88.7923 157.241 85.6787 158.798ZM104.635 165.574C102.529 166.857 100.423 168.047 98.2248 169.146C97.9501 168.963 97.6754 168.78 97.4007 168.597C94.287 166.582 91.2649 164.292 88.5176 161.637C87.8765 160.996 87.2355 160.355 86.5944 159.713C89.5249 158.248 92.2723 156.691 95.0196 154.951C96.5764 153.944 98.1333 153.028 99.6901 152.021C103.811 154.951 108.115 157.699 112.603 160.08C110.038 162.003 107.383 163.834 104.635 165.574ZM134.673 162.461C133.208 163.56 131.651 164.659 130.094 165.758C127.896 164.842 125.79 164.018 123.592 163.102C121.028 162.003 118.464 160.812 115.991 159.53C120.02 156.783 124.141 153.944 128.171 151.197C131.193 152.57 134.215 153.761 137.329 154.768C138.977 155.318 140.625 155.776 142.365 156.234C142.457 156.234 142.457 156.234 142.549 156.325C139.893 158.34 137.329 160.446 134.673 162.461Z" fill="#916332"/>
<path d="M161.139 143.504C161.139 145.702 159.216 147.442 157.018 147.167C143.281 145.61 127.988 144.512 111.137 144.603C94.2869 144.603 78.8102 145.702 65.0735 147.35C63.4251 147.534 61.9598 146.252 61.9598 144.603V137.094H161.047V143.504H161.139Z" fill="#DFA950"/>
<path d="M61.5021 125.372L160.406 125.005C164.07 125.005 167 128.027 167 131.782C167 135.537 164.07 138.559 160.498 138.559L61.5936 138.925C57.9305 138.925 55 135.903 55 132.148C55 128.485 57.8389 125.463 61.5021 125.372Z" fill="#B77437"/>
<path d="M111.137 140.965C111.137 140.965 118.189 131.166 125.241 131.624C132.292 132.082 133.391 142.064 130.369 146.642C128.079 150.122 120.936 149.939 112.145 144.078C112.145 144.078 108.573 143.62 111.137 140.965Z" fill="#FFCC79"/>
<g opacity="0.18">
<path d="M121.944 134.737C123.684 134.371 125.515 134.829 126.889 135.928C128.262 136.935 129.087 138.492 129.361 140.14C129.453 140.507 129.911 140.782 130.277 140.69C130.735 140.598 130.827 140.14 130.827 139.774C130.46 137.759 129.361 135.928 127.621 134.646C125.881 133.364 123.592 132.906 121.486 133.364C121.119 133.455 120.845 133.913 120.936 134.28C121.119 134.554 121.577 134.737 121.944 134.737Z" fill="white"/>
</g>
<path d="M110.771 141.423C110.771 141.423 103.72 131.624 96.6681 132.082C89.6166 132.54 88.5177 142.522 91.5397 147.1C93.8292 150.58 100.972 150.397 109.764 144.536C109.764 144.536 113.335 144.078 110.771 141.423Z" fill="#FFCC79"/>
<g opacity="0.18">
<path d="M100.423 133.73C98.3165 133.364 96.0271 133.73 94.2871 135.012C92.6387 136.203 91.4482 138.034 91.0819 140.141C90.9903 140.507 91.1734 140.965 91.6313 141.056C91.9976 141.148 92.4555 140.965 92.5471 140.507C92.8218 138.858 93.646 137.302 95.0197 136.294C96.3934 135.287 98.3165 134.829 99.9649 135.104C100.331 135.195 100.789 135.012 100.881 134.554C100.972 134.28 100.789 133.822 100.423 133.73Z" fill="white"/>
</g>
<path d="M112.145 141.697L120.478 137.851" stroke="#CE6B19" stroke-miterlimit="10" stroke-linecap="round"/>
<path d="M112.236 143.071L120.57 142.705" stroke="#CE6B19" stroke-miterlimit="10" stroke-linecap="round"/>
<path d="M110.313 141.789C110.313 141.789 101.979 139.683 101.521 139.408" stroke="#CE6B19" stroke-miterlimit="10" stroke-linecap="round"/>
<path d="M110.038 143.346C110.038 143.346 103.262 143.62 101.979 143.712" stroke="#CE6B19" stroke-miterlimit="10" stroke-linecap="round"/>
<path d="M114.068 142.522C114.159 144.17 112.877 145.544 111.229 145.544C109.581 145.635 108.207 144.353 108.207 142.705C108.115 141.056 109.397 139.683 111.046 139.683C112.694 139.591 114.068 140.873 114.068 142.522Z" fill="#E9A427"/>
<g filter="url(#filter0_f_2011_77129)">
<ellipse cx="109.5" cy="124" rx="55.5" ry="70" fill="#FBDD36" fill-opacity="0.3"/>
</g>
<defs>
<filter id="filter0_f_2011_77129" x="0" y="0" width="219" height="248" filterUnits="userSpaceOnUse" color-interpolation-filters="sRGB">
<feFlood flood-opacity="0" result="BackgroundImageFix"/>
<feBlend mode="normal" in="SourceGraphic" in2="BackgroundImageFix" result="shape"/>
<feGaussianBlur stdDeviation="27" result="effect1_foregroundBlur_2011_77129"/>
</filter>
</defs>
</svg>
