<svg width="120" height="120" viewBox="0 0 120 120" fill="none" xmlns="http://www.w3.org/2000/svg">
<g clip-path="url(#clip0_2011_76782)">
<path d="M105.172 40.0488C103.523 34.1878 101.692 28.2352 99.2192 22.7405C96.7466 17.3374 93.5414 12.3922 89.1456 8.45431C85.1162 4.88276 80.0794 2.50174 74.951 1.21965C64.7859 -1.34454 53.5217 0.212304 44.2724 5.15752C35.2061 9.91958 28.3378 17.8869 24.5831 27.5026C20.0042 39.3161 17.1653 52.0455 18.081 64.7748C18.1726 66.3317 18.3558 67.9801 18.6305 69.5369C18.9968 72.0095 22.7515 71.5516 22.4768 68.9874C21.1947 57.1739 23.301 45.0856 27.0557 33.913C28.7041 29.0594 30.6272 24.3889 33.6493 20.2679C36.3051 16.5132 39.5103 13.5827 43.3566 11.0185C51.1407 5.89014 61.1227 3.69227 70.3721 5.06594C75.1342 5.79856 79.8046 7.35539 83.7425 10.1027C88.0467 13.0332 91.2519 17.3374 93.633 21.9163C96.1971 26.8615 97.9371 32.173 99.5855 37.4846C100.501 40.5067 101.417 43.5287 102.058 46.6424C102.791 49.8476 103.066 53.0529 103.249 56.3497C103.34 57.9065 103.432 59.5549 103.707 61.1117C103.89 62.2106 104.897 63.1264 106.088 62.9433C107.37 62.7601 107.919 61.7528 107.919 60.5623C107.919 57.1739 107.828 53.7855 107.37 50.4887C107.003 46.734 106.179 43.4371 105.172 40.0488Z" fill="#B77437"/>
<mask id="mask0_2011_76782" style="mask-type:luminance" maskUnits="userSpaceOnUse" x="44" y="39" width="27" height="35">
<path d="M69.8252 57.1829C72.7144 64.3437 68.9623 70.6612 63.0963 73.028C57.23 75.3949 50.3496 72.9402 47.4604 65.7794C43.3213 55.5209 44.0434 42.7124 49.9097 40.3455C55.7758 37.9789 65.7594 47.1059 69.8252 57.1829Z" fill="white"/>
</mask>
<g mask="url(#mask0_2011_76782)">
<path d="M62.2716 30.8122L33.3702 42.4732L49.6718 82.8761L78.5732 71.2151L62.2716 30.8122Z" fill="#FFB41B"/>
</g>
<mask id="mask1_2011_76782" style="mask-type:luminance" maskUnits="userSpaceOnUse" x="44" y="39" width="27" height="35">
<path d="M69.8252 57.1829C72.7144 64.3437 68.9623 70.6612 63.0963 73.028C57.23 75.3949 50.3496 72.9402 47.4604 65.7794C43.3213 55.5209 44.0434 42.7124 49.9097 40.3455C55.7758 37.9789 65.7594 47.1059 69.8252 57.1829Z" fill="white"/>
</mask>
<g mask="url(#mask1_2011_76782)">
<path d="M65.4262 49.1188C64.317 47.1723 63.2772 46.1051 62.5682 45.5395C62.8623 46.894 62.7453 48.4059 62.7384 48.4889L62.6759 49.2588L62.0599 48.7927C61.4234 48.3112 59.6329 47.176 58.7251 46.6061L58.0318 50.9593L53.4973 48.5767L51.7731 53.2955L51.4142 53.2207C50.8035 53.0934 48.9408 51.663 47.9417 50.8688C47.6954 51.6409 47.3349 53.2134 47.0587 54.6349L46.9589 55.1498L46.4764 54.944C45.7655 54.6411 44.9368 53.5291 44.4012 52.7125C44.1227 54.5984 44.4388 57.1727 44.4428 57.2032L43.6013 57.3089C43.5816 57.1529 43.1281 53.4618 43.8235 51.4732L44.1319 50.5906L44.5928 51.4041C45.0043 52.1307 45.7495 53.2534 46.3545 53.8313C46.609 52.5861 47.0832 50.4386 47.4197 49.9471L47.6794 49.5675L48.0365 49.8571C49.2011 50.8014 50.5913 51.84 51.2589 52.2323L53.0339 47.3746L57.3804 49.6586L58.0887 45.2102L58.6308 45.5467C58.7323 45.6099 60.714 46.8409 61.918 47.6558C61.919 46.8356 61.8422 45.545 61.405 44.7578L60.8644 43.7841L61.9156 44.1516C62 44.1812 64.008 44.9178 66.1628 48.6989L65.4262 49.1188Z" fill="#FF5D7C"/>
</g>
<mask id="mask2_2011_76782" style="mask-type:luminance" maskUnits="userSpaceOnUse" x="44" y="39" width="27" height="35">
<path d="M69.8252 57.1829C72.7144 64.3437 68.9623 70.6612 63.0963 73.028C57.23 75.3949 50.3496 72.9402 47.4604 65.7794C43.3213 55.5209 44.0434 42.7124 49.9097 40.3455C55.7758 37.9789 65.7594 47.1059 69.8252 57.1829Z" fill="white"/>
</mask>
<g mask="url(#mask2_2011_76782)">
<path d="M67.8459 54.119C66.7725 52.2356 65.7539 51.161 65.0884 50.591C64.8727 50.4061 64.6791 50.2612 64.514 50.1487C64.9494 51.585 64.8048 53.4537 64.7973 53.5464L64.7581 54.0275L64.3733 53.7362C63.6653 53.2003 61.5746 51.8824 60.7512 51.3669L60.042 55.8198L55.4607 53.4125L53.6887 58.2622L53.4645 58.2154C52.8331 58.0838 50.6703 56.3913 49.8138 55.706C49.5251 56.4853 49.0782 58.5132 48.8308 59.7873L48.7682 60.1092L48.4666 59.9807C47.6693 59.6409 46.6995 58.2189 46.1982 57.4124C45.7856 59.379 46.1601 62.4221 46.1642 62.4559L45.6384 62.522C45.6186 62.3646 45.1613 58.6435 45.8564 56.6544L46.0493 56.1028L46.3374 56.6113C46.6817 57.2197 47.6395 58.7377 48.3841 59.3144C48.5908 58.2892 49.1465 55.6552 49.4996 55.1393L49.6619 54.902L49.8851 55.0829C50.9361 55.9349 52.6678 57.2585 53.362 57.6116L55.1708 52.6611L59.6348 55.0068L60.3533 50.4945L60.6921 50.7048C60.803 50.7738 63.1219 52.2142 64.2907 53.0243C64.3101 52.227 64.2751 50.6215 63.7515 49.6784L63.4137 49.07L64.0707 49.2995C64.1542 49.3288 66.1425 50.0588 68.3065 53.8559L67.8459 54.119Z" fill="white"/>
</g>
<mask id="mask3_2011_76782" style="mask-type:luminance" maskUnits="userSpaceOnUse" x="44" y="39" width="27" height="35">
<path d="M69.8252 57.1829C72.7144 64.3437 68.9623 70.6612 63.0963 73.028C57.23 75.3949 50.3496 72.9402 47.4604 65.7794C43.3213 55.5209 44.0434 42.7124 49.9097 40.3455C55.7758 37.9789 65.7594 47.1059 69.8252 57.1829Z" fill="white"/>
</mask>
<g mask="url(#mask3_2011_76782)">
<path d="M60.5753 43.0426C59.7225 41.5464 58.9133 40.6928 58.3846 40.2399C58.2131 40.0933 58.0594 39.9779 57.9281 39.8885C58.2741 41.0296 58.1592 42.5142 58.1532 42.5878L58.1221 42.9701L57.8164 42.7387C57.2539 42.313 55.5929 41.2659 54.9389 40.8565L54.3756 44.3943L50.7362 42.4819L49.3285 46.3344L49.1502 46.2973C48.6486 46.1928 46.9306 44.8481 46.25 44.3037C46.0205 44.9225 45.6657 46.5338 45.4691 47.5461L45.4194 47.8016L45.1799 47.6995C44.5466 47.4294 43.7762 46.2999 43.3779 45.659C43.0501 47.2217 43.3476 49.6391 43.3511 49.6658L42.9332 49.7183C42.9175 49.5932 42.5542 46.637 43.1065 45.0569L43.2597 44.6187L43.4886 45.0228C43.7623 45.5061 44.5229 46.712 45.1145 47.1702C45.2787 46.3558 45.7202 44.2631 46.0007 43.8534L46.1296 43.6651L46.3069 43.8089C47.1419 44.4856 48.5177 45.5371 49.069 45.8178L50.5061 41.885L54.0523 43.7484L54.6231 40.1636L54.8923 40.3308C54.9805 40.3856 56.8228 41.5299 57.7513 42.1734C57.7666 41.5398 57.7389 40.2644 57.3227 39.5154L57.0543 39.032L57.5763 39.2146C57.6427 39.2378 59.2221 39.8176 60.9414 42.8342L60.5753 43.0426Z" fill="white"/>
</g>
<mask id="mask4_2011_76782" style="mask-type:luminance" maskUnits="userSpaceOnUse" x="44" y="39" width="27" height="35">
<path d="M69.8252 57.1829C72.7144 64.3437 68.9623 70.6612 63.0963 73.028C57.23 75.3949 50.3496 72.9402 47.4604 65.7794C43.3213 55.5209 44.0434 42.7124 49.9097 40.3455C55.7758 37.9789 65.7594 47.1059 69.8252 57.1829Z" fill="white"/>
</mask>
<g mask="url(#mask4_2011_76782)">
<path d="M74.7514 67.1002C73.5201 64.9398 72.3519 63.7071 71.5887 63.0536C71.341 62.8415 71.1192 62.6754 70.9296 62.5464C71.4289 64.1939 71.2632 66.3371 71.2546 66.4435L71.2098 66.9954L70.7683 66.6611C69.9563 66.0465 67.5584 64.5349 66.6138 63.9437L65.8004 69.0514L60.5458 66.2901L58.5133 71.8526L58.256 71.799C57.5318 71.6482 55.0511 69.7069 54.0685 68.9208C53.7373 69.8145 53.2247 72.1405 52.9409 73.6021L52.8692 73.9712L52.5233 73.8238C51.609 73.4341 50.4966 71.8033 49.9216 70.878C49.4487 73.1331 49.8777 76.6244 49.8826 76.663L49.2793 76.739C49.2567 76.5583 48.732 72.2901 49.5295 70.0087L49.7508 69.3761L50.0811 69.9594C50.4762 70.6572 51.5746 72.3981 52.4286 73.0597C52.6656 71.8838 53.3029 68.8626 53.708 68.2708L53.8942 67.9988L54.1502 68.2063C55.3558 69.1835 57.3421 70.7016 58.1383 71.1068L60.2131 65.4287L65.3331 68.1189L66.1573 62.9436L66.5459 63.1848C66.6733 63.2638 69.3331 64.9161 70.6735 65.8451C70.6957 64.9306 70.6557 63.0892 70.0549 62.0073L69.6674 61.3094L70.421 61.5729C70.5169 61.6064 72.7971 62.4438 75.2794 66.7991L74.7514 67.1002Z" fill="white"/>
</g>
<mask id="mask5_2011_76782" style="mask-type:luminance" maskUnits="userSpaceOnUse" x="44" y="39" width="27" height="35">
<path d="M69.8252 57.1829C72.7144 64.3437 68.9623 70.6612 63.0963 73.028C57.23 75.3949 50.3496 72.9402 47.4604 65.7794C43.3213 55.5209 44.0434 42.7124 49.9097 40.3455C55.7758 37.9789 65.7594 47.1059 69.8252 57.1829Z" fill="white"/>
</mask>
<g mask="url(#mask5_2011_76782)">
<path d="M71.9935 61.999C70.8408 59.9768 69.7498 58.8209 69.0373 58.2076C68.9226 58.1089 68.8138 58.0206 68.7117 57.942C69.0702 59.4653 68.9342 61.2252 68.9266 61.3194L68.864 62.0893L68.2481 61.6233C67.5268 61.0772 65.4735 59.7775 64.4872 59.1588L63.7175 63.9921L58.6988 61.3551L56.7821 66.6006L56.4232 66.5258C55.7443 66.3842 53.6314 64.7552 52.54 63.8857C52.2639 64.7257 51.8514 66.5162 51.538 68.1307L51.4381 68.6455L50.9554 68.4398C50.1472 68.0953 49.1955 66.7891 48.6087 65.8815C48.2663 67.9914 48.6315 70.9592 48.636 70.9939L47.7946 71.0999C47.7728 70.9272 47.271 66.8442 48.0387 64.6488L48.3471 63.7663L48.8078 64.5797C49.2788 65.4112 50.1436 66.7089 50.8312 67.3382C51.0938 66.0507 51.6453 63.5165 52.0214 62.9672L52.2812 62.5879L52.6383 62.8773C53.9597 63.9485 55.5385 65.1255 56.2658 65.5425L58.2349 60.1534L63.0658 62.692L63.8507 57.7636L64.3927 58.1001C64.5075 58.1714 66.7837 59.5854 68.1087 60.4865C68.1151 59.5786 68.0396 58.0732 67.5343 57.163L66.9938 56.1893L68.0449 56.5568C68.1377 56.5894 70.3489 57.4007 72.7302 61.5793L71.9935 61.999Z" fill="#00DDDE"/>
</g>
<mask id="mask6_2011_76782" style="mask-type:luminance" maskUnits="userSpaceOnUse" x="45" y="40" width="28" height="34">
<path d="M70.8376 55.0786C74.8086 61.7013 72.0878 68.527 66.6625 71.7801C61.237 75.0332 54.0577 73.6818 50.0866 67.0591C44.3977 57.5714 43.1128 44.8066 48.5383 41.5534C53.9637 38.3005 65.2493 45.7588 70.8376 55.0786Z" fill="white"/>
</mask>
<g mask="url(#mask6_2011_76782)">
<path opacity="0.37" d="M60.2276 55.2152C62.0102 54.1464 61.9786 50.8173 60.1571 47.7795C58.3356 44.7416 55.4139 43.1455 53.6314 44.2143C51.8488 45.2831 51.8804 48.6122 53.7019 51.65C55.5234 54.6879 58.4451 56.2841 60.2276 55.2152Z" fill="white"/>
</g>
<mask id="mask7_2011_76782" style="mask-type:luminance" maskUnits="userSpaceOnUse" x="44" y="39" width="27" height="35">
<path d="M69.8252 57.1829C72.7144 64.3437 68.9623 70.6612 63.0963 73.028C57.23 75.3949 50.3496 72.9402 47.4604 65.7794C43.3213 55.5209 44.0434 42.7124 49.9097 40.3455C55.7758 37.9789 65.7594 47.1059 69.8252 57.1829Z" fill="white"/>
</mask>
<g mask="url(#mask7_2011_76782)">
<path opacity="0.03" d="M76.1522 53.4346C79.4131 58.6568 75.4443 65.7078 69.2202 68.4669C68.7717 68.9941 68.2509 69.4431 67.6558 69.7999C62.7466 72.7432 54.7007 68.347 49.6848 59.9807C45.6748 53.2923 44.8155 46.092 47.1404 41.9688C47.1411 37.5046 47.5742 34.314 47.5742 34.314L42.2054 41.1164L41.082 51.0999L46.0053 65.8556L49.8037 75.2698L57.8809 76.7759L71.9488 71.7437L78.6117 67.5101L81.8238 58.8733L76.1522 53.4346Z" fill="#242E36"/>
</g>
<mask id="mask8_2011_76782" style="mask-type:luminance" maskUnits="userSpaceOnUse" x="44" y="39" width="27" height="35">
<path d="M69.8252 57.1829C72.7144 64.3437 68.9623 70.6612 63.0963 73.028C57.23 75.3949 50.3496 72.9402 47.4604 65.7794C43.3213 55.5209 44.0434 42.7124 49.9097 40.3455C55.7758 37.9789 65.7594 47.1059 69.8252 57.1829Z" fill="white"/>
</mask>
<g mask="url(#mask8_2011_76782)">
<path opacity="0.27" d="M67.1861 49.205C62.1702 40.8387 54.1242 36.4425 49.2151 39.3858C48.2306 39.976 47.4475 40.8173 46.8643 41.8517C44.5396 45.9748 45.3987 53.1752 49.4087 59.8637C54.4248 68.2299 62.4707 72.6261 67.3797 69.6828C67.9746 69.3261 68.4956 68.877 68.9441 68.3499C72.1947 64.5279 71.5941 56.5572 67.1861 49.205Z" fill="white"/>
</g>
<mask id="mask9_2011_76782" style="mask-type:luminance" maskUnits="userSpaceOnUse" x="58" y="33" width="29" height="41">
<path d="M86.236 60.9047C85.5829 69.7118 78.5413 74.2984 71.3265 73.7633C64.1115 73.2283 58.2919 67.2335 58.9451 58.4264C59.8808 45.8092 67.0926 33.0317 74.3076 33.5668C81.5224 34.1021 87.1552 48.5109 86.236 60.9047Z" fill="white"/>
</mask>
<g mask="url(#mask9_2011_76782)">
<path d="M91.8082 30.0303L56.2621 27.3941L52.5768 77.086L88.1229 79.7222L91.8082 30.0303Z" fill="#FFB41B"/>
</g>
<mask id="mask10_2011_76782" style="mask-type:luminance" maskUnits="userSpaceOnUse" x="58" y="33" width="29" height="41">
<path d="M86.236 60.9047C85.5829 69.7118 78.5413 74.2984 71.3265 73.7633C64.1115 73.2283 58.2919 67.2335 58.9451 58.4264C59.8808 45.8092 67.0926 33.0317 74.3076 33.5668C81.5224 34.1021 87.1552 48.5109 86.236 60.9047Z" fill="white"/>
</mask>
<g mask="url(#mask10_2011_76782)">
<path d="M85.7964 50.4079C85.6416 47.8503 85.1139 46.2299 84.6721 45.2914C84.2896 46.8298 83.4057 48.3219 83.3568 48.4036L82.9036 49.162L82.5071 48.3726C82.0973 47.5569 80.8336 45.4876 80.19 44.4442L77.2794 48.5607L73.8304 43.825L69.6772 47.7958L69.3468 47.5377C68.7845 47.0986 67.5958 44.6899 66.972 43.3701C66.3291 44.038 65.1648 45.4693 64.1633 46.7884L63.8007 47.2662L63.4096 46.8113C62.8331 46.1414 62.5446 44.5817 62.4077 43.4733C61.1691 45.2676 60.1929 48.0687 60.1816 48.102L59.2647 47.7854C59.3233 47.6153 60.7228 43.599 62.441 41.9097L63.2033 41.16L63.2653 42.2275C63.3204 43.181 63.5179 44.7094 63.8466 45.608C64.7368 44.459 66.3084 42.495 66.9019 42.1607L67.3601 41.9024L67.5803 42.38C68.2982 43.9372 69.2 45.7053 69.6867 46.445L73.9622 42.3574L77.2681 46.8969L80.2423 42.6904L80.6284 43.3095C80.7007 43.4257 82.1122 45.6899 82.9359 47.1343C83.3513 46.2932 83.9245 44.9302 83.8736 43.9016L83.8108 42.6294L84.7038 43.5376C84.7753 43.6106 86.4635 45.3808 86.7644 50.3492L85.7964 50.4079Z" fill="#FF5D7C"/>
</g>
<mask id="mask11_2011_76782" style="mask-type:luminance" maskUnits="userSpaceOnUse" x="58" y="33" width="29" height="41">
<path d="M86.236 60.9047C85.5829 69.7118 78.5413 74.2984 71.3265 73.7633C64.1115 73.2283 58.2919 67.2335 58.9451 58.4264C59.8808 45.8092 67.0926 33.0317 74.3076 33.5668C81.5224 34.1021 87.1552 48.5109 86.236 60.9047Z" fill="white"/>
</mask>
<g mask="url(#mask11_2011_76782)">
<path d="M85.753 56.7609C85.6032 54.2861 85.1008 52.6689 84.7061 51.7478C84.5781 51.4491 84.4527 51.2026 84.34 51.0038C84.0612 52.6974 82.9688 54.5419 82.9142 54.6332L82.631 55.107L82.3833 54.6137C81.9276 53.7062 80.4482 51.2976 79.8638 50.3527L76.8865 54.5634L73.4018 49.7789L69.1335 53.8598L68.9271 53.6984C68.3458 53.2444 66.9816 50.4152 66.449 49.2793C65.7592 49.9331 64.276 51.788 63.3785 52.9704L63.1517 53.2691L62.9071 52.9848C62.2607 52.2334 61.984 50.2844 61.8771 49.2035C60.4601 51.013 59.307 54.3246 59.2942 54.3614L58.7212 54.1636C58.7805 53.992 60.1912 49.9429 61.9093 48.2531L62.386 47.7846L62.4246 48.4518C62.4706 49.2501 62.6864 51.2916 63.1591 52.2595C63.8891 51.312 65.79 48.8901 66.413 48.5391L66.6994 48.3776L66.8369 48.6759C67.485 50.0812 68.5931 52.3142 69.1271 53.0272L73.484 48.8614L76.8793 53.5236L79.8962 49.2566L80.1376 49.6435C80.2165 49.7703 81.8682 52.4198 82.6582 53.8415C83.0809 53.0333 83.8561 51.3682 83.7953 50.136L83.7561 49.341L84.3143 49.9086C84.3852 49.9807 86.0565 51.7342 86.3586 56.7236L85.753 56.7609Z" fill="white"/>
</g>
<mask id="mask12_2011_76782" style="mask-type:luminance" maskUnits="userSpaceOnUse" x="58" y="33" width="29" height="41">
<path d="M86.236 60.9047C85.5829 69.7118 78.5413 74.2984 71.3265 73.7633C64.1115 73.2283 58.2919 67.2335 58.9451 58.4264C59.8808 45.8092 67.0926 33.0317 74.3076 33.5668C81.5224 34.1021 87.1552 48.5109 86.236 60.9047Z" fill="white"/>
</mask>
<g mask="url(#mask12_2011_76782)">
<path d="M83.8887 41.7226C83.7697 39.7565 83.3706 38.4718 83.0569 37.74C82.9551 37.503 82.8556 37.3069 82.7661 37.1489C82.5446 38.4945 81.6767 39.9597 81.6333 40.0322L81.4082 40.4088L81.2114 40.017C80.8494 39.296 79.6742 37.3824 79.2099 36.6319L76.8446 39.9774L74.0764 36.1765L70.6857 39.4183L70.5215 39.2901C70.0596 38.9294 68.9761 36.6818 68.5528 35.7792C68.0048 36.2983 66.8266 37.7723 66.1135 38.7117L65.9334 38.9488L65.7393 38.723C65.2259 38.126 65.0061 36.5778 64.9212 35.719C63.7954 37.1568 62.8793 39.7874 62.8694 39.8167L62.4141 39.6594C62.4611 39.5231 63.5819 36.3063 64.9469 34.964L65.3255 34.5918L65.3562 35.122C65.3929 35.7563 65.5641 37.3779 65.9396 38.1468C66.5195 37.3942 68.0298 35.4699 68.5246 35.1913L68.7519 35.0632L68.8612 35.3003C69.3762 36.4166 70.2566 38.1905 70.6805 38.7571L74.1418 35.4477L76.8392 39.1513L79.2359 35.7614L79.4276 36.0689C79.4904 36.1697 80.8026 38.2746 81.4303 39.4039C81.7661 38.7616 82.382 37.439 82.3334 36.4602L82.3022 35.8286L82.7455 36.2796C82.802 36.337 84.1295 37.7299 84.3697 41.6936L83.8887 41.7226Z" fill="white"/>
</g>
<mask id="mask13_2011_76782" style="mask-type:luminance" maskUnits="userSpaceOnUse" x="58" y="33" width="29" height="41">
<path d="M86.236 60.9047C85.5829 69.7118 78.5413 74.2984 71.3265 73.7633C64.1115 73.2283 58.2919 67.2335 58.9451 58.4264C59.8808 45.8092 67.0926 33.0317 74.3076 33.5668C81.5224 34.1021 87.1552 48.5109 86.236 60.9047Z" fill="white"/>
</mask>
<g mask="url(#mask13_2011_76782)">
<path d="M86.2803 73.5692C86.1084 70.7304 85.5325 68.8755 85.0795 67.8193C84.9326 67.4766 84.7889 67.1941 84.6596 66.9659C84.3395 68.9087 83.0867 71.0239 83.0241 71.1289L82.6993 71.6725L82.4152 71.1064C81.8926 70.0656 80.1958 67.3031 79.5252 66.2192L76.1102 71.0492L72.1136 65.5613L67.2179 70.2419L66.981 70.0569C66.3141 69.5363 64.7495 66.2912 64.1383 64.9882C63.347 65.7378 61.646 67.8655 60.6164 69.2218L60.3564 69.5643L60.0759 69.2383C59.3346 68.3766 59.0171 66.1412 58.8946 64.9013C57.2701 66.9763 55.9464 70.7753 55.9319 70.8174L55.2745 70.5906C55.3426 70.3938 56.9605 65.7492 58.9315 63.8112L59.4781 63.274L59.5224 64.0393C59.5752 64.9549 59.8227 67.2962 60.3647 68.4064C61.202 67.3196 63.3823 64.5416 64.0969 64.139L64.4254 63.9541L64.5832 64.2963C65.3265 65.9081 66.5976 68.4692 67.2099 69.2872L72.2074 64.5092L76.1018 69.8563L79.5621 64.9624L79.839 65.4063C79.9298 65.5518 81.8242 68.5909 82.7302 70.2212C83.215 69.2941 84.1042 67.3844 84.0343 65.9709L83.9893 65.059L84.6294 65.7101C84.7109 65.7929 86.6275 67.8041 86.9742 73.5271L86.2803 73.5692Z" fill="white"/>
</g>
<mask id="mask14_2011_76782" style="mask-type:luminance" maskUnits="userSpaceOnUse" x="58" y="33" width="29" height="41">
<path d="M86.236 60.9047C85.5829 69.7118 78.5413 74.2984 71.3265 73.7633C64.1115 73.2283 58.2919 67.2335 58.9451 58.4264C59.8808 45.8092 67.0926 33.0317 74.3076 33.5668C81.5224 34.1021 87.1552 48.5109 86.236 60.9047Z" fill="white"/>
</mask>
<g mask="url(#mask14_2011_76782)">
<path d="M86.0277 66.9418C85.8666 64.2844 85.3311 62.5472 84.9098 61.558C84.842 61.3987 84.7751 61.2532 84.7099 61.1209C84.3082 62.8652 83.2796 64.6022 83.2241 64.695L82.7709 65.4534L82.3744 64.664C81.9101 63.7393 80.4601 61.3683 79.7606 60.2353L76.5289 64.8057L72.7117 59.5644L68.095 63.9784L67.7645 63.7203C67.1394 63.232 65.7944 60.4931 65.1138 59.0495C64.4062 59.772 63.0783 61.4008 61.941 62.899L61.5785 63.3767L61.1871 62.9219C60.5319 62.16 60.2153 60.339 60.0717 59.1113C58.6544 61.1032 57.5298 64.3329 57.5169 64.3707L56.6 64.0544C56.6649 63.8661 58.2128 59.4233 60.1096 57.5584L60.872 56.8087L60.9336 57.8761C60.9969 58.9672 61.2286 60.7357 61.6162 61.7288C62.5361 60.5404 64.3823 58.2187 65.0457 57.8452L65.5039 57.5871L65.7241 58.0645C66.5388 59.8312 67.5641 61.8366 68.0997 62.6319L72.8428 58.097L76.5171 63.1424L79.8123 58.4821L80.1984 59.1012C80.2802 59.2324 81.9014 61.8331 82.8057 63.4272C83.271 62.4988 83.954 60.916 83.8954 59.7269L83.8327 58.4547L84.7256 59.3628C84.8044 59.4431 86.6633 61.3927 86.9956 66.8833L86.0277 66.9418Z" fill="#00DDDE"/>
</g>
<mask id="mask15_2011_76782" style="mask-type:luminance" maskUnits="userSpaceOnUse" x="60" y="34" width="29" height="41">
<path d="M88.3378 59.2569C89.0665 68.0584 82.8264 73.6876 75.6162 74.2845C68.4057 74.8815 61.7219 69.8678 60.9932 61.0662C59.9492 48.457 65.0798 34.7103 72.2902 34.1133C79.5005 33.5166 87.3123 46.8709 88.3378 59.2569Z" fill="white"/>
</mask>
<g mask="url(#mask15_2011_76782)">
<path opacity="0.37" d="M77.3822 54.0369C79.7512 53.8407 81.4007 50.4089 81.0665 46.3716C80.7322 42.3343 78.5408 39.2205 76.1718 39.4166C73.8028 39.6128 72.1533 43.0446 72.4876 47.0819C72.8218 51.1191 75.0132 54.233 77.3822 54.0369Z" fill="white"/>
</g>
<mask id="mask16_2011_76782" style="mask-type:luminance" maskUnits="userSpaceOnUse" x="58" y="33" width="29" height="41">
<path d="M86.236 60.9047C85.5829 69.7118 78.5413 74.2984 71.3265 73.7633C64.1115 73.2283 58.2919 67.2335 58.9451 58.4264C59.8808 45.8092 67.0926 33.0317 74.3076 33.5668C81.5224 34.1021 87.1552 48.5109 86.236 60.9047Z" fill="white"/>
</mask>
<g mask="url(#mask16_2011_76782)">
<path opacity="0.03" d="M94.6216 60.255C95.3293 67.2609 87.6947 72.4906 79.9144 72.1772C79.1879 72.4916 78.4267 72.6891 77.6358 72.7545C71.1116 73.2945 65.0769 64.7188 64.157 53.6003C63.4215 44.7116 66.1775 36.8894 70.646 33.8333C72.9021 29.253 74.9585 26.1981 74.9585 26.1981L66.013 30.4655L59.8165 40.1417L57.4135 57.7695L56.5548 69.3481L64.0817 74.9741L81.0588 76.9179L90.0342 75.94L97.6934 68.7009L94.6216 60.255Z" fill="#242E36"/>
</g>
<mask id="mask17_2011_76782" style="mask-type:luminance" maskUnits="userSpaceOnUse" x="58" y="33" width="29" height="41">
<path d="M86.236 60.9047C85.5829 69.7118 78.5413 74.2984 71.3265 73.7633C64.1115 73.2283 58.2919 67.2335 58.9451 58.4264C59.8808 45.8092 67.0926 33.0317 74.3076 33.5668C81.5224 34.1021 87.1552 48.5109 86.236 60.9047Z" fill="white"/>
</mask>
<g mask="url(#mask17_2011_76782)">
<path opacity="0.27" d="M87.5586 51.3854C86.6386 40.2669 80.6039 31.6912 74.0798 32.2312C72.7714 32.3393 71.5429 32.8069 70.4219 33.5737C65.9536 36.6299 63.1974 44.452 63.9328 53.3407C64.8531 64.4592 70.8878 73.0349 77.4117 72.4949C78.2023 72.4295 78.9638 72.232 79.6903 71.9176C84.9565 69.6382 88.3671 61.1563 87.5586 51.3854Z" fill="white"/>
</g>
<path d="M14.6998 62.1043C12.9598 71.5369 13.784 81.1526 16.7145 90.3104C24.865 116.044 53.5289 119.157 64.3351 118.883C82.9255 118.425 98.1275 109.45 104.63 98.3692C113.329 83.3504 112.322 62.5622 110.124 62.0127C109.025 61.738 107.926 62.1043 106.919 62.379C100.051 64.3022 84.0244 69.2474 63.053 68.6979C32.0081 67.9653 17.6303 61.4633 16.3482 61.6464C15.0661 61.9212 14.0588 63.2948 14.6998 62.1043Z" fill="#CE965D"/>
<path d="M102.981 85.6399C100.692 87.1967 98.4023 88.8451 96.1128 90.4935C95.3802 90.3104 94.6476 90.1272 94.0065 89.9441C92.3581 89.4862 90.6181 89.0283 88.9697 88.4788C86.4056 87.6546 83.9329 86.7388 81.4603 85.7315C81.8266 85.4567 82.193 85.182 82.5593 84.9988C84.2993 83.8083 86.0392 82.6178 87.7792 81.4273C89.5192 80.2368 91.4424 79.0463 93.0908 77.581C93.5487 77.1231 92.9992 76.2989 92.4497 76.5736C88.9697 77.7642 85.7645 80.2368 82.834 82.3431C81.6435 83.1673 80.5446 83.9915 79.4456 84.8157C79.354 84.8157 79.2625 84.7241 79.1709 84.7241C73.1267 81.9767 67.2657 78.4052 60.6721 76.94C59.6647 76.6652 59.2984 78.3136 60.3058 78.4968C66.4415 80.0536 71.6615 83.6252 77.3393 86.3725C76.1488 87.2883 74.8667 88.2041 73.6762 89.0283C71.0204 90.9514 68.2731 92.8745 65.5257 94.7977C65.3426 94.7061 65.0679 94.6145 64.8847 94.4314C60.5805 92.1419 56.3679 89.6693 52.3385 87.0135C52.7964 86.7388 53.3459 86.3725 53.8037 86.0978C56.3679 84.4494 59.0237 82.801 61.4963 80.8778C61.9542 80.5115 61.6795 79.5041 61.0384 79.7789C58.2911 80.8778 55.91 82.5262 53.529 84.2662C52.7048 84.8157 51.789 85.4567 50.9648 86.0062C49.5912 84.9988 48.1259 83.9915 46.8438 82.9841C44.4628 81.1526 42.1733 79.321 39.8839 77.3063C40.067 77.1231 40.2502 76.8484 40.3418 76.5736C40.4334 76.2989 40.067 76.0242 39.8839 76.1158C39.6092 76.2073 39.3344 76.3905 39.0597 76.5736C38.5102 76.0242 37.8692 75.5663 37.3197 75.0168C36.7702 74.4673 35.946 75.3831 36.4955 75.9326C37.045 76.3905 37.5029 76.94 38.0523 77.3978C37.5944 77.7642 37.045 78.1305 36.5871 78.4052C35.305 79.2294 34.0229 80.0536 32.6492 80.7862C31.0008 81.702 29.3524 82.4346 27.6124 83.2588C26.2388 81.4273 24.8651 79.5957 23.4914 77.7642C23.0335 77.1231 21.9346 77.7642 22.3925 78.4052C23.6746 80.2368 24.9567 82.0683 26.2388 83.8083C25.6893 84.083 25.1398 84.2662 24.5903 84.541C23.8577 84.9073 24.224 86.0978 24.9567 85.823C25.5977 85.5483 26.3303 85.2736 26.9714 84.9988C29.5356 88.662 32.0997 92.2335 35.0302 95.6219C33.2903 96.4461 31.4587 97.0871 29.6271 97.7282C28.8945 98.0029 29.2608 99.1019 29.9934 98.9187C32.0082 98.2776 34.0229 97.545 35.946 96.7208C36.4039 97.1787 36.7702 97.6366 37.2281 98.1861C40.1586 101.3 43.547 103.864 47.1185 106.245C46.2943 106.611 45.5617 106.886 44.7375 107.161C44.0965 107.344 44.3712 108.443 45.1038 108.26C46.2028 107.893 47.3017 107.527 48.4007 107.069C50.7817 108.534 53.2543 109.908 55.8185 111.19C57.7416 112.198 59.6648 113.113 61.4963 114.029C63.4195 114.945 65.3426 115.952 67.3573 116.685C67.8152 116.868 68.2731 116.135 67.8152 115.769C64.9763 113.571 61.4963 111.923 58.1995 110.274C55.6353 108.901 53.0711 107.527 50.5985 105.97C55.3606 103.772 59.7563 100.75 64.1521 97.8198C64.5184 97.545 64.8847 97.2703 65.3426 96.9956C67.7236 98.2776 70.1962 99.4682 72.6688 100.567C74.8667 101.574 77.0646 102.49 79.2625 103.314C75.5993 105.879 71.8446 108.351 68.0899 110.732C67.3573 111.19 68.0899 112.381 68.8226 111.923C73.0352 109.359 77.2477 106.703 81.3687 103.955C82.3761 104.23 83.3835 104.505 84.2993 104.688C85.0319 104.871 85.5814 103.772 84.8487 103.314C84.2993 103.04 83.8414 102.857 83.2919 102.582C84.574 101.758 85.8561 100.842 87.0466 100.018C90.3434 97.7282 93.4571 95.4387 96.5707 92.9661C97.3949 93.0577 98.2191 93.1493 99.0433 93.0577C99.776 92.9661 100.142 92.0503 99.4096 91.5924C99.2265 91.5009 98.9517 91.3177 98.7686 91.2261C100.6 89.7609 102.34 88.2041 103.989 86.5557C104.263 86.0978 103.531 85.182 102.981 85.6399ZM36.6787 94.7977C34.8471 92.8745 33.1987 90.8598 31.5503 88.7535C30.4513 87.2883 29.3524 85.9146 28.2535 84.4494C29.9019 83.7167 31.5503 82.8925 33.1987 82.0683C34.5724 81.3357 35.946 80.5115 37.2281 79.6873C37.7776 79.321 38.3271 78.8631 38.785 78.4052C42.1733 81.5189 45.6533 84.4494 49.3164 87.1051C48.1259 87.9293 46.9354 88.7535 45.6533 89.5777C42.8144 91.4093 39.7923 93.2409 36.6787 94.7977ZM55.6353 101.574C53.529 102.857 51.4227 104.047 49.2248 105.146C48.9501 104.963 48.6754 104.78 48.4007 104.597C45.287 102.582 42.2649 100.292 39.5176 97.6366C38.8765 96.9956 38.2355 96.3545 37.5944 95.7135C40.5249 94.2482 43.2723 92.6914 46.0196 90.9514C47.5764 89.9441 49.1333 89.0283 50.6901 88.0209C54.8111 90.9514 59.1153 93.6987 63.6026 96.0798C61.0384 98.0029 58.3827 99.8345 55.6353 101.574ZM85.6729 98.4608C84.2077 99.5597 82.6509 100.659 81.094 101.758C78.8962 100.842 76.7898 100.018 74.592 99.1019C72.0278 98.0029 69.4636 96.8124 66.991 95.5303C71.0204 92.783 75.1414 89.9441 79.1709 87.1967C82.193 88.5704 85.215 89.7609 88.3287 90.7683C89.9771 91.3177 91.6255 91.7756 93.3655 92.2335C93.4571 92.2335 93.4571 92.2335 93.5487 92.3251C90.8929 94.3398 88.3287 96.4461 85.6729 98.4608Z" fill="#916332"/>
<path d="M112.139 79.5042C112.139 81.7021 110.216 83.442 108.018 83.1673C94.2812 81.6105 78.9876 80.5115 62.1373 80.6031C45.2869 80.6031 29.8102 81.702 16.0735 83.3504C14.4251 83.5336 12.9598 82.2515 12.9598 80.6031V73.0937H112.047V79.5042H112.139Z" fill="#DFA950"/>
<path d="M12.5021 61.3717L111.406 61.0054C115.07 61.0054 118 64.0274 118 67.7821C118 71.5368 115.07 74.5589 111.498 74.5589L12.5936 74.9253C8.9305 74.9253 6 71.9032 6 68.1485C6 64.4853 8.83893 61.4633 12.5021 61.3717Z" fill="#B77437"/>
<path d="M62.1375 76.9646C62.1375 76.9646 69.189 67.1658 76.2405 67.6237C83.292 68.0816 84.3909 78.0636 81.3689 82.6425C79.0794 86.1225 71.9363 85.9393 63.1448 80.0783C63.1448 80.0783 59.5733 79.6204 62.1375 76.9646Z" fill="#FFCC79"/>
<g opacity="0.18">
<path d="M72.9436 70.7374C74.6836 70.3711 76.5151 70.829 77.8888 71.9279C79.2625 72.9353 80.0867 74.4921 80.3614 76.1405C80.453 76.5068 80.9109 76.7815 81.2772 76.69C81.7351 76.5984 81.8266 76.1405 81.8266 75.7742C81.4603 73.7595 80.3614 71.9279 78.6214 70.6458C76.8814 69.3637 74.592 68.9058 72.4857 69.3637C72.1194 69.4553 71.8446 69.9132 71.9362 70.2795C72.1194 70.5542 72.5773 70.7374 72.9436 70.7374Z" fill="white"/>
</g>
<path d="M61.7711 77.4226C61.7711 77.4226 54.7196 67.6237 47.6681 68.0816C40.6166 68.5395 39.5177 78.5215 42.5397 83.1004C44.8292 86.5804 51.9723 86.3973 60.7638 80.5363C60.7638 80.5363 64.3353 80.0783 61.7711 77.4226Z" fill="#FFCC79"/>
<g opacity="0.18">
<path d="M51.4228 69.7301C49.3165 69.3638 47.0271 69.7301 45.2871 71.0122C43.6387 72.2027 42.4482 74.0343 42.0819 76.1406C41.9903 76.5069 42.1734 76.9648 42.6313 77.0563C42.9976 77.1479 43.4555 76.9648 43.5471 76.5069C43.8218 74.8585 44.646 73.3017 46.0197 72.2943C47.3934 71.2869 49.3165 70.829 50.9649 71.1038C51.3313 71.1953 51.7891 71.0122 51.8807 70.5543C51.9723 70.2796 51.7891 69.8217 51.4228 69.7301Z" fill="white"/>
</g>
<path d="M63.1448 77.6973L71.4784 73.851" stroke="#CE6B19" stroke-miterlimit="10" stroke-linecap="round"/>
<path d="M63.2365 79.071L71.5701 78.7047" stroke="#CE6B19" stroke-miterlimit="10" stroke-linecap="round"/>
<path d="M61.313 77.7889C61.313 77.7889 52.9794 75.6826 52.5215 75.4079" stroke="#CE6B19" stroke-miterlimit="10" stroke-linecap="round"/>
<path d="M61.0384 79.3457C61.0384 79.3457 54.2616 79.6205 52.9795 79.712" stroke="#CE6B19" stroke-miterlimit="10" stroke-linecap="round"/>
<path d="M65.0679 78.5215C65.1595 80.1699 63.8774 81.5436 62.229 81.5436C60.5805 81.6352 59.2069 80.3531 59.2069 78.7047C59.1153 77.0563 60.3974 75.6826 62.0458 75.6826C63.6942 75.591 65.0679 76.8731 65.0679 78.5215Z" fill="#E9A427"/>
</g>
<defs>
<clipPath id="clip0_2011_76782">
<rect width="120" height="120" fill="white"/>
</clipPath>
</defs>
</svg>
