<svg width="219" height="204" viewBox="0 0 219 204" fill="none" xmlns="http://www.w3.org/2000/svg">
<path d="M154.172 104.049C152.523 98.1878 150.692 92.2352 148.219 86.7405C145.747 81.3374 142.541 76.3922 138.146 72.4543C134.116 68.8828 129.079 66.5017 123.951 65.2196C113.786 62.6555 102.522 64.2123 93.2724 69.1575C84.2061 73.9196 77.3378 81.8869 73.5831 91.5026C69.0042 103.316 66.1653 116.045 67.081 128.775C67.1726 130.332 67.3558 131.98 67.6305 133.537C67.9968 136.01 71.7515 135.552 71.4768 132.987C70.1947 121.174 72.301 109.086 76.0557 97.913C77.7041 93.0594 79.6272 88.3889 82.6493 84.2679C85.3051 80.5132 88.5103 77.5827 92.3566 75.0185C100.141 69.8901 110.123 67.6923 119.372 69.0659C124.134 69.7986 128.805 71.3554 132.743 74.1027C137.047 77.0332 140.252 81.3374 142.633 85.9163C145.197 90.8615 146.937 96.173 148.586 101.485C149.501 104.507 150.417 107.529 151.058 110.642C151.791 113.848 152.066 117.053 152.249 120.35C152.34 121.906 152.432 123.555 152.707 125.112C152.89 126.211 153.897 127.126 155.088 126.943C156.37 126.76 156.919 125.753 156.919 124.562C156.919 121.174 156.828 117.785 156.37 114.489C156.003 110.734 155.179 107.437 154.172 104.049Z" fill="#B77437"/>
<mask id="mask0_2011_77086" style="mask-type:luminance" maskUnits="userSpaceOnUse" x="93" y="103" width="27" height="35">
<path d="M118.825 121.183C121.714 128.344 117.962 134.661 112.096 137.028C106.23 139.395 99.3496 136.94 96.4604 129.779C92.3213 119.521 93.0434 106.712 98.9097 104.346C104.776 101.979 114.759 111.106 118.825 121.183Z" fill="white"/>
</mask>
<g mask="url(#mask0_2011_77086)">
<path d="M111.272 94.8122L82.3702 106.473L98.6718 146.876L127.573 135.215L111.272 94.8122Z" fill="#FFB41B"/>
</g>
<mask id="mask1_2011_77086" style="mask-type:luminance" maskUnits="userSpaceOnUse" x="93" y="103" width="27" height="35">
<path d="M118.825 121.183C121.714 128.344 117.962 134.661 112.096 137.028C106.23 139.395 99.3496 136.94 96.4604 129.779C92.3213 119.521 93.0434 106.712 98.9097 104.346C104.776 101.979 114.759 111.106 118.825 121.183Z" fill="white"/>
</mask>
<g mask="url(#mask1_2011_77086)">
<path d="M114.426 113.119C113.317 111.172 112.277 110.105 111.568 109.54C111.862 110.894 111.745 112.406 111.738 112.489L111.676 113.259L111.06 112.793C110.423 112.311 108.633 111.176 107.725 110.606L107.032 114.959L102.497 112.577L100.773 117.295L100.414 117.221C99.8035 117.093 97.9408 115.663 96.9417 114.869C96.6954 115.641 96.3349 117.213 96.0587 118.635L95.9589 119.15L95.4764 118.944C94.7655 118.641 93.9368 117.529 93.4012 116.712C93.1227 118.598 93.4388 121.173 93.4428 121.203L92.6013 121.309C92.5816 121.153 92.1281 117.462 92.8235 115.473L93.1319 114.591L93.5928 115.404C94.0043 116.131 94.7495 117.253 95.3545 117.831C95.609 116.586 96.0832 114.439 96.4197 113.947L96.6794 113.568L97.0365 113.857C98.2011 114.801 99.5913 115.84 100.259 116.232L102.034 111.375L106.38 113.659L107.089 109.21L107.631 109.547C107.732 109.61 109.714 110.841 110.918 111.656C110.919 110.836 110.842 109.545 110.405 108.758L109.864 107.784L110.916 108.152C111 108.181 113.008 108.918 115.163 112.699L114.426 113.119Z" fill="#FF5D7C"/>
</g>
<mask id="mask2_2011_77086" style="mask-type:luminance" maskUnits="userSpaceOnUse" x="93" y="103" width="27" height="35">
<path d="M118.825 121.183C121.714 128.344 117.962 134.661 112.096 137.028C106.23 139.395 99.3496 136.94 96.4604 129.779C92.3213 119.521 93.0434 106.712 98.9097 104.346C104.776 101.979 114.759 111.106 118.825 121.183Z" fill="white"/>
</mask>
<g mask="url(#mask2_2011_77086)">
<path d="M116.846 118.119C115.772 116.236 114.754 115.161 114.088 114.591C113.873 114.406 113.679 114.261 113.514 114.149C113.949 115.585 113.805 117.454 113.797 117.546L113.758 118.027L113.373 117.736C112.665 117.2 110.575 115.882 109.751 115.367L109.042 119.82L104.461 117.413L102.689 122.262L102.464 122.215C101.833 122.084 99.6703 120.391 98.8138 119.706C98.5251 120.485 98.0782 122.513 97.8308 123.787L97.7682 124.109L97.4666 123.981C96.6693 123.641 95.6995 122.219 95.1982 121.412C94.7856 123.379 95.1601 126.422 95.1642 126.456L94.6384 126.522C94.6186 126.365 94.1613 122.643 94.8564 120.654L95.0493 120.103L95.3374 120.611C95.6817 121.22 96.6395 122.738 97.3841 123.314C97.5908 122.289 98.1465 119.655 98.4996 119.139L98.6619 118.902L98.8851 119.083C99.9361 119.935 101.668 121.259 102.362 121.612L104.171 116.661L108.635 119.007L109.353 114.494L109.692 114.705C109.803 114.774 112.122 116.214 113.291 117.024C113.31 116.227 113.275 114.621 112.751 113.678L112.414 113.07L113.071 113.3C113.154 113.329 115.143 114.059 117.307 117.856L116.846 118.119Z" fill="white"/>
</g>
<mask id="mask3_2011_77086" style="mask-type:luminance" maskUnits="userSpaceOnUse" x="93" y="103" width="27" height="35">
<path d="M118.825 121.183C121.714 128.344 117.962 134.661 112.096 137.028C106.23 139.395 99.3496 136.94 96.4604 129.779C92.3213 119.521 93.0434 106.712 98.9097 104.346C104.776 101.979 114.759 111.106 118.825 121.183Z" fill="white"/>
</mask>
<g mask="url(#mask3_2011_77086)">
<path d="M109.575 107.043C108.723 105.546 107.913 104.693 107.385 104.24C107.213 104.093 107.059 103.978 106.928 103.889C107.274 105.03 107.159 106.514 107.153 106.588L107.122 106.97L106.816 106.739C106.254 106.313 104.593 105.266 103.939 104.856L103.376 108.394L99.7362 106.482L98.3285 110.334L98.1502 110.297C97.6486 110.193 95.9306 108.848 95.25 108.304C95.0205 108.923 94.6657 110.534 94.4691 111.546L94.4194 111.802L94.1799 111.699C93.5466 111.429 92.7762 110.3 92.3779 109.659C92.0501 111.222 92.3476 113.639 92.3511 113.666L91.9332 113.718C91.9175 113.593 91.5542 110.637 92.1065 109.057L92.2597 108.619L92.4886 109.023C92.7623 109.506 93.5229 110.712 94.1145 111.17C94.2787 110.356 94.7202 108.263 95.0007 107.853L95.1296 107.665L95.3069 107.809C96.1419 108.486 97.5177 109.537 98.069 109.818L99.5061 105.885L103.052 107.748L103.623 104.164L103.892 104.331C103.98 104.386 105.823 105.53 106.751 106.173C106.767 105.54 106.739 104.264 106.323 103.515L106.054 103.032L106.576 103.215C106.643 103.238 108.222 103.818 109.941 106.834L109.575 107.043Z" fill="white"/>
</g>
<mask id="mask4_2011_77086" style="mask-type:luminance" maskUnits="userSpaceOnUse" x="93" y="103" width="27" height="35">
<path d="M118.825 121.183C121.714 128.344 117.962 134.661 112.096 137.028C106.23 139.395 99.3496 136.94 96.4604 129.779C92.3213 119.521 93.0434 106.712 98.9097 104.346C104.776 101.979 114.759 111.106 118.825 121.183Z" fill="white"/>
</mask>
<g mask="url(#mask4_2011_77086)">
<path d="M123.751 131.1C122.52 128.94 121.352 127.707 120.589 127.054C120.341 126.842 120.119 126.675 119.93 126.546C120.429 128.194 120.263 130.337 120.255 130.444L120.21 130.995L119.768 130.661C118.956 130.046 116.558 128.535 115.614 127.944L114.8 133.051L109.546 130.29L107.513 135.853L107.256 135.799C106.532 135.648 104.051 133.707 103.068 132.921C102.737 133.814 102.225 136.141 101.941 137.602L101.869 137.971L101.523 137.824C100.609 137.434 99.4966 135.803 98.9216 134.878C98.4487 137.133 98.8777 140.624 98.8826 140.663L98.2793 140.739C98.2567 140.558 97.732 136.29 98.5295 134.009L98.7508 133.376L99.0811 133.959C99.4762 134.657 100.575 136.398 101.429 137.06C101.666 135.884 102.303 132.863 102.708 132.271L102.894 131.999L103.15 132.206C104.356 133.184 106.342 134.702 107.138 135.107L109.213 129.429L114.333 132.119L115.157 126.944L115.546 127.185C115.673 127.264 118.333 128.916 119.673 129.845C119.696 128.931 119.656 127.089 119.055 126.007L118.667 125.309L119.421 125.573C119.517 125.606 121.797 126.444 124.279 130.799L123.751 131.1Z" fill="white"/>
</g>
<mask id="mask5_2011_77086" style="mask-type:luminance" maskUnits="userSpaceOnUse" x="93" y="103" width="27" height="35">
<path d="M118.825 121.183C121.714 128.344 117.962 134.661 112.096 137.028C106.23 139.395 99.3496 136.94 96.4604 129.779C92.3213 119.521 93.0434 106.712 98.9097 104.346C104.776 101.979 114.759 111.106 118.825 121.183Z" fill="white"/>
</mask>
<g mask="url(#mask5_2011_77086)">
<path d="M120.994 125.999C119.841 123.977 118.75 122.821 118.037 122.208C117.923 122.109 117.814 122.021 117.712 121.942C118.07 123.465 117.934 125.225 117.927 125.319L117.864 126.089L117.248 125.623C116.527 125.077 114.474 123.777 113.487 123.159L112.717 127.992L107.699 125.355L105.782 130.601L105.423 130.526C104.744 130.384 102.631 128.755 101.54 127.886C101.264 128.726 100.851 130.516 100.538 132.131L100.438 132.646L99.9554 132.44C99.1472 132.095 98.1955 130.789 97.6087 129.882C97.2663 131.991 97.6315 134.959 97.636 134.994L96.7946 135.1C96.7728 134.927 96.271 130.844 97.0387 128.649L97.3471 127.766L97.8078 128.58C98.2788 129.411 99.1436 130.709 99.8312 131.338C100.094 130.051 100.645 127.517 101.021 126.967L101.281 126.588L101.638 126.877C102.96 127.948 104.538 129.126 105.266 129.543L107.235 124.153L112.066 126.692L112.851 121.764L113.393 122.1C113.507 122.171 115.784 123.585 117.109 124.486C117.115 123.579 117.04 122.073 116.534 121.163L115.994 120.189L117.045 120.557C117.138 120.589 119.349 121.401 121.73 125.579L120.994 125.999Z" fill="#00DDDE"/>
</g>
<mask id="mask6_2011_77086" style="mask-type:luminance" maskUnits="userSpaceOnUse" x="94" y="104" width="28" height="34">
<path d="M119.838 119.079C123.809 125.701 121.088 132.527 115.662 135.78C110.237 139.033 103.058 137.682 99.0866 131.059C93.3977 121.571 92.1128 108.807 97.5383 105.553C102.964 102.301 114.249 109.759 119.838 119.079Z" fill="white"/>
</mask>
<g mask="url(#mask6_2011_77086)">
<path opacity="0.37" d="M109.228 119.215C111.01 118.146 110.979 114.817 109.157 111.779C107.336 108.742 104.414 107.145 102.631 108.214C100.849 109.283 100.88 112.612 102.702 115.65C104.523 118.688 107.445 120.284 109.228 119.215Z" fill="white"/>
</g>
<mask id="mask7_2011_77086" style="mask-type:luminance" maskUnits="userSpaceOnUse" x="93" y="103" width="27" height="35">
<path d="M118.825 121.183C121.714 128.344 117.962 134.661 112.096 137.028C106.23 139.395 99.3496 136.94 96.4604 129.779C92.3213 119.521 93.0434 106.712 98.9097 104.346C104.776 101.979 114.759 111.106 118.825 121.183Z" fill="white"/>
</mask>
<g mask="url(#mask7_2011_77086)">
<path opacity="0.03" d="M125.152 117.435C128.413 122.657 124.444 129.708 118.22 132.467C117.772 132.994 117.251 133.443 116.656 133.8C111.747 136.743 103.701 132.347 98.6848 123.981C94.6748 117.292 93.8155 110.092 96.1404 105.969C96.1411 101.505 96.5742 98.314 96.5742 98.314L91.2054 105.116L90.082 115.1L95.0053 129.856L98.8037 139.27L106.881 140.776L120.949 135.744L127.612 131.51L130.824 122.873L125.152 117.435Z" fill="#242E36"/>
</g>
<mask id="mask8_2011_77086" style="mask-type:luminance" maskUnits="userSpaceOnUse" x="93" y="103" width="27" height="35">
<path d="M118.825 121.183C121.714 128.344 117.962 134.661 112.096 137.028C106.23 139.395 99.3496 136.94 96.4604 129.779C92.3213 119.521 93.0434 106.712 98.9097 104.346C104.776 101.979 114.759 111.106 118.825 121.183Z" fill="white"/>
</mask>
<g mask="url(#mask8_2011_77086)">
<path opacity="0.27" d="M116.186 113.205C111.17 104.839 103.124 100.442 98.2151 103.386C97.2306 103.976 96.4475 104.817 95.8643 105.852C93.5396 109.975 94.3987 117.175 98.4087 123.864C103.425 132.23 111.471 136.626 116.38 133.683C116.975 133.326 117.496 132.877 117.944 132.35C121.195 128.528 120.594 120.557 116.186 113.205Z" fill="white"/>
</g>
<mask id="mask9_2011_77086" style="mask-type:luminance" maskUnits="userSpaceOnUse" x="107" y="97" width="29" height="41">
<path d="M135.236 124.905C134.583 133.712 127.541 138.298 120.327 137.763C113.112 137.228 107.292 131.234 107.945 122.426C108.881 109.809 116.093 97.0317 123.308 97.5667C130.522 98.1021 136.155 112.511 135.236 124.905Z" fill="white"/>
</mask>
<g mask="url(#mask9_2011_77086)">
<path d="M140.808 94.0303L105.262 91.394L101.577 141.086L137.123 143.722L140.808 94.0303Z" fill="#FFB41B"/>
</g>
<mask id="mask10_2011_77086" style="mask-type:luminance" maskUnits="userSpaceOnUse" x="107" y="97" width="29" height="41">
<path d="M135.236 124.905C134.583 133.712 127.541 138.298 120.327 137.763C113.112 137.228 107.292 131.234 107.945 122.426C108.881 109.809 116.093 97.0317 123.308 97.5667C130.522 98.1021 136.155 112.511 135.236 124.905Z" fill="white"/>
</mask>
<g mask="url(#mask10_2011_77086)">
<path d="M134.796 114.408C134.642 111.85 134.114 110.23 133.672 109.291C133.29 110.83 132.406 112.322 132.357 112.404L131.904 113.162L131.507 112.373C131.097 111.557 129.834 109.488 129.19 108.444L126.279 112.561L122.83 107.825L118.677 111.796L118.347 111.538C117.784 111.099 116.596 108.69 115.972 107.37C115.329 108.038 114.165 109.469 113.163 110.788L112.801 111.266L112.41 110.811C111.833 110.141 111.545 108.582 111.408 107.473C110.169 109.268 109.193 112.069 109.182 112.102L108.265 111.785C108.323 111.615 109.723 107.599 111.441 105.91L112.203 105.16L112.265 106.227C112.32 107.181 112.518 108.709 112.847 109.608C113.737 108.459 115.308 106.495 115.902 106.161L116.36 105.902L116.58 106.38C117.298 107.937 118.2 109.705 118.687 110.445L122.962 106.357L126.268 110.897L129.242 106.69L129.628 107.309C129.701 107.426 131.112 109.69 131.936 111.134C132.351 110.293 132.924 108.93 132.874 107.902L132.811 106.629L133.704 107.538C133.775 107.611 135.464 109.381 135.764 114.349L134.796 114.408Z" fill="#FF5D7C"/>
</g>
<mask id="mask11_2011_77086" style="mask-type:luminance" maskUnits="userSpaceOnUse" x="107" y="97" width="29" height="41">
<path d="M135.236 124.905C134.583 133.712 127.541 138.298 120.327 137.763C113.112 137.228 107.292 131.234 107.945 122.426C108.881 109.809 116.093 97.0317 123.308 97.5667C130.522 98.1021 136.155 112.511 135.236 124.905Z" fill="white"/>
</mask>
<g mask="url(#mask11_2011_77086)">
<path d="M134.753 120.761C134.603 118.286 134.101 116.669 133.706 115.748C133.578 115.449 133.453 115.203 133.34 115.004C133.061 116.697 131.969 118.542 131.914 118.633L131.631 119.107L131.383 118.614C130.928 117.706 129.448 115.298 128.864 114.353L125.886 118.563L122.402 113.779L118.134 117.86L117.927 117.698C117.346 117.244 115.982 114.415 115.449 113.279C114.759 113.933 113.276 115.788 112.378 116.97L112.152 117.269L111.907 116.985C111.261 116.233 110.984 114.284 110.877 113.203C109.46 115.013 108.307 118.325 108.294 118.361L107.721 118.164C107.78 117.992 109.191 113.943 110.909 112.253L111.386 111.785L111.425 112.452C111.471 113.25 111.686 115.292 112.159 116.259C112.889 115.312 114.79 112.89 115.413 112.539L115.699 112.378L115.837 112.676C116.485 114.081 117.593 116.314 118.127 117.027L122.484 112.861L125.879 117.524L128.896 113.257L129.138 113.643C129.217 113.77 130.868 116.42 131.658 117.841C132.081 117.033 132.856 115.368 132.795 114.136L132.756 113.341L133.314 113.909C133.385 113.981 135.057 115.734 135.359 120.724L134.753 120.761Z" fill="white"/>
</g>
<mask id="mask12_2011_77086" style="mask-type:luminance" maskUnits="userSpaceOnUse" x="107" y="97" width="29" height="41">
<path d="M135.236 124.905C134.583 133.712 127.541 138.298 120.327 137.763C113.112 137.228 107.292 131.234 107.945 122.426C108.881 109.809 116.093 97.0317 123.308 97.5667C130.522 98.1021 136.155 112.511 135.236 124.905Z" fill="white"/>
</mask>
<g mask="url(#mask12_2011_77086)">
<path d="M132.889 105.723C132.77 103.756 132.371 102.472 132.057 101.74C131.955 101.503 131.856 101.307 131.766 101.149C131.545 102.495 130.677 103.96 130.633 104.032L130.408 104.409L130.211 104.017C129.849 103.296 128.674 101.382 128.21 100.632L125.845 103.977L123.076 100.176L119.686 103.418L119.522 103.29C119.06 102.929 117.976 100.682 117.553 99.7792C117.005 100.298 115.827 101.772 115.114 102.712L114.933 102.949L114.739 102.723C114.226 102.126 114.006 100.578 113.921 99.7189C112.795 101.157 111.879 103.787 111.869 103.817L111.414 103.659C111.461 103.523 112.582 100.306 113.947 98.964L114.325 98.5917L114.356 99.122C114.393 99.7562 114.564 101.378 114.94 102.147C115.52 101.394 117.03 99.4699 117.525 99.1913L117.752 99.0632L117.861 99.3002C118.376 100.417 119.257 102.19 119.68 102.757L123.142 99.4477L125.839 103.151L128.236 99.7614L128.428 100.069C128.49 100.17 129.803 102.275 130.43 103.404C130.766 102.762 131.382 101.439 131.333 100.46L131.302 99.8286L131.746 100.28C131.802 100.337 133.13 101.73 133.37 105.694L132.889 105.723Z" fill="white"/>
</g>
<mask id="mask13_2011_77086" style="mask-type:luminance" maskUnits="userSpaceOnUse" x="107" y="97" width="29" height="41">
<path d="M135.236 124.905C134.583 133.712 127.541 138.298 120.327 137.763C113.112 137.228 107.292 131.234 107.945 122.426C108.881 109.809 116.093 97.0317 123.308 97.5667C130.522 98.1021 136.155 112.511 135.236 124.905Z" fill="white"/>
</mask>
<g mask="url(#mask13_2011_77086)">
<path d="M135.28 137.569C135.108 134.73 134.532 132.875 134.08 131.819C133.933 131.477 133.789 131.194 133.66 130.966C133.339 132.909 132.087 135.024 132.024 135.129L131.699 135.672L131.415 135.106C130.893 134.066 129.196 131.303 128.525 130.219L125.11 135.049L121.114 129.561L116.218 134.242L115.981 134.057C115.314 133.536 113.749 130.291 113.138 128.988C112.347 129.738 110.646 131.865 109.616 133.222L109.356 133.564L109.076 133.238C108.335 132.377 108.017 130.141 107.895 128.901C106.27 130.976 104.946 134.775 104.932 134.817L104.275 134.591C104.343 134.394 105.961 129.749 107.932 127.811L108.478 127.274L108.522 128.039C108.575 128.955 108.823 131.296 109.365 132.406C110.202 131.32 112.382 128.542 113.097 128.139L113.425 127.954L113.583 128.296C114.327 129.908 115.598 132.469 116.21 133.287L121.207 128.509L125.102 133.856L128.562 128.962L128.839 129.406C128.93 129.552 130.824 132.591 131.73 134.221C132.215 133.294 133.104 131.384 133.034 129.971L132.989 129.059L133.629 129.71C133.711 129.793 135.627 131.804 135.974 137.527L135.28 137.569Z" fill="white"/>
</g>
<mask id="mask14_2011_77086" style="mask-type:luminance" maskUnits="userSpaceOnUse" x="107" y="97" width="29" height="41">
<path d="M135.236 124.905C134.583 133.712 127.541 138.298 120.327 137.763C113.112 137.228 107.292 131.234 107.945 122.426C108.881 109.809 116.093 97.0317 123.308 97.5667C130.522 98.1021 136.155 112.511 135.236 124.905Z" fill="white"/>
</mask>
<g mask="url(#mask14_2011_77086)">
<path d="M135.028 130.942C134.867 128.284 134.331 126.547 133.91 125.558C133.842 125.399 133.775 125.253 133.71 125.121C133.308 126.865 132.28 128.602 132.224 128.695L131.771 129.453L131.374 128.664C130.91 127.739 129.46 125.368 128.761 124.235L125.529 128.806L121.712 123.564L117.095 127.978L116.764 127.72C116.139 127.232 114.794 124.493 114.114 123.05C113.406 123.772 112.078 125.401 110.941 126.899L110.578 127.377L110.187 126.922C109.532 126.16 109.215 124.339 109.072 123.111C107.654 125.103 106.53 128.333 106.517 128.371L105.6 128.054C105.665 127.866 107.213 123.423 109.11 121.558L109.872 120.809L109.934 121.876C109.997 122.967 110.229 124.736 110.616 125.729C111.536 124.54 113.382 122.219 114.046 121.845L114.504 121.587L114.724 122.064C115.539 123.831 116.564 125.837 117.1 126.632L121.843 122.097L125.517 127.142L128.812 122.482L129.198 123.101C129.28 123.232 130.901 125.833 131.806 127.427C132.271 126.499 132.954 124.916 132.895 123.727L132.833 122.455L133.726 123.363C133.804 123.443 135.663 125.393 135.996 130.883L135.028 130.942Z" fill="#00DDDE"/>
</g>
<mask id="mask15_2011_77086" style="mask-type:luminance" maskUnits="userSpaceOnUse" x="109" y="98" width="29" height="41">
<path d="M137.338 123.257C138.067 132.058 131.826 137.688 124.616 138.285C117.406 138.882 110.722 133.868 109.993 125.066C108.949 112.457 114.08 98.7103 121.29 98.1133C128.5 97.5166 136.312 110.871 137.338 123.257Z" fill="white"/>
</mask>
<g mask="url(#mask15_2011_77086)">
<path opacity="0.37" d="M126.382 118.037C128.751 117.841 130.401 114.409 130.066 110.372C129.732 106.334 127.541 103.22 125.172 103.417C122.803 103.613 121.153 107.045 121.488 111.082C121.822 115.119 124.013 118.233 126.382 118.037Z" fill="white"/>
</g>
<mask id="mask16_2011_77086" style="mask-type:luminance" maskUnits="userSpaceOnUse" x="107" y="97" width="29" height="41">
<path d="M135.236 124.905C134.583 133.712 127.541 138.298 120.327 137.763C113.112 137.228 107.292 131.234 107.945 122.426C108.881 109.809 116.093 97.0317 123.308 97.5667C130.522 98.1021 136.155 112.511 135.236 124.905Z" fill="white"/>
</mask>
<g mask="url(#mask16_2011_77086)">
<path opacity="0.03" d="M143.622 124.255C144.329 131.261 136.695 136.491 128.914 136.177C128.188 136.492 127.427 136.689 126.636 136.754C120.112 137.294 114.077 128.719 113.157 117.6C112.422 108.712 115.177 100.889 119.646 97.8333C121.902 93.253 123.958 90.1981 123.958 90.1981L115.013 94.4655L108.817 104.142L106.414 121.769L105.555 133.348L113.082 138.974L130.059 140.918L139.034 139.94L146.693 132.701L143.622 124.255Z" fill="#242E36"/>
</g>
<mask id="mask17_2011_77086" style="mask-type:luminance" maskUnits="userSpaceOnUse" x="107" y="97" width="29" height="41">
<path d="M135.236 124.905C134.583 133.712 127.541 138.298 120.327 137.763C113.112 137.228 107.292 131.234 107.945 122.426C108.881 109.809 116.093 97.0317 123.308 97.5667C130.522 98.1021 136.155 112.511 135.236 124.905Z" fill="white"/>
</mask>
<g mask="url(#mask17_2011_77086)">
<path opacity="0.27" d="M136.559 115.385C135.639 104.267 129.604 95.6912 123.08 96.2312C121.771 96.3393 120.543 96.8069 119.422 97.5737C114.954 100.63 112.197 108.452 112.933 117.341C113.853 128.459 119.888 137.035 126.412 136.495C127.202 136.43 127.964 136.232 128.69 135.918C133.957 133.638 137.367 125.156 136.559 115.385Z" fill="white"/>
</g>
<path d="M63.6998 126.104C61.9598 135.537 62.784 145.153 65.7145 154.31C73.865 180.044 102.529 183.157 113.335 182.883C131.925 182.425 147.127 173.45 153.63 162.369C162.329 147.35 161.322 126.562 159.124 126.013C158.025 125.738 156.926 126.104 155.919 126.379C149.051 128.302 133.024 133.247 112.053 132.698C81.0081 131.965 66.6303 125.463 65.3482 125.646C64.0661 125.921 63.0588 127.295 63.6998 126.104Z" fill="#CE965D"/>
<path d="M151.981 149.64C149.692 151.197 147.402 152.845 145.113 154.494C144.38 154.31 143.648 154.127 143.007 153.944C141.358 153.486 139.618 153.028 137.97 152.479C135.406 151.655 132.933 150.739 130.46 149.731C130.827 149.457 131.193 149.182 131.559 148.999C133.299 147.808 135.039 146.618 136.779 145.427C138.519 144.237 140.442 143.046 142.091 141.581C142.549 141.123 141.999 140.299 141.45 140.574C137.97 141.764 134.764 144.237 131.834 146.343C130.643 147.167 129.545 147.991 128.446 148.816C128.354 148.816 128.262 148.724 128.171 148.724C122.127 145.977 116.266 142.405 109.672 140.94C108.665 140.665 108.298 142.314 109.306 142.497C115.442 144.054 120.661 147.625 126.339 150.373C125.149 151.288 123.867 152.204 122.676 153.028C120.02 154.951 117.273 156.875 114.526 158.798C114.343 158.706 114.068 158.615 113.885 158.431C109.581 156.142 105.368 153.669 101.339 151.014C101.796 150.739 102.346 150.373 102.804 150.098C105.368 148.449 108.024 146.801 110.496 144.878C110.954 144.512 110.679 143.504 110.038 143.779C107.291 144.878 104.91 146.526 102.529 148.266C101.705 148.816 100.789 149.457 99.9648 150.006C98.5912 148.999 97.1259 147.991 95.8438 146.984C93.4628 145.153 91.1733 143.321 88.8839 141.306C89.067 141.123 89.2502 140.848 89.3418 140.574C89.4334 140.299 89.067 140.024 88.8839 140.116C88.6092 140.207 88.3344 140.391 88.0597 140.574C87.5102 140.024 86.8692 139.566 86.3197 139.017C85.7702 138.467 84.946 139.383 85.4955 139.933C86.045 140.39 86.5029 140.94 87.0523 141.398C86.5944 141.764 86.045 142.13 85.5871 142.405C84.305 143.229 83.0229 144.054 81.6492 144.786C80.0008 145.702 78.3524 146.435 76.6124 147.259C75.2388 145.427 73.8651 143.596 72.4914 141.764C72.0335 141.123 70.9346 141.764 71.3925 142.405C72.6746 144.237 73.9567 146.068 75.2388 147.808C74.6893 148.083 74.1398 148.266 73.5903 148.541C72.8577 148.907 73.224 150.098 73.9567 149.823C74.5977 149.548 75.3303 149.274 75.9714 148.999C78.5356 152.662 81.0997 156.234 84.0302 159.622C82.2903 160.446 80.4587 161.087 78.6271 161.728C77.8945 162.003 78.2608 163.102 78.9934 162.919C81.0082 162.278 83.0229 161.545 84.946 160.721C85.4039 161.179 85.7702 161.637 86.2281 162.186C89.1586 165.3 92.547 167.864 96.1185 170.245C95.2943 170.611 94.5617 170.886 93.7375 171.161C93.0965 171.344 93.3712 172.443 94.1038 172.26C95.2028 171.893 96.3017 171.527 97.4007 171.069C99.7817 172.534 102.254 173.908 104.818 175.19C106.742 176.198 108.665 177.113 110.496 178.029C112.419 178.945 114.343 179.952 116.357 180.685C116.815 180.868 117.273 180.135 116.815 179.769C113.976 177.571 110.496 175.923 107.2 174.274C104.635 172.901 102.071 171.527 99.5985 169.97C104.361 167.772 108.756 164.75 113.152 161.82C113.518 161.545 113.885 161.27 114.343 160.996C116.724 162.278 119.196 163.468 121.669 164.567C123.867 165.574 126.065 166.49 128.262 167.314C124.599 169.879 120.845 172.351 117.09 174.732C116.357 175.19 117.09 176.381 117.823 175.923C122.035 173.359 126.248 170.703 130.369 167.956C131.376 168.23 132.383 168.505 133.299 168.688C134.032 168.871 134.581 167.772 133.849 167.314C133.299 167.04 132.841 166.857 132.292 166.582C133.574 165.758 134.856 164.842 136.047 164.018C139.343 161.728 142.457 159.439 145.571 156.966C146.395 157.058 147.219 157.149 148.043 157.058C148.776 156.966 149.142 156.05 148.41 155.592C148.226 155.501 147.952 155.318 147.769 155.226C149.6 153.761 151.34 152.204 152.989 150.556C153.263 150.098 152.531 149.182 151.981 149.64ZM85.6787 158.798C83.8471 156.875 82.1987 154.86 80.5503 152.754C79.4513 151.288 78.3524 149.915 77.2535 148.449C78.9019 147.717 80.5503 146.893 82.1987 146.068C83.5724 145.336 84.946 144.512 86.2281 143.687C86.7776 143.321 87.3271 142.863 87.785 142.405C91.1733 145.519 94.6533 148.449 98.3164 151.105C97.1259 151.929 95.9354 152.754 94.6533 153.578C91.8144 155.409 88.7923 157.241 85.6787 158.798ZM104.635 165.574C102.529 166.857 100.423 168.047 98.2248 169.146C97.9501 168.963 97.6754 168.78 97.4007 168.597C94.287 166.582 91.2649 164.292 88.5176 161.637C87.8765 160.996 87.2355 160.355 86.5944 159.713C89.5249 158.248 92.2723 156.691 95.0196 154.951C96.5764 153.944 98.1333 153.028 99.6901 152.021C103.811 154.951 108.115 157.699 112.603 160.08C110.038 162.003 107.383 163.834 104.635 165.574ZM134.673 162.461C133.208 163.56 131.651 164.659 130.094 165.758C127.896 164.842 125.79 164.018 123.592 163.102C121.028 162.003 118.464 160.812 115.991 159.53C120.02 156.783 124.141 153.944 128.171 151.197C131.193 152.57 134.215 153.761 137.329 154.768C138.977 155.318 140.625 155.776 142.365 156.234C142.457 156.234 142.457 156.234 142.549 156.325C139.893 158.34 137.329 160.446 134.673 162.461Z" fill="#916332"/>
<path d="M161.139 143.504C161.139 145.702 159.216 147.442 157.018 147.167C143.281 145.61 127.988 144.512 111.137 144.603C94.2869 144.603 78.8102 145.702 65.0735 147.35C63.4251 147.534 61.9598 146.252 61.9598 144.603V137.094H161.047V143.504H161.139Z" fill="#DFA950"/>
<path d="M61.5021 125.372L160.406 125.005C164.07 125.005 167 128.027 167 131.782C167 135.537 164.07 138.559 160.498 138.559L61.5936 138.925C57.9305 138.925 55 135.903 55 132.148C55 128.485 57.8389 125.463 61.5021 125.372Z" fill="#B77437"/>
<path d="M111.137 140.965C111.137 140.965 118.189 131.166 125.241 131.624C132.292 132.082 133.391 142.064 130.369 146.642C128.079 150.122 120.936 149.939 112.145 144.078C112.145 144.078 108.573 143.62 111.137 140.965Z" fill="#FFCC79"/>
<g opacity="0.18">
<path d="M121.944 134.737C123.684 134.371 125.515 134.829 126.889 135.928C128.262 136.935 129.087 138.492 129.361 140.14C129.453 140.507 129.911 140.782 130.277 140.69C130.735 140.598 130.827 140.14 130.827 139.774C130.46 137.759 129.361 135.928 127.621 134.646C125.881 133.364 123.592 132.906 121.486 133.364C121.119 133.455 120.845 133.913 120.936 134.28C121.119 134.554 121.577 134.737 121.944 134.737Z" fill="white"/>
</g>
<path d="M110.771 141.423C110.771 141.423 103.72 131.624 96.6681 132.082C89.6166 132.54 88.5177 142.522 91.5397 147.1C93.8292 150.58 100.972 150.397 109.764 144.536C109.764 144.536 113.335 144.078 110.771 141.423Z" fill="#FFCC79"/>
<g opacity="0.18">
<path d="M100.423 133.73C98.3165 133.364 96.0271 133.73 94.2871 135.012C92.6387 136.203 91.4482 138.034 91.0819 140.141C90.9903 140.507 91.1734 140.965 91.6313 141.056C91.9976 141.148 92.4555 140.965 92.5471 140.507C92.8218 138.858 93.646 137.302 95.0197 136.294C96.3934 135.287 98.3165 134.829 99.9649 135.104C100.331 135.195 100.789 135.012 100.881 134.554C100.972 134.28 100.789 133.822 100.423 133.73Z" fill="white"/>
</g>
<path d="M112.145 141.697L120.478 137.851" stroke="#CE6B19" stroke-miterlimit="10" stroke-linecap="round"/>
<path d="M112.236 143.071L120.57 142.705" stroke="#CE6B19" stroke-miterlimit="10" stroke-linecap="round"/>
<path d="M110.313 141.789C110.313 141.789 101.979 139.683 101.521 139.408" stroke="#CE6B19" stroke-miterlimit="10" stroke-linecap="round"/>
<path d="M110.038 143.346C110.038 143.346 103.262 143.62 101.979 143.712" stroke="#CE6B19" stroke-miterlimit="10" stroke-linecap="round"/>
<path d="M114.068 142.522C114.159 144.17 112.877 145.544 111.229 145.544C109.581 145.635 108.207 144.353 108.207 142.705C108.115 141.056 109.397 139.683 111.046 139.683C112.694 139.591 114.068 140.873 114.068 142.522Z" fill="#E9A427"/>
<g filter="url(#filter0_f_2011_77086)">
<ellipse cx="109.5" cy="124" rx="55.5" ry="70" fill="#FBDD36" fill-opacity="0.3"/>
</g>
<defs>
<filter id="filter0_f_2011_77086" x="0" y="0" width="219" height="248" filterUnits="userSpaceOnUse" color-interpolation-filters="sRGB">
<feFlood flood-opacity="0" result="BackgroundImageFix"/>
<feBlend mode="normal" in="SourceGraphic" in2="BackgroundImageFix" result="shape"/>
<feGaussianBlur stdDeviation="27" result="effect1_foregroundBlur_2011_77086"/>
</filter>
</defs>
</svg>
