<svg width="120" height="120" viewBox="0 0 120 120" fill="none" xmlns="http://www.w3.org/2000/svg">
<mask id="mask0_2011_75781" style="mask-type:luminance" maskUnits="userSpaceOnUse" x="27" y="12" width="60" height="89">
<path d="M86.9596 69.8559C86.9596 89.1091 72.3898 100.216 56.6176 100.216C40.8448 100.216 27.2256 88.1214 27.2256 68.8682C27.2256 41.2858 40.8448 12.3427 56.6176 12.3427C72.3898 12.3433 86.9596 42.7617 86.9596 69.8559Z" fill="white"/>
</mask>
<g mask="url(#mask0_2011_75781)">
<path d="M94.0961 1.83209L16.3887 1.83209V110.464L94.0961 110.464V1.83209Z" fill="#FFB41B"/>
</g>
<mask id="mask1_2011_75781" style="mask-type:luminance" maskUnits="userSpaceOnUse" x="27" y="12" width="60" height="89">
<path d="M86.9596 69.8559C86.9596 89.1091 72.3898 100.216 56.6176 100.216C40.8448 100.216 27.2256 88.1214 27.2256 68.8682C27.2256 41.2858 40.8448 12.3427 56.6176 12.3427C72.3898 12.3433 86.9596 42.7617 86.9596 69.8559Z" fill="white"/>
</mask>
<g mask="url(#mask1_2011_75781)">
<path d="M84.3113 47.1052C83.5623 41.5696 82.1538 38.1317 81.042 36.1625C80.4582 39.5689 78.7773 42.9556 78.684 43.141L77.821 44.863L76.8316 43.2107C75.8091 41.5033 72.7281 37.2081 71.1606 35.0434L65.4962 44.4624L57.234 34.7226L48.8448 44.0253L48.0846 43.5174C46.7913 42.6533 43.8187 37.6081 42.2495 34.8394C40.9595 36.3951 38.6589 39.6947 36.6941 42.7241L35.9829 43.8214L35.0592 42.8955C33.6979 41.5319 32.8192 38.1873 32.3428 35.7996C29.9393 39.9004 28.2684 46.1479 28.2493 46.222L26.2048 45.6816C26.3048 45.3023 28.6999 36.3446 32.163 32.3949L33.6996 30.642L34.0064 32.9528C34.28 35.017 34.9559 38.3081 35.8154 40.2088C37.5655 37.5671 40.6657 33.0438 41.9023 32.2213L42.8568 31.5859L43.4125 32.5887C45.2244 35.8586 47.47 39.5571 48.6476 41.0869L57.284 31.5106L65.2035 40.847L70.9915 31.2218L71.9308 32.5056C72.1067 32.7466 75.5406 37.4418 77.5643 40.4493C78.3317 38.5537 79.3582 35.4979 79.0818 33.2697L78.7402 30.5139L80.8279 32.3443C80.9953 32.4915 84.9512 36.0681 86.4063 46.8215L84.3113 47.1052Z" fill="#FF5D7C"/>
</g>
<mask id="mask2_2011_75781" style="mask-type:luminance" maskUnits="userSpaceOnUse" x="27" y="12" width="60" height="89">
<path d="M86.9596 69.8559C86.9596 89.1091 72.3898 100.216 56.6176 100.216C40.8448 100.216 27.2256 88.1214 27.2256 68.8682C27.2256 41.2858 40.8448 12.3427 56.6176 12.3427C72.3898 12.3433 86.9596 42.7617 86.9596 69.8559Z" fill="white"/>
</mask>
<g mask="url(#mask2_2011_75781)">
<path d="M85.2411 60.9245C84.5164 55.5681 83.1635 52.1331 82.1567 50.1942C81.8303 49.5655 81.5179 49.0498 81.2409 48.6357C80.9078 52.3628 78.8301 56.549 78.7262 56.7563L78.1868 57.8322L77.5688 56.7996C76.4317 54.9 72.827 49.902 71.4039 47.9418L65.6098 57.5766L57.2621 47.7362L48.6403 57.2968L48.1656 56.9794C46.8285 56.0861 43.4064 50.1549 42.0653 47.771C40.6708 49.3037 37.7454 53.5758 35.9846 56.2911L35.5397 56.9771L34.9621 56.3984C33.4356 54.8692 32.5198 50.6762 32.1131 48.3435C29.3242 52.5061 27.351 59.8919 27.3291 59.9739L26.0515 59.6363C26.1526 59.2537 28.5668 50.2228 32.0299 46.2721L32.9906 45.1765L33.1822 46.621C33.4109 48.3492 34.2092 52.7528 35.393 54.7809C36.8274 52.6033 40.5697 47.0311 41.8675 46.1676L42.4642 45.7704L42.8114 46.3968C44.4469 49.3475 47.2161 54.0236 48.492 55.4877L57.293 45.7282L65.4266 55.3169L71.2977 45.5535L71.8848 46.3558C72.077 46.6187 76.0952 52.1128 78.0419 55.0765C78.8307 53.2511 80.2476 49.5059 79.9167 46.8367L79.7032 45.1147L81.0083 46.2586C81.1741 46.4041 85.0906 49.947 86.5519 60.7459L85.2411 60.9245Z" fill="white"/>
</g>
<mask id="mask3_2011_75781" style="mask-type:luminance" maskUnits="userSpaceOnUse" x="27" y="12" width="60" height="89">
<path d="M86.9596 69.8559C86.9596 89.1091 72.3898 100.216 56.6176 100.216C40.8448 100.216 27.2256 88.1214 27.2256 68.8682C27.2256 41.2858 40.8448 12.3427 56.6176 12.3427C72.3898 12.3433 86.9596 42.7617 86.9596 69.8559Z" fill="white"/>
</mask>
<g mask="url(#mask3_2011_75781)">
<path d="M78.7633 28.5297C78.1874 24.2744 77.1126 21.5456 76.3126 20.0051C76.053 19.5062 75.8052 19.0961 75.585 18.7669C75.3204 21.7282 73.6697 25.0537 73.5871 25.2183L73.1585 26.0734L72.6674 25.2531C71.764 23.7441 68.9004 19.7731 67.77 18.2163L63.1669 25.8712L56.5357 18.0539L49.6865 25.6487L49.3089 25.3964C48.2465 24.6868 45.5284 19.9748 44.4626 18.0809C43.3547 19.2978 41.0309 22.6923 39.632 24.8498L39.2786 25.3942L38.8202 24.9346C37.6077 23.7194 36.8802 20.3888 36.5571 18.5354C34.3413 21.8428 32.7738 27.71 32.7569 27.7752L31.7417 27.5066C31.822 27.2027 33.7401 20.0282 36.4914 16.8898L37.2543 16.0195L37.4066 17.1673C37.5886 18.5404 38.2224 22.0384 39.1629 23.6497C40.3023 21.9198 43.2754 17.4926 44.3064 16.8072L44.78 16.492L45.0559 16.9898C46.3554 19.3337 48.5555 23.0485 49.5685 24.2121L56.5604 16.4589L63.022 24.0761L67.6863 16.3195L68.1526 16.9572C68.3054 17.1662 71.4977 21.531 73.0444 23.8851C73.6709 22.4345 74.7968 19.4596 74.5333 17.3392L74.3636 15.9712L75.4002 16.8802C75.5322 16.996 78.643 19.8102 79.8043 28.3893L78.7633 28.5297Z" fill="white"/>
</g>
<mask id="mask4_2011_75781" style="mask-type:luminance" maskUnits="userSpaceOnUse" x="27" y="12" width="60" height="89">
<path d="M86.9596 69.8559C86.9596 89.1091 72.3898 100.216 56.6176 100.216C40.8448 100.216 27.2256 88.1214 27.2256 68.8682C27.2256 41.2858 40.8448 12.3427 56.6176 12.3427C72.3898 12.3433 86.9596 42.7617 86.9596 69.8559Z" fill="white"/>
</mask>
<g mask="url(#mask4_2011_75781)">
<path d="M89.098 97.3831C88.2665 91.239 86.7153 87.2989 85.5602 85.0757C85.1854 84.3543 84.8275 83.7633 84.5095 83.288C84.1269 87.5635 81.7442 92.3643 81.6251 92.6025L81.0066 93.8369L80.2975 92.652C78.9935 90.4732 74.859 84.7409 73.2264 82.4925L66.5805 93.5442L57.0064 82.257L47.1171 93.2228L46.5722 92.8587C45.0384 91.8345 41.1135 85.0314 39.5746 82.2969C37.9751 84.0543 34.6199 88.9546 32.6001 92.0694L32.0899 92.8559L31.4275 92.1924C29.6769 90.4384 28.6263 85.6297 28.16 82.9537C24.9626 87.727 22.6973 96.1999 22.6726 96.2938L21.2068 95.9067C21.3231 95.4679 24.0918 85.1089 28.0645 80.5777L29.1662 79.3215L29.3859 80.9783C29.6482 82.9605 30.564 88.0107 31.9214 90.3372C33.5664 87.8394 37.8588 81.448 39.3476 80.4575L40.0319 80.0024L40.4303 80.721C42.3062 84.1055 45.4828 89.4687 46.9458 91.1485L57.0407 79.9547L66.3698 90.9519L73.1039 79.7541L73.7775 80.6744C73.9983 80.9761 78.607 87.2781 80.8397 90.6766C81.7442 88.5827 83.3696 84.2875 82.9898 81.2255L82.7449 79.2502L84.2416 80.5626C84.432 80.7294 88.9233 84.7931 90.5998 97.1798L89.098 97.3831Z" fill="white"/>
</g>
<mask id="mask5_2011_75781" style="mask-type:luminance" maskUnits="userSpaceOnUse" x="27" y="12" width="60" height="89">
<path d="M86.9596 69.8559C86.9596 89.1091 72.3898 100.216 56.6176 100.216C40.8448 100.216 27.2256 88.1214 27.2256 68.8682C27.2256 41.2858 40.8448 12.3427 56.6176 12.3427C72.3898 12.3433 86.9596 42.7617 86.9596 69.8559Z" fill="white"/>
</mask>
<g mask="url(#mask5_2011_75781)">
<path d="M87.4802 83.015C86.7015 77.2635 85.257 73.5729 84.1817 71.4902C84.0086 71.1548 83.8395 70.8491 83.6766 70.5722C83.0844 74.4291 81.1282 78.3715 81.0225 78.5822L80.1596 80.3041L79.1702 78.6518C78.0117 76.7163 74.4767 71.7953 72.7732 69.4446L66.4841 79.9024L57.3398 69.1227L48.0141 79.4637L47.2539 78.9558C45.8162 77.995 42.4503 72.2571 40.7378 69.2283C39.3159 70.9132 36.6916 74.6685 34.4606 78.1091L33.7493 79.2063L32.8251 78.2804C31.2778 76.7298 30.2957 72.8217 29.7856 70.1755C27.0253 74.7347 25.1011 81.9379 25.0792 82.0222L23.0347 81.4823C23.1453 81.0626 25.7944 71.1537 29.6176 66.7933L31.1542 65.0404L31.4604 67.3512C31.7739 69.7131 32.5627 73.5206 33.5656 75.6174C35.3741 72.8852 39.0136 67.54 40.3957 66.6208L41.3502 65.986L41.9059 66.9883C43.9622 70.698 46.5146 74.8926 47.8073 76.5354L57.3882 65.9113L66.1903 76.2882L72.603 65.6247L73.5424 66.9085C73.7413 67.1804 77.6853 72.5734 79.9084 75.8932C80.7703 73.7999 82.0001 70.2485 81.681 67.6726L81.3394 64.9168L83.4272 66.7473C83.6114 66.9091 87.9673 70.848 89.5752 82.7318L87.4802 83.015Z" fill="#00DDDE"/>
</g>
<mask id="mask6_2011_75781" style="mask-type:luminance" maskUnits="userSpaceOnUse" x="31" y="13" width="61" height="89">
<path d="M91.2637 65.9344C94.2672 84.9528 81.6078 98.1975 66.0281 100.658C50.4478 103.119 35.1078 93.2957 32.1043 74.2773C27.8015 47.0315 36.7395 16.3169 52.3198 13.8563C67.8996 11.3964 87.037 39.1709 91.2637 65.9344Z" fill="white"/>
</mask>
<g mask="url(#mask6_2011_75781)">
<path opacity="0.37" d="M66.6029 56.3519C71.7218 55.5435 74.7547 47.8162 73.377 39.0925C71.9993 30.3688 66.7327 23.9522 61.6138 24.7606C56.4949 25.569 53.4621 33.2963 54.8398 42.02C56.2175 50.7437 61.484 57.1603 66.6029 56.3519Z" fill="white"/>
</g>
<mask id="mask7_2011_75781" style="mask-type:luminance" maskUnits="userSpaceOnUse" x="27" y="12" width="60" height="89">
<path d="M86.9596 69.8559C86.9596 89.1091 72.3898 100.216 56.6176 100.216C40.8448 100.216 27.2256 88.1214 27.2256 68.8682C27.2256 41.2858 40.8448 12.3427 56.6176 12.3427C72.3898 12.3433 86.9596 42.7617 86.9596 69.8559Z" fill="white"/>
</mask>
<g mask="url(#mask7_2011_75781)">
<path opacity="0.03" d="M105.086 67.0913C107.754 82.2089 91.999 94.8102 75.0329 95.3832C73.5042 96.1838 71.8811 96.7361 70.172 97.0058C56.0746 99.2317 41.5716 81.56 37.7787 57.5352C34.7466 38.3285 39.4771 20.8776 48.6995 13.5126C52.866 3.19069 56.8443 -3.78271 56.8443 -3.78271L38.0838 6.93751L26.1719 28.9741L23.7898 67.6868V92.9988L41.0615 104.017L78.2854 105.506L97.6414 101.932L113.127 84.9585L105.086 67.0913Z" fill="#242E36"/>
</g>
<mask id="mask8_2011_75781" style="mask-type:luminance" maskUnits="userSpaceOnUse" x="27" y="12" width="60" height="89">
<path d="M86.9596 69.8559C86.9596 89.1091 72.3898 100.216 56.6176 100.216C40.8448 100.216 27.2256 88.1214 27.2256 68.8682C27.2256 41.2858 40.8448 12.3427 56.6176 12.3427C72.3898 12.3433 86.9596 42.7617 86.9596 69.8559Z" fill="white"/>
</mask>
<g mask="url(#mask8_2011_75781)">
<path opacity="0.27" d="M88.3001 48.9464C84.5073 24.9215 70.0042 7.24977 55.9069 9.47573C53.0797 9.92183 50.4841 11.1365 48.1705 12.9843C38.9487 20.3493 34.2175 37.8003 37.2497 57.0069C41.0432 81.0318 55.5462 98.7035 69.643 96.4775C71.3515 96.2079 72.9752 95.6556 74.5039 94.855C85.586 89.0502 91.6335 70.0593 88.3001 48.9464Z" fill="white"/>
</g>
</svg>
