<svg width="207" height="160" viewBox="0 0 207 160" fill="none" xmlns="http://www.w3.org/2000/svg">
<g filter="url(#filter0_f_2011_76522)">
<ellipse cx="109.5" cy="80" rx="55.5" ry="70" fill="#FBDD36" fill-opacity="0.3"/>
</g>
<mask id="mask0_2011_76522" style="mask-type:luminance" maskUnits="userSpaceOnUse" x="67" y="23" width="77" height="113">
<path d="M143.473 96.5604C143.473 121.109 124.896 135.272 104.785 135.272C84.6743 135.272 67.3091 119.85 67.3091 95.301C67.3091 60.1321 84.6743 23.2281 104.785 23.2281C124.896 23.2289 143.473 62.014 143.473 96.5604Z" fill="white"/>
</mask>
<g mask="url(#mask0_2011_76522)">
<path d="M152.573 9.82666L53.4917 9.82666V148.338L152.573 148.338V9.82666Z" fill="#FFB41B"/>
</g>
<mask id="mask1_2011_76522" style="mask-type:luminance" maskUnits="userSpaceOnUse" x="67" y="23" width="77" height="113">
<path d="M143.473 96.5604C143.473 121.109 124.896 135.272 104.785 135.272C84.6743 135.272 67.3091 119.85 67.3091 95.301C67.3091 60.1321 84.6743 23.2281 104.785 23.2281C124.896 23.2289 143.473 62.014 143.473 96.5604Z" fill="white"/>
</mask>
<g mask="url(#mask1_2011_76522)">
<path d="M140.096 67.5523C139.141 60.494 137.345 56.1106 135.928 53.5997C135.183 57.943 133.04 62.2612 132.921 62.4976L131.821 64.6933L130.559 62.5865C129.256 60.4094 125.327 54.9329 123.328 52.1727L116.106 64.1825L105.571 51.7637L94.8747 63.6252L93.9054 62.9776C92.2564 61.8758 88.4661 55.4429 86.4653 51.9127C84.8206 53.8963 81.8871 58.1035 79.382 61.9661L78.4751 63.3651L77.2974 62.1846C75.5616 60.446 74.4413 56.1815 73.8338 53.137C70.7692 58.3657 68.6388 66.3316 68.6144 66.4261L66.0076 65.737C66.1351 65.2534 69.1889 53.8318 73.6046 48.7958L75.5638 46.5608L75.9549 49.5072C76.3038 52.1391 77.1656 56.3355 78.2616 58.7589C80.4931 55.3906 84.4459 49.6232 86.0226 48.5745L87.2397 47.7643L87.9482 49.043C90.2585 53.2122 93.1217 57.928 94.6232 59.8786L105.635 47.6683L115.733 59.5727L123.113 47.3001L124.311 48.9369C124.535 49.2443 128.913 55.2309 131.493 59.0655C132.472 56.6486 133.781 52.7523 133.428 49.9112L132.993 46.3975L135.655 48.7314C135.868 48.919 140.912 53.4794 142.768 67.1905L140.096 67.5523Z" fill="#FF5D7C"/>
</g>
<mask id="mask2_2011_76522" style="mask-type:luminance" maskUnits="userSpaceOnUse" x="67" y="23" width="77" height="113">
<path d="M143.473 96.5604C143.473 121.109 124.896 135.272 104.785 135.272C84.6743 135.272 67.3091 119.85 67.3091 95.301C67.3091 60.1321 84.6743 23.2281 104.785 23.2281C124.896 23.2289 143.473 62.014 143.473 96.5604Z" fill="white"/>
</mask>
<g mask="url(#mask2_2011_76522)">
<path d="M141.282 85.1726C140.358 78.3428 138.633 73.963 137.349 71.4908C136.933 70.6892 136.535 70.0316 136.182 69.5037C135.757 74.256 133.108 79.5936 132.975 79.8579L132.287 81.2297L131.5 79.9131C130.05 77.4911 125.453 71.1183 123.639 68.619L116.251 80.9038L105.607 68.3568L94.6142 80.547L94.0089 80.1423C92.3039 79.0033 87.9406 71.4407 86.2306 68.4012C84.4526 70.3554 80.7226 75.8026 78.4775 79.2648L77.9101 80.1394L77.1737 79.4016C75.2274 77.4517 74.0597 72.1055 73.5411 69.1312C69.985 74.4387 67.4692 83.8559 67.4413 83.9605L65.8123 83.53C65.9412 83.0421 69.0194 71.5274 73.435 66.4899L74.66 65.093L74.9043 66.9348C75.1958 69.1383 76.2138 74.7531 77.7232 77.3392C79.552 74.5626 84.3237 67.4577 85.9785 66.3567L86.7392 65.8502L87.182 66.649C89.2673 70.4113 92.7982 76.3735 94.4251 78.2404L105.647 65.7965L116.018 78.0226L123.504 65.5737L124.252 66.5967C124.497 66.9319 129.62 73.9372 132.103 77.716C133.108 75.3886 134.915 70.6133 134.493 67.2099L134.221 65.0143L135.885 66.4727C136.096 66.6583 141.09 71.1756 142.953 84.9448L141.282 85.1726Z" fill="white"/>
</g>
<mask id="mask3_2011_76522" style="mask-type:luminance" maskUnits="userSpaceOnUse" x="67" y="23" width="77" height="113">
<path d="M143.473 96.5604C143.473 121.109 124.896 135.272 104.785 135.272C84.6743 135.272 67.3091 119.85 67.3091 95.301C67.3091 60.1321 84.6743 23.2281 104.785 23.2281C124.896 23.2289 143.473 62.014 143.473 96.5604Z" fill="white"/>
</mask>
<g mask="url(#mask3_2011_76522)">
<path d="M133.022 43.8674C132.288 38.4417 130.918 34.9624 129.898 32.9981C129.567 32.362 129.251 31.8391 128.97 31.4193C128.632 35.1952 126.528 39.4353 126.422 39.6452L125.876 40.7355L125.25 39.6896C124.098 37.7655 120.447 32.7023 119.005 30.7172L113.136 40.4776L104.681 30.5102L95.9479 40.194L95.4665 39.8723C94.1119 38.9676 90.6461 32.9595 89.2872 30.5446C87.8745 32.0962 84.9117 36.4245 83.1279 39.1753L82.6773 39.8695L82.0928 39.2835C80.5469 37.734 79.6192 33.4874 79.2073 31.1241C76.382 35.3413 74.3833 42.8223 74.3618 42.9054L73.0674 42.563C73.1698 42.1754 75.6155 33.0275 79.1235 29.0259L80.0963 27.9163L80.2904 29.3798C80.5225 31.1306 81.3306 35.5906 82.5298 37.6451C83.9825 35.4395 87.7735 29.7946 89.088 28.9206L89.6919 28.5187L90.0436 29.1534C91.7006 32.1421 94.5059 36.8786 95.7974 38.3622L104.713 28.4765L112.951 38.1889L118.899 28.2988L119.493 29.1119C119.688 29.3784 123.758 34.9438 125.73 37.9453C126.529 36.0957 127.965 32.3025 127.629 29.599L127.413 27.8547L128.734 29.0138C128.903 29.1613 132.869 32.7496 134.35 43.6884L133.022 43.8674Z" fill="white"/>
</g>
<mask id="mask4_2011_76522" style="mask-type:luminance" maskUnits="userSpaceOnUse" x="67" y="23" width="77" height="113">
<path d="M143.473 96.5604C143.473 121.109 124.896 135.272 104.785 135.272C84.6743 135.272 67.3091 119.85 67.3091 95.301C67.3091 60.1321 84.6743 23.2281 104.785 23.2281C124.896 23.2289 143.473 62.014 143.473 96.5604Z" fill="white"/>
</mask>
<g mask="url(#mask4_2011_76522)">
<path d="M146.2 131.659C145.139 123.825 143.161 118.801 141.689 115.967C141.211 115.047 140.755 114.293 140.349 113.687C139.861 119.139 136.823 125.26 136.671 125.564L135.883 127.138L134.979 125.627C133.316 122.849 128.044 115.54 125.962 112.673L117.489 126.764L105.281 112.373L92.6718 126.355L91.9769 125.89C90.0213 124.584 85.0168 115.91 83.0547 112.424C81.0152 114.664 76.7371 120.912 74.1618 124.884L73.5114 125.887L72.6668 125.041C70.4346 122.804 69.095 116.673 68.5004 113.261C64.4236 119.347 61.5353 130.151 61.5037 130.27L59.6348 129.777C59.7831 129.217 63.3133 116.009 68.3786 110.231L69.7834 108.63L70.0635 110.742C70.3981 113.27 71.5657 119.709 73.2964 122.675C75.3939 119.49 80.8669 111.341 82.7653 110.078L83.6378 109.498L84.1457 110.414C86.5376 114.73 90.5879 121.568 92.4533 123.71L105.325 109.437L117.22 123.459L125.806 109.181L126.665 110.355C126.947 110.739 132.823 118.775 135.67 123.108C136.823 120.438 138.896 114.962 138.411 111.057L138.099 108.539L140.007 110.212C140.25 110.425 145.977 115.606 148.114 131.4L146.2 131.659Z" fill="white"/>
</g>
<mask id="mask5_2011_76522" style="mask-type:luminance" maskUnits="userSpaceOnUse" x="67" y="23" width="77" height="113">
<path d="M143.473 96.5604C143.473 121.109 124.896 135.272 104.785 135.272C84.6743 135.272 67.3091 119.85 67.3091 95.301C67.3091 60.1321 84.6743 23.2281 104.785 23.2281C124.896 23.2289 143.473 62.014 143.473 96.5604Z" fill="white"/>
</mask>
<g mask="url(#mask5_2011_76522)">
<path d="M144.137 113.339C143.144 106.006 141.302 101.3 139.931 98.6444C139.71 98.2167 139.495 97.827 139.287 97.4739C138.532 102.392 136.038 107.418 135.903 107.687L134.803 109.883L133.541 107.776C132.064 105.308 127.557 99.0334 125.385 96.0362L117.366 109.37L105.706 95.6257L93.8154 108.811L92.8461 108.163C91.013 106.938 86.7213 99.6222 84.5378 95.7603C82.7247 97.9087 79.3786 102.697 76.5339 107.084L75.627 108.483L74.4486 107.302C72.4757 105.325 71.2236 100.342 70.5731 96.9681C67.0536 102.781 64.6001 111.966 64.5722 112.073L61.9653 111.385C62.1065 110.85 65.4841 98.2153 70.3589 92.6557L72.3181 90.4206L72.7086 93.367C73.1083 96.3786 74.1141 101.233 75.3928 103.907C77.6987 100.423 82.3393 93.6077 84.1015 92.4357L85.3186 91.6262L86.0271 92.9042C88.649 97.6343 91.9034 102.983 93.5517 105.077L105.768 91.531L116.991 104.762L125.168 91.1656L126.365 92.8025C126.619 93.1492 131.648 100.026 134.482 104.259C135.581 101.589 137.149 97.0612 136.742 93.7767L136.307 90.263L138.969 92.5969C139.204 92.8032 144.758 97.8256 146.808 112.978L144.137 113.339Z" fill="#00DDDE"/>
</g>
<mask id="mask6_2011_76522" style="mask-type:luminance" maskUnits="userSpaceOnUse" x="72" y="24" width="78" height="113">
<path d="M148.961 91.5604C152.791 115.81 136.649 132.698 116.784 135.835C96.9186 138.972 77.3594 126.447 73.5297 102.198C68.0434 67.4581 79.4398 28.2954 99.3055 25.1581C119.171 22.0216 143.572 57.4355 148.961 91.5604Z" fill="white"/>
</mask>
<g mask="url(#mask6_2011_76522)">
<path opacity="0.37" d="M117.517 79.3423C124.044 78.3116 127.911 68.4589 126.154 57.3357C124.398 46.2125 117.683 38.031 111.156 39.0618C104.629 40.0926 100.762 49.9453 102.519 61.0684C104.275 72.1916 110.99 80.3731 117.517 79.3423Z" fill="white"/>
</g>
<mask id="mask7_2011_76522" style="mask-type:luminance" maskUnits="userSpaceOnUse" x="67" y="23" width="77" height="113">
<path d="M143.473 96.5604C143.473 121.109 124.896 135.272 104.785 135.272C84.6743 135.272 67.3091 119.85 67.3091 95.301C67.3091 60.1321 84.6743 23.2281 104.785 23.2281C124.896 23.2289 143.473 62.014 143.473 96.5604Z" fill="white"/>
</mask>
<g mask="url(#mask7_2011_76522)">
<path opacity="0.03" d="M166.586 93.0356C169.988 112.311 149.899 128.379 128.266 129.109C126.317 130.13 124.247 130.834 122.068 131.178C104.093 134.016 85.6012 111.484 80.7651 80.851C76.8989 56.3616 82.9306 34.1107 94.6897 24.72C100.002 11.559 105.075 2.66757 105.075 2.66757L81.1541 16.3364L65.9658 44.4342L62.9285 93.7949V126.069L84.9508 140.118L132.413 142.016L157.093 137.46L176.837 115.817L166.586 93.0356Z" fill="#242E36"/>
</g>
<mask id="mask8_2011_76522" style="mask-type:luminance" maskUnits="userSpaceOnUse" x="67" y="23" width="77" height="113">
<path d="M143.473 96.5604C143.473 121.109 124.896 135.272 104.785 135.272C84.6743 135.272 67.3091 119.85 67.3091 95.301C67.3091 60.1321 84.6743 23.2281 104.785 23.2281C124.896 23.2289 143.473 62.014 143.473 96.5604Z" fill="white"/>
</mask>
<g mask="url(#mask8_2011_76522)">
<path opacity="0.27" d="M145.182 69.8998C140.346 39.2668 121.854 16.7345 103.879 19.5727C100.275 20.1415 96.9651 21.6903 94.0151 24.0464C82.2568 33.4371 76.2243 55.6879 80.0905 80.1774C84.9274 110.81 103.419 133.343 121.394 130.504C123.572 130.161 125.642 129.456 127.592 128.436C141.722 121.034 149.433 96.8198 145.182 69.8998Z" fill="white"/>
</g>
<defs>
<filter id="filter0_f_2011_76522" x="0" y="-44" width="219" height="248" filterUnits="userSpaceOnUse" color-interpolation-filters="sRGB">
<feFlood flood-opacity="0" result="BackgroundImageFix"/>
<feBlend mode="normal" in="SourceGraphic" in2="BackgroundImageFix" result="shape"/>
<feGaussianBlur stdDeviation="27" result="effect1_foregroundBlur_2011_76522"/>
</filter>
</defs>
</svg>
